<?xml version="1.0" encoding="UTF-8" standalone="no"?>
<!-- Created with Inkscape (http://www.inkscape.org/) -->

<svg
   width="146.99719mm"
   height="88.134552mm"
   viewBox="0 0 520.85619 312.28778"
   id="svg4623"
   version="1.1"
   inkscape:version="1.3.2 (091e20e, 2023-11-25, custom)"
   sodipodi:docname="eli5Process_mqueue.svg"
   inkscape:export-filename="eli5Process_mqueue.png"
   inkscape:export-xdpi="140"
   inkscape:export-ydpi="140"
   xmlns:inkscape="http://www.inkscape.org/namespaces/inkscape"
   xmlns:sodipodi="http://sodipodi.sourceforge.net/DTD/sodipodi-0.dtd"
   xmlns="http://www.w3.org/2000/svg"
   xmlns:svg="http://www.w3.org/2000/svg"
   xmlns:rdf="http://www.w3.org/1999/02/22-rdf-syntax-ns#"
   xmlns:cc="http://creativecommons.org/ns#"
   xmlns:dc="http://purl.org/dc/elements/1.1/">
  <defs
     id="defs4625" />
  <sodipodi:namedview
     id="base"
     pagecolor="#ffffff"
     bordercolor="#666666"
     borderopacity="1.0"
     inkscape:pageopacity="0.0"
     inkscape:pageshadow="2"
     inkscape:zoom="2.3464762"
     inkscape:cx="277.86346"
     inkscape:cy="154.48697"
     inkscape:document-units="px"
     inkscape:current-layer="layer1"
     showgrid="false"
     inkscape:window-width="2560"
     inkscape:window-height="1411"
     inkscape:window-x="-9"
     inkscape:window-y="-9"
     inkscape:window-maximized="1"
     inkscape:showpageshadow="0"
     inkscape:pagecheckerboard="1"
     inkscape:deskcolor="#d1d1d1" />
  <metadata
     id="metadata4628">
    <rdf:RDF>
      <cc:Work
         rdf:about="">
        <dc:format>image/svg+xml</dc:format>
        <dc:type
           rdf:resource="http://purl.org/dc/dcmitype/StillImage" />
      </cc:Work>
    </rdf:RDF>
  </metadata>
  <g
     inkscape:label="Layer 1"
     inkscape:groupmode="layer"
     id="layer1"
     transform="translate(0.6405136,-18.036177)">
    <rect
       style="color:#000000;overflow:visible;fill:#e6e6e6;fill-opacity:0.77696794;stroke-width:2.05596;stroke-linecap:round"
       id="rect1"
       width="520.8562"
       height="312.28778"
       x="-0.6405136"
       y="18.036177"
       ry="11.260288"
       rx="11.260288" />
    <g
       id="g4658"
       transform="translate(94.559164,-5.8201546)">
      <path
         inkscape:connector-curvature="0"
         id="path4655"
         d="m 59.1293,41.720327 c -6.065384,-0.01971 -12.123331,0.234139 -18.171875,0.824219 -10.060041,0.914549 -8.767072,15.141112 1.292969,14.226563 3.805769,-0.371866 7.615069,-0.597773 11.427734,-0.701172 -1.328569,0.181976 -2.703222,0.423349 -3.83789,0.960937 -4.985763,2.36218 -7.196119,7.09606 -5.423828,12.386719 0.864633,2.16515 2.096757,4.214793 2.185547,6.595703 0.362902,4.924504 -0.410481,9.883292 -0.283203,14.816407 0.09038,8.290812 1.254997,13.751427 10.710937,14.748037 3.316638,0.0896 6.630842,0.27317 9.923828,0.69727 4.362697,0.54082 8.719061,1.01946 13.107422,1.29492 4.803529,0.59074 9.568147,1.44706 14.375,2.01172 5.505875,0.88432 11.051309,1.43191 16.613289,1.83789 7.8232,0.24441 15.63712,0.65763 23.44921,1.13867 8.90469,0.35865 17.82568,0.22034 26.73438,0.0547 6.24159,-0.31051 13.69005,-0.352 17.00781,-6.79297 0.59769,-1.16033 0.61573,-2.53831 0.92383,-3.80664 -0.14941,-3.921755 -1.09751,-7.723495 -1.29102,-11.642572 -0.4364,-5.164227 -1.24083,-10.283859 -1.60351,-15.453125 -0.4682,-5.061744 -1.19775,-10.098813 -2.05273,-15.107422 -1.45145,-5.086385 -3.77398,-9.569193 -8.97071,-11.666015 -3.65928,-1.081841 -7.33983,-1.371119 -11.15039,-1.166016 -3.29729,0.004 -6.5953,0.01278 -9.89258,-0.002 -3.63852,-0.02824 -7.27821,-0.09714 -10.9082,-0.369141 -6.30016,-0.473111 -12.57398,-1.289494 -18.89258,-1.486328 -8.45766,-0.451822 -16.882795,-1.278627 -25.33008,-1.867187 -7.951821,-0.625032 -15.894836,-1.273513 -23.875,-1.423828 -2.023236,-0.06509 -4.046565,-0.102804 -6.06836,-0.109376 z m 7.359375,14.445313 c 7.170961,0.196508 14.314927,0.767448 21.464844,1.330078 8.565385,0.601118 17.107501,1.429425 25.683601,1.890625 2.903,0.09391 5.79611,0.321987 8.6875,0.582031 -4.49553,-0.223565 -8.99134,-0.330439 -13.49414,-0.501953 C 103.59993,59.12097 98.394816,58.379498 93.148832,58.345327 86.938674,58.205372 80.723307,57.983204 74.551175,57.235953 71.87187,56.889812 69.182937,56.482181 66.488675,56.16564 Z m 91.888675,5.013672 c 0.4543,0.0065 0.89491,0.06172 1.32422,0.15625 0.01,0.267676 0.2851,0.462466 0.39063,0.710937 0.0844,0.198782 0.3075,1.38232 0.3125,1.40625 0.2967,2.161369 0.6156,4.318061 0.9082,6.478516 -0.20808,-0.512233 -0.42621,-1.020651 -0.66602,-1.521484 -0.59959,-0.88539 -1.07417,-1.869934 -1.79883,-2.65625 -2.8039,-3.042476 -6.42733,-4.198055 -10.29687,-4.492188 1.85385,-4.4e-4 3.70671,0.0042 5.56055,0.002 1.32433,0.185318 2.83621,-0.104391 4.26562,-0.08398 z m 1.67969,0.232422 c 0.25668,0.07816 0.50769,0.178942 0.74805,0.310547 -0.0721,0.226021 -0.45131,-0.09655 -0.74805,-0.310547 z M 59.935941,69.97814 c 1.645435,0.03548 3.287756,0.164167 4.927734,0.353516 -0.736438,0.305505 -1.461275,0.656621 -2.167968,1.074218 -0.704995,0.489231 -1.377098,1.011399 -2.033203,1.548829 -0.16262,-1.014943 -0.413185,-2.003752 -0.726563,-2.976563 z m 3.945313,12.566406 c 0.387286,-0.03735 0.732372,0.02621 1.054687,0.136719 -0.352185,-0.03984 -0.706191,-0.07325 -1.054687,-0.136719 z m 14.52539,0.128907 c 2.066683,0.01994 4.125261,0.172489 6.179688,0.392578 -2.601888,-0.10523 -5.203438,-0.196083 -7.806641,-0.265625 -0.264278,-0.03671 -0.532661,-0.0498 -0.798828,-0.07422 0.813389,-0.01942 1.625331,-0.03269 2.425781,-0.05273 z m 73.271486,7.207031 c 0.0533,0.188858 0.11561,0.376067 0.1543,0.568359 0.0115,0.05722 -0.0485,0.221563 -0.0586,0.164063 -0.0518,-0.29619 -0.0797,-0.525234 -0.0957,-0.732422 z m 12.22852,5.414061 c 0.18379,0.94501 0.40955,1.8942 0.60742,2.83594 -1.16353,0.08997 -1.581,0.10563 -3.96094,0.21289 -0.24603,0.0037 -0.49223,0.008 -0.73828,0.01172 1.23329,-0.59544 2.34691,-1.43405 3.53125,-2.12891 0.17647,-0.31575 0.36789,-0.62324 0.56055,-0.93164 z m 0.99023,5.433595 c 0.0304,0.49519 0.0361,0.98491 -0.0156,1.46484 -0.29275,-0.35085 -0.2091,-0.89077 0.0156,-1.46484 z"
         style="opacity:0.9996;fill:#ffeeaa;stroke:none;stroke-width:1;stroke-miterlimit:4;stroke-dasharray:none;stroke-opacity:1" />
      <path
         inkscape:connector-curvature="0"
         d="m 38.567011,43.88094 c 14.860161,0.524833 29.737007,0.479526 44.60486,0.543757 19.311449,0.06743 38.623029,0.08032 57.934579,0.08508 8.58393,-0.09784 17.16245,0.2571 25.74035,0.515409 3.35953,0.279766 6.80646,-0.210005 10.11149,0.547291 0.48256,0.313799 1.07762,0.500508 1.4477,0.941396 1.57379,1.874898 1.45742,4.799249 1.54599,7.057576 0.09,2.294693 0.0971,5.089298 0.11814,7.365314 -0.0813,7.867517 0.32227,15.723765 0.79382,23.573474 0.36616,4.341302 0.3111,8.707439 0.62057,13.050007 0.17265,2.855396 0.55546,5.684346 0.89366,8.522246 0.16397,2.18502 1.42995,5.98393 0.31957,7.98168 -0.39183,0.70497 -1.07457,1.20307 -1.61186,1.8046 -0.89307,0.28587 -1.75458,0.70153 -2.67921,0.85762 -1.86887,0.31549 -5.73968,0.0971 -7.47435,0.0169 -4.89003,-0.22596 -9.77679,-0.54822 -14.66603,-0.79455 -9.97505,-0.47882 -19.96168,-0.61292 -29.94642,-0.69842 -7.23694,-0.0488 -14.47409,-0.0444 -21.71115,-0.0405 -4.55795,0.12895 -9.104337,-0.18838 -13.652547,-0.42476 -3.463185,-0.18525 -6.931036,-0.24019 -10.398415,-0.27058 -3.017292,-0.0198 -6.034676,-0.0147 -9.052012,-0.0133 -2.85247,0.002 -5.70494,0.003 -8.557411,0.003 -3.093668,-0.03 -6.18987,0.0813 -9.279861,-0.0885 -2.142761,-0.17923 -4.278905,-0.42281 -6.425853,-0.54875 -1.681155,-0.045 -3.474493,-0.0442 -4.66932,-1.47741 -0.388628,-0.46616 -0.576215,-1.06833 -0.864322,-1.60249 -0.97759,-3.8401 -1.275993,-7.8139 -1.711339,-11.742624 -0.483097,-4.692425 -0.601534,-9.410189 -0.67751,-14.123363 -0.235829,-4.73883 -0.474256,-9.476818 -0.626904,-14.219223 -0.08505,-2.624243 -0.116027,-5.249672 -0.125843,-7.875127 -0.0032,-1.553782 1.6e-4,-3.107566 0.0019,-4.661347 0.0018,-1.629276 0.0019,-3.258553 0.0021,-4.88783 8.1e-5,-1.214323 5e-5,-0.612598 9.4e-5,-1.805179 1.1e-4,-3.030457 4.285824,-3.030302 4.285714,1.56e-4 v 0 c -4.3e-5,1.192782 -1.2e-5,0.590944 -9.4e-5,1.805513 -1.86e-4,1.630717 -3.19e-4,3.261434 -0.0021,4.89215 -0.0017,1.546852 -0.0051,3.093706 -0.0019,4.640558 0.0096,2.584837 0.03993,5.169652 0.123657,7.753298 0.153235,4.76538 0.396395,9.526106 0.628566,14.288104 0.07349,4.578611 0.185553,9.161798 0.652021,13.72053 0.388913,3.513574 0.718633,7.040014 1.385817,10.514434 -0.02187,0.082 -0.04373,0.16398 -0.0656,0.24597 -0.09468,0.002 -0.238004,-0.0774 -0.284037,0.005 -0.11726,0.2108 2.103955,0.25361 2.201505,0.25031 2.144192,0.12714 4.278466,0.36098 6.417856,0.54828 3.007086,0.17939 6.02356,0.0374 9.034644,0.0815 2.852066,-5.6e-4 5.704132,-0.002 8.556198,-0.003 3.030563,-0.001 6.061175,-0.006 9.091694,0.0135 3.52902,0.031 7.0585,0.0876 10.583246,0.2762 4.473407,0.23254 8.944706,0.54846 13.427766,0.41898 7.25007,-0.004 14.50023,-0.008 21.75018,0.0407 10.04442,0.0861 20.09073,0.22159 30.1254,0.70369 7.28414,0.36711 14.57082,0.97954 21.86595,0.90318 0.16683,0.17994 0.40825,0.61103 0.49221,-0.11905 0.20953,-1.82204 -0.65446,-4.03062 -0.71765,-5.86361 -0.34552,-2.90686 -0.73504,-5.80532 -0.91326,-8.729787 -0.29955,-4.357726 -0.26786,-8.735691 -0.62329,-13.091999 -0.47585,-7.922153 -0.88179,-15.850988 -0.80136,-23.791064 -0.0222,-2.42816 -0.0256,-4.745509 -0.11174,-7.167522 -0.0296,-0.83105 -0.0711,-1.661862 -0.13042,-2.491316 -0.0323,-0.45084 -0.17141,-0.897088 -0.14437,-1.348272 0.0109,-0.18241 0.41271,-0.222477 0.50802,-0.242025 -0.96453,-0.299248 -1.92212,-0.250412 -2.92845,-0.268202 -2.0869,-0.03689 -4.17353,-0.0881 -6.25983,-0.149854 -8.53526,-0.257058 -17.07113,-0.611174 -25.6124,-0.513468 -19.31736,-0.0048 -38.63477,-0.01766 -57.952034,-0.08512 -14.956687,-0.06463 -29.922726,-0.01667 -44.871425,-0.553209 -3.023746,-0.201583 -2.738665,-4.477805 0.285081,-4.276222 z"
         id="path4635"
         style="opacity:0.9996;fill:#1a1a1a;stroke:none;stroke-width:1;stroke-miterlimit:4;stroke-dasharray:none;stroke-opacity:1" />
      <path
         inkscape:connector-curvature="0"
         d="m 46.149248,47.130351 c 6.661137,2.318546 12.546446,6.314608 18.473822,10.056878 8.733805,5.722335 16.917775,12.222807 25.460338,18.219292 5.21074,3.7155 10.668262,7.057561 16.253292,10.169064 0.33502,0.166082 1.80435,0.932415 2.28324,1.045035 1.11009,0.261054 5.78558,-1.890018 6.56646,-2.202392 9.56785,-3.882249 18.61705,-8.872943 27.41193,-14.264317 6.15675,-3.988537 12.20131,-8.151195 18.26902,-12.27595 2.02977,-1.350511 4.03522,-2.727629 6.11569,-3.997759 1.05035,-0.560854 2.10946,-1.094022 3.16189,-1.649311 0.23345,-0.100868 0.46691,-0.201726 0.70036,-0.30259 2.97591,-1.245362 4.72808,2.984915 1.75218,4.230277 v 0 c -0.11303,0.04413 -0.22603,0.08825 -0.33904,0.13237 -0.97132,0.508819 -1.94766,0.998384 -2.91624,1.51022 -2.02015,1.221384 -3.94985,2.573149 -5.9211,3.872592 -6.12745,4.164715 -12.23009,8.369909 -18.45016,12.392907 -9.01745,5.521267 -18.29298,10.635776 -28.10196,14.610295 -3.12724,1.245774 -6.52961,3.087653 -9.98939,2.178855 -0.60601,-0.15918 -2.26124,-1.026779 -2.75412,-1.273119 C 98.40516,86.391177 92.811238,82.970928 87.472918,79.163117 78.992169,73.207721 70.861919,66.76045 62.198126,61.067432 56.544645,57.497421 50.942176,53.656655 44.591323,51.436728 41.561871,50.329431 43.119795,46.023053 46.149248,47.130351 Z"
         id="path4647"
         style="opacity:0.9996;fill:#1a1a1a;stroke:none;stroke-width:1;stroke-miterlimit:4;stroke-dasharray:none;stroke-opacity:1" />
      <path
         inkscape:connector-curvature="0"
         d="m 45.537614,105.94355 c 6.034842,-3.88052 12.104653,-7.724983 18.212272,-11.529994 6.448755,-3.900972 13.021017,-7.669416 19.890525,-11.066919 0.789617,-0.386705 1.579235,-0.77341 2.368852,-1.160116 2.967728,-1.453387 5.499807,1.953501 2.53208,3.406885 v 0 C 87.7575,85.977271 86.973657,86.361136 86.189814,86.745 79.468504,90.065644 73.04494,93.757898 66.734165,97.570006 60.593028,101.3958 54.492723,105.264 48.420631,109.16142 c -2.803077,1.65483 -5.686093,-1.56306 -2.883017,-3.21787 z"
         id="path4649"
         style="opacity:0.9996;fill:#1a1a1a;stroke:none;stroke-width:1;stroke-miterlimit:4;stroke-dasharray:none;stroke-opacity:1" />
      <path
         inkscape:connector-curvature="0"
         d="m 135.78218,77.348913 c 3.57509,3.699043 7.283,7.26581 11.16775,10.637766 3.96294,3.379224 7.96993,6.708872 12.09789,9.885197 3.31368,2.589794 6.95783,4.666894 10.67496,6.607054 1.43183,0.80619 2.95465,1.42381 4.46658,2.05792 2.79418,1.17315 1.13509,5.1247 -1.65908,3.95155 v 0 c -1.62151,-0.6815 -3.25223,-1.3509 -4.79084,-2.2103 -3.93838,-2.05635 -7.79378,-4.26854 -11.30583,-7.01016 -4.19389,-3.229611 -8.26863,-6.610188 -12.29465,-10.046167 -4.02834,-3.503645 -7.88446,-7.198742 -11.58211,-11.050697 -1.99557,-2.280652 1.22976,-5.102815 3.22533,-2.822163 z"
         id="path4651"
         style="opacity:0.9996;fill:#1a1a1a;stroke:none;stroke-width:1;stroke-miterlimit:4;stroke-dasharray:none;stroke-opacity:1" />
    </g>
    <g
       id="g4665"
       transform="translate(255.65178,28.273522)">
      <path
         style="opacity:0.9996;fill:#ffeeaa;stroke:none;stroke-width:1;stroke-miterlimit:4;stroke-dasharray:none;stroke-opacity:1"
         d="m 59.1293,41.720327 c -6.065384,-0.01971 -12.123331,0.234139 -18.171875,0.824219 -10.060041,0.914549 -8.767072,15.141112 1.292969,14.226563 3.805769,-0.371866 7.615069,-0.597773 11.427734,-0.701172 -1.328569,0.181976 -2.703222,0.423349 -3.83789,0.960937 -4.985763,2.36218 -7.196119,7.09606 -5.423828,12.386719 0.864633,2.16515 2.096757,4.214793 2.185547,6.595703 0.362902,4.924504 -0.410481,9.883292 -0.283203,14.816407 0.09038,8.290812 1.254997,13.751427 10.710937,14.748037 3.316638,0.0896 6.630842,0.27317 9.923828,0.69727 4.362697,0.54082 8.719061,1.01946 13.107422,1.29492 4.803529,0.59074 9.568147,1.44706 14.375,2.01172 5.505875,0.88432 11.051309,1.43191 16.613289,1.83789 7.8232,0.24441 15.63712,0.65763 23.44921,1.13867 8.90469,0.35865 17.82568,0.22034 26.73438,0.0547 6.24159,-0.31051 13.69005,-0.352 17.00781,-6.79297 0.59769,-1.16033 0.61573,-2.53831 0.92383,-3.80664 -0.14941,-3.921755 -1.09751,-7.723495 -1.29102,-11.642572 -0.4364,-5.164227 -1.24083,-10.283859 -1.60351,-15.453125 -0.4682,-5.061744 -1.19775,-10.098813 -2.05273,-15.107422 -1.45145,-5.086385 -3.77398,-9.569193 -8.97071,-11.666015 -3.65928,-1.081841 -7.33983,-1.371119 -11.15039,-1.166016 -3.29729,0.004 -6.5953,0.01278 -9.89258,-0.002 -3.63852,-0.02824 -7.27821,-0.09714 -10.9082,-0.369141 -6.30016,-0.473111 -12.57398,-1.289494 -18.89258,-1.486328 -8.45766,-0.451822 -16.882795,-1.278627 -25.33008,-1.867187 -7.951821,-0.625032 -15.894836,-1.273513 -23.875,-1.423828 -2.023236,-0.06509 -4.046565,-0.102804 -6.06836,-0.109376 z m 7.359375,14.445313 c 7.170961,0.196508 14.314927,0.767448 21.464844,1.330078 8.565385,0.601118 17.107501,1.429425 25.683601,1.890625 2.903,0.09391 5.79611,0.321987 8.6875,0.582031 -4.49553,-0.223565 -8.99134,-0.330439 -13.49414,-0.501953 C 103.59993,59.12097 98.394816,58.379498 93.148832,58.345327 86.938674,58.205372 80.723307,57.983204 74.551175,57.235953 71.87187,56.889812 69.182937,56.482181 66.488675,56.16564 Z m 91.888675,5.013672 c 0.4543,0.0065 0.89491,0.06172 1.32422,0.15625 0.01,0.267676 0.2851,0.462466 0.39063,0.710937 0.0844,0.198782 0.3075,1.38232 0.3125,1.40625 0.2967,2.161369 0.6156,4.318061 0.9082,6.478516 -0.20808,-0.512233 -0.42621,-1.020651 -0.66602,-1.521484 -0.59959,-0.88539 -1.07417,-1.869934 -1.79883,-2.65625 -2.8039,-3.042476 -6.42733,-4.198055 -10.29687,-4.492188 1.85385,-4.4e-4 3.70671,0.0042 5.56055,0.002 1.32433,0.185318 2.83621,-0.104391 4.26562,-0.08398 z m 1.67969,0.232422 c 0.25668,0.07816 0.50769,0.178942 0.74805,0.310547 -0.0721,0.226021 -0.45131,-0.09655 -0.74805,-0.310547 z M 59.935941,69.97814 c 1.645435,0.03548 3.287756,0.164167 4.927734,0.353516 -0.736438,0.305505 -1.461275,0.656621 -2.167968,1.074218 -0.704995,0.489231 -1.377098,1.011399 -2.033203,1.548829 -0.16262,-1.014943 -0.413185,-2.003752 -0.726563,-2.976563 z m 3.945313,12.566406 c 0.387286,-0.03735 0.732372,0.02621 1.054687,0.136719 -0.352185,-0.03984 -0.706191,-0.07325 -1.054687,-0.136719 z m 14.52539,0.128907 c 2.066683,0.01994 4.125261,0.172489 6.179688,0.392578 -2.601888,-0.10523 -5.203438,-0.196083 -7.806641,-0.265625 -0.264278,-0.03671 -0.532661,-0.0498 -0.798828,-0.07422 0.813389,-0.01942 1.625331,-0.03269 2.425781,-0.05273 z m 73.271486,7.207031 c 0.0533,0.188858 0.11561,0.376067 0.1543,0.568359 0.0115,0.05722 -0.0485,0.221563 -0.0586,0.164063 -0.0518,-0.29619 -0.0797,-0.525234 -0.0957,-0.732422 z m 12.22852,5.414061 c 0.18379,0.94501 0.40955,1.8942 0.60742,2.83594 -1.16353,0.08997 -1.581,0.10563 -3.96094,0.21289 -0.24603,0.0037 -0.49223,0.008 -0.73828,0.01172 1.23329,-0.59544 2.34691,-1.43405 3.53125,-2.12891 0.17647,-0.31575 0.36789,-0.62324 0.56055,-0.93164 z m 0.99023,5.433595 c 0.0304,0.49519 0.0361,0.98491 -0.0156,1.46484 -0.29275,-0.35085 -0.2091,-0.89077 0.0156,-1.46484 z"
         id="path4667"
         inkscape:connector-curvature="0" />
      <path
         style="opacity:0.9996;fill:#1a1a1a;stroke:none;stroke-width:1;stroke-miterlimit:4;stroke-dasharray:none;stroke-opacity:1"
         id="path4669"
         d="m 38.567011,43.88094 c 14.860161,0.524833 29.737007,0.479526 44.60486,0.543757 19.311449,0.06743 38.623029,0.08032 57.934579,0.08508 8.58393,-0.09784 17.16245,0.2571 25.74035,0.515409 3.35953,0.279766 6.80646,-0.210005 10.11149,0.547291 0.48256,0.313799 1.07762,0.500508 1.4477,0.941396 1.57379,1.874898 1.45742,4.799249 1.54599,7.057576 0.09,2.294693 0.0971,5.089298 0.11814,7.365314 -0.0813,7.867517 0.32227,15.723765 0.79382,23.573474 0.36616,4.341302 0.3111,8.707439 0.62057,13.050007 0.17265,2.855396 0.55546,5.684346 0.89366,8.522246 0.16397,2.18502 1.42995,5.98393 0.31957,7.98168 -0.39183,0.70497 -1.07457,1.20307 -1.61186,1.8046 -0.89307,0.28587 -1.75458,0.70153 -2.67921,0.85762 -1.86887,0.31549 -5.73968,0.0971 -7.47435,0.0169 -4.89003,-0.22596 -9.77679,-0.54822 -14.66603,-0.79455 -9.97505,-0.47882 -19.96168,-0.61292 -29.94642,-0.69842 -7.23694,-0.0488 -14.47409,-0.0444 -21.71115,-0.0405 -4.55795,0.12895 -9.104337,-0.18838 -13.652547,-0.42476 -3.463185,-0.18525 -6.931036,-0.24019 -10.398415,-0.27058 -3.017292,-0.0198 -6.034676,-0.0147 -9.052012,-0.0133 -2.85247,0.002 -5.70494,0.003 -8.557411,0.003 -3.093668,-0.03 -6.18987,0.0813 -9.279861,-0.0885 -2.142761,-0.17923 -4.278905,-0.42281 -6.425853,-0.54875 -1.681155,-0.045 -3.474493,-0.0442 -4.66932,-1.47741 -0.388628,-0.46616 -0.576215,-1.06833 -0.864322,-1.60249 -0.97759,-3.8401 -1.275993,-7.8139 -1.711339,-11.742624 -0.483097,-4.692425 -0.601534,-9.410189 -0.67751,-14.123363 -0.235829,-4.73883 -0.474256,-9.476818 -0.626904,-14.219223 -0.08505,-2.624243 -0.116027,-5.249672 -0.125843,-7.875127 -0.0032,-1.553782 1.6e-4,-3.107566 0.0019,-4.661347 0.0018,-1.629276 0.0019,-3.258553 0.0021,-4.88783 8.1e-5,-1.214323 5e-5,-0.612598 9.4e-5,-1.805179 1.1e-4,-3.030457 4.285824,-3.030302 4.285714,1.56e-4 v 0 c -4.3e-5,1.192782 -1.2e-5,0.590944 -9.4e-5,1.805513 -1.86e-4,1.630717 -3.19e-4,3.261434 -0.0021,4.89215 -0.0017,1.546852 -0.0051,3.093706 -0.0019,4.640558 0.0096,2.584837 0.03993,5.169652 0.123657,7.753298 0.153235,4.76538 0.396395,9.526106 0.628566,14.288104 0.07349,4.578611 0.185553,9.161798 0.652021,13.72053 0.388913,3.513574 0.718633,7.040014 1.385817,10.514434 -0.02187,0.082 -0.04373,0.16398 -0.0656,0.24597 -0.09468,0.002 -0.238004,-0.0774 -0.284037,0.005 -0.11726,0.2108 2.103955,0.25361 2.201505,0.25031 2.144192,0.12714 4.278466,0.36098 6.417856,0.54828 3.007086,0.17939 6.02356,0.0374 9.034644,0.0815 2.852066,-5.6e-4 5.704132,-0.002 8.556198,-0.003 3.030563,-0.001 6.061175,-0.006 9.091694,0.0135 3.52902,0.031 7.0585,0.0876 10.583246,0.2762 4.473407,0.23254 8.944706,0.54846 13.427766,0.41898 7.25007,-0.004 14.50023,-0.008 21.75018,0.0407 10.04442,0.0861 20.09073,0.22159 30.1254,0.70369 7.28414,0.36711 14.57082,0.97954 21.86595,0.90318 0.16683,0.17994 0.40825,0.61103 0.49221,-0.11905 0.20953,-1.82204 -0.65446,-4.03062 -0.71765,-5.86361 -0.34552,-2.90686 -0.73504,-5.80532 -0.91326,-8.729787 -0.29955,-4.357726 -0.26786,-8.735691 -0.62329,-13.091999 -0.47585,-7.922153 -0.88179,-15.850988 -0.80136,-23.791064 -0.0222,-2.42816 -0.0256,-4.745509 -0.11174,-7.167522 -0.0296,-0.83105 -0.0711,-1.661862 -0.13042,-2.491316 -0.0323,-0.45084 -0.17141,-0.897088 -0.14437,-1.348272 0.0109,-0.18241 0.41271,-0.222477 0.50802,-0.242025 -0.96453,-0.299248 -1.92212,-0.250412 -2.92845,-0.268202 -2.0869,-0.03689 -4.17353,-0.0881 -6.25983,-0.149854 -8.53526,-0.257058 -17.07113,-0.611174 -25.6124,-0.513468 -19.31736,-0.0048 -38.63477,-0.01766 -57.952034,-0.08512 -14.956687,-0.06463 -29.922726,-0.01667 -44.871425,-0.553209 -3.023746,-0.201583 -2.738665,-4.477805 0.285081,-4.276222 z"
         inkscape:connector-curvature="0" />
      <path
         style="opacity:0.9996;fill:#1a1a1a;stroke:none;stroke-width:1;stroke-miterlimit:4;stroke-dasharray:none;stroke-opacity:1"
         id="path4671"
         d="m 46.149248,47.130351 c 6.661137,2.318546 12.546446,6.314608 18.473822,10.056878 8.733805,5.722335 16.917775,12.222807 25.460338,18.219292 5.21074,3.7155 10.668262,7.057561 16.253292,10.169064 0.33502,0.166082 1.80435,0.932415 2.28324,1.045035 1.11009,0.261054 5.78558,-1.890018 6.56646,-2.202392 9.56785,-3.882249 18.61705,-8.872943 27.41193,-14.264317 6.15675,-3.988537 12.20131,-8.151195 18.26902,-12.27595 2.02977,-1.350511 4.03522,-2.727629 6.11569,-3.997759 1.05035,-0.560854 2.10946,-1.094022 3.16189,-1.649311 0.23345,-0.100868 0.46691,-0.201726 0.70036,-0.30259 2.97591,-1.245362 4.72808,2.984915 1.75218,4.230277 v 0 c -0.11303,0.04413 -0.22603,0.08825 -0.33904,0.13237 -0.97132,0.508819 -1.94766,0.998384 -2.91624,1.51022 -2.02015,1.221384 -3.94985,2.573149 -5.9211,3.872592 -6.12745,4.164715 -12.23009,8.369909 -18.45016,12.392907 -9.01745,5.521267 -18.29298,10.635776 -28.10196,14.610295 -3.12724,1.245774 -6.52961,3.087653 -9.98939,2.178855 -0.60601,-0.15918 -2.26124,-1.026779 -2.75412,-1.273119 C 98.40516,86.391177 92.811238,82.970928 87.472918,79.163117 78.992169,73.207721 70.861919,66.76045 62.198126,61.067432 56.544645,57.497421 50.942176,53.656655 44.591323,51.436728 41.561871,50.329431 43.119795,46.023053 46.149248,47.130351 Z"
         inkscape:connector-curvature="0" />
      <path
         style="opacity:0.9996;fill:#1a1a1a;stroke:none;stroke-width:1;stroke-miterlimit:4;stroke-dasharray:none;stroke-opacity:1"
         id="path4673"
         d="m 45.537614,105.94355 c 6.034842,-3.88052 12.104653,-7.724983 18.212272,-11.529994 6.448755,-3.900972 13.021017,-7.669416 19.890525,-11.066919 0.789617,-0.386705 1.579235,-0.77341 2.368852,-1.160116 2.967728,-1.453387 5.499807,1.953501 2.53208,3.406885 v 0 C 87.7575,85.977271 86.973657,86.361136 86.189814,86.745 79.468504,90.065644 73.04494,93.757898 66.734165,97.570006 60.593028,101.3958 54.492723,105.264 48.420631,109.16142 c -2.803077,1.65483 -5.686093,-1.56306 -2.883017,-3.21787 z"
         inkscape:connector-curvature="0" />
      <path
         style="opacity:0.9996;fill:#1a1a1a;stroke:none;stroke-width:1;stroke-miterlimit:4;stroke-dasharray:none;stroke-opacity:1"
         id="path4675"
         d="m 135.78218,77.348913 c 3.57509,3.699043 7.283,7.26581 11.16775,10.637766 3.96294,3.379224 7.96993,6.708872 12.09789,9.885197 3.31368,2.589794 6.95783,4.666894 10.67496,6.607054 1.43183,0.80619 2.95465,1.42381 4.46658,2.05792 2.79418,1.17315 1.13509,5.1247 -1.65908,3.95155 v 0 c -1.62151,-0.6815 -3.25223,-1.3509 -4.79084,-2.2103 -3.93838,-2.05635 -7.79378,-4.26854 -11.30583,-7.01016 -4.19389,-3.229611 -8.26863,-6.610188 -12.29465,-10.046167 -4.02834,-3.503645 -7.88446,-7.198742 -11.58211,-11.050697 -1.99557,-2.280652 1.22976,-5.102815 3.22533,-2.822163 z"
         inkscape:connector-curvature="0" />
    </g>
    <g
       transform="translate(317.87274,116.06474)"
       id="g4677">
      <path
         inkscape:connector-curvature="0"
         id="path4679"
         d="m 59.1293,41.720327 c -6.065384,-0.01971 -12.123331,0.234139 -18.171875,0.824219 -10.060041,0.914549 -8.767072,15.141112 1.292969,14.226563 3.805769,-0.371866 7.615069,-0.597773 11.427734,-0.701172 -1.328569,0.181976 -2.703222,0.423349 -3.83789,0.960937 -4.985763,2.36218 -7.196119,7.09606 -5.423828,12.386719 0.864633,2.16515 2.096757,4.214793 2.185547,6.595703 0.362902,4.924504 -0.410481,9.883292 -0.283203,14.816407 0.09038,8.290812 1.254997,13.751427 10.710937,14.748037 3.316638,0.0896 6.630842,0.27317 9.923828,0.69727 4.362697,0.54082 8.719061,1.01946 13.107422,1.29492 4.803529,0.59074 9.568147,1.44706 14.375,2.01172 5.505875,0.88432 11.051309,1.43191 16.613289,1.83789 7.8232,0.24441 15.63712,0.65763 23.44921,1.13867 8.90469,0.35865 17.82568,0.22034 26.73438,0.0547 6.24159,-0.31051 13.69005,-0.352 17.00781,-6.79297 0.59769,-1.16033 0.61573,-2.53831 0.92383,-3.80664 -0.14941,-3.921755 -1.09751,-7.723495 -1.29102,-11.642572 -0.4364,-5.164227 -1.24083,-10.283859 -1.60351,-15.453125 -0.4682,-5.061744 -1.19775,-10.098813 -2.05273,-15.107422 -1.45145,-5.086385 -3.77398,-9.569193 -8.97071,-11.666015 -3.65928,-1.081841 -7.33983,-1.371119 -11.15039,-1.166016 -3.29729,0.004 -6.5953,0.01278 -9.89258,-0.002 -3.63852,-0.02824 -7.27821,-0.09714 -10.9082,-0.369141 -6.30016,-0.473111 -12.57398,-1.289494 -18.89258,-1.486328 -8.45766,-0.451822 -16.882795,-1.278627 -25.33008,-1.867187 -7.951821,-0.625032 -15.894836,-1.273513 -23.875,-1.423828 -2.023236,-0.06509 -4.046565,-0.102804 -6.06836,-0.109376 z m 7.359375,14.445313 c 7.170961,0.196508 14.314927,0.767448 21.464844,1.330078 8.565385,0.601118 17.107501,1.429425 25.683601,1.890625 2.903,0.09391 5.79611,0.321987 8.6875,0.582031 -4.49553,-0.223565 -8.99134,-0.330439 -13.49414,-0.501953 C 103.59993,59.12097 98.394816,58.379498 93.148832,58.345327 86.938674,58.205372 80.723307,57.983204 74.551175,57.235953 71.87187,56.889812 69.182937,56.482181 66.488675,56.16564 Z m 91.888675,5.013672 c 0.4543,0.0065 0.89491,0.06172 1.32422,0.15625 0.01,0.267676 0.2851,0.462466 0.39063,0.710937 0.0844,0.198782 0.3075,1.38232 0.3125,1.40625 0.2967,2.161369 0.6156,4.318061 0.9082,6.478516 -0.20808,-0.512233 -0.42621,-1.020651 -0.66602,-1.521484 -0.59959,-0.88539 -1.07417,-1.869934 -1.79883,-2.65625 -2.8039,-3.042476 -6.42733,-4.198055 -10.29687,-4.492188 1.85385,-4.4e-4 3.70671,0.0042 5.56055,0.002 1.32433,0.185318 2.83621,-0.104391 4.26562,-0.08398 z m 1.67969,0.232422 c 0.25668,0.07816 0.50769,0.178942 0.74805,0.310547 -0.0721,0.226021 -0.45131,-0.09655 -0.74805,-0.310547 z M 59.935941,69.97814 c 1.645435,0.03548 3.287756,0.164167 4.927734,0.353516 -0.736438,0.305505 -1.461275,0.656621 -2.167968,1.074218 -0.704995,0.489231 -1.377098,1.011399 -2.033203,1.548829 -0.16262,-1.014943 -0.413185,-2.003752 -0.726563,-2.976563 z m 3.945313,12.566406 c 0.387286,-0.03735 0.732372,0.02621 1.054687,0.136719 -0.352185,-0.03984 -0.706191,-0.07325 -1.054687,-0.136719 z m 14.52539,0.128907 c 2.066683,0.01994 4.125261,0.172489 6.179688,0.392578 -2.601888,-0.10523 -5.203438,-0.196083 -7.806641,-0.265625 -0.264278,-0.03671 -0.532661,-0.0498 -0.798828,-0.07422 0.813389,-0.01942 1.625331,-0.03269 2.425781,-0.05273 z m 73.271486,7.207031 c 0.0533,0.188858 0.11561,0.376067 0.1543,0.568359 0.0115,0.05722 -0.0485,0.221563 -0.0586,0.164063 -0.0518,-0.29619 -0.0797,-0.525234 -0.0957,-0.732422 z m 12.22852,5.414061 c 0.18379,0.94501 0.40955,1.8942 0.60742,2.83594 -1.16353,0.08997 -1.581,0.10563 -3.96094,0.21289 -0.24603,0.0037 -0.49223,0.008 -0.73828,0.01172 1.23329,-0.59544 2.34691,-1.43405 3.53125,-2.12891 0.17647,-0.31575 0.36789,-0.62324 0.56055,-0.93164 z m 0.99023,5.433595 c 0.0304,0.49519 0.0361,0.98491 -0.0156,1.46484 -0.29275,-0.35085 -0.2091,-0.89077 0.0156,-1.46484 z"
         style="opacity:0.9996;fill:#ffeeaa;stroke:none;stroke-width:1;stroke-miterlimit:4;stroke-dasharray:none;stroke-opacity:1" />
      <path
         inkscape:connector-curvature="0"
         d="m 38.567011,43.88094 c 14.860161,0.524833 29.737007,0.479526 44.60486,0.543757 19.311449,0.06743 38.623029,0.08032 57.934579,0.08508 8.58393,-0.09784 17.16245,0.2571 25.74035,0.515409 3.35953,0.279766 6.80646,-0.210005 10.11149,0.547291 0.48256,0.313799 1.07762,0.500508 1.4477,0.941396 1.57379,1.874898 1.45742,4.799249 1.54599,7.057576 0.09,2.294693 0.0971,5.089298 0.11814,7.365314 -0.0813,7.867517 0.32227,15.723765 0.79382,23.573474 0.36616,4.341302 0.3111,8.707439 0.62057,13.050007 0.17265,2.855396 0.55546,5.684346 0.89366,8.522246 0.16397,2.18502 1.42995,5.98393 0.31957,7.98168 -0.39183,0.70497 -1.07457,1.20307 -1.61186,1.8046 -0.89307,0.28587 -1.75458,0.70153 -2.67921,0.85762 -1.86887,0.31549 -5.73968,0.0971 -7.47435,0.0169 -4.89003,-0.22596 -9.77679,-0.54822 -14.66603,-0.79455 -9.97505,-0.47882 -19.96168,-0.61292 -29.94642,-0.69842 -7.23694,-0.0488 -14.47409,-0.0444 -21.71115,-0.0405 -4.55795,0.12895 -9.104337,-0.18838 -13.652547,-0.42476 -3.463185,-0.18525 -6.931036,-0.24019 -10.398415,-0.27058 -3.017292,-0.0198 -6.034676,-0.0147 -9.052012,-0.0133 -2.85247,0.002 -5.70494,0.003 -8.557411,0.003 -3.093668,-0.03 -6.18987,0.0813 -9.279861,-0.0885 -2.142761,-0.17923 -4.278905,-0.42281 -6.425853,-0.54875 -1.681155,-0.045 -3.474493,-0.0442 -4.66932,-1.47741 -0.388628,-0.46616 -0.576215,-1.06833 -0.864322,-1.60249 -0.97759,-3.8401 -1.275993,-7.8139 -1.711339,-11.742624 -0.483097,-4.692425 -0.601534,-9.410189 -0.67751,-14.123363 -0.235829,-4.73883 -0.474256,-9.476818 -0.626904,-14.219223 -0.08505,-2.624243 -0.116027,-5.249672 -0.125843,-7.875127 -0.0032,-1.553782 1.6e-4,-3.107566 0.0019,-4.661347 0.0018,-1.629276 0.0019,-3.258553 0.0021,-4.88783 8.1e-5,-1.214323 5e-5,-0.612598 9.4e-5,-1.805179 1.1e-4,-3.030457 4.285824,-3.030302 4.285714,1.56e-4 v 0 c -4.3e-5,1.192782 -1.2e-5,0.590944 -9.4e-5,1.805513 -1.86e-4,1.630717 -3.19e-4,3.261434 -0.0021,4.89215 -0.0017,1.546852 -0.0051,3.093706 -0.0019,4.640558 0.0096,2.584837 0.03993,5.169652 0.123657,7.753298 0.153235,4.76538 0.396395,9.526106 0.628566,14.288104 0.07349,4.578611 0.185553,9.161798 0.652021,13.72053 0.388913,3.513574 0.718633,7.040014 1.385817,10.514434 -0.02187,0.082 -0.04373,0.16398 -0.0656,0.24597 -0.09468,0.002 -0.238004,-0.0774 -0.284037,0.005 -0.11726,0.2108 2.103955,0.25361 2.201505,0.25031 2.144192,0.12714 4.278466,0.36098 6.417856,0.54828 3.007086,0.17939 6.02356,0.0374 9.034644,0.0815 2.852066,-5.6e-4 5.704132,-0.002 8.556198,-0.003 3.030563,-0.001 6.061175,-0.006 9.091694,0.0135 3.52902,0.031 7.0585,0.0876 10.583246,0.2762 4.473407,0.23254 8.944706,0.54846 13.427766,0.41898 7.25007,-0.004 14.50023,-0.008 21.75018,0.0407 10.04442,0.0861 20.09073,0.22159 30.1254,0.70369 7.28414,0.36711 14.57082,0.97954 21.86595,0.90318 0.16683,0.17994 0.40825,0.61103 0.49221,-0.11905 0.20953,-1.82204 -0.65446,-4.03062 -0.71765,-5.86361 -0.34552,-2.90686 -0.73504,-5.80532 -0.91326,-8.729787 -0.29955,-4.357726 -0.26786,-8.735691 -0.62329,-13.091999 -0.47585,-7.922153 -0.88179,-15.850988 -0.80136,-23.791064 -0.0222,-2.42816 -0.0256,-4.745509 -0.11174,-7.167522 -0.0296,-0.83105 -0.0711,-1.661862 -0.13042,-2.491316 -0.0323,-0.45084 -0.17141,-0.897088 -0.14437,-1.348272 0.0109,-0.18241 0.41271,-0.222477 0.50802,-0.242025 -0.96453,-0.299248 -1.92212,-0.250412 -2.92845,-0.268202 -2.0869,-0.03689 -4.17353,-0.0881 -6.25983,-0.149854 -8.53526,-0.257058 -17.07113,-0.611174 -25.6124,-0.513468 -19.31736,-0.0048 -38.63477,-0.01766 -57.952034,-0.08512 -14.956687,-0.06463 -29.922726,-0.01667 -44.871425,-0.553209 -3.023746,-0.201583 -2.738665,-4.477805 0.285081,-4.276222 z"
         id="path4681"
         style="opacity:0.9996;fill:#1a1a1a;stroke:none;stroke-width:1;stroke-miterlimit:4;stroke-dasharray:none;stroke-opacity:1" />
      <path
         inkscape:connector-curvature="0"
         d="m 46.149248,47.130351 c 6.661137,2.318546 12.546446,6.314608 18.473822,10.056878 8.733805,5.722335 16.917775,12.222807 25.460338,18.219292 5.21074,3.7155 10.668262,7.057561 16.253292,10.169064 0.33502,0.166082 1.80435,0.932415 2.28324,1.045035 1.11009,0.261054 5.78558,-1.890018 6.56646,-2.202392 9.56785,-3.882249 18.61705,-8.872943 27.41193,-14.264317 6.15675,-3.988537 12.20131,-8.151195 18.26902,-12.27595 2.02977,-1.350511 4.03522,-2.727629 6.11569,-3.997759 1.05035,-0.560854 2.10946,-1.094022 3.16189,-1.649311 0.23345,-0.100868 0.46691,-0.201726 0.70036,-0.30259 2.97591,-1.245362 4.72808,2.984915 1.75218,4.230277 v 0 c -0.11303,0.04413 -0.22603,0.08825 -0.33904,0.13237 -0.97132,0.508819 -1.94766,0.998384 -2.91624,1.51022 -2.02015,1.221384 -3.94985,2.573149 -5.9211,3.872592 -6.12745,4.164715 -12.23009,8.369909 -18.45016,12.392907 -9.01745,5.521267 -18.29298,10.635776 -28.10196,14.610295 -3.12724,1.245774 -6.52961,3.087653 -9.98939,2.178855 -0.60601,-0.15918 -2.26124,-1.026779 -2.75412,-1.273119 C 98.40516,86.391177 92.811238,82.970928 87.472918,79.163117 78.992169,73.207721 70.861919,66.76045 62.198126,61.067432 56.544645,57.497421 50.942176,53.656655 44.591323,51.436728 41.561871,50.329431 43.119795,46.023053 46.149248,47.130351 Z"
         id="path4683"
         style="opacity:0.9996;fill:#1a1a1a;stroke:none;stroke-width:1;stroke-miterlimit:4;stroke-dasharray:none;stroke-opacity:1" />
      <path
         inkscape:connector-curvature="0"
         d="m 45.537614,105.94355 c 6.034842,-3.88052 12.104653,-7.724983 18.212272,-11.529994 6.448755,-3.900972 13.021017,-7.669416 19.890525,-11.066919 0.789617,-0.386705 1.579235,-0.77341 2.368852,-1.160116 2.967728,-1.453387 5.499807,1.953501 2.53208,3.406885 v 0 C 87.7575,85.977271 86.973657,86.361136 86.189814,86.745 79.468504,90.065644 73.04494,93.757898 66.734165,97.570006 60.593028,101.3958 54.492723,105.264 48.420631,109.16142 c -2.803077,1.65483 -5.686093,-1.56306 -2.883017,-3.21787 z"
         id="path4685"
         style="opacity:0.9996;fill:#1a1a1a;stroke:none;stroke-width:1;stroke-miterlimit:4;stroke-dasharray:none;stroke-opacity:1" />
      <path
         inkscape:connector-curvature="0"
         d="m 135.78218,77.348913 c 3.57509,3.699043 7.283,7.26581 11.16775,10.637766 3.96294,3.379224 7.96993,6.708872 12.09789,9.885197 3.31368,2.589794 6.95783,4.666894 10.67496,6.607054 1.43183,0.80619 2.95465,1.42381 4.46658,2.05792 2.79418,1.17315 1.13509,5.1247 -1.65908,3.95155 v 0 c -1.62151,-0.6815 -3.25223,-1.3509 -4.79084,-2.2103 -3.93838,-2.05635 -7.79378,-4.26854 -11.30583,-7.01016 -4.19389,-3.229611 -8.26863,-6.610188 -12.29465,-10.046167 -4.02834,-3.503645 -7.88446,-7.198742 -11.58211,-11.050697 -1.99557,-2.280652 1.22976,-5.102815 3.22533,-2.822163 z"
         id="path4687"
         style="opacity:0.9996;fill:#1a1a1a;stroke:none;stroke-width:1;stroke-miterlimit:4;stroke-dasharray:none;stroke-opacity:1" />
    </g>
    <g
       id="g4689"
       transform="translate(243.71899,200.44659)">
      <path
         style="opacity:0.9996;fill:#ffeeaa;stroke:none;stroke-width:1;stroke-miterlimit:4;stroke-dasharray:none;stroke-opacity:1"
         d="m 59.1293,41.720327 c -6.065384,-0.01971 -12.123331,0.234139 -18.171875,0.824219 -10.060041,0.914549 -8.767072,15.141112 1.292969,14.226563 3.805769,-0.371866 7.615069,-0.597773 11.427734,-0.701172 -1.328569,0.181976 -2.703222,0.423349 -3.83789,0.960937 -4.985763,2.36218 -7.196119,7.09606 -5.423828,12.386719 0.864633,2.16515 2.096757,4.214793 2.185547,6.595703 0.362902,4.924504 -0.410481,9.883292 -0.283203,14.816407 0.09038,8.290812 1.254997,13.751427 10.710937,14.748037 3.316638,0.0896 6.630842,0.27317 9.923828,0.69727 4.362697,0.54082 8.719061,1.01946 13.107422,1.29492 4.803529,0.59074 9.568147,1.44706 14.375,2.01172 5.505875,0.88432 11.051309,1.43191 16.613289,1.83789 7.8232,0.24441 15.63712,0.65763 23.44921,1.13867 8.90469,0.35865 17.82568,0.22034 26.73438,0.0547 6.24159,-0.31051 13.69005,-0.352 17.00781,-6.79297 0.59769,-1.16033 0.61573,-2.53831 0.92383,-3.80664 -0.14941,-3.921755 -1.09751,-7.723495 -1.29102,-11.642572 -0.4364,-5.164227 -1.24083,-10.283859 -1.60351,-15.453125 -0.4682,-5.061744 -1.19775,-10.098813 -2.05273,-15.107422 -1.45145,-5.086385 -3.77398,-9.569193 -8.97071,-11.666015 -3.65928,-1.081841 -7.33983,-1.371119 -11.15039,-1.166016 -3.29729,0.004 -6.5953,0.01278 -9.89258,-0.002 -3.63852,-0.02824 -7.27821,-0.09714 -10.9082,-0.369141 -6.30016,-0.473111 -12.57398,-1.289494 -18.89258,-1.486328 -8.45766,-0.451822 -16.882795,-1.278627 -25.33008,-1.867187 -7.951821,-0.625032 -15.894836,-1.273513 -23.875,-1.423828 -2.023236,-0.06509 -4.046565,-0.102804 -6.06836,-0.109376 z m 7.359375,14.445313 c 7.170961,0.196508 14.314927,0.767448 21.464844,1.330078 8.565385,0.601118 17.107501,1.429425 25.683601,1.890625 2.903,0.09391 5.79611,0.321987 8.6875,0.582031 -4.49553,-0.223565 -8.99134,-0.330439 -13.49414,-0.501953 C 103.59993,59.12097 98.394816,58.379498 93.148832,58.345327 86.938674,58.205372 80.723307,57.983204 74.551175,57.235953 71.87187,56.889812 69.182937,56.482181 66.488675,56.16564 Z m 91.888675,5.013672 c 0.4543,0.0065 0.89491,0.06172 1.32422,0.15625 0.01,0.267676 0.2851,0.462466 0.39063,0.710937 0.0844,0.198782 0.3075,1.38232 0.3125,1.40625 0.2967,2.161369 0.6156,4.318061 0.9082,6.478516 -0.20808,-0.512233 -0.42621,-1.020651 -0.66602,-1.521484 -0.59959,-0.88539 -1.07417,-1.869934 -1.79883,-2.65625 -2.8039,-3.042476 -6.42733,-4.198055 -10.29687,-4.492188 1.85385,-4.4e-4 3.70671,0.0042 5.56055,0.002 1.32433,0.185318 2.83621,-0.104391 4.26562,-0.08398 z m 1.67969,0.232422 c 0.25668,0.07816 0.50769,0.178942 0.74805,0.310547 -0.0721,0.226021 -0.45131,-0.09655 -0.74805,-0.310547 z M 59.935941,69.97814 c 1.645435,0.03548 3.287756,0.164167 4.927734,0.353516 -0.736438,0.305505 -1.461275,0.656621 -2.167968,1.074218 -0.704995,0.489231 -1.377098,1.011399 -2.033203,1.548829 -0.16262,-1.014943 -0.413185,-2.003752 -0.726563,-2.976563 z m 3.945313,12.566406 c 0.387286,-0.03735 0.732372,0.02621 1.054687,0.136719 -0.352185,-0.03984 -0.706191,-0.07325 -1.054687,-0.136719 z m 14.52539,0.128907 c 2.066683,0.01994 4.125261,0.172489 6.179688,0.392578 -2.601888,-0.10523 -5.203438,-0.196083 -7.806641,-0.265625 -0.264278,-0.03671 -0.532661,-0.0498 -0.798828,-0.07422 0.813389,-0.01942 1.625331,-0.03269 2.425781,-0.05273 z m 73.271486,7.207031 c 0.0533,0.188858 0.11561,0.376067 0.1543,0.568359 0.0115,0.05722 -0.0485,0.221563 -0.0586,0.164063 -0.0518,-0.29619 -0.0797,-0.525234 -0.0957,-0.732422 z m 12.22852,5.414061 c 0.18379,0.94501 0.40955,1.8942 0.60742,2.83594 -1.16353,0.08997 -1.581,0.10563 -3.96094,0.21289 -0.24603,0.0037 -0.49223,0.008 -0.73828,0.01172 1.23329,-0.59544 2.34691,-1.43405 3.53125,-2.12891 0.17647,-0.31575 0.36789,-0.62324 0.56055,-0.93164 z m 0.99023,5.433595 c 0.0304,0.49519 0.0361,0.98491 -0.0156,1.46484 -0.29275,-0.35085 -0.2091,-0.89077 0.0156,-1.46484 z"
         id="path4691"
         inkscape:connector-curvature="0" />
      <path
         style="opacity:0.9996;fill:#1a1a1a;stroke:none;stroke-width:1;stroke-miterlimit:4;stroke-dasharray:none;stroke-opacity:1"
         id="path4693"
         d="m 38.567011,43.88094 c 14.860161,0.524833 29.737007,0.479526 44.60486,0.543757 19.311449,0.06743 38.623029,0.08032 57.934579,0.08508 8.58393,-0.09784 17.16245,0.2571 25.74035,0.515409 3.35953,0.279766 6.80646,-0.210005 10.11149,0.547291 0.48256,0.313799 1.07762,0.500508 1.4477,0.941396 1.57379,1.874898 1.45742,4.799249 1.54599,7.057576 0.09,2.294693 0.0971,5.089298 0.11814,7.365314 -0.0813,7.867517 0.32227,15.723765 0.79382,23.573474 0.36616,4.341302 0.3111,8.707439 0.62057,13.050007 0.17265,2.855396 0.55546,5.684346 0.89366,8.522246 0.16397,2.18502 1.42995,5.98393 0.31957,7.98168 -0.39183,0.70497 -1.07457,1.20307 -1.61186,1.8046 -0.89307,0.28587 -1.75458,0.70153 -2.67921,0.85762 -1.86887,0.31549 -5.73968,0.0971 -7.47435,0.0169 -4.89003,-0.22596 -9.77679,-0.54822 -14.66603,-0.79455 -9.97505,-0.47882 -19.96168,-0.61292 -29.94642,-0.69842 -7.23694,-0.0488 -14.47409,-0.0444 -21.71115,-0.0405 -4.55795,0.12895 -9.104337,-0.18838 -13.652547,-0.42476 -3.463185,-0.18525 -6.931036,-0.24019 -10.398415,-0.27058 -3.017292,-0.0198 -6.034676,-0.0147 -9.052012,-0.0133 -2.85247,0.002 -5.70494,0.003 -8.557411,0.003 -3.093668,-0.03 -6.18987,0.0813 -9.279861,-0.0885 -2.142761,-0.17923 -4.278905,-0.42281 -6.425853,-0.54875 -1.681155,-0.045 -3.474493,-0.0442 -4.66932,-1.47741 -0.388628,-0.46616 -0.576215,-1.06833 -0.864322,-1.60249 -0.97759,-3.8401 -1.275993,-7.8139 -1.711339,-11.742624 -0.483097,-4.692425 -0.601534,-9.410189 -0.67751,-14.123363 -0.235829,-4.73883 -0.474256,-9.476818 -0.626904,-14.219223 -0.08505,-2.624243 -0.116027,-5.249672 -0.125843,-7.875127 -0.0032,-1.553782 1.6e-4,-3.107566 0.0019,-4.661347 0.0018,-1.629276 0.0019,-3.258553 0.0021,-4.88783 8.1e-5,-1.214323 5e-5,-0.612598 9.4e-5,-1.805179 1.1e-4,-3.030457 4.285824,-3.030302 4.285714,1.56e-4 v 0 c -4.3e-5,1.192782 -1.2e-5,0.590944 -9.4e-5,1.805513 -1.86e-4,1.630717 -3.19e-4,3.261434 -0.0021,4.89215 -0.0017,1.546852 -0.0051,3.093706 -0.0019,4.640558 0.0096,2.584837 0.03993,5.169652 0.123657,7.753298 0.153235,4.76538 0.396395,9.526106 0.628566,14.288104 0.07349,4.578611 0.185553,9.161798 0.652021,13.72053 0.388913,3.513574 0.718633,7.040014 1.385817,10.514434 -0.02187,0.082 -0.04373,0.16398 -0.0656,0.24597 -0.09468,0.002 -0.238004,-0.0774 -0.284037,0.005 -0.11726,0.2108 2.103955,0.25361 2.201505,0.25031 2.144192,0.12714 4.278466,0.36098 6.417856,0.54828 3.007086,0.17939 6.02356,0.0374 9.034644,0.0815 2.852066,-5.6e-4 5.704132,-0.002 8.556198,-0.003 3.030563,-0.001 6.061175,-0.006 9.091694,0.0135 3.52902,0.031 7.0585,0.0876 10.583246,0.2762 4.473407,0.23254 8.944706,0.54846 13.427766,0.41898 7.25007,-0.004 14.50023,-0.008 21.75018,0.0407 10.04442,0.0861 20.09073,0.22159 30.1254,0.70369 7.28414,0.36711 14.57082,0.97954 21.86595,0.90318 0.16683,0.17994 0.40825,0.61103 0.49221,-0.11905 0.20953,-1.82204 -0.65446,-4.03062 -0.71765,-5.86361 -0.34552,-2.90686 -0.73504,-5.80532 -0.91326,-8.729787 -0.29955,-4.357726 -0.26786,-8.735691 -0.62329,-13.091999 -0.47585,-7.922153 -0.88179,-15.850988 -0.80136,-23.791064 -0.0222,-2.42816 -0.0256,-4.745509 -0.11174,-7.167522 -0.0296,-0.83105 -0.0711,-1.661862 -0.13042,-2.491316 -0.0323,-0.45084 -0.17141,-0.897088 -0.14437,-1.348272 0.0109,-0.18241 0.41271,-0.222477 0.50802,-0.242025 -0.96453,-0.299248 -1.92212,-0.250412 -2.92845,-0.268202 -2.0869,-0.03689 -4.17353,-0.0881 -6.25983,-0.149854 -8.53526,-0.257058 -17.07113,-0.611174 -25.6124,-0.513468 -19.31736,-0.0048 -38.63477,-0.01766 -57.952034,-0.08512 -14.956687,-0.06463 -29.922726,-0.01667 -44.871425,-0.553209 -3.023746,-0.201583 -2.738665,-4.477805 0.285081,-4.276222 z"
         inkscape:connector-curvature="0" />
      <path
         style="opacity:0.9996;fill:#1a1a1a;stroke:none;stroke-width:1;stroke-miterlimit:4;stroke-dasharray:none;stroke-opacity:1"
         id="path4695"
         d="m 46.149248,47.130351 c 6.661137,2.318546 12.546446,6.314608 18.473822,10.056878 8.733805,5.722335 16.917775,12.222807 25.460338,18.219292 5.21074,3.7155 10.668262,7.057561 16.253292,10.169064 0.33502,0.166082 1.80435,0.932415 2.28324,1.045035 1.11009,0.261054 5.78558,-1.890018 6.56646,-2.202392 9.56785,-3.882249 18.61705,-8.872943 27.41193,-14.264317 6.15675,-3.988537 12.20131,-8.151195 18.26902,-12.27595 2.02977,-1.350511 4.03522,-2.727629 6.11569,-3.997759 1.05035,-0.560854 2.10946,-1.094022 3.16189,-1.649311 0.23345,-0.100868 0.46691,-0.201726 0.70036,-0.30259 2.97591,-1.245362 4.72808,2.984915 1.75218,4.230277 v 0 c -0.11303,0.04413 -0.22603,0.08825 -0.33904,0.13237 -0.97132,0.508819 -1.94766,0.998384 -2.91624,1.51022 -2.02015,1.221384 -3.94985,2.573149 -5.9211,3.872592 -6.12745,4.164715 -12.23009,8.369909 -18.45016,12.392907 -9.01745,5.521267 -18.29298,10.635776 -28.10196,14.610295 -3.12724,1.245774 -6.52961,3.087653 -9.98939,2.178855 -0.60601,-0.15918 -2.26124,-1.026779 -2.75412,-1.273119 C 98.40516,86.391177 92.811238,82.970928 87.472918,79.163117 78.992169,73.207721 70.861919,66.76045 62.198126,61.067432 56.544645,57.497421 50.942176,53.656655 44.591323,51.436728 41.561871,50.329431 43.119795,46.023053 46.149248,47.130351 Z"
         inkscape:connector-curvature="0" />
      <path
         style="opacity:0.9996;fill:#1a1a1a;stroke:none;stroke-width:1;stroke-miterlimit:4;stroke-dasharray:none;stroke-opacity:1"
         id="path4697"
         d="m 45.537614,105.94355 c 6.034842,-3.88052 12.104653,-7.724983 18.212272,-11.529994 6.448755,-3.900972 13.021017,-7.669416 19.890525,-11.066919 0.789617,-0.386705 1.579235,-0.77341 2.368852,-1.160116 2.967728,-1.453387 5.499807,1.953501 2.53208,3.406885 v 0 C 87.7575,85.977271 86.973657,86.361136 86.189814,86.745 79.468504,90.065644 73.04494,93.757898 66.734165,97.570006 60.593028,101.3958 54.492723,105.264 48.420631,109.16142 c -2.803077,1.65483 -5.686093,-1.56306 -2.883017,-3.21787 z"
         inkscape:connector-curvature="0" />
      <path
         style="opacity:0.9996;fill:#1a1a1a;stroke:none;stroke-width:1;stroke-miterlimit:4;stroke-dasharray:none;stroke-opacity:1"
         id="path4699"
         d="m 135.78218,77.348913 c 3.57509,3.699043 7.283,7.26581 11.16775,10.637766 3.96294,3.379224 7.96993,6.708872 12.09789,9.885197 3.31368,2.589794 6.95783,4.666894 10.67496,6.607054 1.43183,0.80619 2.95465,1.42381 4.46658,2.05792 2.79418,1.17315 1.13509,5.1247 -1.65908,3.95155 v 0 c -1.62151,-0.6815 -3.25223,-1.3509 -4.79084,-2.2103 -3.93838,-2.05635 -7.79378,-4.26854 -11.30583,-7.01016 -4.19389,-3.229611 -8.26863,-6.610188 -12.29465,-10.046167 -4.02834,-3.503645 -7.88446,-7.198742 -11.58211,-11.050697 -1.99557,-2.280652 1.22976,-5.102815 3.22533,-2.822163 z"
         inkscape:connector-curvature="0" />
    </g>
    <path
       style="opacity:0.9996;fill:#1a1a1a;stroke:none;stroke-width:1;stroke-miterlimit:4;stroke-dasharray:none;stroke-opacity:1"
       id="path4703"
       d="m 205.21595,33.977464 c 1.26628,-1.094974 2.57191,-2.170074 4.05018,-2.973112 1.444,-0.784427 2.08963,-0.955226 3.65227,-1.531249 4.63183,-1.48598 9.4835,-1.876225 14.30928,-2.145343 5.60667,-0.229516 11.21975,-0.209657 16.83,-0.210198 6.14212,0.06395 12.28904,-0.1303 18.42528,0.173695 6.43893,0.371937 12.7506,1.681419 19.00852,3.166097 7.24365,1.773399 14.11784,4.6765 20.96865,7.563729 8.00743,3.36329 15.40685,7.937132 22.86201,12.344792 2.55895,1.469134 5.02401,3.10962 7.6219,4.51228 0.34742,0.187576 1.54809,0.9515 2.21318,0.80303 0.0826,-0.01844 -0.0211,-0.167944 -0.0317,-0.251916 -0.0566,-0.099 -0.1604,-0.183347 -0.16978,-0.296991 -0.0303,-0.367862 0.0518,-0.736913 0.054,-1.106019 0.004,-0.613728 -0.0125,-1.227586 -0.0365,-1.840856 -0.0949,-2.426358 -0.34251,-4.842338 -0.55862,-7.259848 -0.34549,-3.63797 -0.52805,-7.287494 -0.74341,-10.934438 -0.13137,-0.94904 -0.20011,-1.046963 2.5046,0.108775 0.25215,0.107747 0.0287,0.547675 0.0415,0.821585 0.084,1.791654 0.26789,3.548724 0.48603,5.329537 0.55204,3.941497 1.77402,7.734791 2.89686,11.538279 0.61651,2.169676 1.35307,4.301781 2.01887,6.455794 0.1853,0.853433 0.73612,2.278119 0.28521,3.124415 -0.1723,0.323383 -0.45284,0.576184 -0.67926,0.864276 -0.35919,0.141441 -0.70072,0.340634 -1.07757,0.424323 -1.52388,0.338415 -3.56593,0.0093 -5.08707,-0.09856 -3.32726,-0.23591 -2.19929,-0.158631 -5.8031,-0.36003 -6.52674,-0.33025 -13.06269,-0.3546 -19.59113,-0.63302 -0.19466,-0.05447 -3.67238,0.146709 -3.5648,-0.90758 0.20165,-1.976211 1.22695,-2.044645 2.52089,-2.321587 0.52809,-0.113026 1.0604,-0.205305 1.59061,-0.307957 3.57545,-0.529643 7.18033,-0.857886 10.78058,-1.173426 1.44489,-0.128309 2.87349,-0.348897 4.29601,-0.626331 1.77479,-0.345433 2.26331,2.164493 0.48852,2.509927 v 0 c -1.5104,0.293415 -3.02759,0.527568 -4.56143,0.663678 -3.51288,0.307465 -7.0298,0.629593 -10.51971,1.136959 -0.49213,0.09441 -0.9862,0.179236 -1.4764,0.283224 -0.36467,0.07736 -0.88958,0.576552 -1.08755,0.260677 -0.3042,-0.485381 0.36186,-1.165918 0.17982,-1.709052 -0.11285,-0.336696 -0.81503,-0.18654 -0.92798,-0.523202 -0.25401,-0.757129 3.76689,1.875338 2.39046,0.159969 6.53967,0.279219 13.08696,0.301929 19.62488,0.634684 2.6239,0.146827 5.24262,0.358364 7.86557,0.511738 0.47486,0.02777 0.95045,0.04436 1.42605,0.05255 0.25528,0.0044 0.51148,-0.03724 0.76581,-0.01484 0.0473,0.0042 0.0725,0.06126 0.10875,0.09188 -0.22123,0.698003 -0.0494,0.406934 -0.0658,0.206128 -0.0414,-0.508122 -0.20318,-1.00332 -0.32463,-1.4946 -0.66731,-2.164577 -1.41005,-4.305932 -2.02805,-6.486182 -1.16235,-3.93876 -2.42084,-7.868633 -2.98256,-11.951908 -0.22506,-1.845217 -0.42402,-3.670496 -0.50248,-5.527853 -0.0149,-0.352906 -0.34334,-0.876441 -0.0409,-1.058873 0.7437,-0.448571 1.69671,-0.418312 2.56407,-0.463005 0.11022,-0.0057 0.0252,0.21929 0.0379,0.328935 0.21366,3.621268 0.39473,7.245098 0.7377,10.857451 0.22164,2.479757 0.48739,4.961568 0.56852,7.451364 0.033,1.011386 0.12246,3.078791 -0.27227,4.096092 -0.21918,0.564888 -0.69045,0.995908 -1.03568,1.493863 -0.50846,0.152397 -0.99522,0.430967 -1.52539,0.457191 -0.9705,0.04801 -2.26037,-0.687399 -3.02826,-1.1021 -2.60651,-1.407662 -5.08053,-3.052513 -7.6477,-4.527331 -7.35599,-4.349113 -14.65419,-8.867844 -22.55374,-12.189592 -6.72043,-2.83248 -13.46119,-5.6879 -20.566,-7.432108 -6.10593,-1.449496 -12.26312,-2.734121 -18.54586,-3.10019 -6.09314,-0.307912 -12.19812,-0.10052 -18.29727,-0.170501 -5.56302,5.26e-4 -11.12883,-0.01939 -16.68836,0.206259 -4.57463,0.253288 -9.1754,0.607544 -13.57269,1.993645 -1.26996,0.460577 -2.00606,0.671082 -3.17755,1.299476 -1.31228,0.703918 -2.46515,1.654216 -3.59528,2.611586 -1.27852,1.278513 -3.08661,-0.529577 -1.80809,-1.80809 z"
       inkscape:connector-curvature="0" />
    <path
       style="opacity:0.9996;fill:#1a1a1a;stroke:none;stroke-width:1;stroke-miterlimit:4;stroke-dasharray:none;stroke-opacity:1"
       id="path4705"
       d="m 450.21023,89.289125 c 5.27087,2.12894 10.45822,4.450641 15.54022,6.996463 5.11308,2.686545 9.91505,5.969032 13.93848,10.138042 0.70262,0.72805 1.34778,1.50945 2.02166,2.26418 2.94162,3.58695 5.18033,7.73907 6.72181,12.11244 0.29252,0.82993 0.5233,1.68035 0.78495,2.52053 1.13452,4.06554 1.49847,8.26772 1.6602,12.46697 0.015,1.98783 0.12563,3.98601 -0.0364,5.97003 -0.14316,1.75593 -0.71192,3.42382 -1.28402,5.07681 -0.60283,1.62481 -1.28185,3.22104 -2.17868,4.70635 -0.79365,1.31609 -1.31205,1.90826 -3.0322,0.40931 -0.26045,-0.22696 -0.15761,-0.67303 -0.21857,-1.01307 -0.0725,-0.40453 -0.12108,-0.81299 -0.18162,-1.21949 -0.46005,-3.73765 -0.77604,-7.48922 -0.98861,-11.24843 -0.11681,-2.16284 -0.17462,-4.32806 -0.18982,-6.49381 0.006,-1.59269 -0.37511,-1.79285 2.65478,-0.9491 0.22891,0.0637 0.16634,0.44522 0.24416,0.66974 0.11954,0.34489 0.23192,0.69223 0.34788,1.03835 0.91707,2.7412 1.91492,5.45129 2.9025,8.16742 0.33613,0.48741 0.36837,1.38895 0.87094,1.79279 0.0586,0.0471 -0.0351,-0.16401 -0.0998,-0.20221 -1.32393,-0.78119 -0.33683,0.009 -0.70969,-0.2954 1.36441,-1.56598 2.94766,-2.92492 4.59621,-4.18125 1.11949,-0.65557 2.1042,-1.67055 3.34448,-2.11919 0.2571,-0.093 0.54167,-0.26624 0.80058,-0.1784 0.54004,0.18321 0.95476,0.62391 1.43214,0.93586 -0.0357,0.50955 0.0346,1.0379 -0.10712,1.52865 -0.16165,0.55992 -1.22979,1.86345 -1.55386,2.25255 -1.16432,1.398 -2.41456,2.7288 -3.659,4.05464 -1.45096,1.5651 -0.74166,0.818 -2.12435,2.24466 -1.25864,1.29809 -3.09441,-0.48189 -1.83577,-1.77998 v 0 c 1.34728,-1.38886 0.64697,-0.65203 2.0961,-2.21507 1.19695,-1.27403 2.38977,-2.55636 3.51865,-3.89197 0.2571,-0.30418 0.50306,-0.61771 0.74728,-0.93233 0.13058,-0.16823 0.16733,-0.47795 0.37688,-0.51588 0.1561,-0.0283 0.17046,0.26759 0.25568,0.40138 0.39652,0.15078 0.78472,0.32554 1.18954,0.45232 0.0243,0.008 0.0408,-0.0833 0.0169,-0.0745 -1.09416,0.40255 -1.95917,1.29352 -2.95054,1.87271 -1.66011,1.25902 -3.19403,2.66037 -4.60931,4.19115 -0.29167,0.17291 -0.54297,0.45005 -0.87502,0.51874 -1.96333,0.40615 -2.5616,-1.58543 -3.12413,-2.98566 -0.9948,-2.73684 -1.99971,-5.46778 -2.92421,-8.22962 -0.10907,-0.32635 -0.21477,-0.65384 -0.32722,-0.97904 -0.0911,-0.26355 -0.50087,-0.61245 -0.28347,-0.78709 2.72292,-2.18742 2.32551,-1.14571 2.34569,0.17784 0.0148,2.12361 0.0714,4.24671 0.18581,6.36747 0.20771,3.68194 0.51746,7.3562 0.96499,11.01734 0.056,0.37923 0.11661,0.75782 0.16814,1.13769 0.0202,0.14922 0.19724,0.4375 0.0471,0.4493 -0.57471,0.0452 -1.12344,-0.30253 -1.69967,-0.31947 -0.1161,-0.003 -0.12829,0.20462 -0.22882,0.26278 -0.22934,0.1327 1.02792,-1.05866 0.43466,-0.6655 0.81945,-1.31743 1.38712,-2.76716 1.94424,-4.20988 0.5043,-1.45324 1.02241,-2.91545 1.15255,-4.45962 0.17387,-1.87547 0.02,-3.77243 0.0288,-5.65204 -0.15153,-3.97582 -0.48454,-7.95555 -1.54744,-11.80783 -0.24069,-0.7805 -0.45206,-1.57066 -0.72209,-2.3415 -1.43329,-4.09154 -3.51138,-7.98595 -6.25168,-11.34777 -0.62916,-0.70818 -1.23098,-1.44162 -1.88747,-2.12454 -3.83643,-3.99095 -8.42544,-7.12352 -13.30901,-9.692467 -5.02774,-2.52126 -10.16277,-4.814505 -15.37795,-6.922096 -1.66901,-0.69542 -0.68554,-3.055751 0.98347,-2.360332 z"
       inkscape:connector-curvature="0" />
    <path
       style="opacity:0.9996;fill:#1a1a1a;stroke:none;stroke-width:1;stroke-miterlimit:4;stroke-dasharray:none;stroke-opacity:1"
       id="path4707"
       d="m 506.58252,234.471 c -0.65012,3.7516 -1.91953,7.41234 -3.45686,10.88935 -0.54514,1.23297 -1.16064,2.43361 -1.74096,3.65041 -3.50811,6.73029 -8.00735,12.95611 -13.43993,18.26923 -1.17721,1.15132 -2.42794,2.22498 -3.64191,3.33747 -6.81597,6.06433 -14.46408,11.01751 -22.37502,15.50784 -4.20261,2.40908 -8.64946,4.35858 -13.21903,5.95285 -2.11342,0.83126 -4.33302,1.28091 -6.57898,1.55315 -1.2306,0.16033 -2.46438,0.29352 -3.69859,0.42227 -0.22102,0.0231 -1.35174,0.16117 -1.64638,0.12144 -0.28797,-0.0388 -0.55919,-0.15827 -0.83878,-0.23741 -0.1451,-0.68588 -0.53044,-1.36307 -0.43531,-2.05765 0.0454,-0.33165 1.69231,-1.46233 1.86049,-1.57605 1.50059,-1.0147 3.06897,-1.94136 4.60342,-2.90342 2.46586,-1.53528 4.83472,-3.19119 7.07206,-5.04071 0.93829,-0.74966 1.84528,-1.5372 2.81758,-2.24356 0.0579,-0.0421 0.98802,-0.70091 1.10559,-0.7088 0.48835,-0.0328 0.97466,0.0909 1.46199,0.1363 0.10645,0.62519 0.36599,1.24309 0.31935,1.87556 -0.0145,0.19688 -1.13706,1.68833 -1.19082,1.76056 -0.89314,1.19996 -1.82813,2.36745 -2.75166,3.54396 -0.81078,1.0163 -1.60274,2.0467 -2.40399,3.07038 -0.22084,0.28216 -0.8473,0.8984 -0.78365,1.33963 0.006,-0.006 0.19371,-0.18171 0.22374,-0.17133 0.3424,0.11829 0.60189,0.40582 0.92234,0.57476 0.48157,0.25388 0.98545,0.46302 1.47571,0.69968 1.60916,0.83175 3.38377,1.0024 1.00834,3.42578 -0.25632,0.2615 -0.72511,-0.10556 -1.08385,-0.179 -0.47447,-0.0971 -0.94293,-0.22162 -1.4144,-0.33242 -2.41266,-0.62033 -4.84302,-1.16005 -7.2836,-1.65714 -1.77168,-0.36102 -1.26111,-2.86655 0.51057,-2.50553 v 0 c 2.46632,0.50282 4.9227,1.04719 7.3609,1.67413 0.42905,0.10192 0.85734,0.20711 1.28716,0.30576 0.21359,0.049 0.62486,-0.0811 0.64294,0.13725 0.28863,3.48614 -0.55954,2.15915 -2.1397,1.43391 -1.37275,-0.66273 -3.31194,-1.33979 -3.88846,-2.92416 -0.12155,-0.33403 -0.0749,-0.70696 -0.11235,-1.06045 0.0901,-0.29854 0.14476,-0.61017 0.27034,-0.89561 0.20134,-0.45763 0.70524,-1.07688 1.00386,-1.45835 0.79758,-1.01885 1.58516,-2.04505 2.39274,-3.05615 0.90591,-1.15406 1.82148,-2.3001 2.69975,-3.4755 0.20101,-0.26903 0.39728,-0.54157 0.59646,-0.81195 0.0926,-0.12573 0.16252,-0.48048 0.27894,-0.37639 0.32518,0.29073 0.40035,0.77511 0.60052,1.16267 0.41759,-0.003 0.83927,-0.0674 1.25278,-0.009 0.10196,0.0144 -0.18456,0.0922 -0.27143,0.14747 -0.18723,0.11913 -0.3702,0.24506 -0.54997,0.37516 -0.943,0.68244 -1.81853,1.44903 -2.72869,2.17336 -2.32355,1.92012 -4.78264,3.64186 -7.3428,5.23619 -1.48938,0.93379 -3.00481,1.8382 -4.46827,2.81255 -0.28714,0.19118 -0.55487,0.41063 -0.84325,0.59992 -0.0831,0.0546 -0.2094,0.20979 -0.26854,0.12986 -0.33128,-0.44776 -0.49521,-0.99786 -0.74281,-1.49678 -0.10173,0.002 -0.40691,0.01 -0.3052,0.007 1.28695,-0.0373 2.57604,-0.21975 3.85391,-0.37125 0.42263,-0.0501 0.84484,-0.10373 1.26726,-0.15559 2.06435,-0.24333 4.1014,-0.66214 6.04164,-1.42897 4.42553,-1.53883 8.72901,-3.43173 12.79821,-5.76206 7.7453,-4.39344 15.23488,-9.23731 21.91044,-15.17005 2.96217,-2.70823 4.00505,-3.51902 6.64908,-6.48495 3.86887,-4.3399 7.17195,-9.18282 9.85195,-14.33773 0.55901,-1.16838 1.15187,-2.32116 1.67703,-3.50514 1.44387,-3.25528 2.63909,-6.67985 3.28377,-10.18692 0.17991,-1.79912 2.72424,-1.54468 2.54433,0.25443 z"
       inkscape:connector-curvature="0" />
    <path
       style="opacity:0.9996;fill:#1a1a1a;stroke:none;stroke-width:1;stroke-miterlimit:4;stroke-dasharray:none;stroke-opacity:1"
       id="path4709"
       d="m 269.23,286.67921 c -3.32792,0 -6.65583,0 -9.98375,0 -3.78633,0.0275 -7.59857,-0.0476 -11.32644,-0.76118 -1.77511,-0.34376 -1.28897,-2.85415 0.48615,-2.51039 v 0 c 3.56398,0.69939 7.22022,0.72475 10.84029,0.71455 3.32792,0 6.65583,0 9.98375,0 1.80809,0 1.80809,2.55702 0,2.55702 z"
       inkscape:connector-curvature="0" />
    <path
       style="opacity:0.9996;fill:#1a1a1a;stroke:none;stroke-width:1;stroke-miterlimit:4;stroke-dasharray:none;stroke-opacity:1"
       id="path4711"
       d="m 232.2967,279.79859 c -2.67784,-1.63892 -5.42106,-3.15262 -8.02694,-4.90835 -1.76429,-1.21554 -3.45142,-2.5435 -4.9484,-4.07856 -1.25798,-1.29871 0.57868,-3.07777 1.83666,-1.77906 v 0 c 1.36223,1.41859 2.93317,2.61265 4.5415,3.73767 2.56677,1.73296 5.27568,3.21657 7.91276,4.83566 1.55042,0.93026 0.23484,3.12289 -1.31558,2.19264 z"
       inkscape:connector-curvature="0" />
    <path
       style="opacity:0.9996;fill:#1a1a1a;stroke:none;stroke-width:1;stroke-miterlimit:4;stroke-dasharray:none;stroke-opacity:1"
       id="path4713"
       d="m 204.75385,260.38226 c -0.4951,-0.74883 -1.37155,-2.08319 -1.83591,-2.73823 -2.73138,-3.853 -0.47736,-0.44733 -3.48871,-4.93168 -2.01299,-2.99764 -2.00194,-3.04618 -3.88365,-6.10048 -2.09421,-3.5552 -1.09558,-1.84652 -2.99863,-5.12445 -0.9078,-1.56368 1.30358,-2.8475 2.21138,-1.28382 v 0 c 1.8865,3.24957 0.89917,1.55996 2.96448,5.06737 1.85544,3.01374 1.82441,3.0288 3.81386,5.99325 2.89178,4.309 0.77827,1.10698 3.49891,4.94663 0.48048,0.67811 1.36789,2.03034 1.87553,2.79861 0.97072,1.52541 -1.18654,2.89822 -2.15726,1.3728 z"
       inkscape:connector-curvature="0" />
    <path
       style="opacity:0.9996;fill:#1a1a1a;stroke:none;stroke-width:1;stroke-miterlimit:4;stroke-dasharray:none;stroke-opacity:1"
       id="path4715"
       d="m 185.64401,222.22069 c -0.0923,-0.4165 -0.16762,-0.83714 -0.27697,-1.24949 -0.32886,-1.24017 -0.89681,-2.91788 -1.25503,-4.10736 -0.72455,-2.40592 -1.37971,-4.83363 -2.05604,-7.25337 -0.69156,-2.61242 -0.37133,-1.35686 -0.96606,-3.76531 -0.43329,-1.7554 2.04923,-2.36817 2.48252,-0.61276 v 0 c 0.58117,2.35559 0.26762,1.1252 0.94618,3.68975 0.6691,2.39387 1.31633,4.79604 2.03317,7.17623 0.41794,1.38771 0.94581,2.91393 1.31318,4.3262 0.12317,0.47347 0.20692,0.95633 0.31038,1.4345 0.2557,1.78991 -2.27563,2.15153 -2.53133,0.36161 z"
       inkscape:connector-curvature="0" />
    <path
       style="opacity:0.9996;fill:#1a1a1a;stroke:none;stroke-width:1;stroke-miterlimit:4;stroke-dasharray:none;stroke-opacity:1"
       id="path4717"
       d="m 178.06203,180.80326 c 0.0499,-4.86722 -0.14941,-9.731 -0.37665,-14.59161 -0.10483,-2.15655 -0.20849,-4.31315 -0.30902,-6.4699 -0.0842,-1.80613 2.47007,-1.92518 2.55425,-0.11905 v 0 c 0.10052,2.15664 0.20419,4.31312 0.309,6.46955 0.22903,4.90038 0.42929,9.80397 0.37945,14.71101 0,1.80809 -2.55703,1.80809 -2.55703,0 z"
       inkscape:connector-curvature="0" />
    <path
       style="opacity:0.9996;fill:#1a1a1a;stroke:none;stroke-width:1;stroke-miterlimit:4;stroke-dasharray:none;stroke-opacity:1"
       id="path4719"
       d="m 181.5302,142.03344 c 0.21268,-3.99437 0.75972,-7.95881 1.33527,-11.914 0.27607,-2.28098 0.72898,-4.52908 1.25587,-6.76299 0.41547,-1.75971 2.90407,-1.17215 2.48861,0.58756 v 0 c -0.51085,2.16133 -0.94883,4.33639 -1.21413,6.54384 -0.57204,3.92671 -1.11176,7.8624 -1.32423,11.82797 -0.19967,1.79703 -2.74106,1.51466 -2.54139,-0.28238 z"
       inkscape:connector-curvature="0" />
    <path
       style="opacity:0.9996;fill:#1a1a1a;stroke:none;stroke-width:1;stroke-miterlimit:4;stroke-dasharray:none;stroke-opacity:1"
       id="path4721"
       d="m 178.47781,127.49009 c 1.62584,-2.73212 3.08022,-5.55757 4.4529,-8.42374 0.85415,-1.84473 1.8864,-3.59811 2.77456,-5.4259 0.6485,-1.35769 1.17204,-3.08589 3.26517,-1.73087 0.36815,0.23833 0.25701,0.83862 0.38552,1.25794 0.25952,3.40852 0.21452,6.83453 0.22285,10.25111 -0.0418,1.93781 0.069,3.87339 0.1874,5.80643 0.11041,1.80472 -2.44185,1.96086 -2.55225,0.15614 v 0 c -0.12118,-1.98296 -0.23333,-3.96855 -0.19217,-5.95634 -0.008,-3.27363 0.0226,-6.55333 -0.18545,-9.82158 0.69021,-0.33145 -0.0896,0.0181 1.87182,-0.15137 0.0243,-0.002 0.025,-0.0919 0.0104,-0.0723 -0.0763,0.10219 -0.13825,0.21452 -0.19983,0.32616 -0.1906,0.34553 -0.34732,0.69706 -0.51467,1.05441 -0.88899,1.82132 -1.90978,3.57419 -2.76738,5.41104 -1.39574,2.91203 -2.87184,5.78424 -4.52366,8.56069 -0.87809,1.58056 -3.11333,0.33875 -2.23525,-1.2418 z"
       inkscape:connector-curvature="0" />
    <path
       style="opacity:0.9996;fill:#1a1a1a;stroke:none;stroke-width:1;stroke-miterlimit:4;stroke-dasharray:none;stroke-opacity:1"
       id="path4723"
       d="m 28.139505,145.13925 c -0.440225,2.82482 -0.82445,5.71626 -0.48714,8.57576 0.07799,0.66114 0.226719,1.31201 0.340079,1.96802 0.831113,3.836 2.773227,6.78629 5.575201,9.45582 2.434359,1.93008 5.153652,3.5119 8.045198,4.64691 2.617221,0.88286 3.193084,0.28605 5.264031,-1.26364 2.463143,-2.33128 4.038838,-5.42947 5.547573,-8.42483 2.093907,-3.84928 2.786338,-8.06957 3.245967,-12.36459 0.24435,-3.53547 0.559529,-7.26018 -0.649636,-10.6716 -0.170425,-0.48082 -0.413982,-0.9325 -0.620973,-1.39875 -1.633049,-2.89801 -3.521621,-3.48616 -6.593819,-4.24551 -4.318818,-0.66899 -9.552864,-1.21048 -13.559326,0.99801 -0.913652,0.50363 -1.679361,1.23829 -2.519042,1.85744 -0.798423,0.90213 -1.596846,1.80426 -2.395269,2.70639 -1.71751,1.89434 -4.396517,-0.53459 -2.679007,-2.42893 v 0 c 0.995994,-1.07704 1.991989,-2.15408 2.987984,-3.23113 1.123512,-0.76753 2.162136,-1.67717 3.370536,-2.3026 4.781499,-2.47474 10.583256,-1.93106 15.680431,-1.10507 4.441502,1.14369 6.714707,2.17245 9.029492,6.32269 0.262782,0.62605 0.570917,1.23494 0.788346,1.87815 1.304076,3.85779 1.063614,8.01727 0.755637,12.00845 -0.517969,4.77315 -1.309748,9.32131 -3.613037,13.60645 -1.769358,3.49891 -3.644145,7.08478 -6.631607,9.70729 -3.126736,2.27398 -4.937933,3.04253 -8.743261,1.71252 -3.319531,-1.33143 -6.459768,-3.12383 -9.221927,-5.4061 -0.514759,-0.50236 -1.058546,-0.97659 -1.544277,-1.50707 -2.571006,-2.80785 -4.264717,-6.24843 -5.085677,-9.95271 -0.127774,-0.7831 -0.296706,-1.56059 -0.383322,-2.3493 -0.3509,-3.19523 0.05008,-6.4241 0.566777,-9.57653 0.554696,-2.49613 4.084765,-1.71167 3.530068,0.78446 z"
       inkscape:connector-curvature="0" />
    <path
       style="opacity:0.9996;fill:#1a1a1a;stroke:none;stroke-width:1;stroke-miterlimit:4;stroke-dasharray:none;stroke-opacity:1"
       id="path4725"
       d="m 43.553217,139.92873 c 0.492742,1.1612 0.825658,2.47822 1.600351,3.50244 0.01831,0.0242 0.03248,-0.0835 0.0031,-0.091 -0.622206,-0.15777 -1.257661,-0.25771 -1.886491,-0.38656 -0.220632,0.16092 -0.390522,0.51329 -0.661895,0.48277 -0.0031,-3.5e-4 0.05793,-0.5983 0.121943,-1.22288 0.04267,-0.4163 0.07574,-0.79164 0.109807,-0.78762 1.212375,0.14283 2.387665,0.50998 3.581497,0.76497 0.07826,2.55583 -3.536231,2.66649 -3.614486,0.11067 v 0 c 1.185403,-0.0203 2.371966,-0.005 3.556209,-0.061 0.03626,-0.002 0.01446,-0.14449 0.01069,-0.10838 -0.158354,1.51611 -0.16209,2.7508 -1.319248,3.96665 -0.78843,-0.0383 -1.60249,0.0881 -2.365292,-0.1149 -0.826744,-0.22006 -2.191772,-3.92446 -2.493682,-4.71216 -0.949655,-2.37414 2.407884,-3.71716 3.35754,-1.34302 z"
       inkscape:connector-curvature="0" />
    <path
       style="opacity:0.9996;fill:#1a1a1a;stroke:none;stroke-width:1;stroke-miterlimit:4;stroke-dasharray:none;stroke-opacity:1"
       id="path4727"
       d="m 51.290257,145.15005 c 0.06295,0.88119 0.180859,1.75627 0.475604,2.59253 0.0607,0.17222 0.120986,0.3471 0.213675,0.50443 0.01257,0.0213 0.08442,4.1e-4 0.07135,-0.0206 -0.07985,-0.12851 -0.198182,-0.22865 -0.297273,-0.34297 -0.275327,-0.0771 -0.541359,-0.2041 -0.825982,-0.2312 -0.04662,-0.004 -0.587712,0.14429 -0.584341,0.13641 0.145516,-0.34022 0.416132,-0.62152 0.559732,-0.97722 0.126709,-0.44044 0.06962,-0.21041 0.167562,-0.69101 0.559885,-2.49497 4.088315,-1.70318 3.52843,0.7918 v 0 c -0.217536,0.9236 -0.08673,0.46602 -0.393508,1.37242 -0.505969,1.08814 -1.290638,2.67801 -2.612944,2.92213 -0.490096,0.0905 -0.994212,-0.0712 -1.491317,-0.10674 -0.302267,-0.21869 -0.645283,-0.39 -0.906801,-0.65608 -1.215599,-1.23682 -1.267863,-3.30074 -1.498251,-4.89455 -0.282377,-2.54139 3.311686,-2.94073 3.594062,-0.39934 z"
       inkscape:connector-curvature="0" />
    <path
       style="opacity:0.9996;fill:#1a1a1a;stroke:none;stroke-width:1;stroke-miterlimit:4;stroke-dasharray:none;stroke-opacity:1"
       id="path4729"
       d="m 42.791469,173.43424 c 0,8.85924 0,17.71849 0,26.57774 0,4.20752 0,8.41504 0,12.62256 0,2.55703 -3.616181,2.55703 -3.616181,0 v 0 c 0,-4.20752 0,-8.41504 0,-12.62256 0,-8.85925 0,-17.7185 0,-26.57774 0,-2.55703 3.616181,-2.55703 3.616181,0 z"
       inkscape:connector-curvature="0" />
    <path
       style="opacity:0.9996;fill:#1a1a1a;stroke:none;stroke-width:1;stroke-miterlimit:4;stroke-dasharray:none;stroke-opacity:1"
       id="path4731"
       d="m 40.718232,180.13324 c -3.270983,3.4949 -6.053531,7.40266 -8.68511,11.38987 -2.090687,3.10652 -3.481647,6.57458 -4.757851,10.07111 -0.87736,2.4018 -4.274011,1.16103 -3.396651,-1.24077 v 0 c 1.37475,-3.76044 2.890858,-7.48193 5.137266,-10.82359 2.717724,-4.11021 5.58563,-8.14267 8.956737,-11.75 1.664091,-1.94144 4.409699,0.41194 2.745609,2.35338 z"
       inkscape:connector-curvature="0" />
    <path
       style="opacity:0.9996;fill:#1a1a1a;stroke:none;stroke-width:1;stroke-miterlimit:4;stroke-dasharray:none;stroke-opacity:1"
       id="path4733"
       d="m 44.255213,177.20058 c 3.019192,5.22447 5.636635,10.6646 8.573759,15.93516 1.120369,2.04181 2.29776,4.05094 3.441453,6.07956 1.255674,2.22748 -1.894457,4.00328 -3.150131,1.7758 v 0 c -1.146509,-2.03404 -2.327387,-4.04821 -3.450394,-6.09552 -2.92397,-5.2506 -5.536665,-10.66606 -8.538268,-15.87291 -1.288411,-2.20871 1.83517,-4.0308 3.123581,-1.82209 z"
       inkscape:connector-curvature="0" />
    <path
       style="opacity:0.9996;fill:#1a1a1a;stroke:none;stroke-width:1;stroke-miterlimit:4;stroke-dasharray:none;stroke-opacity:1"
       id="path4735"
       d="m 44.700689,216.6784 c 1.247852,4.95778 3.222123,9.6857 5.099145,14.4278 1.787801,4.69381 3.526271,9.41118 5.103351,14.18062 0.491337,1.76925 1.356976,3.39529 1.933344,5.13088 0.04851,0.10669 0.07554,0.22607 0.145539,0.32007 0.143496,0.19272 -0.223899,-0.50762 -0.459354,-0.55549 -1.467947,-0.29849 -1.87782,0.53007 -1.088853,-0.7851 0.937169,-1.6903 1.914642,-3.35908 2.745995,-5.10482 1.103542,-2.30664 4.36562,-0.74599 3.262078,1.56064 v 0 c -0.889144,1.85116 -1.912932,3.63099 -2.917345,5.42145 -0.206913,0.33748 -0.946855,1.64049 -1.310566,1.81543 -2.085664,1.00319 -3.081986,0.27975 -3.815812,-1.55204 -0.549105,-1.73613 -1.471571,-3.34292 -1.928586,-5.11637 -1.553443,-4.70393 -3.271337,-9.35484 -5.032153,-13.98438 -1.947128,-4.91921 -3.988178,-9.82692 -5.266852,-14.97423 -0.554696,-2.49613 2.975372,-3.28059 3.530069,-0.78446 z"
       inkscape:connector-curvature="0" />
    <path
       style="opacity:0.9996;fill:#1a1a1a;stroke:none;stroke-width:1;stroke-miterlimit:4;stroke-dasharray:none;stroke-opacity:1"
       id="path4741"
       d="m 42.101246,218.07298 c -2.028565,3.46702 -3.549508,7.18413 -5.075464,10.88878 -1.908414,4.87989 -3.330021,9.93309 -4.654752,14.99703 -1.442919,4.87659 -2.639839,9.81426 -3.756295,14.77378 -0.119943,0.5757 -0.444765,2.07627 -0.537524,2.72222 -0.03886,0.27059 -0.06666,0.54391 -0.06788,0.81727 -4.61e-4,0.10371 0.104075,0.39989 0.0629,0.3047 -0.582302,-1.34603 0.02719,-0.76086 -1.07146,-1.45414 1.281412,-0.9097 2.618753,-1.74147 3.920808,-2.62319 2.117557,-1.43329 4.144541,1.56139 2.026984,2.99468 v 0 c -1.723756,1.16624 -3.420364,2.43324 -5.369793,3.1982 -0.679166,-0.0759 -1.442972,0.10923 -2.037496,-0.22777 -2.210789,-1.25318 -0.704989,-4.76857 -0.45441,-6.52626 1.125898,-4.99999 2.33159,-9.97852 3.785818,-14.89509 1.367008,-5.22069 2.835532,-10.42978 4.809459,-15.45868 1.594652,-3.87143 3.193285,-7.75207 5.318255,-11.37204 1.315578,-2.19263 4.416428,-0.33212 3.10085,1.86051 z"
       inkscape:connector-curvature="0" />
    <path
       style="opacity:0.9996;fill:#aa0000;stroke:none;stroke-width:1;stroke-miterlimit:4;stroke-dasharray:none;stroke-opacity:1"
       d="m 111.61719,105.90234 c -0.60638,-0.01 -0.95227,0.75109 -1.41211,1.14649 -0.96276,0.82785 -1.89267,1.69453 -2.8125,2.57226 -0.054,0.0302 -0.1083,0.057 -0.16211,0.0879 -3.87822,2.62994 -7.651144,5.4155 -11.48047,8.11524 -0.636117,0.54424 -2.522771,1.86456 -2.125,3.00976 0.903586,2.60146 2.711982,1.68122 4.158203,1.03907 0.775245,-0.37915 1.56477,-0.73707 2.310547,-1.16993 -0.0639,0.0877 -0.129621,0.17393 -0.193359,0.26172 -9.298804,12.76436 -18.168579,25.84812 -26.091797,39.51954 -5.83689,10.65641 -11.86871,21.42675 -15.003906,33.25195 -0.620171,2.48068 2.887642,3.35763 3.507812,0.87695 3.075764,-11.51843 8.977597,-22.00847 14.667969,-32.39258 7.851001,-13.5342 16.633143,-26.48836 25.841801,-39.12695 2.27123,-3.33664 4.83771,-6.43716 7.43945,-9.50977 0.2967,3.85461 0.001,-2.00504 0.25195,3.67579 0.0562,2.11221 0.0161,4.22594 -0.0234,6.33789 -0.0477,2.55663 3.56754,2.62298 3.61524,0.0664 0.0407,-2.19014 0.081,-4.37995 0.0195,-6.57031 -0.0881,-1.8294 -0.0217,-5.04511 -1.11914,-6.76563 0.54885,-0.64976 1.10258,-1.29602 1.64453,-1.95117 0.14148,-0.41613 0.76628,-0.97012 0.42578,-1.24804 -0.94761,-0.77345 -2.23596,-1.20627 -3.45898,-1.22657 z"
       id="path4743" />
    <path
       style="opacity:0.9996;fill:#aa0000;stroke:none;stroke-width:1;stroke-miterlimit:4;stroke-dasharray:none;stroke-opacity:1"
       d="m 331.3418,160.35352 c -1.40419,0.015 -2.80941,0.0477 -4.21094,0.0117 -4.67197,0.0105 -9.3472,-0.01 -14.01563,0.18946 -2.36348,0.39498 -2.30389,-0.1455 -1.80859,3.67969 0.0319,0.24627 0.45544,0.19833 0.69336,0.26953 0.16075,0.0481 0.32489,0.0842 0.48828,0.12304 -0.56704,0.005 -1.13413,0.004 -1.70117,0.01 -17.95563,0.22282 -35.91049,0.69733 -53.83008,1.91601 -25.97728,1.77887 -51.92016,4.02029 -77.82617,6.64454 -25.87998,2.61052 -51.83544,5.11368 -77.3418,10.38476 -13.034105,2.88418 -26.097697,5.935 -38.572263,10.77344 -2.364426,0.97359 -0.987473,4.31733 1.376953,3.34375 12.28417,-4.75137 25.145211,-7.7513 37.97656,-10.58789 25.36911,-5.2363 51.18429,-7.72013 76.92383,-10.31641 25.86744,-2.62026 51.77036,-4.85676 77.70898,-6.63281 17.85229,-1.21395 35.74073,-1.68836 53.62891,-1.91016 5.75651,-0.0545 11.51279,-0.0741 17.26953,-0.0801 -0.86767,0.58395 -1.74205,1.1588 -2.61718,1.73242 -1.53119,0.86089 -3.03478,1.7486 -4.48633,2.74218 -0.87496,0.5308 -1.6647,1.17847 -2.55274,1.6875 -1.12276,0.65708 -1.19898,1.7862 -0.71484,2.56836 -1.36412,1.04932 -2.68482,2.16268 -3.76172,3.46485 -0.38029,0.45984 -1.00481,0.88376 -1.00781,1.48047 -0.005,1.03225 0.65899,1.95721 0.98828,2.93554 0.49597,0.0171 0.99726,0.12278 1.48828,0.0508 0.51859,-0.076 2.22754,-1.00917 2.5332,-1.16796 2.4024,-1.24803 4.80806,-2.49063 7.2168,-3.72657 5.78999,-2.9024 11.64843,-5.69898 17.18945,-9.06445 1.18022,-0.68846 1.20426,-1.89638 0.63867,-2.67969 1.32722,-0.10256 1.98958,-0.7597 0.3418,-3.92187 -0.31445,-0.60349 -1.31282,-0.36176 -1.97656,-0.51172 -1.27437,-0.28792 -2.24171,-0.45413 -3.25586,-0.61524 -0.0277,-1.83613 -1.03356,-2.38696 -2.57617,-2.70117 -1.39898,-0.10518 -2.80284,-0.10678 -4.20703,-0.0918 z m 2.24609,10.35351 c -0.53432,0.2593 -1.06971,0.51825 -1.60351,0.77735 -0.72223,0.33629 -1.44757,0.66245 -2.17188,0.99414 0.3511,-0.24998 0.69577,-0.50851 1.04883,-0.75586 0.85981,-0.6589 1.75551,-0.90173 2.72656,-1.01563 z m -7.42383,4.41406 c -0.0127,0.0966 -0.0151,0.19264 -0.0117,0.28907 -0.38292,0.19037 -0.76379,0.38553 -1.14648,0.57617 0.38643,-0.28801 0.77085,-0.57852 1.1582,-0.86524 z"
       id="path4745" />
    <text
       xml:space="preserve"
       style="font-style:normal;font-weight:normal;line-height:0%;font-family:sans-serif;letter-spacing:0px;word-spacing:0px;fill:#1a1a1a;fill-opacity:1;stroke:none;stroke-width:1px;stroke-linecap:butt;stroke-linejoin:miter;stroke-opacity:1"
       x="12.656632"
       y="285.73193"
       id="text4751"><tspan
         sodipodi:role="line"
         id="tspan4753"
         x="12.656632"
         y="285.73193"
         style="font-style:normal;font-variant:normal;font-weight:normal;font-stretch:normal;font-size:15px;line-height:1.25;font-family:'Trebuchet MS';-inkscape-font-specification:'Trebuchet MS';fill:#1a1a1a">A process</tspan></text>
    <text
       id="text4755"
       y="197.7382"
       x="131.99059"
       style="font-style:normal;font-weight:normal;line-height:0%;font-family:sans-serif;letter-spacing:0px;word-spacing:0px;fill:#aa0000;fill-opacity:1;stroke:none;stroke-width:1px;stroke-linecap:butt;stroke-linejoin:miter;stroke-opacity:1"
       xml:space="preserve"><tspan
         style="font-style:normal;font-variant:normal;font-weight:normal;font-stretch:normal;font-size:15px;line-height:1.25;font-family:'Trebuchet MS';-inkscape-font-specification:'Trebuchet MS';fill:#aa0000"
         y="197.7382"
         x="131.99059"
         id="tspan4757"
         sodipodi:role="line">Current message pointer</tspan></text>
    <text
       xml:space="preserve"
       style="font-style:normal;font-weight:normal;line-height:0%;font-family:sans-serif;letter-spacing:0px;word-spacing:0px;fill:#aa0000;fill-opacity:1;stroke:none;stroke-width:1px;stroke-linecap:butt;stroke-linejoin:miter;stroke-opacity:1"
       x="25.313263"
       y="101.90942"
       id="text4759"><tspan
         sodipodi:role="line"
         id="tspan4761"
         x="25.313263"
         y="101.90942"
         style="font-style:normal;font-variant:normal;font-weight:normal;font-stretch:normal;font-size:15px;line-height:1.25;font-family:'Trebuchet MS';-inkscape-font-specification:'Trebuchet MS';fill:#aa0000">Queue head</tspan></text>
  </g>
</svg>
