<?xml version="1.0" encoding="UTF-8" standalone="no"?>
<!-- Created with Inkscape (http://www.inkscape.org/) -->

<svg
   width="71.759872mm"
   height="26.157322mm"
   viewBox="0 0 254.26727 92.683421"
   id="svg3391"
   version="1.1"
   inkscape:version="1.3.2 (091e20e, 2023-11-25, custom)"
   sodipodi:docname="eli5Process_stack.svg"
   inkscape:export-filename="eli5Process_stack.png"
   inkscape:export-xdpi="250.23758"
   inkscape:export-ydpi="250.23758"
   xmlns:inkscape="http://www.inkscape.org/namespaces/inkscape"
   xmlns:sodipodi="http://sodipodi.sourceforge.net/DTD/sodipodi-0.dtd"
   xmlns="http://www.w3.org/2000/svg"
   xmlns:svg="http://www.w3.org/2000/svg"
   xmlns:rdf="http://www.w3.org/1999/02/22-rdf-syntax-ns#"
   xmlns:cc="http://creativecommons.org/ns#"
   xmlns:dc="http://purl.org/dc/elements/1.1/">
  <defs
     id="defs3393" />
  <sodipodi:namedview
     id="base"
     pagecolor="#ffffff"
     bordercolor="#666666"
     borderopacity="1.0"
     inkscape:pageopacity="0.0"
     inkscape:pageshadow="2"
     inkscape:zoom="2.4137408"
     inkscape:cx="173.58948"
     inkscape:cy="150.18183"
     inkscape:document-units="px"
     inkscape:current-layer="layer1"
     showgrid="false"
     inkscape:window-width="2560"
     inkscape:window-height="1411"
     inkscape:window-x="-9"
     inkscape:window-y="-9"
     inkscape:window-maximized="1"
     inkscape:showpageshadow="0"
     inkscape:pagecheckerboard="1"
     inkscape:deskcolor="#d1d1d1" />
  <metadata
     id="metadata3396">
    <rdf:RDF>
      <cc:Work
         rdf:about="">
        <dc:format>image/svg+xml</dc:format>
        <dc:type
           rdf:resource="http://purl.org/dc/dcmitype/StillImage" />
      </cc:Work>
    </rdf:RDF>
  </metadata>
  <g
     inkscape:label="Layer 1"
     inkscape:groupmode="layer"
     id="layer1"
     transform="translate(-15.409087,3.9291945)">
    <rect
       style="color:#000000;overflow:visible;fill:#e6e6e6;fill-opacity:0.533528;stroke-width:0.782571;stroke-linecap:round"
       id="rect1"
       width="254.26726"
       height="92.683426"
       x="15.409087"
       y="-3.9291945"
       ry="11.260288"
       rx="11.260288" />
    <rect
       style="opacity:0.9996;fill:#e6e6e6;stroke:#000000;stroke-width:1;stroke-miterlimit:4;stroke-dasharray:none;stroke-opacity:1"
       id="rect3399"
       width="236.51848"
       height="35.462849"
       x="24.222929"
       y="23.72794" />
    <text
       xml:space="preserve"
       style="font-style:normal;font-weight:normal;line-height:0%;font-family:sans-serif;letter-spacing:0px;word-spacing:0px;fill:#000000;fill-opacity:1;stroke:none;stroke-width:1;stroke-linecap:butt;stroke-linejoin:miter;stroke-miterlimit:4;stroke-dasharray:none;stroke-opacity:1"
       x="124.44192"
       y="19.323786"
       id="text4259"><tspan
         sodipodi:role="line"
         id="tspan4261"
         x="124.44192"
         y="19.323786"
         style="font-size:10px;line-height:1.25"> </tspan></text>
    <text
       xml:space="preserve"
       style="font-style:normal;font-weight:normal;line-height:0%;font-family:sans-serif;letter-spacing:0px;word-spacing:0px;fill:#d56a11;fill-opacity:1;stroke:none;stroke-width:1;stroke-linecap:butt;stroke-linejoin:miter;stroke-miterlimit:4;stroke-dasharray:none;stroke-opacity:1"
       x="20.894964"
       y="80.828934"
       id="text4325"><tspan
         sodipodi:role="line"
         id="tspan4327"
         x="20.894964"
         y="80.828934"
         style="font-style:normal;font-variant:normal;font-weight:normal;font-stretch:normal;font-size:10px;line-height:1.25;font-family:'Trebuchet MS';-inkscape-font-specification:'Trebuchet MS';fill:#d56a11;stroke-width:1;stroke-miterlimit:4;stroke-dasharray:none">heap start</tspan></text>
    <text
       id="text4329"
       y="78.332016"
       x="91.994247"
       style="font-style:normal;font-weight:normal;line-height:0%;font-family:sans-serif;letter-spacing:0px;word-spacing:0px;fill:#28a745;fill-opacity:1;stroke:none;stroke-width:1;stroke-linecap:butt;stroke-linejoin:miter;stroke-miterlimit:4;stroke-dasharray:none;stroke-opacity:1"
       xml:space="preserve"><tspan
         y="78.332016"
         x="91.994247"
         id="tspan4331"
         sodipodi:role="line"
         style="font-style:normal;font-variant:normal;font-weight:normal;font-stretch:normal;font-size:10px;line-height:1.25;font-family:'Trebuchet MS';-inkscape-font-specification:'Trebuchet MS';fill:#28a745;stroke-width:1;stroke-miterlimit:4;stroke-dasharray:none">heap top</tspan></text>
    <text
       xml:space="preserve"
       style="font-style:normal;font-weight:normal;line-height:0%;font-family:sans-serif;letter-spacing:0px;word-spacing:0px;fill:#28a745;fill-opacity:1;stroke:none;stroke-width:1;stroke-linecap:butt;stroke-linejoin:miter;stroke-miterlimit:4;stroke-dasharray:none;stroke-opacity:1"
       x="92.814972"
       y="13.841912"
       id="text4333"><tspan
         sodipodi:role="line"
         id="tspan4335"
         x="92.814972"
         y="13.841912"
         style="font-style:normal;font-variant:normal;font-weight:normal;font-stretch:normal;font-size:10px;line-height:1.25;font-family:'Trebuchet MS';-inkscape-font-specification:'Trebuchet MS';fill:#28a745;stroke-width:1;stroke-miterlimit:4;stroke-dasharray:none">heap grows</tspan></text>
    <rect
       style="opacity:0.9996;fill:#6dc381;stroke:#155724;stroke-width:1;stroke-miterlimit:4;stroke-dasharray:none;stroke-opacity:1"
       id="rect4337"
       width="113.93104"
       height="29.000628"
       x="27.343451"
       y="26.568525" />
    <path
       style="opacity:0.9996;fill:#228c3a;stroke:none;stroke-width:1;stroke-miterlimit:4;stroke-dasharray:none;stroke-opacity:1"
       id="path4339"
       d="m 111.98593,17.402255 c 5.44739,0 10.89478,0 16.34217,0 6.8015,0 13.603,0 20.40451,0 2.05324,0 4.10649,0 6.15973,0 0.87885,0 0.87885,1.242884 0,1.242884 v 0 c -2.05324,0 -4.10649,0 -6.15973,0 -6.80151,0 -13.60301,0 -20.40451,0 -5.44739,0 -10.89478,0 -16.34217,0 -0.87885,0 -0.87885,-1.242884 0,-1.242884 z"
       inkscape:connector-curvature="0" />
    <path
       style="opacity:0.9996;fill:#228c3a;stroke:none;stroke-width:1;stroke-miterlimit:4;stroke-dasharray:none;stroke-opacity:1"
       id="path4341"
       d="m 148.88806,13.019893 c 2.36007,0.827769 4.71679,1.66563 7.07558,2.497325 0.71963,0.356351 2.83835,0.820081 3.14014,1.742069 0.0667,0.203913 0.0369,0.427529 0.0554,0.641293 -0.0899,0.162261 -0.14893,0.345937 -0.26964,0.486784 -0.59568,0.695095 -2.25823,1.360752 -3.07549,1.765458 -1.33382,0.592736 -2.59737,1.340696 -3.9655,1.853526 -0.49056,0.219407 -0.24456,0.111363 -0.73802,0.324132 -0.80705,0.347904 -1.29906,-0.793449 -0.49201,-1.141353 v 0 c 0.50473,-0.217519 0.23908,-0.10186 0.79665,-0.347657 1.3301,-0.490486 2.54917,-1.236766 3.84738,-1.802472 0.47969,-0.237487 0.99699,-0.490028 1.4725,-0.73872 0.21448,-0.112172 0.89157,-0.595303 1.14241,-0.63434 0.0209,-0.0033 0.0372,0.0202 0.0557,0.0303 0.0412,0.07753 0.0717,0.161713 0.12348,0.232576 0.0104,0.01421 0.0205,-0.03929 0.008,-0.05213 -0.0742,-0.07905 -0.16012,-0.147694 -0.25113,-0.206569 -0.69459,-0.449353 -1.50546,-0.671199 -2.2636,-0.980748 -2.34018,-0.825214 -4.67867,-1.655716 -7.0194,-2.479007 -0.84179,-0.252536 -0.48465,-1.443004 0.35714,-1.190467 z"
       inkscape:connector-curvature="0" />
    <rect
       y="26.485151"
       x="178.88863"
       height="29.167377"
       width="78.650764"
       id="rect4351"
       style="opacity:0.9996;fill:#5599ff;stroke:#0055d4;stroke-width:1;stroke-miterlimit:4;stroke-dasharray:none;stroke-opacity:1" />
    <text
       xml:space="preserve"
       style="font-style:normal;font-weight:normal;line-height:0%;font-family:sans-serif;letter-spacing:0px;word-spacing:0px;fill:#d56a11;fill-opacity:1;stroke:none;stroke-width:1;stroke-linecap:butt;stroke-linejoin:miter;stroke-miterlimit:4;stroke-dasharray:none;stroke-opacity:1"
       x="223.55223"
       y="79.423019"
       id="text4353"><tspan
         sodipodi:role="line"
         id="tspan4355"
         x="223.55223"
         y="79.423019"
         style="font-style:normal;font-variant:normal;font-weight:normal;font-stretch:normal;font-size:10px;line-height:1.25;font-family:'Trebuchet MS';-inkscape-font-specification:'Trebuchet MS';fill:#d56a11;stroke-width:1;stroke-miterlimit:4;stroke-dasharray:none">heap end</tspan></text>
    <g
       id="g4367"
       style="fill:#d56a11;stroke-width:1;stroke-miterlimit:4;stroke-dasharray:none">
      <path
         inkscape:connector-curvature="0"
         d="m 30.252155,72.826637 c -0.676115,-0.455288 -1.270872,-1.010973 -1.842254,-1.58857 -0.395115,-0.402806 -0.744863,-0.849302 -1.005687,-1.351314 -0.149414,-0.28758 -0.242661,-0.536231 -0.36506,-0.836239 -0.35846,-0.953475 -0.565136,-1.952464 -0.703799,-2.958764 -0.12803,-0.898695 -0.18412,-1.805233 -0.218907,-2.711652 -0.03747,-0.551419 -0.0034,-1.099593 0.07668,-1.645154 0.05516,-0.265667 0.124333,-0.528797 0.18148,-0.793592 0.186943,0.07914 0.418828,0.09234 0.560829,0.237411 0.05778,0.05903 -0.07218,0.148684 -0.112176,0.220951 -0.06868,0.124077 -0.139368,0.247111 -0.213741,0.36786 -0.381485,0.619364 -0.807173,1.209398 -1.22784,1.802247 -0.428148,0.584963 -0.862967,1.164949 -1.299992,1.743287 -0.264926,0.350584 -0.760727,-0.02408 -0.4958,-0.374663 v 0 c 0.433298,-0.57338 0.86437,-1.148421 1.288996,-1.728274 0.41001,-0.577686 0.824728,-1.15262 1.197673,-1.755424 0.06848,-0.110682 0.133591,-0.223457 0.196978,-0.33713 0.03547,-0.06361 0.02723,-0.18544 0.09949,-0.194528 0.208268,-0.02619 0.414063,0.06927 0.621095,0.103902 -0.04318,0.269624 -0.131159,0.530392 -0.182182,0.798491 -0.07502,0.507734 -0.106451,1.017519 -0.0705,1.530824 0.03389,0.886118 0.08838,1.772389 0.213592,2.65095 0.130516,0.955102 0.326109,1.903258 0.6637,2.808937 0.104405,0.257044 0.201712,0.513956 0.328473,0.761228 0.233663,0.455809 0.550704,0.859318 0.908599,1.223705 0.544859,0.551299 1.111256,1.08251 1.75673,1.516406 0.359992,0.251994 0.0036,0.7611 -0.356373,0.509105 z"
         id="path4363"
         style="opacity:0.9996;fill:#d56a11;stroke:none;stroke-width:1;stroke-miterlimit:4;stroke-dasharray:none;stroke-opacity:1" />
      <path
         inkscape:connector-curvature="0"
         d="m 27.136302,61.01247 c -0.0084,0.621764 0.01791,1.243782 0.07355,1.863004 0.04999,0.530593 0.219711,1.036386 0.386354,1.539095 0.09383,0.278972 0.188065,0.566973 0.341993,0.820003 0.106037,0.150514 0.207763,0.300306 0.328441,0.439705 0.28651,0.333178 -0.184675,0.738364 -0.471184,0.405186 v 0 c -0.144067,-0.168428 -0.269215,-0.347999 -0.393675,-0.531131 -0.168725,-0.295228 -0.294167,-0.614201 -0.395497,-0.93836 -0.181462,-0.548234 -0.362694,-1.100573 -0.415416,-1.679274 -0.05651,-0.637644 -0.08492,-1.277991 -0.07601,-1.918228 0,-0.439426 0.621442,-0.439426 0.621442,0 z"
         id="path4365"
         style="opacity:0.9996;fill:#d56a11;stroke:none;stroke-width:1;stroke-miterlimit:4;stroke-dasharray:none;stroke-opacity:1" />
    </g>
    <g
       id="g4371"
       transform="matrix(-1.1720422,0,0,1,173.9037,-0.82858941)"
       style="fill:#228c3a;stroke-width:0.923695;stroke-miterlimit:4;stroke-dasharray:none">
      <path
         style="opacity:0.9996;fill:#228c3a;stroke:none;stroke-width:0.923695;stroke-miterlimit:4;stroke-dasharray:none;stroke-opacity:1"
         id="path4373"
         d="m 30.252155,72.826637 c -0.676115,-0.455288 -1.270872,-1.010973 -1.842254,-1.58857 -0.395115,-0.402806 -0.744863,-0.849302 -1.005687,-1.351314 -0.149414,-0.28758 -0.242661,-0.536231 -0.36506,-0.836239 -0.35846,-0.953475 -0.565136,-1.952464 -0.703799,-2.958764 -0.12803,-0.898695 -0.18412,-1.805233 -0.218907,-2.711652 -0.03747,-0.551419 -0.0034,-1.099593 0.07668,-1.645154 0.05516,-0.265667 0.124333,-0.528797 0.18148,-0.793592 0.186943,0.07914 0.418828,0.09234 0.560829,0.237411 0.05778,0.05903 -0.07218,0.148684 -0.112176,0.220951 -0.06868,0.124077 -0.139368,0.247111 -0.213741,0.36786 -0.381485,0.619364 -0.807173,1.209398 -1.22784,1.802247 -0.428148,0.584963 -0.862967,1.164949 -1.299992,1.743287 -0.264926,0.350584 -0.760727,-0.02408 -0.4958,-0.374663 v 0 c 0.433298,-0.57338 0.86437,-1.148421 1.288996,-1.728274 0.41001,-0.577686 0.824728,-1.15262 1.197673,-1.755424 0.06848,-0.110682 0.133591,-0.223457 0.196978,-0.33713 0.03547,-0.06361 0.02723,-0.18544 0.09949,-0.194528 0.208268,-0.02619 0.414063,0.06927 0.621095,0.103902 -0.04318,0.269624 -0.131159,0.530392 -0.182182,0.798491 -0.07502,0.507734 -0.106451,1.017519 -0.0705,1.530824 0.03389,0.886118 0.08838,1.772389 0.213592,2.65095 0.130516,0.955102 0.326109,1.903258 0.6637,2.808937 0.104405,0.257044 0.201712,0.513956 0.328473,0.761228 0.233663,0.455809 0.550704,0.859318 0.908599,1.223705 0.544859,0.551299 1.111256,1.08251 1.75673,1.516406 0.359992,0.251994 0.0036,0.7611 -0.356373,0.509105 z"
         inkscape:connector-curvature="0" />
      <path
         style="opacity:0.9996;fill:#228c3a;stroke:none;stroke-width:0.923695;stroke-miterlimit:4;stroke-dasharray:none;stroke-opacity:1"
         id="path4375"
         d="m 27.136302,61.01247 c -0.0084,0.621764 0.01791,1.243782 0.07355,1.863004 0.04999,0.530593 0.219711,1.036386 0.386354,1.539095 0.09383,0.278972 0.188065,0.566973 0.341993,0.820003 0.106037,0.150514 0.207763,0.300306 0.328441,0.439705 0.28651,0.333178 -0.184675,0.738364 -0.471184,0.405186 v 0 c -0.144067,-0.168428 -0.269215,-0.347999 -0.393675,-0.531131 -0.168725,-0.295228 -0.294167,-0.614201 -0.395497,-0.93836 -0.181462,-0.548234 -0.362694,-1.100573 -0.415416,-1.679274 -0.05651,-0.637644 -0.08492,-1.277991 -0.07601,-1.918228 0,-0.439426 0.621442,-0.439426 0.621442,0 z"
         inkscape:connector-curvature="0" />
    </g>
    <g
       transform="matrix(-1.1720422,0,0,1,289.07763,-0.41429472)"
       id="g4377"
       style="fill:#d56a11;stroke-width:0.923695;stroke-miterlimit:4;stroke-dasharray:none">
      <path
         inkscape:connector-curvature="0"
         d="m 30.252155,72.826637 c -0.676115,-0.455288 -1.270872,-1.010973 -1.842254,-1.58857 -0.395115,-0.402806 -0.744863,-0.849302 -1.005687,-1.351314 -0.149414,-0.28758 -0.242661,-0.536231 -0.36506,-0.836239 -0.35846,-0.953475 -0.565136,-1.952464 -0.703799,-2.958764 -0.12803,-0.898695 -0.18412,-1.805233 -0.218907,-2.711652 -0.03747,-0.551419 -0.0034,-1.099593 0.07668,-1.645154 0.05516,-0.265667 0.124333,-0.528797 0.18148,-0.793592 0.186943,0.07914 0.418828,0.09234 0.560829,0.237411 0.05778,0.05903 -0.07218,0.148684 -0.112176,0.220951 -0.06868,0.124077 -0.139368,0.247111 -0.213741,0.36786 -0.381485,0.619364 -0.807173,1.209398 -1.22784,1.802247 -0.428148,0.584963 -0.862967,1.164949 -1.299992,1.743287 -0.264926,0.350584 -0.760727,-0.02408 -0.4958,-0.374663 v 0 c 0.433298,-0.57338 0.86437,-1.148421 1.288996,-1.728274 0.41001,-0.577686 0.824728,-1.15262 1.197673,-1.755424 0.06848,-0.110682 0.133591,-0.223457 0.196978,-0.33713 0.03547,-0.06361 0.02723,-0.18544 0.09949,-0.194528 0.208268,-0.02619 0.414063,0.06927 0.621095,0.103902 -0.04318,0.269624 -0.131159,0.530392 -0.182182,0.798491 -0.07502,0.507734 -0.106451,1.017519 -0.0705,1.530824 0.03389,0.886118 0.08838,1.772389 0.213592,2.65095 0.130516,0.955102 0.326109,1.903258 0.6637,2.808937 0.104405,0.257044 0.201712,0.513956 0.328473,0.761228 0.233663,0.455809 0.550704,0.859318 0.908599,1.223705 0.544859,0.551299 1.111256,1.08251 1.75673,1.516406 0.359992,0.251994 0.0036,0.7611 -0.356373,0.509105 z"
         id="path4379"
         style="opacity:0.9996;fill:#d56a11;stroke:none;stroke-width:0.923695;stroke-miterlimit:4;stroke-dasharray:none;stroke-opacity:1" />
      <path
         inkscape:connector-curvature="0"
         d="m 27.136302,61.01247 c -0.0084,0.621764 0.01791,1.243782 0.07355,1.863004 0.04999,0.530593 0.219711,1.036386 0.386354,1.539095 0.09383,0.278972 0.188065,0.566973 0.341993,0.820003 0.106037,0.150514 0.207763,0.300306 0.328441,0.439705 0.28651,0.333178 -0.184675,0.738364 -0.471184,0.405186 v 0 c -0.144067,-0.168428 -0.269215,-0.347999 -0.393675,-0.531131 -0.168725,-0.295228 -0.294167,-0.614201 -0.395497,-0.93836 -0.181462,-0.548234 -0.362694,-1.100573 -0.415416,-1.679274 -0.05651,-0.637644 -0.08492,-1.277991 -0.07601,-1.918228 0,-0.439426 0.621442,-0.439426 0.621442,0 z"
         id="path4381"
         style="opacity:0.9996;fill:#d56a11;stroke:none;stroke-width:0.923695;stroke-miterlimit:4;stroke-dasharray:none;stroke-opacity:1" />
    </g>
    <text
       xml:space="preserve"
       style="font-style:normal;font-weight:normal;line-height:0%;font-family:sans-serif;letter-spacing:0px;word-spacing:0px;fill:#0055d4;fill-opacity:1;stroke:none;stroke-width:1;stroke-linecap:butt;stroke-linejoin:miter;stroke-miterlimit:4;stroke-dasharray:none;stroke-opacity:1"
       x="168.82509"
       y="79.391098"
       id="text4383"><tspan
         sodipodi:role="line"
         id="tspan4385"
         x="168.82509"
         y="79.391098"
         style="font-style:normal;font-variant:normal;font-weight:normal;font-stretch:normal;font-size:10px;line-height:1.25;font-family:'Trebuchet MS';-inkscape-font-specification:'Trebuchet MS';fill:#0055d4;stroke-width:1;stroke-miterlimit:4;stroke-dasharray:none">stack top</tspan></text>
    <g
       id="g4387"
       transform="translate(152.6676,-0.62144204)"
       style="fill:#0055d4;stroke-width:1;stroke-miterlimit:4;stroke-dasharray:none">
      <path
         style="opacity:0.9996;fill:#0055d4;stroke:none;stroke-width:1;stroke-miterlimit:4;stroke-dasharray:none;stroke-opacity:1"
         id="path4389"
         d="m 30.252155,72.826637 c -0.676115,-0.455288 -1.270872,-1.010973 -1.842254,-1.58857 -0.395115,-0.402806 -0.744863,-0.849302 -1.005687,-1.351314 -0.149414,-0.28758 -0.242661,-0.536231 -0.36506,-0.836239 -0.35846,-0.953475 -0.565136,-1.952464 -0.703799,-2.958764 -0.12803,-0.898695 -0.18412,-1.805233 -0.218907,-2.711652 -0.03747,-0.551419 -0.0034,-1.099593 0.07668,-1.645154 0.05516,-0.265667 0.124333,-0.528797 0.18148,-0.793592 0.186943,0.07914 0.418828,0.09234 0.560829,0.237411 0.05778,0.05903 -0.07218,0.148684 -0.112176,0.220951 -0.06868,0.124077 -0.139368,0.247111 -0.213741,0.36786 -0.381485,0.619364 -0.807173,1.209398 -1.22784,1.802247 -0.428148,0.584963 -0.862967,1.164949 -1.299992,1.743287 -0.264926,0.350584 -0.760727,-0.02408 -0.4958,-0.374663 v 0 c 0.433298,-0.57338 0.86437,-1.148421 1.288996,-1.728274 0.41001,-0.577686 0.824728,-1.15262 1.197673,-1.755424 0.06848,-0.110682 0.133591,-0.223457 0.196978,-0.33713 0.03547,-0.06361 0.02723,-0.18544 0.09949,-0.194528 0.208268,-0.02619 0.414063,0.06927 0.621095,0.103902 -0.04318,0.269624 -0.131159,0.530392 -0.182182,0.798491 -0.07502,0.507734 -0.106451,1.017519 -0.0705,1.530824 0.03389,0.886118 0.08838,1.772389 0.213592,2.65095 0.130516,0.955102 0.326109,1.903258 0.6637,2.808937 0.104405,0.257044 0.201712,0.513956 0.328473,0.761228 0.233663,0.455809 0.550704,0.859318 0.908599,1.223705 0.544859,0.551299 1.111256,1.08251 1.75673,1.516406 0.359992,0.251994 0.0036,0.7611 -0.356373,0.509105 z"
         inkscape:connector-curvature="0" />
      <path
         style="opacity:0.9996;fill:#0055d4;stroke:none;stroke-width:1;stroke-miterlimit:4;stroke-dasharray:none;stroke-opacity:1"
         id="path4391"
         d="m 27.136302,61.01247 c -0.0084,0.621764 0.01791,1.243782 0.07355,1.863004 0.04999,0.530593 0.219711,1.036386 0.386354,1.539095 0.09383,0.278972 0.188065,0.566973 0.341993,0.820003 0.106037,0.150514 0.207763,0.300306 0.328441,0.439705 0.28651,0.333178 -0.184675,0.738364 -0.471184,0.405186 v 0 c -0.144067,-0.168428 -0.269215,-0.347999 -0.393675,-0.531131 -0.168725,-0.295228 -0.294167,-0.614201 -0.395497,-0.93836 -0.181462,-0.548234 -0.362694,-1.100573 -0.415416,-1.679274 -0.05651,-0.637644 -0.08492,-1.277991 -0.07601,-1.918228 0,-0.439426 0.621442,-0.439426 0.621442,0 z"
         inkscape:connector-curvature="0" />
    </g>
    <text
       id="text4393"
       y="14.722288"
       x="180.90439"
       style="font-style:normal;font-weight:normal;line-height:0%;font-family:sans-serif;letter-spacing:0px;word-spacing:0px;fill:#0066ff;fill-opacity:1;stroke:none;stroke-width:1;stroke-linecap:butt;stroke-linejoin:miter;stroke-miterlimit:4;stroke-dasharray:none;stroke-opacity:1"
       xml:space="preserve"><tspan
         style="font-style:normal;font-variant:normal;font-weight:normal;font-stretch:normal;font-size:10px;line-height:1.25;font-family:'Trebuchet MS';-inkscape-font-specification:'Trebuchet MS';fill:#0066ff;stroke-width:1;stroke-miterlimit:4;stroke-dasharray:none"
         y="14.722288"
         x="180.90439"
         id="tspan4395"
         sodipodi:role="line">stack grows</tspan></text>
    <path
       inkscape:connector-curvature="0"
       d="m 207.18905,17.635296 c -5.31009,0 -10.62019,0 -15.93028,0 -6.63007,0 -13.26014,0 -19.89022,0 -2.00149,0 -4.00299,0 -6.00448,0 -0.8567,0 -0.8567,1.242884 0,1.242884 v 0 c 2.00149,0 4.00299,0 6.00448,0 6.63008,0 13.26015,0 19.89022,0 5.31009,0 10.62019,0 15.93028,0 0.8567,0 0.8567,-1.242884 0,-1.242884 z"
       id="path4397"
       style="opacity:0.9996;fill:#0066ff;stroke:none;stroke-width:1;stroke-miterlimit:4;stroke-dasharray:none;stroke-opacity:1" />
    <path
       inkscape:connector-curvature="0"
       d="m 171.21701,13.252933 c -2.30058,0.82777 -4.5979,1.66563 -6.89724,2.497326 -0.70149,0.356351 -2.76681,0.820081 -3.061,1.742068 -0.065,0.203914 -0.036,0.427529 -0.054,0.641294 0.0876,0.162261 0.14518,0.345937 0.26284,0.486784 0.58067,0.695095 2.20132,1.360752 2.99798,1.765458 1.3002,0.592736 2.5319,1.340696 3.86555,1.853526 0.4782,0.219407 0.2384,0.111363 0.71942,0.324132 0.78671,0.347904 1.26632,-0.793449 0.47961,-1.141353 v 0 c -0.49201,-0.217519 -0.23306,-0.10186 -0.77657,-0.347657 -1.29658,-0.490486 -2.48492,-1.236766 -3.75041,-1.802472 -0.4676,-0.237487 -0.97186,-0.490028 -1.43539,-0.73872 -0.20907,-0.112172 -0.8691,-0.595303 -1.11361,-0.63434 -0.0204,-0.0033 -0.0363,0.0202 -0.0543,0.0303 -0.0402,0.07753 -0.0699,0.161712 -0.12037,0.232575 -0.0101,0.01421 -0.02,-0.03929 -0.008,-0.05213 0.0723,-0.07905 0.15609,-0.147693 0.2448,-0.206568 0.67709,-0.449354 1.46752,-0.671199 2.20655,-0.980748 2.2812,-0.825214 4.56075,-1.655716 6.84248,-2.479007 0.82057,-0.252537 0.47244,-1.443004 -0.34814,-1.190468 z"
       id="path4399"
       style="opacity:0.9996;fill:#0066ff;stroke:none;stroke-width:1;stroke-miterlimit:4;stroke-dasharray:none;stroke-opacity:1" />
  </g>
</svg>
