<?xml version="1.0" encoding="UTF-8" standalone="no"?>
<!-- Created with Inkscape (http://www.inkscape.org/) -->

<svg
   width="74.990768mm"
   height="41.940144mm"
   viewBox="0 0 265.71532 148.60681"
   id="svg2"
   version="1.1"
   inkscape:version="1.3.2 (091e20e, 2023-11-25, custom)"
   sodipodi:docname="memoryLayout_box.svg"
   inkscape:export-filename="/home/kv/proj/beam-wisdoms/docs/source/_static/img/memory-layout-box.png"
   inkscape:export-xdpi="200.02306"
   inkscape:export-ydpi="200.02306"
   xmlns:inkscape="http://www.inkscape.org/namespaces/inkscape"
   xmlns:sodipodi="http://sodipodi.sourceforge.net/DTD/sodipodi-0.dtd"
   xmlns="http://www.w3.org/2000/svg"
   xmlns:svg="http://www.w3.org/2000/svg"
   xmlns:rdf="http://www.w3.org/1999/02/22-rdf-syntax-ns#"
   xmlns:cc="http://creativecommons.org/ns#"
   xmlns:dc="http://purl.org/dc/elements/1.1/">
  <defs
     id="defs4" />
  <sodipodi:namedview
     id="base"
     pagecolor="#ffffff"
     bordercolor="#666666"
     borderopacity="1.0"
     inkscape:pageopacity="0.0"
     inkscape:pageshadow="2"
     inkscape:zoom="2.4137408"
     inkscape:cx="80.37317"
     inkscape:cy="151.42471"
     inkscape:document-units="px"
     inkscape:current-layer="layer1"
     showgrid="false"
     showguides="true"
     inkscape:guide-bbox="true"
     inkscape:window-width="2560"
     inkscape:window-height="1411"
     inkscape:window-x="-9"
     inkscape:window-y="-9"
     inkscape:window-maximized="1"
     inkscape:showpageshadow="0"
     inkscape:pagecheckerboard="1"
     inkscape:deskcolor="#d1d1d1">
    <sodipodi:guide
       position="169.29419,1001.0442"
       orientation="0,1"
       id="guide3359"
       inkscape:locked="false" />
  </sodipodi:namedview>
  <metadata
     id="metadata7">
    <rdf:RDF>
      <cc:Work
         rdf:about="">
        <dc:format>image/svg+xml</dc:format>
        <dc:type
           rdf:resource="http://purl.org/dc/dcmitype/StillImage" />
      </cc:Work>
    </rdf:RDF>
  </metadata>
  <g
     inkscape:label="Layer 1"
     inkscape:groupmode="layer"
     id="layer1"
     transform="translate(7.1513314,6.455761)">
    <rect
       style="color:#000000;overflow:visible;fill:#e6e6e6;fill-opacity:0.533528;stroke:none;stroke-width:1.72021;stroke-linecap:round"
       id="rect1"
       width="265.71533"
       height="148.60681"
       x="-7.1513314"
       y="-6.455761"
       ry="6.3923717"
       rx="6.3923717" />
    <rect
       style="opacity:0.9996;fill:#999999;stroke:#000000;stroke-width:1;stroke-miterlimit:4;stroke-dasharray:none;stroke-opacity:1"
       id="rect3340"
       width="177.92862"
       height="20.285347"
       x="61.013611"
       y="41.158356" />
    <rect
       style="opacity:0.9996;fill:#ffff00;stroke:#000000;stroke-width:1;stroke-miterlimit:4;stroke-dasharray:none;stroke-opacity:1"
       id="rect3342"
       width="12.12183"
       height="12.12183"
       x="223.60085"
       y="44.735039" />
    <rect
       style="opacity:0.9996;fill:#ffff00;stroke:#000000;stroke-width:1;stroke-miterlimit:4;stroke-dasharray:none;stroke-opacity:1"
       id="rect3342-0"
       width="12.12183"
       height="12.12183"
       x="208.44858"
       y="44.944248" />
    <text
       xml:space="preserve"
       style="font-style:normal;font-variant:normal;font-weight:normal;font-stretch:normal;line-height:0%;font-family:'Trebuchet MS';-inkscape-font-specification:'Trebuchet MS';letter-spacing:0px;word-spacing:0px;fill:#000000;fill-opacity:1;stroke:none;stroke-width:1px;stroke-linecap:butt;stroke-linejoin:miter;stroke-opacity:1"
       x="162.46202"
       y="27.398937"
       id="text3391"><tspan
         sodipodi:role="line"
         id="tspan3393"
         x="162.46202"
         y="27.398937"
         style="font-size:10px;line-height:1.25">TAG_PRIMARY_BOX</tspan></text>
    <text
       xml:space="preserve"
       style="font-style:normal;font-variant:normal;font-weight:normal;font-stretch:normal;line-height:0%;font-family:'Trebuchet MS';-inkscape-font-specification:'Trebuchet MS';letter-spacing:0px;word-spacing:0px;fill:#000000;fill-opacity:1;stroke:none;stroke-width:1px;stroke-linecap:butt;stroke-linejoin:miter;stroke-opacity:1"
       x="61.069256"
       y="37.054947"
       id="text3391-1"><tspan
         sodipodi:role="line"
         id="tspan3393-5"
         x="61.069256"
         y="37.054947"
         style="font-size:10px;line-height:1.25">32 or 64bit Word</tspan></text>
    <text
       id="text3519"
       y="54.226044"
       x="82.054619"
       style="font-style:normal;font-variant:normal;font-weight:normal;font-stretch:normal;line-height:0%;font-family:'Trebuchet MS';-inkscape-font-specification:'Trebuchet MS';letter-spacing:0px;word-spacing:0px;fill:#000000;fill-opacity:1;stroke:none;stroke-width:1px;stroke-linecap:butt;stroke-linejoin:miter;stroke-opacity:1"
       xml:space="preserve"><tspan
         style="font-size:10px;line-height:1.25"
         y="54.226044"
         x="82.054619"
         id="tspan3521"
         sodipodi:role="line">Pointer to the heap</tspan></text>
    <rect
       style="opacity:0.9996;fill:#e9afaf;stroke:#000000;stroke-width:1;stroke-miterlimit:4;stroke-dasharray:none;stroke-opacity:1"
       id="rect3523"
       width="127.14286"
       height="17.857143"
       x="8.5714283"
       y="80.147964" />
    <rect
       y="79.939743"
       x="140.14893"
       height="18.273584"
       width="42.31068"
       id="rect3525"
       style="opacity:0.9996;fill:#f4d7d7;stroke:#000000;stroke-width:1;stroke-miterlimit:4;stroke-dasharray:none;stroke-opacity:1" />
    <text
       xml:space="preserve"
       style="font-style:normal;font-variant:normal;font-weight:normal;font-stretch:normal;line-height:0%;font-family:'Trebuchet MS';-inkscape-font-specification:'Trebuchet MS';letter-spacing:0px;word-spacing:0px;fill:#000000;fill-opacity:1;stroke:none;stroke-width:1px;stroke-linecap:butt;stroke-linejoin:miter;stroke-opacity:1"
       x="4.4057884"
       y="120.81985"
       id="text3531"><tspan
         sodipodi:role="line"
         id="tspan3533"
         x="4.4057884"
         y="120.81985"
         style="font-size:10px;line-height:1.25">Remaining</tspan><tspan
         sodipodi:role="line"
         x="4.4057884"
         y="133.31985"
         style="font-size:10px;line-height:1.25"
         id="tspan3955">bits — arity</tspan></text>
    <text
       id="text3555"
       y="76.830521"
       x="8.5462704"
       style="font-style:normal;font-variant:normal;font-weight:normal;font-stretch:normal;line-height:0%;font-family:'Trebuchet MS';-inkscape-font-specification:'Trebuchet MS';letter-spacing:0px;word-spacing:0px;fill:#000000;fill-opacity:1;stroke:none;stroke-width:1px;stroke-linecap:butt;stroke-linejoin:miter;stroke-opacity:1"
       xml:space="preserve"><tspan
         style="font-size:10px;line-height:1.25"
         y="76.830521"
         x="8.5462704"
         id="tspan3557"
         sodipodi:role="line">32 or 64bit Word</tspan></text>
    <text
       xml:space="preserve"
       style="font-style:normal;font-variant:normal;font-weight:normal;font-stretch:normal;line-height:0%;font-family:'Trebuchet MS';-inkscape-font-specification:'Trebuchet MS';letter-spacing:0px;word-spacing:0px;fill:#000000;fill-opacity:1;stroke:none;stroke-width:1px;stroke-linecap:butt;stroke-linejoin:miter;stroke-opacity:1"
       x="140.37117"
       y="76.830521"
       id="text3559"><tspan
         sodipodi:role="line"
         id="tspan3561"
         x="140.37117"
         y="76.830521"
         style="font-size:10px;line-height:1.25">32 or 64bit Word[] array</tspan></text>
    <rect
       y="82.839432"
       x="121.06814"
       height="12.12183"
       width="12.12183"
       id="rect3879"
       style="opacity:0.9996;fill:#ffff00;stroke:#000000;stroke-width:1;stroke-miterlimit:4;stroke-dasharray:none;stroke-opacity:1" />
    <rect
       y="83.048645"
       x="105.91587"
       height="12.12183"
       width="12.12183"
       id="rect3881"
       style="opacity:0.9996;fill:#ffff00;stroke:#000000;stroke-width:1;stroke-miterlimit:4;stroke-dasharray:none;stroke-opacity:1" />
    <text
       id="text3885"
       y="116.73415"
       x="102.37223"
       style="font-style:normal;font-variant:normal;font-weight:normal;font-stretch:normal;line-height:0%;font-family:'Trebuchet MS';-inkscape-font-specification:'Trebuchet MS';letter-spacing:0px;word-spacing:0px;fill:#000000;fill-opacity:1;stroke:none;stroke-width:1px;stroke-linecap:butt;stroke-linejoin:miter;stroke-opacity:1"
       xml:space="preserve"><tspan
         style="font-size:10px;line-height:1.25"
         y="116.73415"
         x="102.37223"
         id="tspan3887"
         sodipodi:role="line">TAG_PRIMARY_HEADER</tspan></text>
    <path
       style="opacity:0.9996;fill:#000000;stroke:none;stroke-width:1;stroke-miterlimit:4;stroke-dasharray:none;stroke-opacity:1"
       id="path3889"
       d="m 104.46924,99.388667 c 0.13686,0.773393 0.29849,1.551353 0.70303,2.232473 0.33729,0.42808 0.79925,0.72002 1.29424,0.93327 0.63343,0.15153 1.2795,0.26147 1.92289,0.36858 1.01983,0.13492 2.05166,0.13485 3.07853,0.14822 1.02846,0.01 2.05698,0.009 3.08547,0.008 0.85828,-9.6e-4 1.71657,-0.002 2.57485,-0.002 1.00092,0.0126 1.55728,0.30191 2.23379,1.02519 0.61919,0.76495 0.98566,1.68908 1.60903,2.45005 0.25561,0.21667 0.17439,0.0493 -0.0385,0.0553 -0.0463,0.001 -0.0844,0.0573 -0.13003,0.0493 -0.0256,-0.005 0.0133,-0.11148 0.0708,-0.30694 0.12852,-0.69665 0.5406,-1.16445 1.12029,-1.5335 0.78101,-0.38542 1.66648,-0.51848 2.51864,-0.66778 0.90981,-0.14367 1.83135,-0.17161 2.75049,-0.18943 0.95766,0.0324 1.90578,-0.0452 2.85749,-0.13691 0.93465,-0.14454 1.88918,-0.22327 2.78748,-0.53451 0.46542,-0.15924 0.92218,-0.32362 1.2938,-0.65283 0.28782,-0.32367 0.33768,-0.75449 0.38232,-1.16819 0.0234,-0.35893 0.0142,-0.17768 0.0276,-0.54376 0.0232,-0.62101 0.90142,-0.58824 0.87824,0.0328 v 0 c -0.0154,0.40492 -0.005,0.20213 -0.0324,0.60836 -0.0732,0.6399 -0.20415,1.26682 -0.68217,1.73669 -0.46598,0.39396 -1.00614,0.63345 -1.58548,0.81937 -0.96656,0.32145 -1.97987,0.43592 -2.98513,0.5769 -0.97393,0.0938 -1.94488,0.17251 -2.92477,0.14079 -0.87412,0.0168 -1.75061,0.0418 -2.61614,0.17647 -0.74299,0.12957 -1.51404,0.24453 -2.2068,0.54896 -0.4129,0.24603 -0.66015,0.54347 -0.74042,1.03495 -0.0253,0.0858 -0.13675,0.47508 -0.1678,0.52309 -0.35068,0.54228 -0.88724,0.39001 -1.26049,-0.016 -0.60479,-0.75351 -1.00028,-1.63272 -1.57288,-2.40819 -0.53384,-0.5932 -0.77355,-0.70625 -1.58668,-0.74137 -0.85812,3.3e-4 -1.71624,9.7e-4 -2.57436,0.002 -1.03259,9.6e-4 -2.0652,0.002 -3.09776,-0.008 -1.07154,-0.014 -2.14831,-0.015 -3.21203,-0.16019 -0.71447,-0.11999 -1.43646,-0.23136 -2.13231,-0.43116 -0.66269,-0.29694 -1.27386,-0.69445 -1.69993,-1.29629 -0.45341,-0.79467 -0.67433,-1.67636 -0.81643,-2.57663 -0.0686,-0.617641 0.80485,-0.714694 0.87348,-0.09705 z"
       inkscape:connector-curvature="0" />
    <rect
       style="opacity:0.9996;fill:#f4d7d7;stroke:#000000;stroke-width:1;stroke-miterlimit:4;stroke-dasharray:none;stroke-opacity:1"
       id="rect3891"
       width="22.169548"
       height="18.432892"
       x="186.64842"
       y="79.860092" />
    <rect
       y="79.854179"
       x="226.98285"
       height="18.444708"
       width="20.93848"
       id="rect3893"
       style="opacity:0.9996;fill:#f4d7d7;stroke:#000000;stroke-width:1;stroke-miterlimit:4;stroke-dasharray:none;stroke-opacity:1" />
    <path
       style="opacity:0.9996;fill:#000000;stroke:none;stroke-width:1;stroke-miterlimit:4;stroke-dasharray:none;stroke-opacity:1"
       id="path3895"
       d="m 214.79241,93.578182 c 0,0.57999 0,1.159979 0,1.739969 0,0.621442 -1.9146,0.621442 -1.9146,0 v 0 c 0,-0.57999 0,-1.159979 0,-1.739969 0,-0.621442 1.9146,-0.621442 1.9146,0 z"
       inkscape:connector-curvature="0" />
    <path
       inkscape:connector-curvature="0"
       d="m 218.41749,93.578182 c 0,0.57999 0,1.159979 0,1.739969 0,0.621442 -1.9146,0.621442 -1.9146,0 v 0 c 0,-0.57999 0,-1.159979 0,-1.739969 0,-0.621442 1.9146,-0.621442 1.9146,0 z"
       id="path3897"
       style="opacity:0.9996;fill:#000000;stroke:none;stroke-width:1;stroke-miterlimit:4;stroke-dasharray:none;stroke-opacity:1" />
    <path
       style="opacity:0.9996;fill:#000000;stroke:none;stroke-width:1;stroke-miterlimit:4;stroke-dasharray:none;stroke-opacity:1"
       id="path3899"
       d="m 221.93899,93.578182 c 0,0.57999 0,1.159979 0,1.739969 0,0.621442 -1.9146,0.621442 -1.9146,0 v 0 c 0,-0.57999 0,-1.159979 0,-1.739969 0,-0.621442 1.9146,-0.621442 1.9146,0 z"
       inkscape:connector-curvature="0" />
    <rect
       style="opacity:0.9996;fill:#e580ff;stroke:#000000;stroke-width:1;stroke-miterlimit:4;stroke-dasharray:none;stroke-opacity:1"
       id="rect3937"
       width="12.12183"
       height="12.12183"
       x="90.410332"
       y="82.839432" />
    <rect
       style="opacity:0.9996;fill:#e580ff;stroke:#000000;stroke-width:1;stroke-miterlimit:4;stroke-dasharray:none;stroke-opacity:1"
       id="rect3939"
       width="12.12183"
       height="12.12183"
       x="75.258064"
       y="83.048645" />
    <rect
       y="82.839432"
       x="59.959671"
       height="12.12183"
       width="12.12183"
       id="rect3941"
       style="opacity:0.9996;fill:#e580ff;stroke:#000000;stroke-width:1;stroke-miterlimit:4;stroke-dasharray:none;stroke-opacity:1" />
    <rect
       y="83.048645"
       x="44.807404"
       height="12.12183"
       width="12.12183"
       id="rect3943"
       style="opacity:0.9996;fill:#e580ff;stroke:#000000;stroke-width:1;stroke-miterlimit:4;stroke-dasharray:none;stroke-opacity:1" />
    <text
       xml:space="preserve"
       style="font-style:normal;font-variant:normal;font-weight:normal;font-stretch:normal;line-height:0%;font-family:'Trebuchet MS';-inkscape-font-specification:'Trebuchet MS';letter-spacing:0px;word-spacing:0px;fill:#892ca0;fill-opacity:1;stroke:none;stroke-width:1px;stroke-linecap:butt;stroke-linejoin:miter;stroke-opacity:1"
       x="60.700073"
       y="125.39017"
       id="text3947"><tspan
         sodipodi:role="line"
         id="tspan3949"
         x="60.700073"
         y="125.39017"
         style="font-size:10px;line-height:1.25;fill:#892ca0">SUBTAG</tspan></text>
    <path
       style="opacity:0.9996;fill:#892ca0;stroke:none;stroke-width:1;stroke-miterlimit:4;stroke-dasharray:none;stroke-opacity:1"
       id="path3951"
       d="m 44.8474,101.3646 c -0.0089,0.90456 -0.0094,1.8066 0.05812,2.70886 0.06333,0.73791 0.355078,1.41732 0.668844,2.07853 0.305448,0.51321 0.591404,1.03912 0.928403,1.53304 0.551712,0.67814 1.265582,1.18555 1.969932,1.69061 0.848827,0.55222 1.749585,1.00116 2.705074,1.33315 1.269132,0.37806 2.602141,0.42576 3.914123,0.52619 1.683957,0.13344 3.370534,0.22246 5.056227,0.32946 1.823286,0.1342 3.65036,0.19222 5.477878,0.22372 1.860738,0.0399 3.715057,0.1921 5.565879,0.37893 0.867349,0.16067 1.777065,0.33798 2.513008,0.85765 0.361276,0.2551 0.465188,0.40574 0.755701,0.72832 0.44144,0.51799 0.764752,1.11548 1.101446,1.70149 0.104859,0.15486 0.146852,0.34028 0.248701,0.49644 0.01201,0.0184 0.04783,0.0707 0.04414,0.049 -0.02073,-0.12179 -0.24537,-0.0447 -0.368699,-0.0376 -0.01171,-0.008 -0.03585,-0.0102 -0.03512,-0.0245 0.0042,-0.0831 0.03416,-0.16283 0.04886,-0.2447 0.08643,-0.48134 0.172202,-0.96082 0.283495,-1.43726 0.166768,-0.77182 0.369687,-1.31551 0.952328,-1.86324 0.812588,-0.5989 1.754789,-0.99339 2.694106,-1.34667 1.541788,-0.53836 3.157096,-0.82614 4.772278,-1.03448 1.880796,-0.18041 3.769914,-0.26832 5.656673,-0.3661 1.341111,-0.0668 2.683547,-0.0984 4.026139,-0.11178 0.859058,-0.0243 1.720685,0.0287 2.578426,-0.0284 0.584125,-0.0484 1.184276,-0.1295 1.679065,-0.46156 0.37796,-0.3166 0.637246,-0.72272 0.869773,-1.14972 0.267848,-0.53048 0.412332,-1.11194 0.550112,-1.68717 0.196987,-0.60068 0.296609,-1.219 0.346959,-1.8469 0.02394,-0.43281 0.01408,-0.21912 0.02987,-0.64104 0.01651,-0.43912 0.637509,-0.41577 0.620999,0.0233 v 0 c -0.0165,0.4383 -0.006,0.21568 -0.0315,0.66783 -0.0538,0.65955 -0.156,1.31056 -0.3621,1.94184 -0.1511,0.62804 -0.312121,1.26187 -0.608676,1.83941 -0.282616,0.51849 -0.608763,1.0063 -1.080048,1.37555 -0.598131,0.37158 -1.274149,0.5162 -1.974376,0.55856 -0.86936,0.0548 -1.741752,0.009 -2.61236,0.0297 -1.333932,0.0133 -2.667707,0.0446 -4.000167,0.11098 -1.871009,0.0969 -3.744313,0.18435 -5.609523,0.36185 -1.567821,0.20124 -3.135945,0.47982 -4.633143,0.9999 -0.866986,0.32495 -1.735021,0.68754 -2.494697,1.22488 -0.461312,0.39793 -0.643467,0.96061 -0.765144,1.5451 -0.154613,0.65687 -0.222882,1.33543 -0.435962,1.97541 -0.139648,0.0424 -0.273016,0.12468 -0.418944,0.12728 -0.212087,0.004 -0.419975,-0.58564 -0.510891,-0.73736 -0.313488,-0.54987 -0.616747,-1.10883 -1.026158,-1.59684 -0.232873,-0.26505 -0.324883,-0.3986 -0.613032,-0.60974 -0.651501,-0.47741 -1.48169,-0.61812 -2.253999,-0.77121 -1.833639,-0.18513 -3.670706,-0.33625 -5.514175,-0.37588 -1.83708,-0.0317 -3.673715,-0.0901 -5.506545,-0.22488 -1.688373,-0.10727 -3.377646,-0.19642 -5.064292,-0.33002 -1.365597,-0.1046 -2.752455,-0.15735 -4.071515,-0.55911 -1.010425,-0.35435 -1.966104,-0.82617 -2.862398,-1.41486 -0.763196,-0.5474 -1.534161,-1.10187 -2.121471,-1.8459 -0.354079,-0.52118 -0.658418,-1.07377 -0.976405,-1.6169 -0.345085,-0.73088 -0.660289,-1.48291 -0.726853,-2.29808 -0.0684,-0.9177 -0.06934,-1.83515 -0.05985,-2.75516 0,-0.43943 0.621442,-0.43943 0.621442,0 z"
       inkscape:connector-curvature="0" />
    <path
       style="opacity:0.9996;fill:#000000;stroke:none;stroke-width:1;stroke-miterlimit:4;stroke-dasharray:none;stroke-opacity:1"
       id="path3953"
       d="m 9.3151126,100.91599 c 0.0603,0.8216 0.1708932,1.63689 0.2826655,2.45375 0.1515576,0.76319 0.2519519,1.53262 0.4002334,2.29617 0.1860625,0.63805 0.3237015,1.28086 0.3953745,1.93686 0.0165,0.51088 0.06958,1.01279 0.159891,1.51685 0.04033,0.19945 0.05405,0.40211 0.08597,0.60254 0.002,0.0129 0.0248,0.0398 0.0103,0.038 -0.7666096,-0.0953 -0.7052195,0.0664 -0.635201,-0.35258 0.07578,-0.76477 0.383726,-1.45437 0.751582,-2.13885 0.323254,-0.57112 0.708357,-1.14063 1.286182,-1.53721 0.396489,-0.27213 0.622036,-0.3382 1.078496,-0.52952 2.050613,-0.6032 4.224355,-0.75279 6.364398,-0.89426 3.066272,-0.2011 6.136407,-0.13323 9.203918,-0.0145 2.931714,0.12691 5.865703,0.19912 8.800282,0.24323 1.263609,0.0778 2.495697,-0.0147 3.681005,-0.41315 0.485823,-0.23235 0.948914,-0.5016 1.383299,-0.80436 0.237495,-0.20561 0.114712,-0.10178 0.368725,-0.31114 0.361624,-0.29793 0.833344,0.15886 0.471722,0.45679 v 0 c -0.262385,0.21609 -0.124532,0.10133 -0.413071,0.34473 -0.490165,0.34008 -1.011742,0.64642 -1.566565,0.89592 -1.267876,0.4226 -2.585922,0.53546 -3.936822,0.45256 -2.94072,-0.0442 -5.88085,-0.11657 -8.818702,-0.24372 -3.040381,-0.11773 -6.083317,-0.18585 -9.12251,0.0134 -2.057736,0.13564 -4.144792,0.2793 -6.12297,0.83828 -1.077028,0.44 -1.502874,0.8091 -2.030271,1.77209 -0.344025,0.63894 -0.622642,1.2484 -0.690998,1.96396 -0.06571,0.36992 0.01434,0.27223 -0.733432,0.3859 -0.013702,0.002 -0.061093,-0.40743 -0.068447,-0.45788 -0.010322,-0.0708 -0.022619,-0.14136 -0.033928,-0.21204 -0.092549,-0.51657 -0.148907,-1.03163 -0.1653798,-1.55502 -0.069196,-0.64078 -0.2092634,-1.26708 -0.3883959,-1.8907 -0.1502022,-0.77379 -0.2526386,-1.55345 -0.4053296,-2.32699 -0.1120092,-0.81909 -0.22319,-1.63667 -0.2835459,-2.46049 -0.054328,-0.43674 0.6371624,-0.50537 0.691491,-0.0686 z"
       inkscape:connector-curvature="0" />
    <path
       style="opacity:0.9996;fill:#000000;stroke:none;stroke-width:1;stroke-miterlimit:4;stroke-dasharray:none;stroke-opacity:1"
       id="path3963"
       d="m 208.72729,37.629032 c -0.0138,-1.001745 -0.0106,-1.998819 0.0854,-2.996385 0.0963,-0.608347 0.0966,-1.404153 0.54907,-1.889016 0.0947,-0.101498 0.2169,-0.173358 0.32535,-0.260037 0.16591,-0.05586 0.32675,-0.129987 0.49772,-0.167576 0.74637,-0.164094 1.54884,-0.09495 2.30405,-0.06945 0.34946,0.0118 1.53938,0.06163 1.88912,0.07608 1.53062,0.0318 3.05476,0.112494 4.57841,0.258065 0.3426,-0.02434 1.03687,0.233155 1.33786,-0.07679 0.059,-0.06076 0.0414,-0.164268 0.0606,-0.246758 0.1176,-0.597653 0.0673,-1.204204 0.33779,-1.761653 0.66464,-0.678599 1.12009,0.166451 1.39242,0.711762 0.24073,0.385197 0.54239,0.785601 0.95389,0.996211 1.03177,0.411282 2.17453,0.432998 3.27002,0.491333 1.40493,0.05928 2.81141,0.05826 4.2173,0.05891 1.19942,-0.01337 2.39272,0.134798 3.58876,0.208304 0.80771,0.04982 1.65827,0.08345 2.38605,0.465851 0.62429,0.421754 0.79527,1.082537 0.8878,1.787381 0.0847,0.434851 0.16325,0.870358 0.22775,1.308658 0.0902,0.614863 -0.77936,0.742409 -0.86955,0.127546 v 0 c -0.0649,-0.443844 -0.14736,-0.884204 -0.22999,-1.325053 -0.0513,-0.417812 -0.0972,-0.853596 -0.449,-1.133746 -0.5289,-0.351521 -1.40394,-0.271221 -2.00702,-0.353443 -1.17822,-0.07252 -2.35376,-0.218462 -3.5352,-0.206646 -1.42141,-6.63e-4 -2.8434,2.3e-4 -4.26382,-0.06017 -1.23216,-0.06613 -2.51722,-0.09855 -3.66214,-0.607596 -0.54666,-0.334216 -0.99105,-0.804694 -1.30264,-1.367964 -0.0376,-0.07708 -0.28362,-0.418627 -0.26278,-0.500984 0.004,-0.01519 0.42906,0.01143 0.42374,-0.168794 -0.26994,0.209836 -0.0615,1.335132 -0.2876,1.657024 -0.0641,0.1376 -0.10409,0.289284 -0.19234,0.4128 -0.47931,0.670855 -1.40348,0.522899 -2.1055,0.458682 -1.50793,-0.14408 -3.01624,-0.223477 -4.53111,-0.25483 -1.37752,-0.05692 -2.78192,-0.206227 -4.15057,0.0028 -0.49419,0.200673 -0.41036,1.098375 -0.50367,1.513635 -0.0941,0.969378 -0.0937,1.938322 -0.0814,2.911846 0,0.621442 -0.87885,0.621442 -0.87885,0 z"
       inkscape:connector-curvature="0" />
    <path
       style="fill:#ff0000;stroke:none;stroke-width:1;stroke-miterlimit:4;stroke-dasharray:none"
       id="path5099"
       d="m 71.972304,49.872632 c -1.392461,0 -2.784922,0 -4.177384,0 -1.928026,-0.0135 -3.854028,-0.0071 -5.780155,0.0832 -1.883452,0.165772 -3.759545,0.434792 -5.597344,0.884694 -1.082836,0.265084 -1.532198,0.419628 -2.588355,0.744304 -1.815123,0.607763 -3.555323,1.405821 -5.174487,2.424449 -1.678619,1.221549 -3.179638,2.661043 -4.664945,4.105093 -1.199574,1.163664 -2.297793,2.422059 -3.374343,3.698282 -0.546334,0.679172 -1.046817,1.391302 -1.636111,2.034402 -0.496055,0.538799 -1.258032,-0.162729 -0.761977,-0.701528 v 0 c 0.58232,-0.629025 1.06333,-1.338509 1.606473,-2.000778 1.098776,-1.302024 2.219798,-2.585761 3.443976,-3.773003 1.537264,-1.494504 3.092088,-2.984162 4.836113,-4.239597 1.697696,-1.064305 3.518292,-1.9044 5.421208,-2.537409 1.090307,-0.334581 1.549323,-0.492408 2.668343,-0.765416 1.895599,-0.462471 3.830451,-0.740052 5.773085,-0.9081 1.942257,-0.09056 3.884359,-0.09837 5.828519,-0.08433 1.392462,0 2.784923,0 4.177384,0 0.732377,0 0.732377,1.035737 0,1.035737 z"
       inkscape:connector-curvature="0" />
    <path
       style="fill:#ff0000;stroke:none;stroke-width:1;stroke-miterlimit:4;stroke-dasharray:none"
       id="path5103"
       d="m 41.347333,55.511749 c -0.615624,1.464684 -1.25292,2.918065 -1.81402,4.404849 -0.337197,1.083764 -0.725925,2.151029 -1.059984,3.235636 -0.07034,0.30977 -0.174111,0.616311 -0.234134,0.928431 -0.007,0.03655 -7.51e-4,0.148886 -8.59e-4,0.111663 -8.57e-4,-0.295697 0.04432,-0.129114 -0.235081,-0.435331 1.688758,-0.764507 3.357599,-1.572652 5.044,-2.344121 2.607478,-1.112756 5.219206,-2.216428 7.835598,-3.30843 0.675871,-0.282088 1.074803,0.673739 0.398932,0.955826 v 0 c -2.605674,1.087525 -5.20661,2.186873 -7.803664,3.294466 -0.372056,0.1702 -2.075486,0.947535 -2.495903,1.146882 -0.807769,0.383014 -1.610533,0.858408 -2.461129,1.146925 -0.183233,0.06215 -0.375008,0.09548 -0.562513,0.143225 -0.208661,-0.09174 -0.457127,-0.122115 -0.625983,-0.275229 -0.329586,-0.298857 0.07941,-1.320569 0.150985,-1.669501 0.341034,-1.104785 0.734964,-2.192782 1.080729,-3.296198 0.563651,-1.493054 1.202169,-2.953244 1.821368,-4.423756 0.271998,-0.679994 1.233656,-0.295331 0.961658,0.384663 z"
       inkscape:connector-curvature="0" />
    <path
       style="fill:#ff0000;stroke:none;stroke-width:1;stroke-miterlimit:4;stroke-dasharray:none"
       id="path5119"
       d="m 141.76948,101.37982 c 0.98072,0.54814 2.00457,0.99882 3.08397,1.30886 1.29083,0.26725 2.61134,0.36805 3.92538,0.44515 1.53147,0.0733 3.06505,0.0771 4.59791,0.0819 1.58171,0.002 3.16342,-2e-4 4.74512,-10e-4 1.90708,-0.001 3.81416,-0.001 5.72124,-0.001 2.09258,-1e-4 4.18515,-7e-5 6.27773,-7e-5 1.705,10e-6 3.40999,2e-5 5.11498,2e-5 1.48398,0 2.96795,0 4.45192,0 1.55362,0 3.10723,0 4.66085,0 1.48694,0 2.97387,0 4.46081,0 1.84469,0 3.68939,0 5.53409,0 1.92026,0 3.84053,0 5.76079,0 1.52302,0.0102 3.04655,-0.0483 4.56522,0.0854 1.0289,0.0919 2.03421,0.34557 3.01137,0.67236 0.87332,0.29314 1.65874,0.77804 2.48427,1.17739 0.8514,0.35092 1.5851,0.8819 2.24001,1.52032 0.67714,0.73252 1.2148,1.57885 1.67528,2.45994 0.49787,0.90104 0.81649,1.86577 1.01017,2.87271 0.12841,0.74348 0.13909,1.49928 0.14455,2.25158 1e-5,0.78223 -0.004,1.56445 -0.006,2.34667 -0.002,0.75294 -0.002,1.50588 -0.003,2.25882 -1.2e-4,0.50339 -8e-5,1.00679 -6e-5,1.51018 1e-5,0.0709 1e-5,0.14175 1e-5,0.21263 0,0.0532 1e-5,0.10649 1e-5,0.15974 0,0.036 0.0347,0.11773 1e-5,0.1081 -0.90733,-0.25164 -0.82859,0.034 -0.82858,-0.49512 1e-5,-0.63937 0,-1.27875 0,-1.91813 0,-0.52243 0,-1.04486 0,-1.5673 0,-0.49353 0,-0.98707 0,-1.4806 -0.0389,-0.50704 0.12462,-0.95282 0.34685,-1.39626 0.14614,-0.37891 0.36829,-0.72063 0.53662,-1.08825 0.16623,-0.37773 0.3597,-0.73333 0.62879,-1.04724 0.33968,-0.3602 0.71407,-0.68504 1.04612,-1.05233 0.50502,-0.54834 1.03393,-1.07226 1.59077,-1.56808 0.61332,-0.60603 1.339,-1.0815 2.04977,-1.5639 0.54929,-0.35124 1.08786,-0.71016 1.67778,-0.99068 0.63958,-0.25824 1.31452,-0.40035 1.9849,-0.55136 0.69858,-0.12544 1.3897,-0.28859 2.0758,-0.46944 0.97274,-0.22976 1.96465,-0.35836 2.95377,-0.49363 1.18141,-0.17312 2.3739,-0.23779 3.56612,-0.27399 1.39244,-0.0297 2.78535,-0.0256 4.17803,-0.0255 1.4533,8.5e-4 2.9066,0.002 4.3599,0.003 0.93235,4.3e-4 1.8647,5.2e-4 2.79705,5.6e-4 0.41584,0.0249 0.80653,-0.008 1.12107,-0.29761 0.20252,-0.15983 0.35719,-0.38182 0.46034,-0.61802 0.0638,-0.17908 0.0791,-0.36905 0.0959,-0.55685 0.0541,-0.5834 0.87913,-0.50692 0.82505,0.0765 v 0 c -0.027,0.28313 -0.0588,0.56738 -0.17075,0.83224 -0.16548,0.34024 -0.37961,0.66731 -0.68041,0.90299 -0.48502,0.38527 -1.0289,0.53824 -1.6512,0.48936 -0.93247,-4e-5 -1.86494,-1.3e-4 -2.79741,-5.7e-4 -1.45319,-6.9e-4 -2.90638,-0.002 -4.35958,-0.003 -1.3843,-1.3e-4 -2.76881,-0.004 -4.15288,0.0251 -1.16306,0.0351 -2.32643,0.0977 -3.47893,0.26673 -0.95594,0.13071 -1.91461,0.25407 -2.85517,0.47399 -0.69579,0.1828 -1.39625,0.34972 -2.10464,0.47648 -0.61127,0.13759 -1.22638,0.26576 -1.81275,0.49209 -0.55268,0.25954 -1.05145,0.60236 -1.56676,0.92728 -0.6811,0.4619 -1.3779,0.91562 -1.9644,1.49746 -0.53573,0.47554 -1.04295,0.97985 -1.52838,1.50639 -0.33017,0.36112 -0.69296,0.68871 -1.03432,1.03908 -0.22368,0.25044 -0.36282,0.54941 -0.50239,0.8527 -0.17593,0.37326 -0.39413,0.72502 -0.54707,1.10988 -0.16578,0.33045 -0.29931,0.64207 -0.25896,1.02487 0,0.49353 0,0.98707 0,1.4806 0,0.52244 0,1.04487 0,1.5673 0,0.63938 0,1.27876 0,1.91814 -1e-5,0.52912 0.0787,0.24365 -0.8286,0.49533 0,0 -1e-5,-0.1461 -2e-5,-0.26802 0,-0.0709 0,-0.14175 -1e-5,-0.21262 -2e-5,-0.5035 -6e-5,-1.00701 6e-5,-1.51051 2.5e-4,-0.75358 6.9e-4,-1.50717 0.003,-2.26075 0.002,-0.7795 0.006,-1.559 0.006,-2.3385 -0.005,-0.70223 -0.0126,-1.40792 -0.1299,-2.1023 -0.17543,-0.92865 -0.47156,-1.81513 -0.93109,-2.64511 -0.41804,-0.80522 -0.90891,-1.5777 -1.52069,-2.25128 -0.587,-0.5801 -1.25252,-1.05091 -2.02071,-1.36598 -0.79392,-0.38438 -1.5492,-0.85039 -2.38678,-1.13765 -0.91506,-0.30782 -1.85746,-0.54551 -2.82131,-0.63261 -1.49394,-0.13429 -2.99354,-0.0684 -4.49182,-0.0821 -1.92026,0 -3.84053,0 -5.76079,0 -1.8447,0 -3.6894,0 -5.53409,0 -1.48694,0 -2.97387,0 -4.46081,0 -1.55362,0 -3.10723,0 -4.66085,0 -1.48397,0 -2.96794,0 -4.45192,0 -1.70499,0 -3.40999,-1e-5 -5.11498,-2e-5 -2.09256,0 -4.18512,-3e-5 -6.27767,7e-5 -1.90693,1.3e-4 -3.81385,3e-4 -5.72077,0.001 -1.58274,10e-4 -3.16548,0.003 -4.74822,10e-4 -1.54822,-0.005 -3.09718,-0.009 -4.64398,-0.0833 -1.37509,-0.081 -2.75765,-0.18655 -4.10665,-0.47625 -1.15415,-0.33499 -2.25246,-0.81303 -3.29891,-1.40587 -0.49431,-0.31456 -0.0495,-1.01361 0.44485,-0.69905 z"
       inkscape:connector-curvature="0" />
    <text
       xml:space="preserve"
       style="font-style:normal;font-variant:normal;font-weight:normal;font-stretch:normal;line-height:0%;font-family:'Trebuchet MS';-inkscape-font-specification:'Trebuchet MS';letter-spacing:0px;word-spacing:0px;fill:#c83737;fill-opacity:1;stroke:none;stroke-width:1px;stroke-linecap:butt;stroke-linejoin:miter;stroke-opacity:1"
       x="146.28746"
       y="130.61302"
       id="text5121"><tspan
         sodipodi:role="line"
         id="tspan5123"
         x="146.28746"
         y="130.61302"
         style="font-size:10px;line-height:1.25;fill:#c83737">'Arity' words of content</tspan></text>
  </g>
</svg>
