<?xml version="1.0" encoding="UTF-8" standalone="no"?>
<!-- Created with Inkscape (http://www.inkscape.org/) -->

<svg
   width="64.692596mm"
   height="74.386406mm"
   viewBox="0 0 229.22574 263.57388"
   id="svg2"
   version="1.1"
   inkscape:version="1.3.2 (091e20e, 2023-11-25, custom)"
   sodipodi:docname="memoryLayout_ref.svg"
   inkscape:export-filename="/home/kv/proj/beam-wisdoms/docs/source/_static/img/memory-layout-ref.png"
   inkscape:export-xdpi="220.06464"
   inkscape:export-ydpi="220.06464"
   xmlns:inkscape="http://www.inkscape.org/namespaces/inkscape"
   xmlns:sodipodi="http://sodipodi.sourceforge.net/DTD/sodipodi-0.dtd"
   xmlns="http://www.w3.org/2000/svg"
   xmlns:svg="http://www.w3.org/2000/svg"
   xmlns:rdf="http://www.w3.org/1999/02/22-rdf-syntax-ns#"
   xmlns:cc="http://creativecommons.org/ns#"
   xmlns:dc="http://purl.org/dc/elements/1.1/">
  <defs
     id="defs4" />
  <sodipodi:namedview
     id="base"
     pagecolor="#ffffff"
     bordercolor="#666666"
     borderopacity="1.0"
     inkscape:pageopacity="0.0"
     inkscape:pageshadow="2"
     inkscape:zoom="2.8284271"
     inkscape:cx="112.78353"
     inkscape:cy="157.86159"
     inkscape:document-units="px"
     inkscape:current-layer="layer1"
     showgrid="false"
     showguides="false"
     inkscape:guide-bbox="true"
     inkscape:window-width="2560"
     inkscape:window-height="1411"
     inkscape:window-x="-9"
     inkscape:window-y="-9"
     inkscape:window-maximized="1"
     inkscape:showpageshadow="0"
     inkscape:pagecheckerboard="1"
     inkscape:deskcolor="#d1d1d1" />
  <metadata
     id="metadata7">
    <rdf:RDF>
      <cc:Work
         rdf:about="">
        <dc:format>image/svg+xml</dc:format>
        <dc:type
           rdf:resource="http://purl.org/dc/dcmitype/StillImage" />
      </cc:Work>
    </rdf:RDF>
  </metadata>
  <g
     inkscape:label="Layer 1"
     inkscape:groupmode="layer"
     id="layer1"
     transform="translate(3.6348772,7.311553)">
    <rect
       style="color:#000000;overflow:visible;fill:#e6e6e6;fill-opacity:0.533528;stroke:none;stroke-width:2.12782;stroke-linecap:round"
       id="rect1"
       width="229.22574"
       height="263.57388"
       x="-3.6348772"
       y="-7.311553"
       ry="6.3923717"
       rx="6.3923717" />
    <rect
       style="opacity:0.9996;fill:#999999;stroke:#000000;stroke-width:0.838255;stroke-miterlimit:4;stroke-dasharray:none;stroke-opacity:1"
       id="rect3340"
       width="78.112427"
       height="20.633226"
       x="17.066462"
       y="32.989857" />
    <rect
       style="opacity:0.9996;fill:#ffff00;stroke:#000000;stroke-width:1;stroke-miterlimit:4;stroke-dasharray:none;stroke-opacity:1"
       id="rect3342"
       width="12.12183"
       height="12.12183"
       x="79.663551"
       y="36.740479" />
    <rect
       style="opacity:0.9996;fill:#ffff00;stroke:#000000;stroke-width:1;stroke-miterlimit:4;stroke-dasharray:none;stroke-opacity:1"
       id="rect3342-0"
       width="12.12183"
       height="12.12183"
       x="64.511292"
       y="36.949688" />
    <text
       xml:space="preserve"
       style="font-style:normal;font-variant:normal;font-weight:normal;font-stretch:normal;line-height:0%;font-family:'Trebuchet MS';-inkscape-font-specification:'Trebuchet MS';letter-spacing:0px;word-spacing:0px;fill:#000000;fill-opacity:1;stroke:none;stroke-width:1px;stroke-linecap:butt;stroke-linejoin:miter;stroke-opacity:1"
       x="42.372772"
       y="19.444054"
       id="text3391"><tspan
         sodipodi:role="line"
         id="tspan3393"
         x="42.372772"
         y="19.444054"
         style="font-size:10px;line-height:1.25">TAG_PRIMARY_BOXED</tspan></text>
    <text
       xml:space="preserve"
       style="font-style:normal;font-variant:normal;font-weight:normal;font-stretch:normal;line-height:0%;font-family:'Trebuchet MS';-inkscape-font-specification:'Trebuchet MS';letter-spacing:0px;word-spacing:0px;fill:#000000;fill-opacity:1;stroke:none;stroke-width:1px;stroke-linecap:butt;stroke-linejoin:miter;stroke-opacity:1"
       x="15.990622"
       y="28.818136"
       id="text3391-1"><tspan
         sodipodi:role="line"
         id="tspan3393-5"
         x="15.990622"
         y="28.818136"
         style="font-size:10px;line-height:1.25">Word</tspan></text>
    <text
       id="text3519"
       y="46.94577"
       x="22.671736"
       style="font-style:normal;font-variant:normal;font-weight:normal;font-stretch:normal;line-height:0%;font-family:'Trebuchet MS';-inkscape-font-specification:'Trebuchet MS';letter-spacing:0px;word-spacing:0px;fill:#000000;fill-opacity:1;stroke:none;stroke-width:1px;stroke-linecap:butt;stroke-linejoin:miter;stroke-opacity:1"
       xml:space="preserve"><tspan
         style="font-size:10px;line-height:1.25"
         y="46.94577"
         x="22.671736"
         id="tspan3521"
         sodipodi:role="line">Pointer</tspan></text>
    <rect
       style="opacity:0.9996;fill:#e9afaf;stroke:#000000;stroke-width:1;stroke-miterlimit:4;stroke-dasharray:none;stroke-opacity:1"
       id="rect3523"
       width="98.588966"
       height="17.609304"
       x="114.10783"
       y="79.613342" />
    <path
       style="opacity:0.9996;fill:#000000;stroke:none;stroke-width:1;stroke-miterlimit:4;stroke-dasharray:none;stroke-opacity:1"
       id="path4003"
       d="m 91.644426,31.423999 c 0.099,-1.222298 0.27769,-2.45048 0.22858,-3.678689 -0.0698,-0.669233 -0.39315,-0.861027 -0.992,-0.987387 -1.1283,-0.126677 -2.2691,-0.09249 -3.4028,-0.0882 -1.25262,-0.05055 -2.49433,0.105535 -3.73762,0.229321 -1.07598,0.157329 -1.79331,0.107275 -2.76191,-0.397474 -0.75657,-0.451247 -1.00597,-1.195445 -1.12518,-2.019623 -0.0102,-0.123692 -0.0136,-0.248122 -0.0305,-0.371076 -0.0824,-0.600186 -0.14928,0.205601 0.53171,0.02308 2.1e-4,0.133442 0.008,0.01716 -0.14085,0.261341 -0.23563,0.38608 -0.46381,0.626793 -0.85052,0.869969 -0.82329,0.513615 -1.78627,0.580184 -2.72889,0.645368 -1.86703,0.0793 -3.73651,0.06886 -5.60481,0.07011 -1.718997,-2.6e-4 -3.437997,-0.0028 -5.156997,-0.0046 -0.69636,0.08284 -1.59789,-0.226765 -2.20439,0.227125 -0.24925,0.540705 -0.26582,1.138532 -0.29126,1.722623 -0.0414,0.396806 0.0288,0.78648 0.086,1.177012 0.10847,0.749808 -0.95192,0.903216 -1.06039,0.153408 v 0 c -0.0653,-0.456545 -0.13882,-0.915089 -0.0959,-1.378193 0.0427,-0.935874 0.0872,-1.901208 0.80603,-2.590974 0.86462,-0.479686 1.79757,-0.398947 2.76108,-0.382429 1.71839,0.0018 3.43679,0.0043 5.155177,0.0046 1.84434,-0.0012 3.6898,0.0089 5.53293,-0.06765 0.77529,-0.0516 1.57842,-0.0792 2.2581,-0.499817 0.39548,-0.196687 0.5338,-0.619826 0.77823,-0.966589 0.10598,-0.07732 0.19142,-0.197263 0.31794,-0.231958 0.80339,-0.220313 0.97657,0.609456 0.9986,1.191104 0.0623,0.473065 0.13394,0.937542 0.56238,1.218735 0.77726,0.41273 1.27353,0.408388 2.15735,0.279753 1.27713,-0.127135 2.55309,-0.28464 3.83971,-0.234583 1.21606,-0.0046 2.44197,-0.04622 3.64984,0.116108 1.13939,0.281608 1.67117,0.794234 1.81977,1.993054 0.0403,1.281225 -0.12057,2.560258 -0.23447,3.834851 -0.0837,0.752981 -1.14854,0.634661 -1.06487,-0.118319 z"
       inkscape:connector-curvature="0" />
    <rect
       y="82.100067"
       x="204.28474"
       height="12.416936"
       width="5.795239"
       id="rect3879"
       style="opacity:0.9996;fill:#ffff00;stroke:#000000;stroke-width:1;stroke-miterlimit:4;stroke-dasharray:none;stroke-opacity:1" />
    <rect
       y="82.314377"
       x="197.0407"
       height="12.416936"
       width="5.795239"
       id="rect3881"
       style="opacity:0.9996;fill:#ffff00;stroke:#000000;stroke-width:1;stroke-miterlimit:4;stroke-dasharray:none;stroke-opacity:1" />
    <rect
       style="opacity:0.9996;fill:#e580ff;stroke:#000000;stroke-width:1;stroke-miterlimit:4;stroke-dasharray:none;stroke-opacity:1"
       id="rect3937"
       width="5.795239"
       height="12.416936"
       x="189.62776"
       y="82.100067" />
    <rect
       style="opacity:0.9996;fill:#e580ff;stroke:#000000;stroke-width:1;stroke-miterlimit:4;stroke-dasharray:none;stroke-opacity:1"
       id="rect3939"
       width="5.795239"
       height="12.416936"
       x="182.38373"
       y="82.314377" />
    <rect
       y="82.100067"
       x="175.06982"
       height="12.416936"
       width="5.795239"
       id="rect3941"
       style="opacity:0.9996;fill:#e580ff;stroke:#000000;stroke-width:1;stroke-miterlimit:4;stroke-dasharray:none;stroke-opacity:1" />
    <rect
       y="82.314377"
       x="167.82579"
       height="12.416936"
       width="5.795239"
       id="rect3943"
       style="opacity:0.9996;fill:#e580ff;stroke:#000000;stroke-width:1;stroke-miterlimit:4;stroke-dasharray:none;stroke-opacity:1" />
    <text
       xml:space="preserve"
       style="font-style:normal;font-variant:normal;font-weight:normal;font-stretch:normal;line-height:0%;font-family:'Trebuchet MS';-inkscape-font-specification:'Trebuchet MS';letter-spacing:0px;word-spacing:0px;fill:#000000;fill-opacity:1;stroke:none;stroke-width:1;stroke-linecap:butt;stroke-linejoin:miter;stroke-miterlimit:4;stroke-dasharray:none;stroke-opacity:1"
       x="127.50044"
       y="91.497086"
       id="text4298"><tspan
         sodipodi:role="line"
         id="tspan4300"
         x="127.50044"
         y="91.497086"
         style="font-size:10px;line-height:1.25;stroke-width:1;stroke-miterlimit:4;stroke-dasharray:none">Arity=3</tspan></text>
    <text
       id="text4359"
       y="109.84336"
       x="-138.83359"
       style="font-style:normal;font-variant:normal;font-weight:normal;font-stretch:normal;line-height:0%;font-family:'Trebuchet MS';-inkscape-font-specification:'Trebuchet MS';letter-spacing:0px;word-spacing:0px;fill:#000000;fill-opacity:1;stroke:none;stroke-width:1px;stroke-linecap:butt;stroke-linejoin:miter;stroke-opacity:1"
       xml:space="preserve"
       transform="rotate(-90)"><tspan
         style="font-size:10px;line-height:1.25"
         y="109.84336"
         x="-138.83359"
         sodipodi:role="line"
         id="tspan5760">32-bit Words</tspan></text>
    <path
       style="fill:#d42aff;fill-opacity:1;fill-rule:nonzero;stroke:none;stroke-width:1px;stroke-linecap:butt;stroke-linejoin:miter;stroke-opacity:1"
       id="path3494"
       d="m 170.11722,78.029504 c 0.78951,-0.45186 1.53196,-0.961678 2.40486,-1.287838 0.53519,-0.182203 1.11044,-0.187488 1.67651,-0.197859 0.60883,-0.01254 1.21792,0.02577 1.82464,-0.02369 0.50133,-0.07471 1.00412,-0.1333 1.5116,-0.162942 0.46687,-0.0092 0.91523,-0.133517 1.37573,-0.189613 0.7191,-0.09757 1.25266,-0.470614 1.7199,-0.930641 0.48692,-0.507126 0.87083,-1.080189 1.23547,-1.657536 0.32003,-0.4879 0.4666,-1.025939 0.55817,-1.575952 0.004,-0.01219 0.0248,-0.03753 0.0104,-0.03666 -0.41285,0.02403 -0.83828,0.0061 -1.23511,0.107873 -0.0765,0.01968 0.004,0.138898 0.005,0.208361 0.005,0.303284 0.006,0.598663 0.0326,0.901634 0.0967,0.605482 0.33358,1.184388 0.64048,1.731466 0.30162,0.453199 0.81696,0.68252 1.33133,0.911736 0.42347,0.178284 0.84027,0.3383 1.30237,0.425761 0.55971,0.13431 1.13202,0.212183 1.70897,0.260451 0.53881,0.03797 1.07971,0.04005 1.61991,0.04179 0.50651,4.19e-4 1.01301,-8.18e-4 1.51952,-0.0018 0.50459,-5.48e-4 1.00919,-6.44e-4 1.51378,-6.82e-4 0.45637,0.0096 0.92347,0.07184 1.36661,0.170221 0.4084,0.05939 0.77043,0.188437 1.12453,0.366129 0.31728,0.219559 0.64151,0.438744 0.9526,0.66709 0.21095,0.170762 0.35048,0.378452 0.50916,0.583482 0.50282,0.64248 1.54625,0.0233 1.04343,-0.619202 v 0 c -0.22825,-0.286827 -0.44068,-0.577164 -0.74619,-0.810386 -0.3696,-0.264256 -0.74003,-0.532432 -1.1287,-0.773734 -0.45787,-0.229609 -0.93575,-0.397269 -1.45789,-0.482074 -0.54343,-0.110538 -1.10522,-0.196292 -1.66373,-0.201055 -0.50511,6e-5 -1.01022,1.56e-4 -1.51533,6.82e-4 -0.50435,6.01e-4 -1.0087,0.0018 -1.51305,0.0018 -0.50195,-0.0018 -1.00455,-0.0026 -1.5053,-0.03692 -0.53063,-0.04328 -1.05549,-0.118426 -1.56998,-0.242112 -0.35497,-0.06043 -0.66218,-0.198574 -0.98868,-0.329722 -0.27347,-0.119881 -0.56619,-0.22488 -0.77511,-0.425212 -0.25011,-0.412891 -0.41217,-0.868329 -0.5101,-1.32589 -0.0281,-0.281071 -0.024,-0.557136 -0.0288,-0.839008 -0.001,-0.08212 0.0783,-0.211209 -0.007,-0.246206 -1.24853,-0.512334 -1.18,-0.620911 -1.28566,-0.164865 -0.0691,0.419604 -0.16667,0.831084 -0.41484,1.203135 -0.3221,0.510052 -0.65678,1.018311 -1.08428,1.468289 -0.25502,0.266564 -0.53524,0.49834 -0.94272,0.561176 -0.42996,0.05408 -0.84916,0.165022 -1.28319,0.181149 -0.52291,0.03126 -1.04225,0.08647 -1.55845,0.166476 -0.5684,0.06235 -1.14823,-0.01271 -1.71958,0.01785 -0.73117,0.0141 -1.4682,0.04162 -2.15393,0.289265 -0.94612,0.3637 -1.77179,0.891229 -2.62424,1.394934 -0.73146,0.445859 -0.007,1.346628 0.7241,0.900768 z"
       inkscape:connector-curvature="0" />
    <text
       id="text3498"
       y="59.358665"
       x="114.20203"
       style="font-style:normal;font-variant:normal;font-weight:normal;font-stretch:normal;line-height:0%;font-family:'Trebuchet MS';-inkscape-font-specification:'Trebuchet MS';letter-spacing:0px;word-spacing:0px;fill:#000000;fill-opacity:1;stroke:none;stroke-width:1px;stroke-linecap:butt;stroke-linejoin:miter;stroke-opacity:1"
       xml:space="preserve"><tspan
         style="font-size:10px;line-height:1.25"
         y="59.358665"
         x="114.20203"
         id="tspan3500"
         sodipodi:role="line">TAG_PRIMARY_HEADER</tspan></text>
    <text
       xml:space="preserve"
       style="font-style:normal;font-variant:normal;font-weight:normal;font-stretch:normal;line-height:0%;font-family:'Trebuchet MS';-inkscape-font-specification:'Trebuchet MS';letter-spacing:0px;word-spacing:0px;fill:#d42aff;fill-opacity:1;stroke:none;stroke-width:1px;stroke-linecap:butt;stroke-linejoin:miter;stroke-opacity:1"
       x="132.72324"
       y="70.30883"
       id="text4344"><tspan
         sodipodi:role="line"
         id="tspan4346"
         x="132.72324"
         y="70.30883"
         style="font-size:10px;line-height:1.25;fill:#d42aff">REF_SUBTAG</tspan></text>
    <text
       id="text4361"
       y="123.60405"
       x="138.93517"
       style="font-style:normal;font-variant:normal;font-weight:normal;font-stretch:normal;line-height:0%;font-family:'Trebuchet MS';-inkscape-font-specification:'Trebuchet MS';letter-spacing:0px;word-spacing:0px;fill:#0055d4;fill-opacity:1;stroke:none;stroke-width:1px;stroke-linecap:butt;stroke-linejoin:miter;stroke-opacity:1"
       xml:space="preserve"><tspan
         style="font-size:10px;line-height:1.25;fill:#0055d4"
         y="123.60405"
         x="138.93517"
         sodipodi:role="line"
         id="tspan4363"> </tspan></text>
    <path
       style="fill:#000000;stroke-width:1;stroke-miterlimit:4;stroke-dasharray:none"
       id="path4397"
       d="m 197.25572,77.104187 c 0.0801,-0.707622 0.31284,-1.360546 0.79448,-1.888618 0.33759,-0.276348 0.7461,-0.446879 1.16731,-0.548761 0.31269,-0.02671 0.61154,-0.116302 0.91857,-0.175236 0.35521,-0.06009 0.71609,-0.06814 1.07542,-0.07449 0.3105,0.02131 0.60586,-0.01395 0.90828,-0.07447 0.27026,-0.0447 0.52581,-0.15484 0.78144,-0.251192 0.186,-0.08997 0.28808,-0.261841 0.40377,-0.422966 0.1423,-0.230307 0.22091,-0.491642 0.32836,-0.738423 0.12808,-0.340756 0.23274,-0.687961 0.30259,-1.045385 0.0743,-0.442954 0.17491,-0.881672 0.27322,-1.320034 0.0932,-0.398614 0.13481,-0.805404 0.15601,-1.213342 0.0195,-0.547029 0.10546,-1.08962 0.19873,-1.628246 0.0948,-0.574753 0.22707,-1.139448 0.28862,-1.719496 0.0487,-0.56239 0.0556,-1.127169 0.0599,-1.691292 0.002,-0.401968 2e-4,-0.803941 -6.4e-4,-1.205909 -0.008,-0.139856 0.004,-0.866707 0.15225,-0.912061 0.22428,-0.06856 0.4667,-0.04688 0.70005,-0.07032 0.28081,0.332111 0.39394,0.767319 0.47988,1.186701 0.0739,0.432289 0.0874,0.871328 0.0953,1.308831 0.004,0.368583 0.002,0.737199 0.001,1.105795 -0.027,0.339951 0.0515,0.669848 0.10141,1.003657 0.0419,0.316938 0.1449,0.619811 0.19709,0.936098 0.05,0.360801 0.054,0.725658 0.0579,1.089232 0.002,0.358583 7.9e-4,0.717174 2.3e-4,1.075759 -0.0267,0.340582 0.0519,0.671117 0.10188,1.005547 0.0535,0.373821 0.0659,0.751531 0.0734,1.12854 0.006,0.317059 -0.0174,0.631696 0.0459,0.943338 0.0757,0.211942 0.008,0.507292 0.18697,0.670564 0.18685,0.115958 0.34297,0.281417 0.54163,0.380709 0.24604,0.10097 0.49046,0.206869 0.73046,0.3224 0.26078,0.09476 0.53918,0.124481 0.80918,0.187703 0.33819,0.07222 0.6803,0.09638 1.01611,0.180631 0.4509,0.152238 0.69304,0.374118 0.86292,0.821097 0.14225,0.350271 0.20537,0.721268 0.24416,1.095059 0.0639,0.628101 -0.82434,0.718504 -0.88826,0.0904 v 0 c -0.0304,-0.305847 -0.0807,-0.608514 -0.1999,-0.894151 -0.0341,-0.147541 -0.0859,-0.184455 -0.2377,-0.246772 -0.32981,-0.08411 -0.66972,-0.09593 -1.00099,-0.176946 -0.33293,-0.07803 -0.67854,-0.110261 -0.99302,-0.252638 -0.25396,-0.122422 -0.51312,-0.231381 -0.77193,-0.343728 -0.30068,-0.171298 -0.57511,-0.388511 -0.82594,-0.626707 -0.22048,-0.319772 -0.30093,-0.65461 -0.3498,-1.035487 -0.0698,-0.363986 -0.0644,-0.728245 -0.0625,-1.097814 -0.007,-0.338823 -0.0165,-0.678363 -0.0638,-1.014439 -0.0562,-0.377986 -0.13905,-0.753904 -0.11165,-1.138702 5.5e-4,-0.354991 0.002,-0.709988 -1.9e-4,-1.064976 -0.003,-0.318958 -0.006,-0.639043 -0.0465,-0.955904 -0.0505,-0.319898 -0.16389,-0.624728 -0.19879,-0.947043 -0.0562,-0.377571 -0.1389,-0.753084 -0.11118,-1.137463 8.2e-4,-0.362612 0.003,-0.725244 -0.001,-1.087844 -0.007,-0.384476 -0.0169,-0.770333 -0.0783,-1.150739 -0.0307,-0.161825 -0.069,-0.313929 -0.12548,-0.468912 -0.0288,-0.07891 -0.0856,-0.206676 -0.0724,-0.211194 0.0224,-0.0077 0.0408,0.02402 0.0612,0.03603 0.49014,-0.134226 0.53306,0.02694 0.60677,-0.237067 0.0131,-0.04689 -0.0312,0.0934 -0.0342,0.141998 -9e-5,0.0014 5.6e-4,0.358523 5.6e-4,0.358943 8.5e-4,0.404871 0.002,0.809747 6.2e-4,1.214617 -0.005,0.593652 -0.0123,1.188004 -0.065,1.779731 -0.0649,0.599054 -0.19606,1.183343 -0.29662,1.776572 -0.0873,0.503803 -0.16983,1.011156 -0.18687,1.522879 -0.0244,0.457825 -0.0721,0.914327 -0.17642,1.361732 -0.0967,0.43113 -0.19657,0.862341 -0.26859,1.298171 -0.0846,0.422413 -0.20665,0.834759 -0.36327,1.236159 -0.13931,0.298443 -0.22395,0.625741 -0.4198,0.89703 -0.22173,0.304303 -0.45186,0.587644 -0.81284,0.735652 -0.30076,0.113139 -0.60293,0.236906 -0.92091,0.291117 -0.35415,0.07085 -0.70553,0.1119 -1.06783,0.09169 -0.3088,0.0053 -0.61901,0.01047 -0.92471,0.059 -0.29455,0.05498 -0.58184,0.145222 -0.88201,0.167508 -0.25585,0.05617 -0.49959,0.162115 -0.724,0.295381 -0.36849,0.353432 -0.47851,0.873033 -0.55227,1.361343 -0.0628,0.628212 -0.95124,0.539369 -0.88842,-0.08884 z"
       inkscape:connector-curvature="0" />
    <rect
       y="101.59035"
       x="114.05997"
       height="11.597769"
       width="98.684692"
       id="rect4399"
       style="opacity:0.9996;fill:#f4d7d7;stroke:#000000;stroke-width:1;stroke-miterlimit:4;stroke-dasharray:none;stroke-opacity:1" />
    <rect
       style="opacity:0.9996;fill:#f4d7d7;stroke:#000000;stroke-width:1;stroke-miterlimit:4;stroke-dasharray:none;stroke-opacity:1"
       id="rect4401"
       width="98.684692"
       height="11.597769"
       x="114.05997"
       y="116.12695" />
    <rect
       y="130.49648"
       x="114.05997"
       height="11.597769"
       width="98.684692"
       id="rect4403"
       style="opacity:0.9996;fill:#f4d7d7;stroke:#000000;stroke-width:1;stroke-miterlimit:4;stroke-dasharray:none;stroke-opacity:1" />
    <text
       xml:space="preserve"
       style="font-style:normal;font-variant:normal;font-weight:normal;font-stretch:normal;line-height:0%;font-family:'Trebuchet MS';-inkscape-font-specification:'Trebuchet MS';letter-spacing:0px;word-spacing:0px;fill:#000000;fill-opacity:1;stroke:none;stroke-width:1px;stroke-linecap:butt;stroke-linejoin:miter;stroke-opacity:1"
       x="114.84943"
       y="139.21373"
       id="text4405"><tspan
         sodipodi:role="line"
         id="tspan4407"
         x="114.84943"
         y="139.21373"
         style="font-size:10px;line-height:1.25">Data2 (32 bit)</tspan></text>
    <text
       id="text4409"
       y="124.74944"
       x="114.84943"
       style="font-style:normal;font-variant:normal;font-weight:normal;font-stretch:normal;line-height:0%;font-family:'Trebuchet MS';-inkscape-font-specification:'Trebuchet MS';letter-spacing:0px;word-spacing:0px;fill:#000000;fill-opacity:1;stroke:none;stroke-width:1px;stroke-linecap:butt;stroke-linejoin:miter;stroke-opacity:1"
       xml:space="preserve"><tspan
         style="font-size:10px;line-height:1.25"
         y="124.74944"
         x="114.84943"
         id="tspan4411"
         sodipodi:role="line">Data1 (32 bit)</tspan></text>
    <text
       xml:space="preserve"
       style="font-style:normal;font-variant:normal;font-weight:normal;font-stretch:normal;line-height:0%;font-family:'Trebuchet MS';-inkscape-font-specification:'Trebuchet MS';letter-spacing:0px;word-spacing:0px;fill:#000000;fill-opacity:1;stroke:none;stroke-width:1px;stroke-linecap:butt;stroke-linejoin:miter;stroke-opacity:1"
       x="114.84943"
       y="110.99944"
       id="text4413"><tspan
         sodipodi:role="line"
         id="tspan4415"
         x="114.84943"
         y="110.99944"
         style="font-size:10px;line-height:1.25">Data0 (18 bit)</tspan></text>
    <rect
       y="186.50201"
       x="18.837019"
       height="17.529013"
       width="193.67117"
       id="rect4417"
       style="opacity:0.9996;fill:#e9afaf;stroke:#000000;stroke-width:1;stroke-miterlimit:4;stroke-dasharray:none;stroke-opacity:1" />
    <rect
       style="opacity:0.9996;fill:#ffff00;stroke:#000000;stroke-width:1;stroke-miterlimit:4;stroke-dasharray:none;stroke-opacity:1"
       id="rect4419"
       width="5.795239"
       height="12.416936"
       x="204.28474"
       y="188.8463" />
    <rect
       style="opacity:0.9996;fill:#ffff00;stroke:#000000;stroke-width:1;stroke-miterlimit:4;stroke-dasharray:none;stroke-opacity:1"
       id="rect4421"
       width="5.795239"
       height="12.416936"
       x="197.0407"
       y="189.06061" />
    <rect
       y="188.8463"
       x="189.62776"
       height="12.416936"
       width="5.795239"
       id="rect4423"
       style="opacity:0.9996;fill:#e580ff;stroke:#000000;stroke-width:1;stroke-miterlimit:4;stroke-dasharray:none;stroke-opacity:1" />
    <rect
       y="189.06061"
       x="182.38373"
       height="12.416936"
       width="5.795239"
       id="rect4425"
       style="opacity:0.9996;fill:#e580ff;stroke:#000000;stroke-width:1;stroke-miterlimit:4;stroke-dasharray:none;stroke-opacity:1" />
    <rect
       style="opacity:0.9996;fill:#e580ff;stroke:#000000;stroke-width:1;stroke-miterlimit:4;stroke-dasharray:none;stroke-opacity:1"
       id="rect4427"
       width="5.795239"
       height="12.416936"
       x="175.06982"
       y="188.8463" />
    <rect
       style="opacity:0.9996;fill:#e580ff;stroke:#000000;stroke-width:1;stroke-miterlimit:4;stroke-dasharray:none;stroke-opacity:1"
       id="rect4429"
       width="5.795239"
       height="12.416936"
       x="167.82579"
       y="189.06061" />
    <text
       id="text4431"
       y="198.24332"
       x="127.50044"
       style="font-style:normal;font-variant:normal;font-weight:normal;font-stretch:normal;line-height:0%;font-family:'Trebuchet MS';-inkscape-font-specification:'Trebuchet MS';letter-spacing:0px;word-spacing:0px;fill:#000000;fill-opacity:1;stroke:none;stroke-width:1px;stroke-linecap:butt;stroke-linejoin:miter;stroke-opacity:1"
       xml:space="preserve"><tspan
         style="font-size:10px;line-height:1.25"
         y="198.24332"
         x="127.50044"
         id="tspan4433"
         sodipodi:role="line">Arity=2</tspan></text>
    <text
       xml:space="preserve"
       style="font-style:normal;font-variant:normal;font-weight:normal;font-stretch:normal;line-height:0%;font-family:'Trebuchet MS';-inkscape-font-specification:'Trebuchet MS';letter-spacing:0px;word-spacing:0px;fill:#000000;fill-opacity:1;stroke:none;stroke-width:1px;stroke-linecap:butt;stroke-linejoin:miter;stroke-opacity:1"
       x="20.28377"
       y="182.03139"
       id="text4435"><tspan
         sodipodi:role="line"
         id="tspan4437"
         x="20.28377"
         y="182.03139"
         style="font-size:10px;line-height:1.25">64-bit Little Endian</tspan></text>
    <path
       inkscape:connector-curvature="0"
       d="m 170.11722,184.77574 c 0.78951,-0.45186 1.53196,-0.96168 2.40486,-1.28784 0.53519,-0.1822 1.11044,-0.18749 1.67651,-0.19786 0.60883,-0.0125 1.21792,0.0258 1.82464,-0.0237 0.50133,-0.0747 1.00412,-0.1333 1.5116,-0.16294 0.46687,-0.009 0.91523,-0.13352 1.37573,-0.18962 0.7191,-0.0976 1.25266,-0.47061 1.7199,-0.93064 0.48692,-0.50712 0.87083,-1.08019 1.23547,-1.65753 0.32003,-0.4879 0.4666,-1.02594 0.55817,-1.57595 0.004,-0.0122 0.0248,-0.0375 0.0104,-0.0367 -0.41285,0.024 -0.83828,0.006 -1.23511,0.10787 -0.0765,0.0197 0.004,0.1389 0.005,0.20836 0.005,0.30328 0.006,0.59866 0.0326,0.90163 0.0967,0.60549 0.33358,1.18439 0.64048,1.73147 0.30162,0.4532 0.81696,0.68252 1.33133,0.91174 0.42347,0.17828 0.84027,0.3383 1.30237,0.42576 0.55971,0.13431 1.13202,0.21218 1.70897,0.26045 0.53881,0.038 1.07971,0.0401 1.61991,0.0418 0.50651,4.2e-4 1.01301,-8.2e-4 1.51952,-0.002 0.50459,-5.5e-4 1.00919,-6.5e-4 1.51378,-6.8e-4 0.45637,0.01 0.92347,0.0718 1.36661,0.17022 0.4084,0.0594 0.77043,0.18843 1.12453,0.36613 0.31728,0.21955 0.64151,0.43874 0.9526,0.66709 0.21095,0.17076 0.35048,0.37845 0.50916,0.58348 0.50282,0.64248 1.54625,0.0233 1.04343,-0.6192 v 0 c -0.22825,-0.28683 -0.44068,-0.57717 -0.74619,-0.81039 -0.3696,-0.26426 -0.74003,-0.53243 -1.1287,-0.77373 -0.45787,-0.22961 -0.93575,-0.39727 -1.45789,-0.48208 -0.54343,-0.11054 -1.10522,-0.19629 -1.66373,-0.20105 -0.50511,6e-5 -1.01022,1.5e-4 -1.51533,6.8e-4 -0.50435,6e-4 -1.0087,0.002 -1.51305,0.002 -0.50195,-0.002 -1.00455,-0.003 -1.5053,-0.0369 -0.53063,-0.0433 -1.05549,-0.11843 -1.56998,-0.24211 -0.35497,-0.0604 -0.66218,-0.19858 -0.98868,-0.32973 -0.27347,-0.11988 -0.56619,-0.22488 -0.77511,-0.42521 -0.25011,-0.41289 -0.41217,-0.86833 -0.5101,-1.32589 -0.0281,-0.28107 -0.024,-0.55713 -0.0288,-0.83901 -0.001,-0.0821 0.0783,-0.2112 -0.007,-0.2462 -1.24853,-0.51234 -1.18,-0.62091 -1.28566,-0.16487 -0.0691,0.41961 -0.16667,0.83109 -0.41484,1.20314 -0.3221,0.51005 -0.65678,1.01831 -1.08428,1.46829 -0.25502,0.26656 -0.53524,0.49834 -0.94272,0.56117 -0.42996,0.0541 -0.84916,0.16503 -1.28319,0.18115 -0.52291,0.0313 -1.04225,0.0865 -1.55845,0.16648 -0.5684,0.0624 -1.14823,-0.0127 -1.71958,0.0179 -0.73117,0.0141 -1.4682,0.0416 -2.15393,0.28926 -0.94612,0.3637 -1.77179,0.89123 -2.62424,1.39494 -0.73146,0.44586 -0.007,1.34663 0.7241,0.90077 z"
       id="path4439"
       style="fill:#d42aff;fill-opacity:1;fill-rule:nonzero;stroke:none;stroke-width:1px;stroke-linecap:butt;stroke-linejoin:miter;stroke-opacity:1" />
    <text
       xml:space="preserve"
       style="font-style:normal;font-variant:normal;font-weight:normal;font-stretch:normal;line-height:0%;font-family:'Trebuchet MS';-inkscape-font-specification:'Trebuchet MS';letter-spacing:0px;word-spacing:0px;fill:#000000;fill-opacity:1;stroke:none;stroke-width:1px;stroke-linecap:butt;stroke-linejoin:miter;stroke-opacity:1"
       x="114.20203"
       y="166.10489"
       id="text4441"><tspan
         sodipodi:role="line"
         id="tspan4443"
         x="114.20203"
         y="166.10489"
         style="font-size:10px;line-height:1.25">TAG_PRIMARY_HEADER</tspan></text>
    <text
       id="text4445"
       y="177.05505"
       x="132.72324"
       style="font-style:normal;font-variant:normal;font-weight:normal;font-stretch:normal;line-height:0%;font-family:'Trebuchet MS';-inkscape-font-specification:'Trebuchet MS';letter-spacing:0px;word-spacing:0px;fill:#d42aff;fill-opacity:1;stroke:none;stroke-width:1px;stroke-linecap:butt;stroke-linejoin:miter;stroke-opacity:1"
       xml:space="preserve"><tspan
         style="font-size:10px;line-height:1.25;fill:#d42aff"
         y="177.05505"
         x="132.72324"
         id="tspan4447"
         sodipodi:role="line">REF_SUBTAG</tspan></text>
    <path
       inkscape:connector-curvature="0"
       d="m 197.25572,183.85042 c 0.0801,-0.70762 0.31284,-1.36055 0.79448,-1.88862 0.33759,-0.27635 0.7461,-0.44688 1.16731,-0.54876 0.31269,-0.0267 0.61154,-0.1163 0.91857,-0.17524 0.35521,-0.0601 0.71609,-0.0681 1.07542,-0.0745 0.3105,0.0213 0.60586,-0.014 0.90828,-0.0745 0.27026,-0.0447 0.52581,-0.15484 0.78144,-0.25119 0.186,-0.09 0.28808,-0.26184 0.40377,-0.42296 0.1423,-0.23031 0.22091,-0.49165 0.32836,-0.73843 0.12808,-0.34075 0.23274,-0.68796 0.30259,-1.04538 0.0743,-0.44296 0.17491,-0.88167 0.27322,-1.32004 0.0932,-0.39861 0.13481,-0.8054 0.15601,-1.21334 0.0195,-0.54703 0.10546,-1.08962 0.19873,-1.62824 0.0948,-0.57476 0.22707,-1.13945 0.28862,-1.7195 0.0487,-0.56239 0.0556,-1.12717 0.0599,-1.69129 0.002,-0.40197 2e-4,-0.80394 -6.4e-4,-1.20591 -0.008,-0.13986 0.004,-0.86671 0.15225,-0.91206 0.22428,-0.0686 0.4667,-0.0469 0.70005,-0.0703 0.28081,0.33211 0.39394,0.76732 0.47988,1.1867 0.0739,0.43229 0.0874,0.87133 0.0953,1.30883 0.004,0.36858 0.002,0.7372 0.001,1.1058 -0.027,0.33995 0.0515,0.66984 0.10141,1.00365 0.0419,0.31694 0.1449,0.61981 0.19709,0.9361 0.05,0.3608 0.054,0.72566 0.0579,1.08923 0.002,0.35859 7.9e-4,0.71718 2.3e-4,1.07576 -0.0267,0.34058 0.0519,0.67112 0.10188,1.00555 0.0535,0.37382 0.0659,0.75153 0.0734,1.12854 0.006,0.31706 -0.0174,0.63169 0.0459,0.94334 0.0757,0.21194 0.008,0.50729 0.18697,0.67056 0.18685,0.11596 0.34297,0.28142 0.54163,0.38071 0.24604,0.10097 0.49046,0.20687 0.73046,0.3224 0.26078,0.0948 0.53918,0.12448 0.80918,0.1877 0.33819,0.0722 0.6803,0.0964 1.01611,0.18063 0.4509,0.15224 0.69304,0.37412 0.86292,0.8211 0.14225,0.35027 0.20537,0.72127 0.24416,1.09506 0.0639,0.6281 -0.82434,0.7185 -0.88826,0.0904 v 0 c -0.0304,-0.30585 -0.0807,-0.60851 -0.1999,-0.89415 -0.0341,-0.14754 -0.0859,-0.18446 -0.2377,-0.24677 -0.32981,-0.0841 -0.66972,-0.0959 -1.00099,-0.17695 -0.33293,-0.078 -0.67854,-0.11026 -0.99302,-0.25264 -0.25396,-0.12242 -0.51312,-0.23138 -0.77193,-0.34373 -0.30068,-0.17129 -0.57511,-0.38851 -0.82594,-0.6267 -0.22048,-0.31977 -0.30093,-0.65461 -0.3498,-1.03549 -0.0698,-0.36399 -0.0644,-0.72824 -0.0625,-1.09781 -0.007,-0.33883 -0.0165,-0.67837 -0.0638,-1.01444 -0.0562,-0.37799 -0.13905,-0.75391 -0.11165,-1.1387 5.5e-4,-0.355 0.002,-0.70999 -1.9e-4,-1.06498 -0.003,-0.31896 -0.006,-0.63904 -0.0465,-0.9559 -0.0505,-0.3199 -0.16389,-0.62473 -0.19879,-0.94705 -0.0562,-0.37757 -0.1389,-0.75308 -0.11118,-1.13746 8.2e-4,-0.36261 0.003,-0.72524 -0.001,-1.08784 -0.007,-0.38448 -0.0169,-0.77034 -0.0783,-1.15074 -0.0307,-0.16183 -0.069,-0.31393 -0.12548,-0.46892 -0.0288,-0.0789 -0.0856,-0.20667 -0.0724,-0.21119 0.0224,-0.008 0.0408,0.024 0.0612,0.036 0.49014,-0.13423 0.53306,0.0269 0.60677,-0.23707 0.0131,-0.0469 -0.0312,0.0934 -0.0342,0.142 -9e-5,0.001 5.6e-4,0.35852 5.6e-4,0.35894 8.5e-4,0.40488 0.002,0.80975 6.2e-4,1.21462 -0.005,0.59365 -0.0123,1.18801 -0.065,1.77973 -0.0649,0.59906 -0.19606,1.18335 -0.29662,1.77657 -0.0873,0.50381 -0.16983,1.01116 -0.18687,1.52288 -0.0244,0.45783 -0.0721,0.91433 -0.17642,1.36174 -0.0967,0.43113 -0.19657,0.86234 -0.26859,1.29817 -0.0846,0.42241 -0.20665,0.83476 -0.36327,1.23616 -0.13931,0.29844 -0.22395,0.62574 -0.4198,0.89703 -0.22173,0.3043 -0.45186,0.58764 -0.81284,0.73565 -0.30076,0.11314 -0.60293,0.2369 -0.92091,0.29111 -0.35415,0.0708 -0.70553,0.1119 -1.06783,0.0917 -0.3088,0.005 -0.61901,0.0105 -0.92471,0.059 -0.29455,0.055 -0.58184,0.14523 -0.88201,0.16751 -0.25585,0.0562 -0.49959,0.16212 -0.724,0.29538 -0.36849,0.35344 -0.47851,0.87304 -0.55227,1.36135 -0.0628,0.62821 -0.95124,0.53937 -0.88842,-0.0888 z"
       id="path4449"
       style="fill:#000000;stroke-width:1;stroke-miterlimit:4;stroke-dasharray:none" />
    <rect
       style="opacity:0.9996;fill:#f4d7d7;stroke:#000000;stroke-width:1;stroke-miterlimit:4;stroke-dasharray:none;stroke-opacity:1"
       id="rect4451"
       width="193.85922"
       height="11.544888"
       x="18.742992"
       y="208.37881" />
    <rect
       y="222.84914"
       x="18.742992"
       height="11.544888"
       width="193.85922"
       id="rect4453"
       style="opacity:0.9996;fill:#f4d7d7;stroke:#000000;stroke-width:1;stroke-miterlimit:4;stroke-dasharray:none;stroke-opacity:1" />
    <text
       id="text4457"
       y="232.07037"
       x="21.157774"
       style="font-style:normal;font-variant:normal;font-weight:normal;font-stretch:normal;line-height:0%;font-family:'Trebuchet MS';-inkscape-font-specification:'Trebuchet MS';letter-spacing:0px;word-spacing:0px;fill:#000000;fill-opacity:1;stroke:none;stroke-width:1px;stroke-linecap:butt;stroke-linejoin:miter;stroke-opacity:1"
       xml:space="preserve"><tspan
         style="font-size:10px;line-height:1.25"
         y="232.07037"
         x="21.157774"
         id="tspan4459"
         sodipodi:role="line">Data2</tspan></text>
    <text
       xml:space="preserve"
       style="font-style:normal;font-variant:normal;font-weight:normal;font-stretch:normal;line-height:0%;font-family:'Trebuchet MS';-inkscape-font-specification:'Trebuchet MS';letter-spacing:0px;word-spacing:0px;fill:#000000;fill-opacity:1;stroke:none;stroke-width:1px;stroke-linecap:butt;stroke-linejoin:miter;stroke-opacity:1"
       x="119.39511"
       y="231.49567"
       id="text4461"><tspan
         sodipodi:role="line"
         id="tspan4463"
         x="119.39511"
         y="231.49567"
         style="font-size:10px;line-height:1.25">Data1</tspan></text>
    <text
       id="text4465"
       y="217.74567"
       x="21.157778"
       style="font-style:normal;font-variant:normal;font-weight:normal;font-stretch:normal;line-height:0%;font-family:'Trebuchet MS';-inkscape-font-specification:'Trebuchet MS';letter-spacing:0px;word-spacing:0px;fill:#000000;fill-opacity:1;stroke:none;stroke-width:1px;stroke-linecap:butt;stroke-linejoin:miter;stroke-opacity:1"
       xml:space="preserve"><tspan
         style="font-size:10px;line-height:1.25"
         y="217.74567"
         x="21.157778"
         id="tspan4467"
         sodipodi:role="line">Data0</tspan></text>
    <text
       xml:space="preserve"
       style="font-style:normal;font-variant:normal;font-weight:normal;font-stretch:normal;line-height:0%;font-family:'Trebuchet MS';-inkscape-font-specification:'Trebuchet MS';letter-spacing:0px;word-spacing:0px;fill:#000000;fill-opacity:1;stroke:none;stroke-width:1px;stroke-linecap:butt;stroke-linejoin:miter;stroke-opacity:1"
       x="119.41415"
       y="217.43622"
       id="text4469"><tspan
         sodipodi:role="line"
         id="tspan4471"
         x="119.41415"
         y="217.43622"
         style="font-size:8.75px;line-height:1.25">ERTS_REF_NUMBERS=3</tspan></text>
    <path
       style="fill:#808080;fill-rule:evenodd;stroke:#808080;stroke-width:1;stroke-linecap:butt;stroke-linejoin:miter;stroke-miterlimit:4;stroke-dasharray:none;stroke-opacity:1"
       d="m 113.13708,150.29599 v 94.6155"
       id="path4481"
       inkscape:connector-curvature="0" />
    <text
       xml:space="preserve"
       style="font-style:normal;font-variant:normal;font-weight:normal;font-stretch:normal;line-height:0%;font-family:'Trebuchet MS';-inkscape-font-specification:'Trebuchet MS';letter-spacing:0px;word-spacing:0px;fill:#4d4d4d;fill-opacity:1;stroke:none;stroke-width:1px;stroke-linecap:butt;stroke-linejoin:miter;stroke-opacity:1"
       x="207.04996"
       y="245.97302"
       id="text4483"><tspan
         sodipodi:role="line"
         id="tspan4485"
         x="207.04996"
         y="245.97302"
         style="font-size:10px;line-height:1.25;fill:#4d4d4d">0</tspan></text>
    <text
       id="text4491"
       y="245.97302"
       x="114.90653"
       style="font-style:normal;font-variant:normal;font-weight:normal;font-stretch:normal;line-height:0%;font-family:'Trebuchet MS';-inkscape-font-specification:'Trebuchet MS';letter-spacing:0px;word-spacing:0px;fill:#4d4d4d;fill-opacity:1;stroke:none;stroke-width:1px;stroke-linecap:butt;stroke-linejoin:miter;stroke-opacity:1"
       xml:space="preserve"><tspan
         style="font-size:10px;line-height:1.25;fill:#4d4d4d"
         y="245.97302"
         x="114.90653"
         id="tspan4493"
         sodipodi:role="line">31</tspan></text>
    <text
       xml:space="preserve"
       style="font-style:normal;font-variant:normal;font-weight:normal;font-stretch:normal;line-height:0%;font-family:'Trebuchet MS';-inkscape-font-specification:'Trebuchet MS';letter-spacing:0px;word-spacing:0px;fill:#4d4d4d;fill-opacity:1;stroke:none;stroke-width:1px;stroke-linecap:butt;stroke-linejoin:miter;stroke-opacity:1"
       x="19.161583"
       y="245.97302"
       id="text4495"><tspan
         sodipodi:role="line"
         id="tspan4497"
         x="19.161583"
         y="245.97302"
         style="font-size:10px;line-height:1.25;fill:#4d4d4d">63</tspan></text>
    <text
       xml:space="preserve"
       style="font-style:normal;font-variant:normal;font-weight:normal;font-stretch:normal;line-height:0%;font-family:'Trebuchet MS';-inkscape-font-specification:'Trebuchet MS';letter-spacing:0px;word-spacing:0px;fill:#4d4d4d;fill-opacity:1;stroke:none;stroke-width:1px;stroke-linecap:butt;stroke-linejoin:miter;stroke-opacity:1"
       x="114.90653"
       y="151.22072"
       id="text4499"><tspan
         sodipodi:role="line"
         id="tspan4501"
         x="114.90653"
         y="151.22072"
         style="font-size:10px;line-height:1.25;fill:#4d4d4d">31</tspan></text>
    <text
       id="text4503"
       y="151.47302"
       x="207.04996"
       style="font-style:normal;font-variant:normal;font-weight:normal;font-stretch:normal;line-height:0%;font-family:'Trebuchet MS';-inkscape-font-specification:'Trebuchet MS';letter-spacing:0px;word-spacing:0px;fill:#4d4d4d;fill-opacity:1;stroke:none;stroke-width:1px;stroke-linecap:butt;stroke-linejoin:miter;stroke-opacity:1"
       xml:space="preserve"><tspan
         style="font-size:10px;line-height:1.25;fill:#4d4d4d"
         y="151.47302"
         x="207.04996"
         id="tspan4505"
         sodipodi:role="line">0</tspan></text>
    <path
       style="fill:#ff0000;stroke:none;stroke-width:1;stroke-miterlimit:4;stroke-dasharray:none"
       id="path4515"
       d="m 28.053054,52.783819 c -0.444695,1.956804 -1.022609,3.882527 -1.579264,5.810116 -1.530273,5.518518 -2.852596,11.090882 -4.109782,16.67698 -1.874063,8.491221 -3.737264,16.989046 -5.152957,25.571405 -0.268233,1.62612 -0.501096,3.25787 -0.751644,4.8868 -0.802165,5.84134 -1.405794,11.72221 -1.513791,17.62155 -0.06869,3.7521 0.0173,4.46038 0.174627,8.19444 0.475508,7.43503 1.950762,14.75091 3.64558,21.9897 1.102477,4.57772 2.225257,9.15097 3.42083,13.70534 0.09167,0.31821 0.183343,0.63643 0.275015,0.95464 0.24453,0.84939 -0.956682,1.1952 -1.201212,0.34582 v 0 c -0.09428,-0.32769 -0.188559,-0.65539 -0.282839,-0.98308 -1.198389,-4.56516 -2.323889,-9.14923 -3.428893,-13.73781 -1.712041,-7.31519 -3.200444,-14.70851 -3.67738,-22.22216 -0.15823,-3.77879 -0.245118,-4.49756 -0.174866,-8.2933 0.110076,-5.94743 0.717989,-11.87628 1.527463,-17.7652 0.251995,-1.63771 0.486255,-3.27826 0.755985,-4.91314 1.419158,-8.601798 3.286156,-17.119004 5.164588,-25.629475 1.26279,-5.610358 2.590915,-11.206962 4.128356,-16.74934 0.547054,-1.894082 1.114807,-3.786303 1.554459,-5.708431 0.173343,-0.866719 1.399069,-0.621574 1.225725,0.245145 z"
       inkscape:connector-curvature="0" />
    <path
       style="fill:#ff0000;stroke:none;stroke-width:1;stroke-miterlimit:4;stroke-dasharray:none"
       id="path4517"
       d="m 17.179691,159.18987 c 0.935297,1.06931 1.559247,2.3535 2.184364,3.61664 0.517845,1.08996 1.074215,2.1596 1.587483,3.25153 0.398424,0.82373 0.775698,1.65711 1.15914,2.48781 0.278249,0.56086 0.370104,1.17977 0.544339,1.77395 0.153178,0.28408 0.05521,-0.13166 -0.30924,-0.14543 -0.537708,-0.0203 -0.568556,0.47771 -0.521755,-0.0312 0.06431,-1.14632 0.05264,-2.29566 0.05443,-3.44338 4.2e-4,-1.67311 -0.0014,-3.34622 -0.0024,-5.01932 -7.43e-4,-1.35595 -9.53e-4,-2.71191 -0.0011,-4.06786 -3.3e-5,-0.63009 -2.1e-5,-0.3256 -3.7e-5,-0.91346 -2.4e-5,-0.88388 1.249976,-0.88392 1.25,-3e-5 v 0 c 1.6e-5,0.58781 4e-6,0.28335 3.7e-5,0.91338 1.15e-4,1.35575 3.25e-4,2.7115 0.0011,4.06724 9.74e-4,1.674 0.0028,3.348 0.0024,5.022 -0.0019,1.19626 0.01231,2.39463 -0.06317,3.58904 -0.01475,0.1101 -0.0588,0.60547 -0.157377,0.70439 -0.708753,0.71119 -1.15003,0.42408 -1.452461,-0.32393 -0.156841,-0.53579 -0.237881,-1.09324 -0.479774,-1.6017 -0.381927,-0.82814 -0.758388,-1.65864 -1.155386,-2.47976 -0.509691,-1.08436 -1.062604,-2.14642 -1.576602,-3.22896 -0.576804,-1.16619 -1.144609,-2.35775 -2.004707,-3.34782 -0.582042,-0.66519 0.358679,-1.48832 0.940721,-0.82313 z"
       inkscape:connector-curvature="0" />
    <path
       style="fill:#ff0000;stroke:none;stroke-width:1;stroke-miterlimit:4;stroke-dasharray:none"
       id="path4523"
       d="m 28.690749,52.627505 c 0.958176,2.322858 2.297055,4.45406 3.70256,6.526333 1.961013,2.672115 4.240216,5.130857 6.873842,7.154197 0.574994,0.441753 1.179102,0.844259 1.768654,1.266389 3.946615,2.630397 8.461312,4.154649 12.91931,5.662058 5.012503,1.656171 10.114349,3.025364 15.240512,4.27896 4.456927,1.019548 8.907522,2.072729 13.378673,3.028614 3.418059,0.703804 6.81387,1.506663 10.235689,2.191708 1.78053,0.391082 3.581916,0.667316 5.392274,0.873013 0.878218,0.09992 0.736912,1.341906 -0.141306,1.241988 v 0 C 96.215767,84.640559 94.379531,84.359679 92.564595,83.96144 89.137453,83.275246 85.736258,82.471584 82.312923,81.766424 77.829934,80.807659 73.367346,79.752344 68.898645,78.72965 63.737683,77.467129 58.60111,76.088692 53.554681,74.420608 48.979721,72.873349 44.35151,71.299544 40.307407,68.590267 39.695255,68.15073 39.067915,67.731608 38.470949,67.271655 35.746103,65.172206 33.386107,62.62559 31.358514,59.855051 29.913293,57.720459 28.535748,55.526195 27.548485,53.135178 27.189506,52.327476 28.33177,51.819802 28.690749,52.627505 Z"
       inkscape:connector-curvature="0" />
    <path
       style="fill:#ff0000;stroke:none;stroke-width:1;stroke-miterlimit:4;stroke-dasharray:none"
       id="path4529"
       d="m 87.615358,88.155215 c 1.256551,-0.529976 2.530058,-0.98253 3.843257,-1.348888 1.389964,-0.374309 2.759581,-0.815785 4.146169,-1.201613 1.177819,-0.287133 2.36275,-0.557542 3.563504,-0.729737 0.132657,-0.02541 0.26714,-0.04267 0.397972,-0.07624 0.07758,-0.01991 0.155841,-0.04371 0.225256,-0.08368 0.01579,-0.0091 -0.03798,-0.02716 -0.05231,-0.0159 -0.06815,0.05352 -0.133084,0.116862 -0.173698,0.193407 -0.109578,0.206524 0.05556,0.258167 -0.132163,0.155725 -1.095424,-0.621977 -2.188476,-1.248615 -3.271713,-1.892734 -1.485211,-0.90168 -2.966785,-1.808194 -4.438597,-2.731642 -1.087389,-0.769167 -2.217326,-1.474844 -3.315583,-2.227132 -0.489196,-0.367528 -0.256318,-0.195728 -0.69771,-0.516651 -0.71478,-0.519943 0.02053,-1.530794 0.73531,-1.010851 v 0 c 0.443287,0.3226 0.219939,0.15707 0.669795,0.496924 1.082471,0.744717 2.200899,1.437259 3.272531,2.198867 1.463389,0.918168 2.936443,1.819556 4.413148,2.716094 0.665888,0.395996 1.330224,0.797102 2.004945,1.177995 0.212559,0.119994 0.872314,0.467674 1.094336,0.608229 0.145193,0.09192 0.279813,0.199547 0.419713,0.29932 0.10726,0.122141 0.24913,0.22101 0.32177,0.366423 0.53681,1.074533 -0.45745,1.460577 -1.296564,1.579323 -1.147528,0.162571 -2.278931,0.425344 -3.404886,0.696511 -1.386359,0.385677 -2.755598,0.82758 -4.145439,1.201409 -1.282556,0.357545 -2.524319,0.802539 -3.751864,1.319575 -0.830668,0.302061 -1.257847,-0.872681 -0.427179,-1.174742 z"
       inkscape:connector-curvature="0" />
  </g>
</svg>
