<?xml version="1.0" encoding="UTF-8" standalone="no"?>
<!-- Created with Inkscape (http://www.inkscape.org/) -->

<svg
   xmlns:dc="http://purl.org/dc/elements/1.1/"
   xmlns:cc="http://creativecommons.org/ns#"
   xmlns:rdf="http://www.w3.org/1999/02/22-rdf-syntax-ns#"
   xmlns:svg="http://www.w3.org/2000/svg"
   xmlns="http://www.w3.org/2000/svg"
   xmlns:sodipodi="http://sodipodi.sourceforge.net/DTD/sodipodi-0.dtd"
   xmlns:inkscape="http://www.inkscape.org/namespaces/inkscape"
   width="210mm"
   height="297mm"
   viewBox="0 0 744.09448819 1052.3622047"
   id="svg2"
   version="1.1"
   inkscape:version="0.91 r13725"
   sodipodi:docname="eli5-section.svg"
   inkscape:export-filename="/Users/dmytro/Dropbox/Documents/BeamWisdoms/eli5-section.png"
   inkscape:export-xdpi="200.06775"
   inkscape:export-ydpi="200.06775">
  <defs
     id="defs4" />
  <sodipodi:namedview
     id="base"
     pagecolor="#ffffff"
     bordercolor="#666666"
     borderopacity="1.0"
     inkscape:pageopacity="0.0"
     inkscape:pageshadow="2"
     inkscape:zoom="0.98994949"
     inkscape:cx="542.92103"
     inkscape:cy="817.50062"
     inkscape:document-units="px"
     inkscape:current-layer="layer1"
     showgrid="false"
     inkscape:window-width="1920"
     inkscape:window-height="1035"
     inkscape:window-x="0"
     inkscape:window-y="1"
     inkscape:window-maximized="1" />
  <metadata
     id="metadata7">
    <rdf:RDF>
      <cc:Work
         rdf:about="">
        <dc:format>image/svg+xml</dc:format>
        <dc:type
           rdf:resource="http://purl.org/dc/dcmitype/StillImage" />
        <dc:title></dc:title>
      </cc:Work>
    </rdf:RDF>
  </metadata>
  <g
     inkscape:groupmode="layer"
     id="layer2"
     inkscape:label="Color">
    <path
       style="opacity:0.99959998;fill:#5f8dd3;stroke:none;stroke-width:1;stroke-miterlimit:4;stroke-dasharray:none;stroke-opacity:1"
       d="m 163.24554,97.363002 c -0.88362,0.02807 -1.76015,0.110046 -2.63281,0.214844 -0.65568,-0.158201 -1.38341,-0.219455 -2.19141,-0.142578 l -0.70703,0.07813 c -0.25501,0.04388 -2.9621,-1.680368 -3.03574,-1.491593 -0.42416,0.05329 -0.84978,0.09739 -1.27344,0.150391 -1.78843,0.02613 -3.57602,0.07576 -5.36133,0.189453 -2.01745,0.123301 -4.03264,0.1941 -6.05469,0.15039 -2.33507,0.01279 -4.67625,0.01399 -7.00195,0.25 -2.03941,0.250598 -4.04646,0.652514 -6.06641,1.019533 -2.04725,0.24393 -4.10291,0.44052 -6.1621,0.54687 -2.33644,0.0699 -4.67678,0.20061 -6.97461,0.66016 -2.14321,0.44635 -4.29077,0.9017 -6.39258,1.517578 -2.41288,0.65169 -4.85231,1.19339 -7.25781,1.87109 -2.245988,0.7046 -4.430209,1.5777 -6.662116,2.32226 -1.516309,0.4472 -3.028519,0.90477 -4.527344,1.40821 -1.728844,0.52526 -3.190841,3.36399 -4.897853,3.95643 -1.58553,0.53071 -3.202097,0.99804 -4.722656,1.69922 -1.761864,0.8932 -3.292058,2.08378 -4.625,3.54687 -2.116854,2.2794 -4.17624,4.61005 -6.181641,6.98829 -1.963172,2.29304 -3.899185,4.61212 -5.755859,6.99219 -2.953628,3.44589 -3.173615,4.8089 -0.247489,6.13281 -0.0039,0.14894 -0.01114,0.29721 -0.0078,0.45117 0.07894,1.36141 0.204448,2.72341 0.533203,4.05078 0.334297,1.27243 0.479316,2.59838 0.830079,3.86914 0.319857,1.27569 0.703444,2.54541 0.802734,3.86328 0.210047,1.88031 0.33814,3.77122 0.599609,5.64649 0.210015,2.5651 0.448756,5.12989 0.416016,7.70703 0.01755,1.21353 0.005,2.44027 0.113281,3.65039 0.03829,0.42789 1.697738,3.69299 2.118583,3.77929 11.582896,15.93378 9.741644,4.16519 10.722656,-0.33007 0.08514,-1.13424 0.07596,-2.2678 0.115235,-3.4043 0.04719,-0.76615 0.227612,-1.50617 0.359375,-2.26172 0.119968,-1.05048 0.393583,-2.07212 0.65039,-3.0957 0.270326,-1.184 0.613017,-2.34767 0.951172,-3.51367 0.188638,-0.76637 0.367699,-1.53231 0.666016,-2.26367 0.331373,-0.81869 0.756473,-1.59063 1.248047,-2.32618 0.864659,-1.28539 1.796858,-2.52162 2.748047,-3.74414 0.975538,-1.14529 1.969208,-2.27419 3.132812,-3.23632 1.464094,-1.31957 2.753496,-2.78405 4.042969,-4.27148 1.256623,-1.35566 2.65915,-2.56462 4.136719,-3.67384 2.105495,-1.50309 4.392765,-2.73371 6.666015,-3.96093 3.17943,-1.66062 6.37073,-3.31413 9.30274,-5.39648 2.41776,-1.61978 4.82108,-3.26247 7.28711,-4.80859 1.61577,-0.90939 3.22279,-1.82311 4.91796,-2.58009 1.47839,-0.65949 2.96365,-1.30611 4.42578,-2 1.22478,-0.45044 2.44614,-0.88802 3.70118,-1.24414 1.98285,-0.7084 4.01113,-1.27761 5.98242,-2.01954 3.69833,-1.38342 7.45869,-2.59305 11.22851,-3.76562 3.61717,-1.04888 7.26073,-2.2183 11.04102,-2.46875 8.04766,-0.35368 8.73901,-11.585151 0,-10.712883 z m -8.20957,-1.382218 c -0.0634,0.01 -0.12776,0.01462 -0.19141,0.02344 0.007,-0.0036 0.0129,-0.0065 0.0195,-0.0098 0.0862,-0.0021 0.22876,-0.02262 0.17188,-0.01367 z M 68.044922,164.39034 c 0.0081,0.2256 0.01536,0.32581 -0.02734,0.14649 0.01104,-0.0621 0.01698,-0.0876 0.02734,-0.14649 z"
       id="path3386"
       inkscape:connector-curvature="0"
       sodipodi:nodetypes="ccccccccccccccccccccccccccccsccccccccccccccccccccccccccccccc" />
    <path
       style="opacity:0.99959998;fill:#d35f5f;stroke:none;stroke-width:1;stroke-miterlimit:4;stroke-dasharray:none;stroke-opacity:1"
       d="m 163.29492,103.52344 c -1.35871,0.1024 -2.64033,0.80667 -3.83984,1.45312 -1.08444,0.62012 -2.19821,1.19058 -3.25,1.86524 -0.96227,0.67799 -0.89287,0.75314 -2.00781,1.26758 -0.79273,0.4295 -1.60079,0.82951 -2.40821,1.23046 -1.46188,0.66313 -2.93609,1.29324 -4.40429,1.94141 -1.73933,0.80327 -3.44158,0.60498 -5.17188,1.42662 -1.68839,0.78277 -4.09165,1.3965 -5.84906,2.01479 -1.92543,0.71031 -3.12345,2.70636 -5.01617,3.5 -1.70302,0.72466 -3.42184,1.41226 -5.09766,2.19922 -1.4179,0.66977 -2.89928,1.19337 -4.33008,1.83593 -1.76115,0.84365 -3.48851,1.75402 -5.14258,2.79492 -1.4708,0.92957 -2.9082,1.90635 -4.32226,2.91993 -1.26851,0.90522 -2.52633,1.82181 -3.76953,2.76172 -0.61217,0.51911 -0.0855,0.0943 -1.16211,0.81445 -1.13683,0.76035 -3.85092,0.14523 -4.88058,1.04604 -1.2326,1.09257 -2.45717,2.19484 -3.712893,3.25976 -1.334314,1.12142 -2.785559,2.08333 -4.142579,3.17578 -1.26691,1.10112 -2.594653,2.13108 -3.865234,3.22852 -1.62324,1.29044 -1.727271,3.91975 -3.154576,5.43638 -1.37515,1.41454 -2.643862,2.91401 -3.945312,4.39453 -1.45372,1.71395 -2.907713,3.43973 -3.892578,5.48047 -1.207816,2.3212 -2.340116,4.67895 -3.011719,7.22266 -0.235098,0.86702 -0.453528,1.73804 -0.664063,2.61133 -1.692171,0.7096 -3.072956,1.93907 -3.785156,3.71484 -0.204745,0.5105 -0.285041,1.0606 -0.427734,1.5918 -0.0038,0.58128 -0.065,1.16529 -0.01172,1.74414 0.192817,2.09473 1.467941,3.92851 3.025391,5.24609 0.310681,0.20682 0.612523,0.42754 0.93164,0.6211 1.069512,0.64869 2.274671,1.04761 3.34375,1.69726 1.577083,0.90435 3.041938,1.9796 4.63086,2.86328 1.268864,0.66923 2.568059,1.26207 3.910156,1.76953 1.752393,0.67871 3.497386,1.39652 5.326172,1.84766 2.006662,0.51267 3.984935,1.1253 5.941406,1.80469 2.225389,0.85455 4.470659,1.6536 6.749999,2.35351 2.06105,0.6729 4.07182,1.51264 6.20508,1.94922 1.85736,0.44868 3.72158,0.85342 5.57813,1.30469 1.83926,0.51953 3.67718,1.05002 5.53515,1.49805 1.60889,0.37222 3.20435,0.79878 4.8125,1.17382 1.41285,0.38877 2.83389,0.74108 4.25781,1.08594 1.88907,0.45639 3.81983,0.73162 5.67383,1.33399 2.31098,0.63687 4.57425,1.42989 6.84571,2.19336 0.87107,0.32077 2.69041,1.12373 3.54492,1.17773 1.00543,0.0636 2.07408,0.24882 3.02148,-0.0937 2.61771,-0.94653 2.76863,-1.62458 3.81445,-3.4043 0.42401,-1.07299 0.80196,-2.16415 1.11524,-3.27539 0.35514,-1.55684 0.57923,-3.14023 0.72265,-4.73047 0.24795,-2.24349 0.48995,-4.48739 0.75782,-6.72851 0.27744,-2.46946 0.63611,-4.93091 1.03906,-7.38281 0.30657,-2.15169 0.61515,-4.3024 0.88477,-6.45899 0.16366,-1.33173 0.32882,-2.67129 0.29882,-4.01562 0.009,-0.98322 0.0135,-1.96843 0.11719,-2.94727 0.17571,-1.36443 0.41581,-2.71991 0.66406,-4.07227 0.51493,-2.19437 1.13901,-4.36683 1.55664,-6.58203 0.29521,-1.68409 0.56178,-3.37144 0.87305,-5.05273 0.35389,-1.62606 0.77163,-3.23892 1.06055,-4.87891 0.35911,-2.01735 0.84637,-4.0151 0.98633,-6.0664 0.40541,-3.01402 1.01752,-5.99285 1.71093,-8.95313 0.0856,-0.38883 0.17399,-0.77729 0.25977,-1.16601 0.15231,-0.32372 0.31314,-0.6428 0.45703,-0.97071 0.70373,-1.62428 1.08619,-3.34097 1.23438,-5.09765 0.16381,-3.61565 -0.0379,-3.4778 -3.11524,-3.11328 0.36985,-0.95022 0.7446,-1.89808 1.1211,-2.84571 0.62734,-1.57289 1.34819,-3.1471 1.78124,-4.78711 0.10983,-0.41593 0.25124,-0.83193 0.26954,-1.26172 0.0381,-0.89526 -0.0679,-1.79207 -0.10157,-2.6875 -1.01667,-1.2239 -1.67983,-2.85912 -3.04882,-3.66992 -0.86864,-0.51445 -1.71212,-0.67081 -2.52735,-0.60937 z"
       id="path3393"
       inkscape:connector-curvature="0"
       sodipodi:nodetypes="ccccccccccccccscccccccccscsccccccccccccccccscccccccccccccccccccsscssc" />
    <path
       style="opacity:0.99959998;fill:#0055d4;stroke:none;stroke-width:1;stroke-miterlimit:4;stroke-dasharray:none;stroke-opacity:1"
       d="m 173.65234,100.49414 c -0.6436,0.001 -3.12464,-0.13749 -3.92597,0.12246 -1.36698,0.44346 -0.26319,2.28489 -1.2791,3.30137 -0.6597,1.79175 -0.59261,3.68315 -0.59961,5.55859 -0.0582,1.48623 0.0935,2.98557 -0.0273,4.46875 -0.16915,1.06261 -0.11226,2.15934 -0.28515,3.21875 -0.22849,0.89382 -0.39927,1.8032 -0.60938,2.70313 -0.33194,1.60727 -0.56267,3.22983 -0.71484,4.86328 -0.18828,1.29842 -0.31531,2.60426 -0.49024,3.9043 -0.19915,1.58315 -0.40698,3.16436 -0.64453,4.74218 -0.27556,1.77306 -0.51286,3.54887 -0.65625,5.33789 -0.0662,1.12703 -0.17414,2.25037 -0.29297,3.37305 -0.32388,1.04131 -0.643,2.08554 -0.9414,3.13477 -1.30806,4.27882 1.09982,8.19457 0.01,12.53543 -0.45914,1.98889 -0.95869,3.96644 -1.40234,5.95899 -0.45579,1.69196 -0.91302,3.38352 -1.43555,5.05664 -0.3855,1.45507 -0.77311,2.91254 -1.34375,4.30859 -0.57876,1.55005 -1.13284,3.10412 -1.44726,4.73438 -0.42618,1.7896 -0.78551,3.59767 -0.89844,5.4375 -0.22371,2.03409 -0.36654,4.07737 -0.42774,6.12305 0.0162,0.9593 -2.65214,3.24137 -2.51841,4.38588 -3.75696,2.69209 -3.65352,8.95563 2.46177,8.95563 l 10.20508,0 c 3.96436,0.0647 7.92342,-0.14454 11.875,-0.43359 2.2389,-0.2087 4.41517,-0.76269 6.57227,-1.36914 1.48988,-0.45717 2.97921,-0.93012 4.49804,-1.28321 2.33098,-0.60951 4.64408,-1.2789 6.97071,-1.90429 1.73562,-0.43935 3.41449,-1.06127 5.11914,-1.59961 0.97871,-0.39352 1.97826,-0.69945 2.94922,-1.10938 0.75864,-0.40129 1.54898,-0.6726 2.36523,-0.92578 1.41543,-0.29436 2.83093,-0.65066 4.00391,-1.56055 0.50053,-0.38826 0.90525,-0.88644 1.35742,-1.33008 1.60081,-2.11106 1.64058,-4.40703 1.85742,-6.89843 0.1492,-1.51535 0.24432,-3.03502 0.29492,-4.55664 -0.0221,-1.51223 -0.19332,-3.01517 -0.26172,-4.52539 -0.0264,-1.44726 -0.22832,-2.88237 -0.33789,-4.32422 -0.1947,-1.3553 -0.32805,-2.71796 -0.54296,-4.07032 -0.17387,-1.06914 -0.19876,-2.15085 -0.31055,-3.22656 -0.13907,-1.2569 -0.38234,-2.48676 -0.71289,-3.70703 -0.30687,-1.36067 -0.75101,-2.69021 -1.24805,-3.99219 -0.39764,-1.24035 -0.94347,-2.40561 -1.57812,-3.54101 -0.14242,-0.25882 -0.26203,-0.52922 -0.38672,-0.79688 0.10428,-0.404 0.12802,-0.86 0.2207,-1.25781 0.35188,-1.51046 0.0791,-3.28554 -0.0996,-4.80469 -0.42157,-2.33365 -1.11312,-4.61828 -1.88281,-6.85937 -0.47338,-1.48349 -1.16983,-2.87771 -1.93164,-4.23047 -0.65354,-1.08283 -1.29848,-2.17065 -1.9375,-3.26367 -0.1133,-0.19532 -0.23595,-0.38545 -0.33985,-0.58594 -0.18438,-0.35577 -0.26771,-0.79844 -0.42773,-1.16211 -0.47302,-1.07505 -0.4704,-1.00753 -1.04688,-1.98437 -0.8245,-1.15226 -1.60715,-2.33246 -2.46679,-3.45899 -0.99641,-1.19504 -1.98955,-2.39249 -3.00391,-3.57226 -1.51692,-1.89384 -3.2952,-3.53626 -5.10156,-5.14649 -1.41698,-1.2382 -3.025,-2.2392 -4.39063,-3.53516 -0.58111,-0.52881 -0.73819,-1.03152 -1.18945,-1.80078 -0.72029,-1.55466 -1.92629,-2.76204 -3.16992,-3.90234 -0.88979,-0.79833 -1.83803,-1.53441 -2.79688,-2.24805 -0.55619,-0.48284 -0.96118,-0.82726 -1.39062,-1.20898 0.0235,0.0165 0.0907,0.071 0.0703,0.0508 -1.10809,-1.09511 -2.40513,-2.1032 -4.33594,-2.09961 z m -2.64648,10.23633 c 0.21676,0.18442 0.43225,0.37127 0.64648,0.55859 -0.27141,-0.1198 -0.45551,-0.32025 -0.64648,-0.55859 z m 36.61328,35.89062 c 0.0811,0.13434 0.14509,0.2862 0.23242,0.41407 0.0333,0.0488 -0.0706,-0.095 -0.0996,-0.14649 -0.0489,-0.0867 -0.0873,-0.17913 -0.13282,-0.26758 z"
       id="path3395"
       inkscape:connector-curvature="0"
       sodipodi:nodetypes="cscccccccccccccccccccsccccccccsccccccccccccccccccccccccccccscccccccc" />
    <path
       style="opacity:0.99959998;fill:#ffcc00;stroke:none;stroke-width:1;stroke-miterlimit:4;stroke-dasharray:none;stroke-opacity:1"
       id="path3401"
       d="m 141.03819,48.032957 c 1.06967,0.735942 2.21243,1.357976 3.37837,1.927088 0.97468,0.522589 2.02187,0.882631 3.03962,1.309477 0.90897,0.432683 1.86271,0.723262 2.80402,1.070549 1.42016,0.544077 2.73787,1.282344 4.03876,2.062204 1.56797,0.949701 3.05297,2.021763 4.56559,3.054809 1.10779,0.771652 2.2581,1.479289 3.36396,2.25351 0.89739,0.607758 1.69454,1.354655 2.44569,2.132119 0.61936,0.561288 1.24414,1.112778 1.89289,1.639696 0.77253,0.581951 1.58013,1.11465 2.38337,1.653262 0.87854,0.545296 1.69576,1.240897 2.63998,1.672182 1.29296,0.606392 2.48534,1.396073 3.73822,2.075765 1.17082,0.693406 2.38732,1.339708 3.31852,2.359778 0.29243,0.320337 0.53341,0.684104 0.80011,1.026155 1.13283,1.846209 1.35307,3.605681 0.96698,5.730179 -0.0531,0.292258 -0.433,1.506563 -0.55889,1.915914 -0.38348,1.250764 -0.66412,2.527044 -0.98247,3.794325 -1.0067,3.087624 -2.5842,4.523788 -5.96924,4.896212 -1.00523,0.110596 -2.05515,-0.322501 -2.98321,-0.631274 -1.48828,-0.628059 -2.88798,-1.439648 -4.3241,-2.175541 -1.38101,-0.624693 -2.66311,-1.435693 -4.07991,-1.981247 -1.60823,-0.603333 -3.14903,-1.35889 -4.63867,-2.210014 -1.45224,-0.950989 -2.76944,-2.085062 -4.14718,-3.136885 -1.15299,-0.777312 -2.29864,-1.563511 -3.43402,-2.366756 -1.14764,-0.754917 -2.29266,-1.508708 -3.38508,-2.342261 -1.32569,-0.962225 -2.4427,-2.170515 -3.60328,-3.318457 -0.91178,-0.977102 -1.99285,-1.757006 -2.98457,-2.649429 -1.01934,-0.908888 -2.04217,-1.784976 -2.95013,-2.809815 -1.25254,-1.316713 -1.86019,-2.754122 -2.2652,-4.499008 -0.29834,-1.794979 -0.18619,-3.605349 0.0861,-5.393164 0.2125,-1.077666 0.0771,-0.493461 0.42983,-1.746963 2.2485,-7.234789 12.48004,-4.05492 10.23153,3.17987 l 0,0 c -0.0412,-0.191149 -0.008,-0.07553 -0.0961,0.347622 -0.13064,0.514958 -0.11333,1.119151 -0.12735,1.60248 -0.0958,-0.27414 -0.22536,-0.742339 -0.49121,-0.908779 -0.0322,-0.02016 0.0417,0.06353 0.0625,0.0953 0.11944,0.137624 0.23888,0.275249 0.35833,0.412873 0.36401,0.590182 1.48194,1.156275 1.94853,1.773213 1.10165,1.004197 2.32417,1.871583 3.33226,2.978296 0.85059,0.841337 1.64954,1.748183 2.61748,2.456014 0.96064,0.760971 2.02731,1.372296 3.02781,2.077998 1.2439,0.881402 2.51099,1.72675 3.75708,2.604701 1.01854,0.781932 2.02848,1.577773 3.02591,2.385268 1.02439,0.625013 2.1361,1.092239 3.25052,1.530349 1.70308,0.700976 3.31056,1.57482 4.96212,2.384133 1.07623,0.55183 2.14017,1.125784 3.21294,1.683423 -0.33029,-0.03575 -0.87907,-0.09999 -1.09519,-0.05197 -1.99712,0.443793 -2.42832,0.590835 -3.66894,2.118809 -0.37188,0.458017 -0.3794,0.625347 -0.43566,1.024182 0.38603,-1.419464 0.66363,-2.870524 1.11763,-4.273089 0.0733,-0.238279 0.14018,-0.478623 0.21988,-0.714837 0.0187,-0.05552 0.0661,-0.216929 0.0749,-0.159004 0.0356,0.233564 -0.0173,0.473924 0.009,0.708729 0.0706,0.632656 0.30727,1.189 0.67514,1.702035 0.13258,0.145235 0.2548,0.300671 0.39776,0.435705 0.0992,0.09374 0.21319,0.171007 0.32599,0.247905 0.0208,0.01415 0.0923,0.03765 0.0717,0.02322 -0.38713,-0.271671 -0.82458,-0.46586 -1.21469,-0.733329 -1.19706,-0.661593 -2.34774,-1.403529 -3.58392,-1.992727 -1.24874,-0.681544 -2.45219,-1.441213 -3.61829,-2.256962 -1.07045,-0.721292 -2.14974,-1.431992 -3.16437,-2.231539 -0.99312,-0.808324 -1.95676,-1.652222 -2.8748,-2.54548 -0.32952,-0.352765 -0.57762,-0.607891 -0.94394,-0.829359 -0.99455,-0.787876 -2.17625,-1.33204 -3.17303,-2.119849 -1.33505,-0.914333 -2.64182,-1.86835 -4.02588,-2.70888 -0.75289,-0.451387 -1.47735,-0.923872 -2.30783,-1.225596 -1.05666,-0.419945 -2.15556,-0.734394 -3.18643,-1.223111 -1.21478,-0.515477 -2.46612,-0.950158 -3.63016,-1.579687 -1.47691,-0.736655 -2.94013,-1.514389 -4.30576,-2.444637 -6.42456,-4.015348 -0.746,-13.101044 5.67856,-9.085696 z"
       inkscape:connector-curvature="0" />
    <path
       style="opacity:0.99959998;fill:#ffcc00;stroke:none;stroke-width:1;stroke-miterlimit:4;stroke-dasharray:none;stroke-opacity:1"
       id="path3403"
       d="m 178.68947,71.860928 c 1.84005,0.439135 3.66467,0.939978 5.50079,1.394211 1.58686,0.451575 3.20546,0.768006 4.78874,1.231983 1.31295,0.35635 2.51796,0.992527 3.6906,1.666104 1.12452,0.687767 2.22942,1.391803 3.41275,1.9762 1.46786,0.687676 2.91883,1.410452 4.36462,2.143111 0.89907,0.406474 1.75538,0.901991 2.64755,1.321582 0.89483,0.463256 1.82248,0.856608 2.73823,1.276089 1.44312,0.62097 2.70206,1.570666 3.91083,2.557677 1.10064,0.792754 2.20088,1.599026 3.33644,2.344776 1.11108,0.743135 2.25203,1.439199 3.387,2.144641 1.05786,0.687784 2.19551,1.233396 3.29233,1.852815 0.92702,0.442083 1.81338,0.952622 2.66766,1.523879 0.79212,0.470317 1.4987,1.067208 2.18472,1.677131 1.74723,1.778047 3.04077,4.325669 1.56473,7.017783 -1.85203,3.37786 -3.50346,3.01488 -6.10505,3.05041 -2.35365,-0.32446 -4.64043,-1.06905 -6.89961,-1.78921 -2.53145,-0.85532 -5.00599,-1.86541 -7.55696,-2.66374 -2.22098,-0.594932 -4.50391,-0.888765 -6.77441,-1.220201 -2.69743,-0.306095 -5.32237,-1.012829 -7.93659,-1.717127 -1.92415,-0.38442 -3.70421,-1.210565 -5.50214,-1.96255 -1.60925,-0.698628 -3.21869,-1.396674 -4.83069,-2.089016 -1.72196,-0.661258 -3.3461,-1.508672 -4.95858,-2.396148 -1.02604,-0.546437 -2.00703,-1.1588 -2.95754,-1.826557 -0.64616,-0.497777 -1.24619,-1.064587 -1.77554,-1.686379 -0.65221,-0.766107 -0.30358,-0.423269 -0.57063,-0.682394 -4.97346,-5.71513 3.10896,-12.748657 8.08241,-7.033527 l 0,0 c 0.31132,0.365973 0.46665,0.477498 0.71928,0.839676 0.0117,0.01675 -0.0342,-0.02236 -0.0513,-0.03355 -0.0718,-0.04996 -0.14356,-0.09992 -0.21534,-0.149875 0.47492,0.337426 1.1684,0.793782 1.9399,1.188896 1.30616,0.720595 2.6084,1.4196 4.01558,1.935179 1.5807,0.678918 3.15926,1.362587 4.73662,2.049146 1.36175,0.569552 2.68951,1.235518 4.15534,1.501744 2.2064,0.594534 4.41753,1.215641 6.69689,1.460566 2.83701,0.414174 5.6877,0.80261 8.44847,1.603688 2.5663,0.813803 5.07229,1.790699 7.61186,2.68121 1.52173,0.493776 3.06796,0.972994 4.62545,1.322883 -0.34321,0.03915 -0.74159,-0.07322 -1.02964,0.117452 -1.27723,0.845463 -2.88658,1.535652 -3.55191,2.915311 -0.84718,1.756739 -0.54249,4.036273 0.7323,5.326943 0.5783,0.44786 -0.13193,-0.1012 -0.17719,-0.1426 -0.0588,-0.0538 0.26386,0.17867 0.19909,0.13227 -1.34974,-0.96681 0.80263,0.5561 -0.83242,-0.55942 -0.52712,-0.37379 -1.12707,-0.64422 -1.95999,-1.08323 -1.2085,-0.70052 -2.48395,-1.285356 -3.64784,-2.064634 -1.22282,-0.762 -2.45323,-1.512144 -3.65069,-2.314127 -1.43905,-0.961342 -2.85348,-1.96837 -4.23392,-3.01028 -0.60106,-0.508532 -0.91303,-0.797286 -1.56949,-1.087059 -0.97819,-0.453869 -1.97274,-0.871684 -2.93108,-1.36721 -0.94558,-0.464286 -1.87388,-0.962868 -2.82762,-1.410959 -1.42821,-0.728265 -2.86761,-1.434312 -4.31717,-2.119149 -1.35821,-0.688307 -2.66489,-1.454998 -3.95156,-2.266172 -0.48886,-0.282157 -0.89827,-0.564275 -1.44349,-0.69534 -1.39922,-0.457294 -2.87788,-0.636359 -4.27914,-1.091694 -1.74736,-0.437101 -3.48713,-0.904231 -5.23694,-1.332063 -7.39573,-1.643497 -5.07148,-12.102644 2.32426,-10.459147 z"
       inkscape:connector-curvature="0" />
    <path
       style="opacity:0.99959998;fill:#44aa00;stroke:none;stroke-width:1;stroke-miterlimit:4;stroke-dasharray:none;stroke-opacity:1"
       d="m 63.232701,134.87138 c -1.980125,0.27676 -7.549318,2.76404 -8.826172,7.85658 -0.01931,0.897 -3.395636,2.32941 -3.365513,3.22516 -0.236596,0.0844 -0.4724,0.16973 -0.699219,0.2793 -0.825142,0.39862 -2.715456,3.04838 -3.414063,3.96485 -1.262539,1.51736 -2.321786,3.16653 -3.228515,4.91601 -0.827512,1.44648 -1.523039,2.95546 -2.228516,4.46289 -0.519765,1.06866 -0.894983,2.1983 -1.330078,3.30078 -0.283031,0.80227 -0.583376,1.59541 -0.900391,2.38477 -0.459314,1.20479 -0.830848,2.43634 -1.162109,3.68164 -0.130083,0.64992 -0.348248,1.27578 -0.501953,1.91992 -0.169687,0.71119 -0.05426,0.41085 -0.167969,0.69141 -0.35178,1.22039 -0.500915,2.47874 -0.578125,3.74219 -0.152387,1.08178 -0.257278,2.16796 -0.330078,3.25781 -0.06796,1.17988 -0.07082,2.3635 -0.07422,3.54492 -0.0014,1.13687 0.001,2.27329 0.002,3.41016 -0.02425,1.17582 -1.3e-4,2.343 0.15625,3.50976 0.100125,0.86367 0.275545,1.71354 0.429688,2.56836 0.08535,0.83504 0.273744,1.65507 0.398437,2.48438 0.214932,1.16691 0.543912,2.30221 0.958985,3.41211 0.189925,0.51898 0.37374,1.04545 0.503906,1.58398 0.291413,0.88414 0.56514,1.77181 0.833984,2.66211 0.163418,0.77091 0.433453,1.51662 0.580078,2.29101 0.156343,0.86927 0.408881,1.72622 0.660157,2.57227 0.158543,0.47873 0.303807,0.86926 0.427734,1.41797 0.168896,0.77794 0.456873,1.54112 0.728516,2.28906 0.246812,0.7538 0.576833,1.4994 0.925781,2.21094 -0.01785,0.0113 -0.155467,-0.34211 -0.123047,-0.25391 0.311836,0.84828 0.381756,0.99592 0.726563,1.78907 0.205388,0.41265 0.48505,1.03646 0.65625,1.4121 0.352999,0.888 0.873611,1.69703 1.386718,2.49805 0.17305,0.23102 0.346959,0.46199 0.519532,0.69336 0.196032,0.26283 0.427127,0.54052 0.636718,0.76367 0.507146,0.53994 0.745396,0.74236 0.472657,0.50586 0.557141,0.59795 1.196121,1.18508 2.101562,1.88281 0.79383,0.64945 0.31328,0.253 1.068359,0.92188 0.678215,0.61617 1.477076,1.03606 2.185547,1.43555 0.09286,0.0524 -0.186197,-0.10435 -0.279297,-0.15625 0.991604,0.74879 2.103068,1.25404 3.263672,1.67773 0.759144,0.23447 1.436595,0.46757 2.154297,0.70898 l -0.002,0.002 c -0.0075,0.0913 0.16558,0.0796 0.25,0.11523 0.08298,0.0349 0.166412,0.0681 0.25,0.10157 -7.21e-4,9.1e-4 -0.0032,-10e-4 -0.0039,0 -0.06133,0.0926 0.196275,0.10339 0.296875,0.15039 0.207054,0.0966 0.4182,0.18639 0.626953,0.27929 0.74013,0.2726 1.492322,0.5051 2.238281,0.75586 0.741963,0.24734 1.488282,0.466 2.244141,0.66992 0.05656,0.0152 -0.114335,-0.0222 -0.171875,-0.0332 1.364379,0.43599 0.676718,0.21201 1.779297,0.58203 1.753011,0.47351 0.32366,0.084 0.30664,0.084 -0.07972,2e-4 0.147517,0.0593 0.222657,0.0859 0.174467,0.0618 0.347437,0.12879 0.52539,0.17969 1.473708,0.42154 0.496093,0.0954 0.949219,0.24805 0.558074,0.21513 1.447822,0.27433 1.96875,0.55078 1.18678,0.36517 2.410269,0.60614 3.632812,0.81836 1.189478,0.12108 2.367746,0.31617 3.552735,0.47265 0.85891,0.13715 1.731068,0.1262 2.595703,0.1836 0.06306,0.004 -0.126273,0.003 -0.189453,0.004 0.893458,0.16738 1.777979,0.3593 2.685547,0.49024 1.317174,0.0988 2.625504,0.28316 3.939453,0.41602 1.181611,0.1104 2.366639,0.15172 3.552734,0.16992 0.960496,0.009 1.922289,0.005 2.882813,0.004 0.826816,-0.0581 1.513273,0.0424 2.316406,0.12891 1.460968,0.15087 2.930941,0.19084 4.398438,0.21484 1.482982,0.0178 2.966172,0.0141 4.449222,0.0137 1.1427,-0.001 2.28503,-0.001 3.42773,-0.002 0.85092,-3.2e-4 1.70181,2e-5 2.55273,0 l 3.33204,0 3.5,0 c 1.41567,0.0118 2.82171,-0.17658 4.23242,-0.27148 1.5398,-0.0405 2.94714,-0.66085 4.40039,-1.07813 0.6464,-0.16529 1.29463,-0.30558 1.96094,-0.36328 1.34348,-0.0717 2.6614,-0.35505 3.98632,-0.5664 1.16989,-0.13187 2.33788,-0.26393 3.50586,-0.41602 1.15246,-0.12592 2.28449,-0.39332 3.41211,-0.6543 1.42453,-0.33002 2.75532,-0.91884 4.06446,-1.55468 1.30813,-0.61108 2.63541,-1.17308 4.00586,-1.62696 2.28359,-0.67978 4.42984,-1.73076 6.53515,-2.83203 2.42246,-0.56142 4.84397,-1.12445 7.28711,-1.59375 3.73315,-0.88665 7.45589,-1.92419 10.95117,-3.53125 3.61619,-1.812 7.23274,-3.62405 10.81836,-5.49609 1.03372,-0.52201 2.19015,-1.12184 3.25,-1.59571 0.70305,-0.31434 1.41699,-0.60452 2.13477,-0.88281 8.9331,-8.08138 3.91093,-0.17378 15.01674,-9.83734 3.23265,-3.1933 10.12539,0.66909 4.08454,-6.29631 -0.043,-0.0496 -6.10798,2.62779 -6.10798,2.62779 -3.34233,1.51328 -6.62773,1.30717 -10.07338,2.55971 -1.33941,0.49368 -3.93836,-0.10751 -5.2793,0.3856 -1.08592,0.0722 -2.17253,0.12886 -3.25976,0.16602 -2.47031,0 -4.93985,-2.4e-4 -7.41016,0 -1.87686,0.001 -3.754,9.9e-4 -5.63086,0.002 -2.30227,0.001 -4.60594,0.003 -6.9082,-0.006 -2.3106,-0.0124 -4.62101,-0.0245 -6.92969,-0.1289 -1.91368,-0.0986 -3.8261,-0.26688 -5.74414,-0.23438 -1.24429,-0.0164 -2.48934,-0.0322 -3.72851,-0.1582 -1.18138,-0.11427 -2.36217,-0.22613 -3.55079,-0.17774 -1.50825,-0.004 -3.01707,-0.0386 -4.52343,-0.11718 -3.16946,-0.17859 -6.33137,-0.47264 -9.4668,-0.98047 -1.99213,-0.27983 -4.01342,-0.51354 -5.95117,-1.06641 -0.14699,-0.0431 -0.37426,-0.26946 -0.43946,-0.13086 -0.0733,0.15568 -0.14882,0.28937 -0.22265,0.44141 -0.13851,-0.0326 -0.27323,-0.0757 -0.41406,-0.10156 -1.46173,-0.34118 -2.94117,-0.63998 -4.45313,-0.54688 -0.0272,9.6e-4 -0.0659,0.007 -0.0937,0.008 -1.04631,-1.13539 -2.54077,-2.02185 -4.5332,-2.45312 -0.84665,-0.18149 -0.38415,-0.0793 -1.38477,-0.31445 -1.82758,-0.41926 -3.67969,-0.75192 -5.4414,-1.41797 -2.02559,-0.77629 -4.087232,-1.42814 -6.173832,-2.01953 -1.684377,-0.4853 -3.327283,-1.10753 -5.021485,-1.5625 -0.29719,-0.0685 -0.593711,-0.13874 -0.890625,-0.20703 -0.819621,-0.53936 -1.633218,-1.08795 -2.394531,-1.70899 -1.357781,-0.97095 -2.737373,-1.93865 -4.296875,-2.5625 -0.967616,-0.44715 -1.945532,-0.87568 -2.941406,-1.25781 -0.684892,-0.26973 -1.077911,-0.36349 -1.564454,-0.64649 -0.444455,-0.27556 -0.89814,-0.56467 -1.341796,-0.88671 -0.744249,-0.54274 -1.490502,-1.08611 -2.28711,-1.55079 -0.666143,-0.37089 -1.345804,-0.70658 -2.029297,-1.04101 0.559098,0.3832 -0.806243,-0.52074 -0.833984,-0.50781 -0.521753,-0.42382 -1.033854,-0.85958 -1.585937,-1.24415 -0.306892,-0.73208 -0.601637,-1.44531 -0.830079,-2.21289 -0.385454,-1.2657 -0.839559,-2.50843 -1.253906,-3.76171 -0.313633,-1.22598 -0.652914,-2.45644 -1.03125,-3.66016 -0.265649,-0.81308 -0.146248,-1.76986 -0.472656,-2.57227 -0.02076,-0.0509 0.0011,0.10907 0.002,0.16407 -0.119294,-1.04978 -0.186781,-2.25897 -0.568359,-3.25586 -0.0134,-0.0348 -0.0023,0.0741 -0.0039,0.11132 -0.173446,-1.27326 -0.459834,-2.45282 -0.61914,-3.43554 -0.277945,-1.54733 -0.406746,-1.80992 -0.644532,-3.31055 -0.229556,-0.86459 -0.174138,-0.71214 -0.427734,-1.47461 -0.01447,-0.0435 -0.04174,-0.12345 -0.04883,-0.1289 -0.02797,-0.16517 -0.04792,-0.35429 -0.07813,-0.42969 -0.0095,-0.0311 -0.01614,-0.12425 -0.02734,-0.0937 -0.02319,0.0632 -0.0071,0.26827 -0.01172,0.20117 -0.08231,-1.19717 -0.06715,-2.40181 -0.179687,-3.59766 -0.147398,-2.30427 -0.345793,-4.60887 -0.289063,-6.91992 l 0.002,0 c 0,-5.35714 0.818288,-8.91666 -2.933315,-8.39229 z m -14.658482,16.24581 c 0.0029,0.0924 -0.0011,0.1849 0,0.27734 -0.0057,-0.0334 -0.0045,-0.0711 -0.01172,-0.10351 -0.01267,-0.0567 0.0098,-0.23193 0.01172,-0.17383 z m 68.023441,47.51367 c 0.003,2.3e-4 0.10511,0.04 0.20703,0.0762 -0.0427,-0.0122 -0.0863,-0.0208 -0.12891,-0.0332 -0.0565,-0.0312 -0.0795,-0.0431 -0.0781,-0.043 z"
       id="path3405"
       inkscape:connector-curvature="0"
       sodipodi:nodetypes="scccccccccccccccccccccccccccccccscccscccccccccccccccscccccccccccccccccccccccccccccsccccccccccccccccccccccccccccccccccccccccccccccccccccccscccccccc" />
    <path
       style="opacity:0.99959998;fill:#447821;stroke:none;stroke-width:1;stroke-miterlimit:4;stroke-dasharray:none;stroke-opacity:1"
       id="path3414"
       d="m 125.20008,195.89207 c 2.08242,0.84741 4.13318,1.76712 6.18977,2.67494 3.37281,1.45837 6.75689,2.89158 10.14354,4.31783 3.15523,1.35024 6.32576,2.6603 9.50925,3.94171 2.77459,1.12389 5.5473,2.2532 8.27014,3.49812 1.41334,0.61377 2.82115,1.25066 4.25914,1.80573 0.0588,0.0179 0.23347,0.0762 0.17633,0.0537 -0.26955,-0.10653 -0.41555,-0.14475 -0.72127,-0.15771 -0.13347,-0.006 -0.29636,0.10441 -0.40025,0.0204 -0.0791,-0.0639 0.18805,-0.0777 0.28242,-0.11567 0.21045,-0.0847 0.42135,-0.16825 0.63203,-0.25237 2.31874,-0.97607 4.687,-1.82203 7.06157,-2.64966 2.1317,-0.75735 4.27024,-1.50526 6.35493,-2.3859 1.73328,-0.73777 3.47994,-1.44355 5.21345,-2.1807 1.68626,-0.78779 3.38606,-1.54577 5.07311,-2.33188 1.6162,-0.758 3.20699,-1.56775 4.8352,-2.29989 1.28074,-0.57943 2.50602,-1.26715 3.71201,-1.98707 1.2028,-0.81901 2.45964,-1.55584 3.66766,-2.36673 0.16551,-0.10828 0.69379,-0.45081 0.88559,-0.58637 0.0515,-0.0364 0.19926,-0.15439 0.14802,-0.11768 -0.0667,0.0478 -0.23409,0.0791 -0.19438,0.15088 1.1967,2.16283 2.7717,4.11993 3.80091,6.36729 0.11179,0.24411 -0.49829,0.20016 -0.74743,0.30023 -2.62815,0.96242 -5.25698,1.92481 -7.89638,2.85642 -2.71455,0.97276 -5.4393,1.91524 -8.20973,2.71656 -1.33885,0.3793 -2.67148,0.78837 -4.0441,1.03157 -0.99878,0.17696 -1.27088,0.18306 -2.29376,0.28344 -2.42136,0.17 -4.85063,0.16122 -7.27659,0.16501 -2.3544,-0.009 -4.70908,0.0175 -7.06288,-0.0405 -2.67895,-0.0231 -5.34377,-0.28817 -7.99773,-0.63397 -2.13881,-0.24328 -4.26732,-0.55463 -6.39256,-0.8948 -2.32407,-0.42383 -4.65601,-0.80238 -6.9772,-1.24295 -0.44271,-0.0991 -0.88645,-0.19382 -1.32814,-0.29744 -1.07668,-0.25258 -2.14432,-0.54602 -3.22507,-0.78153 -0.66714,-0.14538 -0.75065,-0.19706 -0.50389,-0.0715 3.92883,-1.44448 3.08322,-0.1929 3.48885,-5.36445 0.0143,-0.18215 -0.34078,-0.30219 -0.27656,-0.47324 0.0502,-0.1336 0.25386,0.13045 0.38067,0.19593 1.39146,0.71848 0.58704,0.31863 2.26332,1.11238 3.33554,1.50818 6.75243,2.82647 10.19848,4.05777 2.01432,0.64603 4.06849,1.18325 6.1536,1.54521 0.76501,0.12211 1.54133,0.11671 2.31362,0.11752 0.14146,-6e-4 0.28293,-0.001 0.4244,-0.002 5.35709,-0.0219 5.38813,7.55414 0.031,7.57608 l 0,0 c -0.15572,6.2e-4 -0.31144,0.001 -0.46716,0.002 -1.2085,-0.002 -2.42083,-0.0242 -3.61504,-0.23218 -2.50462,-0.44525 -4.97637,-1.07589 -7.39219,-1.8732 -3.68561,-1.31977 -7.3413,-2.72954 -10.90575,-4.3519 -1.35085,-0.647 -3.17945,-1.41843 -4.32267,-2.4016 -0.4524,-0.38907 -1.14602,-0.70626 -1.23445,-1.29636 -0.82179,-5.48399 -0.37172,-4.59199 3.38755,-6.17609 0.31715,0.0298 0.63615,0.0441 0.95145,0.0894 1.72435,0.24815 3.37932,0.87311 5.0916,1.182 2.24941,0.42752 4.50944,0.79382 6.7616,1.20522 2.05377,0.32911 4.11059,0.6295 6.1777,0.86355 2.39165,0.3146 4.79276,0.5559 7.20749,0.57236 2.28545,0.0604 4.57216,0.025 6.85823,0.0381 2.19333,-0.003 4.38927,0.006 6.57927,-0.13177 1.69187,-0.1487 3.32831,-0.523 4.94435,-1.05067 2.63036,-0.75874 5.21431,-1.66116 7.79168,-2.58256 2.54531,-0.89752 5.07892,-1.82871 7.61523,-2.75092 2.78962,-1.0948 0.95641,-0.55812 4.94078,5.88838 0.10435,0.16883 -0.29441,0.26663 -0.44927,0.39078 -0.43867,0.3517 -0.92096,0.64316 -1.38778,0.95445 -1.32056,0.87245 -2.67325,1.69519 -3.99201,2.57076 -1.4573,0.863 -2.93552,1.69164 -4.48177,2.38674 -1.59656,0.71395 -3.15,1.5184 -4.73628,2.25467 -1.76512,0.82226 -3.54237,1.61778 -5.30893,2.4369 -1.74343,0.74078 -3.49947,1.45143 -5.2426,2.19301 -2.23314,0.93417 -4.51286,1.75257 -6.79604,2.55525 -2.27331,0.79233 -4.54092,1.60094 -6.76006,2.53733 -1.9679,0.77748 -3.42482,1.28189 -5.52318,0.46583 -1.56746,-0.61778 -3.11385,-1.2918 -4.65437,-1.97333 -2.61415,-1.19906 -5.28142,-2.27543 -7.94523,-3.35842 -3.22056,-1.2967 -6.42839,-2.62149 -9.62047,-3.98751 -3.42643,-1.44304 -6.85022,-2.8932 -10.26248,-4.36913 -1.97534,-0.87196 -3.94385,-1.75778 -5.94403,-2.57158 -4.97398,-1.9896 -2.16027,-9.02387 2.81371,-7.03428 z"
       inkscape:connector-curvature="0" />
    <path
       style="opacity:0.99959998;fill:#447821;stroke:none;stroke-width:1;stroke-miterlimit:4;stroke-dasharray:none;stroke-opacity:1"
       id="path3416"
       d="m 168.19891,206.03445 c 0.90802,-0.73123 1.87421,-1.38113 2.85402,-2.01054 6.39387,-4.06403 12.14128,4.97827 5.7474,9.0423 l 0,0 c -0.75423,0.47027 -1.47929,0.98305 -2.17285,1.53967 -6.06092,4.54569 -12.48949,-4.02574 -6.42857,-8.57143 z"
       inkscape:connector-curvature="0" />
    <path
       style="opacity:0.99959998;fill:#c83737;stroke:none;stroke-width:1;stroke-miterlimit:4;stroke-dasharray:none;stroke-opacity:1"
       id="path3418"
       d="m 117.74597,187.78865 c 1.87825,-0.0702 3.63304,-0.90974 5.28176,-1.73649 2.8471,-1.54461 5.04479,-3.72012 7.15714,-6.12589 2.62352,-3.01793 4.74779,-6.42367 6.791,-9.84872 0.38392,-0.66398 0.7644,-1.32997 1.15178,-1.99194 0.74822,-1.27859 1.67738,-2.80018 2.39348,-4.10178 1.09575,-1.99165 2.09113,-4.03881 3.07554,-6.08675 1.7591,-3.94234 3.45595,-7.9146 5.01506,-11.94059 1.11823,-2.78515 1.87566,-5.68305 2.55761,-8.59835 0.50732,-1.9585 0.919,-3.93985 1.4003,-5.90453 0.53401,-2.0019 1.22251,-3.95517 1.95467,-5.89184 0.58051,-1.6896 1.25481,-3.34526 1.91264,-5.00584 0.47475,-1.21637 0.85441,-2.46287 1.24154,-3.70875 0.17808,-0.76977 0.35405,-1.53938 0.56188,-2.30298 0.26957,-1.11658 0.5724,-2.22606 0.95716,-3.30879 2.40637,-5.91242 5.48139,-2.61451 10.60276,1.09358 0.42131,0.30505 -0.52901,3.96539 -0.66191,4.48015 -1.04815,3.63272 -2.40917,7.16413 -3.72937,10.70401 -1.16094,3.41468 -2.56192,6.73301 -4.02635,10.0259 -1.18904,2.77125 -2.51148,5.47532 -3.86949,8.16614 -1.12636,2.27053 -2.16659,4.58212 -3.28277,6.85729 -1.82665,3.62401 -3.90957,7.10546 -6.10713,10.51394 -1.7171,2.75565 -3.46308,5.50458 -4.89143,8.42426 -0.82658,1.90824 -1.581,3.84796 -2.36204,5.77585 -0.72419,1.71534 -1.59208,3.35623 -2.52386,4.9664 -1.08103,1.91777 -2.33891,3.71813 -3.80636,5.3571 -0.9541,0.98606 -1.72813,2.11934 -2.58134,3.18793 -0.26111,0.34292 -0.30773,0.42193 -0.59022,0.825 -0.0159,0.0226 -0.0551,0.0959 -0.041,0.0721 0.65676,-1.11154 0.29846,-0.39181 0.78836,-2.37959 -1.30873,-3.91468 -0.24059,-2.86882 -2.86607,-4.78524 -0.0829,-0.0605 -0.33547,-0.0503 -0.27681,-0.13445 0.0689,-0.0988 0.24109,0.003 0.36112,0.0135 0.85716,0.0726 1.34841,0.14625 2.22665,0.25869 2.66824,0.31409 5.29488,0.87205 7.84714,1.70635 1.48514,0.49769 2.94907,1.0566 4.4163,1.60424 0.73269,0.30077 1.47951,0.61094 2.20206,0.91579 0.70754,0.30941 1.49403,0.54276 2.2937,0.74318 3.41876,0.88383 1.23183,-0.68216 -0.93662,10.72015 -0.0409,0.21494 -0.43738,-0.0133 -0.65608,-0.0197 -0.94205,-0.0277 -0.63121,-0.0188 -1.63614,-0.0429 -2.65042,0.0129 -5.28012,-0.34951 -7.87955,-0.83485 -1.69948,-0.25631 -3.34573,-0.72627 -5.00471,-1.15677 -0.60202,-0.16262 -1.22399,-0.19041 -1.84345,-0.21313 -0.10932,-0.002 -0.43327,-0.0365 -0.32795,-0.007 0.10814,0.0302 0.22701,0.0336 0.33668,0.01 3.08597,-0.67605 4.24909,-1.30043 4.4305,-6.54584 0.0665,-1.92328 -1.57836,-2.73019 -2.87408,-3.42378 2.24558,0.19129 4.49873,0.27331 6.7487,0.40197 2.51324,0.17273 5.01667,0.4297 7.51372,0.75862 1.06113,0.0751 2.08211,0.40075 3.13235,0.54116 -1.86306,-0.29828 -3.62601,0.70349 -4.52266,2.29789 -0.3101,1.00617 -0.16127,-0.0187 -0.15361,-0.40697 0.0749,-1.02916 0.23406,-2.04845 0.30713,-3.07777 0.14093,-1.35664 0.4041,-2.6899 0.78121,-3.99935 0.34768,-1.01668 0.76685,-2.00249 1.1374,-3.01094 0.32763,-0.80984 0.58379,-1.64112 0.85188,-2.47185 0.11907,-0.56303 0.3323,-1.1041 0.41183,-1.67472 0.23917,-1.08553 0.51834,-2.15972 0.77074,-3.24201 0.2572,-1.13727 0.4767,-2.28255 0.72519,-3.42167 0.28834,-1.01299 0.52903,-2.02573 0.72967,-3.05743 0.23483,-1.12257 0.27502,-2.26948 0.38998,-3.40691 0.17775,-1.54379 0.471,-3.07183 0.70927,-4.6071 0.18223,-1.62735 0.53278,-3.22781 0.79698,-4.84199 0.28451,-1.69422 0.62781,-3.37777 0.9265,-5.06934 0.26765,-1.60751 0.51542,-3.21413 0.64085,-4.83943 0.0966,-1.34934 0.10291,-2.70264 0.10878,-4.05471 0.0819,-1.39251 0.20732,-2.78525 0.3789,-4.16972 0.18528,-1.24907 0.45627,-2.48672 0.72659,-3.72014 0.36574,-1.27736 0.67048,-2.56727 0.96271,-3.86254 0.23642,-0.97681 0.62476,-1.91496 0.72337,-2.92025 0.22474,-1.18477 0.30248,-2.38776 0.44456,-3.58299 0.17736,-1.12117 0.25191,-2.25163 0.29797,-3.3844 -0.008,-1.2656 0.1029,-2.52244 0.22049,-3.78112 0.19624,-1.56374 0.44764,-3.11797 0.82376,-4.64863 0.24055,-0.89106 0.4626,-1.78747 0.66265,-2.68876 0.18821,-0.9304 0.58765,-1.79939 0.85635,-2.70289 -0.007,0.01 -0.0238,0.0416 -0.0203,0.03 0.19037,-0.62277 0.36711,-1.22972 0.54984,-1.85479 1.87602,-5.504104 4.60645,-3.34472 10.45615,-0.51539 0.2686,0.12991 0.33991,1.98673 0.36789,2.45378 -0.0116,2.42924 -0.4385,4.83703 -0.91695,7.21165 -0.50341,2.24779 -1.05526,4.48416 -1.63559,6.71317 -0.61381,2.08405 -1.25974,4.16115 -1.82177,6.25988 -0.55393,2.50925 -1.27662,4.9761 -1.93397,7.45923 -0.88801,3.38242 -1.62681,6.80115 -2.43366,10.20371 -0.9686,4.05393 -1.83757,8.13048 -2.75448,12.19625 -0.90313,4.0177 -2.18085,7.93734 -3.42749,11.85791 -0.80094,2.85021 -1.90385,5.5992 -3.24366,8.23572 -0.874,1.53012 -1.67429,3.09752 -2.48177,4.66364 -0.58225,0.92555 -0.96161,1.93553 -1.38185,2.93331 -0.59364,1.17208 -1.00632,2.41805 -1.48595,3.63832 -0.3285,0.87516 -0.63753,1.75698 -0.94691,2.63922 -0.25888,0.59636 -0.43938,1.21544 -0.65882,1.82635 -2.67103,7.08968 -12.69735,3.31227 -10.02633,-3.77741 l 0,0 c 0.28999,-0.4777 0.25981,-1.13458 0.57928,-1.60804 0.35704,-1.01068 0.70974,-2.02273 1.091,-3.02459 0.53709,-1.34079 0.98928,-2.7178 1.64142,-4.01037 0.26159,-0.46007 -0.0743,0.14687 0.43097,-1.0829 0.34717,-0.84489 0.8078,-1.64008 1.23491,-2.44532 0.8069,-1.56388 1.60661,-3.13149 2.47963,-4.6595 1.10023,-2.08599 1.90694,-4.31135 2.55762,-6.57534 1.15365,-3.62759 2.34556,-7.25183 3.18616,-10.96811 0.92565,-4.10442 1.80278,-8.21976 2.78128,-12.31208 0.82879,-3.49254 1.58707,-7.00189 2.5013,-10.47329 0.66244,-2.50117 1.38641,-4.98652 1.94843,-7.51321 0.56262,-2.06605 1.17687,-4.11937 1.79749,-6.16852 0.5336,-2.03963 1.03453,-4.08756 1.50335,-6.14308 0.30963,-1.5045 0.55911,-3.01841 0.71517,-4.54707 -0.0102,-0.77918 -0.015,0.4976 0.23215,0.58919 2.67981,0.99316 5.40008,2.24645 8.25735,2.3078 0.94106,0.0202 1.91233,-3.00994 1.56951,-2.0294 0.0147,-0.0746 0.0626,-0.2977 0.0441,-0.22391 -0.18863,0.75352 -0.39314,1.49587 -0.63555,2.23181 -0.30477,0.85339 -0.25348,0.6013 -0.52776,1.55535 -0.22975,1.0003 -0.46928,1.99877 -0.73556,2.98983 -0.28995,0.96634 -0.3446,1.98694 -0.53181,2.97476 -0.10089,1.07648 -0.20225,2.14403 -0.18313,3.22803 -0.0604,1.42831 -0.15704,2.85474 -0.37162,4.26943 -0.167,1.20067 -0.20102,2.42073 -0.44818,3.61162 -0.18306,1.33534 -0.46908,2.64735 -0.90106,3.92613 -0.29506,1.29916 -0.58639,2.5984 -0.96585,3.87635 -0.22991,0.9055 -0.38689,1.83827 -0.55307,2.7565 -0.14981,0.92543 -0.15559,1.87314 -0.28517,2.80228 -0.007,1.61952 -0.0211,3.24034 -0.14236,4.85621 -0.15983,1.96877 -0.44046,3.91926 -0.77262,5.86609 -0.29493,1.64963 -0.62371,3.29302 -0.90516,4.94513 -0.26435,1.5812 -0.59931,3.15078 -0.78139,4.74517 -0.21409,1.36203 -0.46923,2.71888 -0.64093,4.08651 -0.16916,1.44267 -0.20068,2.90457 -0.52862,4.32741 -0.22146,1.1267 -0.47256,2.24029 -0.7894,3.34251 -0.27611,1.17075 -0.46864,2.36114 -0.75027,3.53107 -0.20949,0.88373 -0.41621,1.76694 -0.64815,2.64374 -0.19514,1.05733 -0.4804,2.09052 -0.77183,3.12455 -0.31521,0.97105 -0.6295,1.94116 -0.99807,2.89323 -0.30664,0.81636 -0.62459,1.6286 -0.94276,2.43604 -0.28443,0.47254 -0.13712,1.13699 -0.33743,1.63766 -0.0625,0.83263 -0.13872,1.7738 -0.28101,2.53282 -0.0347,1.43665 -0.11726,2.88658 -0.64873,4.24123 -0.15806,0.33288 -0.28766,0.68083 -0.47416,0.99864 -1.39536,2.37777 -3.74877,3.50982 -6.48413,3.2272 -0.99162,-0.15241 -1.96363,-0.40214 -2.96018,-0.51705 -2.23554,-0.2946 -4.47591,-0.52713 -6.72589,-0.6843 -2.96958,-0.16983 -5.97012,-0.1791 -8.89798,-0.74634 -1.86803,-0.62908 -4.57887,-1.24491 -4.68611,-4.053 -0.19768,-5.17631 2.44273,-7.165 6.32142,-7.03752 1.39287,0.0606 2.7846,0.1931 4.13538,0.55812 1.41629,0.37711 2.8191,0.78418 4.27562,0.99152 2.02099,0.39518 4.07172,0.66552 6.13493,0.64919 0.90576,0.0219 0.85805,0.0192 1.71022,0.0449 0.1638,0.005 0.49546,-0.14796 0.49136,0.0159 -0.25352,10.13748 2.55382,11.51011 -1.91899,10.36431 -1.17865,-0.31091 -2.35874,-0.65705 -3.48441,-1.1273 -0.82163,-0.33268 -1.19509,-0.51338 -2.07525,-0.86746 -1.34491,-0.5036 -2.68748,-1.01548 -4.04844,-1.47428 -1.88938,-0.64856 -3.86145,-0.99885 -5.84089,-1.24674 -2.32384,-0.30662 -5.7262,-0.26784 -7.27405,-2.37619 -0.81766,-1.11375 -1.0024,-2.57511 -1.5036,-3.86266 0.15062,-0.74635 0.23026,-1.51062 0.45186,-2.23906 0.3145,-1.03383 1.20529,-1.89726 1.78819,-2.7756 1.0145,-1.183 1.83666,-2.53647 2.96163,-3.63057 0.98479,-1.05542 1.74829,-2.28668 2.47213,-3.53227 0.6845,-1.17648 1.33036,-2.36359 1.86323,-3.61777 0.88209,-2.1713 1.72128,-4.36206 2.68644,-6.49781 1.63089,-3.2726 3.53489,-6.39581 5.49186,-9.48257 1.97531,-3.06079 3.85094,-6.18388 5.4973,-9.43657 1.13813,-2.30473 2.18039,-4.65604 3.33144,-6.95495 1.27962,-2.53468 2.52878,-5.07964 3.64473,-7.6924 1.37562,-3.09235 2.69321,-6.2071 3.77741,-9.41643 1.1973,-3.20875 2.43217,-6.40892 3.40847,-9.69378 0.0763,-0.27894 0.14865,-0.55902 0.22901,-0.83683 0.0239,-0.0826 0.0464,-0.32162 0.0836,-0.24408 0.08,0.16665 -0.1,0.46485 0.0636,0.55089 8.71373,4.5825 6.30583,5.86336 10.13322,1.29225 -0.29537,0.82221 -0.50082,1.68217 -0.71341,2.53426 -0.24245,0.87997 -0.36859,1.59378 -0.66628,2.66019 -0.46841,1.50293 -0.93727,3.00473 -1.5111,4.47194 -0.63807,1.60952 -1.29164,3.21426 -1.85324,4.85253 -0.58204,1.53445 -1.13531,3.07748 -1.57146,4.66061 -0.47702,1.92263 -0.86856,3.86608 -1.37104,5.78271 -0.79623,3.40238 -1.70406,6.77863 -3.00056,10.03094 -1.66425,4.28707 -3.46467,8.52145 -5.35113,12.71525 -1.10099,2.28312 -2.2176,4.55974 -3.44146,6.78055 -0.76582,1.38965 -1.60562,2.756 -2.40705,4.12528 -0.41355,0.70658 -0.82029,1.41711 -1.23044,2.12567 -2.38982,3.9874 -4.88428,7.94114 -7.95858,11.44534 -1.1477,1.29177 -1.72216,1.98861 -2.98009,3.19596 -2.25392,2.16327 -4.80121,3.98235 -7.54116,5.48016 -0.72731,0.34381 -1.44031,0.71972 -2.18195,1.03144 -2.7831,1.16977 -5.79786,1.91192 -8.8296,1.72013 -7.53854,-0.75386 -6.47243,-11.41497 1.06611,-10.66112 z"
       inkscape:connector-curvature="0" />
    <path
       style="opacity:0.99959998;fill:#d4aa00;stroke:none;stroke-width:1;stroke-miterlimit:4;stroke-dasharray:none;stroke-opacity:1"
       id="path3422"
       d="m 178.72958,85.447056 c 2.20173,0.397681 4.33631,1.086035 6.46969,1.746561 2.53314,0.827785 5.10323,1.531672 7.63542,2.361879 1.62804,0.533224 3.28722,0.955312 4.93966,1.402807 1.55641,0.426988 3.1031,0.886249 4.69012,1.185991 1.9823,0.317973 3.94903,0.714719 5.90207,1.178211 1.60644,0.413915 3.21829,0.807716 4.81758,1.24862 0.99193,0.278151 2.00243,0.478601 2.9985,0.737691 1.15942,0.418475 2.34369,0.736749 3.55713,0.951259 1.27257,0.168283 2.5375,0.38529 3.79045,0.663813 0.62169,0.143978 0.32935,0.07851 0.87671,0.19788 5.23328,1.145309 3.61357,8.546292 -1.61972,7.400982 l 0,0 c -0.62408,-0.13697 -0.31537,-0.0673 -0.92616,-0.20888 -1.14842,-0.2662 -2.31633,-0.42923 -3.48183,-0.60082 -1.4287,-0.2662 -2.84673,-0.59464 -4.21194,-1.10107 -0.40972,-0.14026 -0.0177,-0.015 -0.79815,-0.18453 -0.74172,-0.16109 -1.47244,-0.37332 -2.20892,-0.55553 -1.50822,-0.42114 -3.03262,-0.78249 -4.54741,-1.17905 -1.84711,-0.44085 -3.70927,-0.806246 -5.58403,-1.109713 -1.7683,-0.346505 -3.50263,-0.821745 -5.23586,-1.312415 -1.78024,-0.482708 -3.56723,-0.940599 -5.32071,-1.516878 -2.49115,-0.818524 -5.02228,-1.504691 -7.51372,-2.32307 -1.6793,-0.519967 -3.35568,-1.04254 -5.06553,-1.453931 -5.32437,-0.591598 -4.48773,-8.121404 0.83665,-7.529807 z"
       inkscape:connector-curvature="0" />
    <path
       style="opacity:0.99959998;fill:#d4aa00;stroke:none;stroke-width:1;stroke-miterlimit:4;stroke-dasharray:none;stroke-opacity:1"
       id="path3424"
       d="m 177.53431,72.816314 c -0.0893,1.452427 -0.13641,2.907909 -0.24937,4.358668 -0.10154,1.342455 -0.22125,2.681935 -0.36409,4.020655 -0.15732,1.137836 -0.3354,2.272038 -0.59912,3.390289 -0.37265,1.597767 -1.12285,2.987696 -2.6388,3.81487 -0.49107,0.267955 -1.07318,0.316384 -1.60977,0.474575 -0.42374,-0.0039 -0.84815,0.01257 -1.27121,-0.01167 -0.7506,-0.04301 -2.10752,-0.309182 -2.77089,-0.580179 -0.40216,-0.164292 -0.77133,-0.399951 -1.157,-0.599926 -1.50457,-0.931813 -2.73104,-2.200671 -3.86047,-3.545511 -0.34572,-0.368382 -0.66489,-0.766902 -1.03206,-1.11508 -0.20259,-0.192111 -0.52557,-0.338785 -0.75597,-0.475535 -1.31389,-0.6311 -2.92611,-1.279688 -3.6134,-2.689837 -0.35865,-0.735874 -0.40966,-1.585165 -0.61449,-2.377747 0.20418,-0.725885 0.31963,-1.482814 0.61254,-2.177656 0.36156,-0.857675 1.46113,-1.902782 2.12262,-2.58709 0.26709,-0.276311 0.85503,-0.889543 1.11748,-1.163057 1.01653,-1.009753 2.03726,-2.017351 3.17396,-2.891806 0.87406,-0.671937 1.83216,-1.195366 2.86183,-1.581524 2.07919,-0.656942 3.872,-0.05729 5.19881,1.695215 0.52683,0.695863 0.67035,1.331681 0.93237,2.128867 0.39962,1.662801 0.43959,3.378943 0.47511,5.080133 0.0144,0.848481 0.0106,1.697096 0.006,2.545639 -0.002,0.363594 -9.6e-4,0.184222 -0.002,0.538114 -2.9e-4,0.08442 0.007,0.337363 -8.6e-4,0.253269 -0.0815,-0.919442 0.0823,-0.111101 -0.18159,-1.129868 2.5197,4.727585 -4.16611,8.290988 -6.68582,3.563402 l 0,0 c -0.18893,-0.459827 -0.42915,-0.901792 -0.5668,-1.379483 -0.17865,-0.619903 -0.13906,-1.252764 -0.13852,-1.88375 0.004,-0.784052 0.008,-1.568169 -0.005,-2.352172 -0.0209,-1.043144 -0.0461,-2.087938 -0.17666,-3.124295 0.15806,-0.05974 -0.032,-7.38e-4 0.26533,0.282411 0.2197,0.209236 0.42075,0.459042 0.69613,0.586371 0.64056,0.296173 1.88625,0.769034 2.67084,0.35233 0.21537,-0.152139 -0.81766,0.433399 -0.79542,0.480174 -0.83975,0.586837 -1.49934,1.404835 -2.26123,2.082472 -0.53507,0.557609 -1.07314,1.111955 -1.61193,1.665913 -0.10209,0.104964 -0.18152,0.236504 -0.30339,0.317668 -0.0314,0.02089 -0.003,-0.07535 -0.004,-0.113019 0.0585,-0.432075 0.11696,-0.864151 0.17544,-1.296227 -0.68625,-1.858824 -0.19743,-1.312207 -1.39121,-2.348198 -0.0108,-0.0094 0.001,0.03321 0.0135,0.04089 0.12669,0.08028 0.2606,0.14875 0.39399,0.217322 0.21529,0.11068 0.43452,0.213529 0.65179,0.320294 0.324,0.167804 0.648,0.335609 0.972,0.503413 0.68009,0.429321 0.96634,0.581269 1.59278,1.092994 0.74981,0.612518 1.37247,1.359528 2.01702,2.076387 0.58532,0.70226 1.18523,1.401796 1.95273,1.914315 -0.14762,-0.03618 -0.59846,-0.104818 -0.45065,-0.06939 0.13702,0.03284 1.92623,0.213569 0.67957,0.255024 -0.32124,0.12751 -0.67781,0.188333 -0.9637,0.38253 -0.37278,0.253207 -0.67508,0.599987 -0.97626,0.935192 -0.0129,0.01438 -0.23685,0.39376 -0.23265,0.52396 0.005,0.152849 0.28152,-1.137759 0.13262,-0.4392 0.21469,-0.77926 0.27525,-1.592737 0.42287,-2.385578 0.13604,-1.275068 0.25098,-2.550432 0.34611,-3.829266 0.10725,-1.246316 0.11737,-2.499585 0.22459,-3.746288 0,-5.357143 7.57614,-5.357143 7.57614,0 z"
       inkscape:connector-curvature="0" />
  </g>
  <g
     inkscape:label="Layer 1"
     inkscape:groupmode="layer"
     id="layer1">
    <path
       style="opacity:0.99959998;fill:#000000;stroke:none;stroke-width:1;stroke-miterlimit:4;stroke-dasharray:none;stroke-opacity:1"
       d="m 64.69058,133.43819 c -2.026538,1.57856 -0.03809,5.50163 -0.514866,7.83005 0.885357,13.70717 1.439172,29.2845 12.002192,39.60826 12.635646,10.31144 29.334394,13.14855 44.706894,17.04156 20.51548,3.68757 41.79138,5.46738 62.44194,3.53486 10.17499,-1.36759 20.85202,-3.71281 29.64451,-9.09555 -0.7687,-2.80336 -4.43593,1.37059 -6.1789,1.35496 -23.55631,9.8289 -49.79985,7.04361 -74.48362,4.40933 -16.78686,-2.66043 -33.773202,-6.43923 -48.997473,-14.21223 -11.92374,-6.18004 -16.113593,-20.46894 -16.645575,-32.99909 -0.894966,-5.69986 -0.429292,-11.83957 -1.41309,-17.35264 -0.165709,-0.10375 -0.369586,-0.1343 -0.562012,-0.11951 z"
       id="path3338"
       inkscape:connector-curvature="0" />
    <path
       style="opacity:0.99959998;fill:#000000;stroke:none;stroke-width:1;stroke-miterlimit:4;stroke-dasharray:none;stroke-opacity:1"
       d="m 151.59246,95.809242 c -19.96967,-0.210017 -40.29982,1.177021 -58.611169,9.811718 -10.802117,4.01715 -21.049915,10.14407 -27.131158,20.32535 -0.350861,1.59051 -4.789378,4.66152 -2.186678,5.81554 4.669526,-5.77481 8.503203,-13.06165 15.188852,-17.13006 11.168309,-6.74461 23.591553,-11.6162 36.322433,-14.45565 14.58532,-2.766165 29.59086,-3.024561 44.37309,-2.322344 18.16743,2.655514 31.84397,17.029944 40.71355,32.194554 9.85834,16.01383 13.35446,35.14092 12.36103,53.75126 0.671,2.46774 -1.09784,6.10909 0.45058,8.10234 2.73196,-0.28333 0.50378,-5.15985 1.25098,-6.86849 0.92097,-17.99241 -1.79248,-36.56966 -10.63326,-52.4349 -9.33533,-17.12222 -24.07284,-33.698247 -44.18487,-36.463094 -2.62282,-0.338214 -5.27327,-0.347797 -7.91338,-0.326224 z"
       id="path3340"
       inkscape:connector-curvature="0" />
    <path
       style="opacity:0.99959998;fill:#000000;stroke:none;stroke-width:1;stroke-miterlimit:4;stroke-dasharray:none;stroke-opacity:1"
       d="M 59.021484 137.9043 C 49.658309 144.71901 41.519996 154.08961 38.710775 165.55802 C 35.061333 179.36578 36.674487 193.93443 39.999785 207.6334 C 40.802897 210.66798 41.494773 213.94539 43.863226 216.19586 C 45.910096 218.29567 47.917643 220.42974 49.698699 222.75713 C 51.632907 224.78812 54.231163 226.1132 56.953125 226.72266 C 56.692479 226.13317 53.78873 224.41114 52.866926 223.01711 C 50.891194 221.06637 48.629445 219.44234 46.906872 217.22793 C 44.68556 214.80339 42.775556 212.05155 41.975801 208.8151 C 40.050333 201.88496 39.271413 194.68412 38.658758 187.53393 C 37.846303 177.15804 38.891285 166.28518 44.024487 157.04644 C 47.480193 150.55976 52.430419 144.88028 58.373047 140.55664 C 59.343695 140.58733 60.614426 137.77397 59.021484 137.9043 z M 211.86523 192.8418 C 209.33079 193.74729 207.73953 196.22953 205.20808 197.23145 C 183.77808 210.92346 160.31957 221.52158 135.76124 228.16629 C 115.76292 232.47611 95.072036 232.76025 74.777515 230.7047 C 69.094234 229.89859 63.531856 228.43185 58.013672 226.88086 C 59.606043 229.11579 62.693831 229.85676 65.270441 230.5078 C 83.059653 234.82422 101.58209 234.04019 119.6693 232.46328 C 131.53744 231.28433 143.26164 228.61373 154.3887 224.29807 C 167.96339 219.26124 181.09378 213.06293 193.83008 206.19141 C 200.70924 202.32881 207.3829 198.1008 213.80469 193.51758 C 213.2778 193.05643 212.5832 192.71754 211.86523 192.8418 z "
       id="path3346"
       inkscape:connector-curvature="0" />
    <path
       style="opacity:0.99959998;fill:#000000;stroke:none;stroke-width:1;stroke-miterlimit:4;stroke-dasharray:none;stroke-opacity:1"
       d="m 164.93862,101.92354 c -10.00796,4.79315 -21.08861,7.00518 -30.62479,12.86005 -14.2115,6.01378 -27.63804,14.0615 -39.650905,23.80961 -9.838183,8.83176 -16.945176,20.39173 -22.755016,32.05728 2.039888,2.02664 2.946944,-3.26254 4.136717,-4.22913 7.435229,-14.48148 18.086483,-27.66293 32.463084,-35.70977 11.22947,-8.26061 24.40383,-13.02231 36.65391,-19.44863 6.87777,-2.62179 14.48895,-4.42132 20.64586,-8.32359 0.0891,-0.50299 -0.31882,-1.09402 -0.86886,-1.01582 z"
       id="path3348"
       inkscape:connector-curvature="0" />
    <path
       style="opacity:0.99959998;fill:#000000;stroke:none;stroke-width:1;stroke-miterlimit:4;stroke-dasharray:none;stroke-opacity:1"
       d="m 168.9486,103.2672 c -2.06654,1.99684 -1.39052,6.07519 -2.18695,8.78135 -2.28007,25.29121 -5.35216,50.62483 -11.38331,75.32195 -0.35317,3.15466 -2.92184,5.83199 -3.51942,8.64318 2.10826,1.49936 2.93231,-3.14421 3.86788,-4.35075 5.75887,-18.56812 7.71315,-38.01972 10.57809,-57.19762 1.05542,-10.25785 1.6846,-20.75608 3.43667,-30.83312 -0.16908,-0.25573 -0.49495,-0.37866 -0.79296,-0.36499 z"
       id="path3350"
       inkscape:connector-curvature="0" />
    <path
       style="opacity:0.99959998;fill:#000000;stroke:none;stroke-width:1;stroke-miterlimit:4;stroke-dasharray:none;stroke-opacity:1"
       d="m 177.57581,80.1149 c -1.96209,5.331604 -5.31307,10.444915 -7.94245,15.360039 2.02515,1.918168 2.82435,-3.08158 4.4751,-3.686988 1.85308,-3.587994 5.54996,-7.940602 5.25674,-11.524473 -0.42832,0.263949 -1.69957,-1.235522 -1.78939,-0.148578 z"
       id="path3352"
       inkscape:connector-curvature="0" />
    <path
       style="opacity:0.99959998;fill:#000000;stroke:none;stroke-width:1;stroke-miterlimit:4;stroke-dasharray:none;stroke-opacity:1"
       d="m 185.27924,75.014805 c -1.40209,-0.638784 -4.09334,1.369532 -1.83945,1.988036 7.35484,-0.999564 14.45703,2.887414 20.97209,5.794535 7.99332,4.719984 15.17995,11.512928 21.5034,17.818034 3.55402,0.60446 -0.62095,-2.740024 -1.52131,-3.976076 C 213.62675,86.0987 200.82332,76.056128 185.27924,75.014805 Z m -8.07326,15.311591 c -2.34372,1.714594 2.65579,2.729698 3.67246,3.460897 14.30657,7.055937 30.14706,10.772287 45.98483,11.757027 2.61025,0.0244 2.12347,-5.2774 0.48288,-1.89437 -1.93801,0.99504 -6.29658,-0.45919 -9.49954,-0.77303 -14.32174,-1.39424 -27.78405,-6.434364 -40.64063,-12.550524 z"
       id="path3358"
       inkscape:connector-curvature="0" />
    <path
       style="opacity:0.99959998;fill:#000000;stroke:none;stroke-width:1;stroke-miterlimit:4;stroke-dasharray:none;stroke-opacity:1"
       d="m 135.00988,48.099609 c -4.46965,0.956197 -1.29576,7.015279 -0.35368,9.715698 7.01528,13.924986 20.26495,24.327005 34.72683,29.528227 2.10055,-1.848506 -2.53106,-2.296773 -3.61755,-3.09914 -13.2283,-6.341703 -25.84286,-16.626044 -30.96878,-30.653865 -2.16857,-0.886673 -2.26944,-5.590651 0.95122,-3.654692 9.44763,0.422914 17.48306,5.840606 24.75911,11.337283 5.78245,3.405062 11.42518,7.466603 17.24481,10.573101 2.13523,-1.81486 -2.80156,-2.995663 -3.70277,-4.13391 -8.75135,-4.935858 -16.70237,-11.16518 -25.3991,-16.125968 -4.25403,-2.095943 -8.98697,-2.923816 -13.64009,-3.486734 z"
       id="path3360"
       inkscape:connector-curvature="0" />
    <rect
       style="opacity:0.8;fill:#ffffff;stroke:none;stroke-width:1;stroke-miterlimit:4;stroke-dasharray:none;stroke-opacity:1"
       id="rect3445"
       width="215.16249"
       height="203.04066"
       x="20.203051"
       y="38.169048" />
  </g>
</svg>
