<?xml version="1.0" encoding="UTF-8" standalone="no"?>
<!-- Created with Inkscape (http://www.inkscape.org/) -->

<svg
   xmlns:dc="http://purl.org/dc/elements/1.1/"
   xmlns:cc="http://creativecommons.org/ns#"
   xmlns:rdf="http://www.w3.org/1999/02/22-rdf-syntax-ns#"
   xmlns:svg="http://www.w3.org/2000/svg"
   xmlns="http://www.w3.org/2000/svg"
   xmlns:sodipodi="http://sodipodi.sourceforge.net/DTD/sodipodi-0.dtd"
   xmlns:inkscape="http://www.inkscape.org/namespaces/inkscape"
   width="210mm"
   height="297mm"
   viewBox="0 0 744.09448819 1052.3622047"
   id="svg3391"
   version="1.1"
   inkscape:version="0.91 r13725"
   sodipodi:docname="eli5-process-stack.svg"
   inkscape:export-filename="/Users/dmytro/Dropbox/Documents/BeamWisdoms/eli5-process-stack.png"
   inkscape:export-xdpi="250.23758"
   inkscape:export-ydpi="250.23758">
  <defs
     id="defs3393" />
  <sodipodi:namedview
     id="base"
     pagecolor="#ffffff"
     bordercolor="#666666"
     borderopacity="1.0"
     inkscape:pageopacity="0.0"
     inkscape:pageshadow="2"
     inkscape:zoom="3.413545"
     inkscape:cx="117.80567"
     inkscape:cy="995.74774"
     inkscape:document-units="px"
     inkscape:current-layer="layer1"
     showgrid="false"
     inkscape:window-width="1920"
     inkscape:window-height="1035"
     inkscape:window-x="0"
     inkscape:window-y="1"
     inkscape:window-maximized="1" />
  <metadata
     id="metadata3396">
    <rdf:RDF>
      <cc:Work
         rdf:about="">
        <dc:format>image/svg+xml</dc:format>
        <dc:type
           rdf:resource="http://purl.org/dc/dcmitype/StillImage" />
        <dc:title></dc:title>
      </cc:Work>
    </rdf:RDF>
  </metadata>
  <g
     inkscape:label="Layer 1"
     inkscape:groupmode="layer"
     id="layer1">
    <rect
       style="opacity:0.99959998;fill:#e6e6e6;stroke:#000000;stroke-width:1;stroke-miterlimit:4;stroke-dasharray:none;stroke-opacity:1"
       id="rect3399"
       width="236.51848"
       height="35.462849"
       x="24.222929"
       y="23.72794" />
    <text
       xml:space="preserve"
       style="font-style:normal;font-weight:normal;font-size:10px;line-height:125%;font-family:sans-serif;letter-spacing:0px;word-spacing:0px;fill:#000000;fill-opacity:1;stroke:none;stroke-width:1;stroke-linecap:butt;stroke-linejoin:miter;stroke-opacity:1;stroke-miterlimit:4;stroke-dasharray:none"
       x="124.44192"
       y="19.323786"
       id="text4259"
       sodipodi:linespacing="125%"><tspan
         sodipodi:role="line"
         id="tspan4261"
         x="124.44192"
         y="19.323786"></tspan></text>
    <flowRoot
       xml:space="preserve"
       id="flowRoot4265"
       style="fill:black;stroke:none;stroke-opacity:1;stroke-width:1;stroke-linejoin:miter;stroke-linecap:butt;fill-opacity:1;font-family:sans-serif;font-style:normal;font-weight:normal;font-size:10px;line-height:125%;letter-spacing:0px;word-spacing:0px;stroke-miterlimit:4;stroke-dasharray:none"><flowRegion
         id="flowRegion4267"><rect
           id="rect4269"
           width="14.464722"
           height="24.409218"
           x="39.777985"
           y="127.52402"
           style="stroke-width:1;stroke-miterlimit:4;stroke-dasharray:none" /></flowRegion><flowPara
         id="flowPara4271"></flowPara></flowRoot>    <text
       xml:space="preserve"
       style="font-style:normal;font-weight:normal;font-size:10px;line-height:125%;font-family:sans-serif;letter-spacing:0px;word-spacing:0px;fill:#000000;fill-opacity:1;stroke:none;stroke-width:1;stroke-linecap:butt;stroke-linejoin:miter;stroke-opacity:1;stroke-miterlimit:4;stroke-dasharray:none"
       x="20.894964"
       y="80.828934"
       id="text4325"
       sodipodi:linespacing="125%"><tspan
         sodipodi:role="line"
         id="tspan4327"
         x="20.894964"
         y="80.828934"
         style="-inkscape-font-specification:'Trebuchet MS';font-family:'Trebuchet MS';font-weight:normal;font-style:normal;font-stretch:normal;font-variant:normal;stroke-width:1;stroke-miterlimit:4;stroke-dasharray:none">heap start</tspan></text>
    <text
       sodipodi:linespacing="125%"
       id="text4329"
       y="78.332016"
       x="91.994247"
       style="font-style:normal;font-weight:normal;font-size:10px;line-height:125%;font-family:sans-serif;letter-spacing:0px;word-spacing:0px;fill:#000000;fill-opacity:1;stroke:none;stroke-width:1;stroke-linecap:butt;stroke-linejoin:miter;stroke-opacity:1;stroke-miterlimit:4;stroke-dasharray:none"
       xml:space="preserve"><tspan
         y="78.332016"
         x="91.994247"
         id="tspan4331"
         sodipodi:role="line"
         style="-inkscape-font-specification:'Trebuchet MS';font-family:'Trebuchet MS';font-weight:normal;font-style:normal;font-stretch:normal;font-variant:normal;stroke-width:1;stroke-miterlimit:4;stroke-dasharray:none">heap top</tspan></text>
    <text
       xml:space="preserve"
       style="font-style:normal;font-weight:normal;font-size:10px;line-height:125%;font-family:sans-serif;letter-spacing:0px;word-spacing:0px;fill:#000000;fill-opacity:1;stroke:none;stroke-width:1;stroke-linecap:butt;stroke-linejoin:miter;stroke-opacity:1;stroke-miterlimit:4;stroke-dasharray:none"
       x="114.75964"
       y="18.696928"
       id="text4333"
       sodipodi:linespacing="125%"><tspan
         sodipodi:role="line"
         id="tspan4335"
         x="114.75964"
         y="18.696928"
         style="-inkscape-font-specification:'Trebuchet MS';font-family:'Trebuchet MS';font-weight:normal;font-style:normal;font-stretch:normal;font-variant:normal;stroke-width:1;stroke-miterlimit:4;stroke-dasharray:none">heap grows</tspan></text>
    <rect
       style="opacity:0.99959998;fill:#999999;stroke:#000000;stroke-width:1;stroke-miterlimit:4;stroke-dasharray:none;stroke-opacity:1"
       id="rect4337"
       width="113.93104"
       height="29.000628"
       x="27.343451"
       y="26.568525" />
    <path
       style="opacity:0.99959998;fill:#000000;stroke:none;stroke-width:1;stroke-miterlimit:4;stroke-dasharray:none;stroke-opacity:1"
       id="path4339"
       d="m 116.64675,7.3038226 c 5.44739,0 10.89478,0 16.34217,0 6.8015,0 13.603,0 20.40451,0 2.05324,0 4.10649,0 6.15973,0 0.87885,0 0.87885,1.242884 0,1.242884 l 0,0 c -2.05324,0 -4.10649,0 -6.15973,0 -6.80151,0 -13.60301,0 -20.40451,0 -5.44739,0 -10.89478,0 -16.34217,0 -0.87885,0 -0.87885,-1.242884 0,-1.242884 z"
       inkscape:connector-curvature="0" />
    <path
       style="opacity:0.99959998;fill:#000000;stroke:none;stroke-width:1;stroke-miterlimit:4;stroke-dasharray:none;stroke-opacity:1"
       id="path4341"
       d="m 153.54888,2.9214598 c 2.36007,0.8277698 4.71679,1.6656299 7.07558,2.4973255 0.71963,0.3563509 2.83835,0.8200809 3.14014,1.7420685 0.0667,0.2039135 0.0369,0.427529 0.0554,0.6412935 -0.0899,0.1622613 -0.14893,0.3459372 -0.26964,0.4867839 -0.59568,0.6950951 -2.25823,1.3607517 -3.07549,1.7654578 -1.33382,0.592736 -2.59737,1.340696 -3.9655,1.853526 -0.49056,0.219407 -0.24456,0.111363 -0.73802,0.324132 -0.80705,0.347904 -1.29906,-0.793449 -0.49201,-1.141353 l 0,0 c 0.50473,-0.217519 0.23908,-0.10186 0.79665,-0.347657 1.3301,-0.490486 2.54917,-1.2367659 3.84738,-1.8024719 0.47969,-0.2374872 0.99699,-0.4900279 1.4725,-0.7387195 0.21448,-0.1121725 0.89157,-0.5953032 1.14241,-0.6343404 0.0209,-0.00325 0.0372,0.020201 0.0557,0.030301 0.0412,0.077525 0.0717,0.1617125 0.12348,0.2325756 0.0104,0.014211 0.0205,-0.039295 0.008,-0.052131 -0.0742,-0.079046 -0.16012,-0.1476935 -0.25113,-0.2065685 -0.69459,-0.4493536 -1.50546,-0.6711988 -2.2636,-0.9807481 -2.34018,-0.8252137 -4.67867,-1.6557159 -7.0194,-2.4790073 -0.84179,-0.2525362 -0.48465,-1.4430033 0.35714,-1.1904671 z"
       inkscape:connector-curvature="0" />
    <rect
       y="26.485151"
       x="178.88863"
       height="29.167377"
       width="78.650764"
       id="rect4351"
       style="opacity:0.99959998;fill:#5599ff;stroke:#0055d4;stroke-width:1;stroke-miterlimit:4;stroke-dasharray:none;stroke-opacity:1" />
    <text
       xml:space="preserve"
       style="font-style:normal;font-weight:normal;font-size:10px;line-height:125%;font-family:sans-serif;letter-spacing:0px;word-spacing:0px;fill:#000000;fill-opacity:1;stroke:none;stroke-width:1;stroke-linecap:butt;stroke-linejoin:miter;stroke-opacity:1;stroke-miterlimit:4;stroke-dasharray:none"
       x="223.55223"
       y="79.423019"
       id="text4353"
       sodipodi:linespacing="125%"><tspan
         sodipodi:role="line"
         id="tspan4355"
         x="223.55223"
         y="79.423019"
         style="font-style:normal;font-variant:normal;font-weight:normal;font-stretch:normal;font-family:'Trebuchet MS';-inkscape-font-specification:'Trebuchet MS';stroke-width:1;stroke-miterlimit:4;stroke-dasharray:none">heap end</tspan></text>
    <g
       id="g4367"
       style="stroke-width:1;stroke-miterlimit:4;stroke-dasharray:none">
      <path
         inkscape:connector-curvature="0"
         d="m 30.252155,72.826637 c -0.676115,-0.455288 -1.270872,-1.010973 -1.842254,-1.58857 -0.395115,-0.402806 -0.744863,-0.849302 -1.005687,-1.351314 -0.149414,-0.28758 -0.242661,-0.536231 -0.36506,-0.836239 -0.35846,-0.953475 -0.565136,-1.952464 -0.703799,-2.958764 -0.12803,-0.898695 -0.18412,-1.805233 -0.218907,-2.711652 -0.03747,-0.551419 -0.0034,-1.099593 0.07668,-1.645154 0.05516,-0.265667 0.124333,-0.528797 0.18148,-0.793592 0.186943,0.07914 0.418828,0.09234 0.560829,0.237411 0.05778,0.05903 -0.07218,0.148684 -0.112176,0.220951 -0.06868,0.124077 -0.139368,0.247111 -0.213741,0.36786 -0.381485,0.619364 -0.807173,1.209398 -1.22784,1.802247 -0.428148,0.584963 -0.862967,1.164949 -1.299992,1.743287 -0.264926,0.350584 -0.760727,-0.02408 -0.4958,-0.374663 l 0,0 c 0.433298,-0.57338 0.86437,-1.148421 1.288996,-1.728274 0.41001,-0.577686 0.824728,-1.15262 1.197673,-1.755424 0.06848,-0.110682 0.133591,-0.223457 0.196978,-0.33713 0.03547,-0.06361 0.02723,-0.18544 0.09949,-0.194528 0.208268,-0.02619 0.414063,0.06927 0.621095,0.103902 -0.04318,0.269624 -0.131159,0.530392 -0.182182,0.798491 -0.07502,0.507734 -0.106451,1.017519 -0.0705,1.530824 0.03389,0.886118 0.08838,1.772389 0.213592,2.65095 0.130516,0.955102 0.326109,1.903258 0.6637,2.808937 0.104405,0.257044 0.201712,0.513956 0.328473,0.761228 0.233663,0.455809 0.550704,0.859318 0.908599,1.223705 0.544859,0.551299 1.111256,1.08251 1.75673,1.516406 0.359992,0.251994 0.0036,0.7611 -0.356373,0.509105 z"
         id="path4363"
         style="opacity:0.99959998;fill:#000000;stroke:none;stroke-width:1;stroke-miterlimit:4;stroke-dasharray:none;stroke-opacity:1" />
      <path
         inkscape:connector-curvature="0"
         d="m 27.136302,61.01247 c -0.0084,0.621764 0.01791,1.243782 0.07355,1.863004 0.04999,0.530593 0.219711,1.036386 0.386354,1.539095 0.09383,0.278972 0.188065,0.566973 0.341993,0.820003 0.106037,0.150514 0.207763,0.300306 0.328441,0.439705 0.28651,0.333178 -0.184675,0.738364 -0.471184,0.405186 l 0,0 c -0.144067,-0.168428 -0.269215,-0.347999 -0.393675,-0.531131 -0.168725,-0.295228 -0.294167,-0.614201 -0.395497,-0.93836 -0.181462,-0.548234 -0.362694,-1.100573 -0.415416,-1.679274 -0.05651,-0.637644 -0.08492,-1.277991 -0.07601,-1.918228 0,-0.439426 0.621442,-0.439426 0.621442,0 z"
         id="path4365"
         style="opacity:0.99959998;fill:#000000;stroke:none;stroke-width:1;stroke-miterlimit:4;stroke-dasharray:none;stroke-opacity:1" />
    </g>
    <g
       id="g4371"
       transform="matrix(-1.1720422,0,0,1,173.9037,-0.82858941)"
       style="stroke-width:0.92369454;stroke-miterlimit:4;stroke-dasharray:none">
      <path
         style="opacity:0.99959998;fill:#000000;stroke:none;stroke-width:0.92369454;stroke-miterlimit:4;stroke-dasharray:none;stroke-opacity:1"
         id="path4373"
         d="m 30.252155,72.826637 c -0.676115,-0.455288 -1.270872,-1.010973 -1.842254,-1.58857 -0.395115,-0.402806 -0.744863,-0.849302 -1.005687,-1.351314 -0.149414,-0.28758 -0.242661,-0.536231 -0.36506,-0.836239 -0.35846,-0.953475 -0.565136,-1.952464 -0.703799,-2.958764 -0.12803,-0.898695 -0.18412,-1.805233 -0.218907,-2.711652 -0.03747,-0.551419 -0.0034,-1.099593 0.07668,-1.645154 0.05516,-0.265667 0.124333,-0.528797 0.18148,-0.793592 0.186943,0.07914 0.418828,0.09234 0.560829,0.237411 0.05778,0.05903 -0.07218,0.148684 -0.112176,0.220951 -0.06868,0.124077 -0.139368,0.247111 -0.213741,0.36786 -0.381485,0.619364 -0.807173,1.209398 -1.22784,1.802247 -0.428148,0.584963 -0.862967,1.164949 -1.299992,1.743287 -0.264926,0.350584 -0.760727,-0.02408 -0.4958,-0.374663 l 0,0 c 0.433298,-0.57338 0.86437,-1.148421 1.288996,-1.728274 0.41001,-0.577686 0.824728,-1.15262 1.197673,-1.755424 0.06848,-0.110682 0.133591,-0.223457 0.196978,-0.33713 0.03547,-0.06361 0.02723,-0.18544 0.09949,-0.194528 0.208268,-0.02619 0.414063,0.06927 0.621095,0.103902 -0.04318,0.269624 -0.131159,0.530392 -0.182182,0.798491 -0.07502,0.507734 -0.106451,1.017519 -0.0705,1.530824 0.03389,0.886118 0.08838,1.772389 0.213592,2.65095 0.130516,0.955102 0.326109,1.903258 0.6637,2.808937 0.104405,0.257044 0.201712,0.513956 0.328473,0.761228 0.233663,0.455809 0.550704,0.859318 0.908599,1.223705 0.544859,0.551299 1.111256,1.08251 1.75673,1.516406 0.359992,0.251994 0.0036,0.7611 -0.356373,0.509105 z"
         inkscape:connector-curvature="0" />
      <path
         style="opacity:0.99959998;fill:#000000;stroke:none;stroke-width:0.92369454;stroke-miterlimit:4;stroke-dasharray:none;stroke-opacity:1"
         id="path4375"
         d="m 27.136302,61.01247 c -0.0084,0.621764 0.01791,1.243782 0.07355,1.863004 0.04999,0.530593 0.219711,1.036386 0.386354,1.539095 0.09383,0.278972 0.188065,0.566973 0.341993,0.820003 0.106037,0.150514 0.207763,0.300306 0.328441,0.439705 0.28651,0.333178 -0.184675,0.738364 -0.471184,0.405186 l 0,0 c -0.144067,-0.168428 -0.269215,-0.347999 -0.393675,-0.531131 -0.168725,-0.295228 -0.294167,-0.614201 -0.395497,-0.93836 -0.181462,-0.548234 -0.362694,-1.100573 -0.415416,-1.679274 -0.05651,-0.637644 -0.08492,-1.277991 -0.07601,-1.918228 0,-0.439426 0.621442,-0.439426 0.621442,0 z"
         inkscape:connector-curvature="0" />
    </g>
    <g
       transform="matrix(-1.1720422,0,0,1,289.07763,-0.41429472)"
       id="g4377"
       style="stroke-width:0.92369454;stroke-miterlimit:4;stroke-dasharray:none">
      <path
         inkscape:connector-curvature="0"
         d="m 30.252155,72.826637 c -0.676115,-0.455288 -1.270872,-1.010973 -1.842254,-1.58857 -0.395115,-0.402806 -0.744863,-0.849302 -1.005687,-1.351314 -0.149414,-0.28758 -0.242661,-0.536231 -0.36506,-0.836239 -0.35846,-0.953475 -0.565136,-1.952464 -0.703799,-2.958764 -0.12803,-0.898695 -0.18412,-1.805233 -0.218907,-2.711652 -0.03747,-0.551419 -0.0034,-1.099593 0.07668,-1.645154 0.05516,-0.265667 0.124333,-0.528797 0.18148,-0.793592 0.186943,0.07914 0.418828,0.09234 0.560829,0.237411 0.05778,0.05903 -0.07218,0.148684 -0.112176,0.220951 -0.06868,0.124077 -0.139368,0.247111 -0.213741,0.36786 -0.381485,0.619364 -0.807173,1.209398 -1.22784,1.802247 -0.428148,0.584963 -0.862967,1.164949 -1.299992,1.743287 -0.264926,0.350584 -0.760727,-0.02408 -0.4958,-0.374663 l 0,0 c 0.433298,-0.57338 0.86437,-1.148421 1.288996,-1.728274 0.41001,-0.577686 0.824728,-1.15262 1.197673,-1.755424 0.06848,-0.110682 0.133591,-0.223457 0.196978,-0.33713 0.03547,-0.06361 0.02723,-0.18544 0.09949,-0.194528 0.208268,-0.02619 0.414063,0.06927 0.621095,0.103902 -0.04318,0.269624 -0.131159,0.530392 -0.182182,0.798491 -0.07502,0.507734 -0.106451,1.017519 -0.0705,1.530824 0.03389,0.886118 0.08838,1.772389 0.213592,2.65095 0.130516,0.955102 0.326109,1.903258 0.6637,2.808937 0.104405,0.257044 0.201712,0.513956 0.328473,0.761228 0.233663,0.455809 0.550704,0.859318 0.908599,1.223705 0.544859,0.551299 1.111256,1.08251 1.75673,1.516406 0.359992,0.251994 0.0036,0.7611 -0.356373,0.509105 z"
         id="path4379"
         style="opacity:0.99959998;fill:#000000;stroke:none;stroke-width:0.92369454;stroke-miterlimit:4;stroke-dasharray:none;stroke-opacity:1" />
      <path
         inkscape:connector-curvature="0"
         d="m 27.136302,61.01247 c -0.0084,0.621764 0.01791,1.243782 0.07355,1.863004 0.04999,0.530593 0.219711,1.036386 0.386354,1.539095 0.09383,0.278972 0.188065,0.566973 0.341993,0.820003 0.106037,0.150514 0.207763,0.300306 0.328441,0.439705 0.28651,0.333178 -0.184675,0.738364 -0.471184,0.405186 l 0,0 c -0.144067,-0.168428 -0.269215,-0.347999 -0.393675,-0.531131 -0.168725,-0.295228 -0.294167,-0.614201 -0.395497,-0.93836 -0.181462,-0.548234 -0.362694,-1.100573 -0.415416,-1.679274 -0.05651,-0.637644 -0.08492,-1.277991 -0.07601,-1.918228 0,-0.439426 0.621442,-0.439426 0.621442,0 z"
         id="path4381"
         style="opacity:0.99959998;fill:#000000;stroke:none;stroke-width:0.92369454;stroke-miterlimit:4;stroke-dasharray:none;stroke-opacity:1" />
    </g>
    <text
       xml:space="preserve"
       style="font-style:normal;font-weight:normal;font-size:10px;line-height:125%;font-family:sans-serif;letter-spacing:0px;word-spacing:0px;fill:#0055d4;fill-opacity:1;stroke:none;stroke-width:1;stroke-linecap:butt;stroke-linejoin:miter;stroke-opacity:1;stroke-miterlimit:4;stroke-dasharray:none;"
       x="168.82509"
       y="79.391098"
       id="text4383"
       sodipodi:linespacing="125%"><tspan
         sodipodi:role="line"
         id="tspan4385"
         x="168.82509"
         y="79.391098"
         style="font-style:normal;font-variant:normal;font-weight:normal;font-stretch:normal;font-family:'Trebuchet MS';-inkscape-font-specification:'Trebuchet MS';stroke-width:1;stroke-miterlimit:4;stroke-dasharray:none;fill:#0055d4;">stack top</tspan></text>
    <g
       id="g4387"
       transform="translate(152.6676,-0.62144204)"
       style="stroke-width:1;stroke-miterlimit:4;stroke-dasharray:none;fill:#0055d4">
      <path
         style="opacity:0.99959998;fill:#0055d4;stroke:none;stroke-width:1;stroke-miterlimit:4;stroke-dasharray:none;stroke-opacity:1"
         id="path4389"
         d="m 30.252155,72.826637 c -0.676115,-0.455288 -1.270872,-1.010973 -1.842254,-1.58857 -0.395115,-0.402806 -0.744863,-0.849302 -1.005687,-1.351314 -0.149414,-0.28758 -0.242661,-0.536231 -0.36506,-0.836239 -0.35846,-0.953475 -0.565136,-1.952464 -0.703799,-2.958764 -0.12803,-0.898695 -0.18412,-1.805233 -0.218907,-2.711652 -0.03747,-0.551419 -0.0034,-1.099593 0.07668,-1.645154 0.05516,-0.265667 0.124333,-0.528797 0.18148,-0.793592 0.186943,0.07914 0.418828,0.09234 0.560829,0.237411 0.05778,0.05903 -0.07218,0.148684 -0.112176,0.220951 -0.06868,0.124077 -0.139368,0.247111 -0.213741,0.36786 -0.381485,0.619364 -0.807173,1.209398 -1.22784,1.802247 -0.428148,0.584963 -0.862967,1.164949 -1.299992,1.743287 -0.264926,0.350584 -0.760727,-0.02408 -0.4958,-0.374663 l 0,0 c 0.433298,-0.57338 0.86437,-1.148421 1.288996,-1.728274 0.41001,-0.577686 0.824728,-1.15262 1.197673,-1.755424 0.06848,-0.110682 0.133591,-0.223457 0.196978,-0.33713 0.03547,-0.06361 0.02723,-0.18544 0.09949,-0.194528 0.208268,-0.02619 0.414063,0.06927 0.621095,0.103902 -0.04318,0.269624 -0.131159,0.530392 -0.182182,0.798491 -0.07502,0.507734 -0.106451,1.017519 -0.0705,1.530824 0.03389,0.886118 0.08838,1.772389 0.213592,2.65095 0.130516,0.955102 0.326109,1.903258 0.6637,2.808937 0.104405,0.257044 0.201712,0.513956 0.328473,0.761228 0.233663,0.455809 0.550704,0.859318 0.908599,1.223705 0.544859,0.551299 1.111256,1.08251 1.75673,1.516406 0.359992,0.251994 0.0036,0.7611 -0.356373,0.509105 z"
         inkscape:connector-curvature="0" />
      <path
         style="opacity:0.99959998;fill:#0055d4;stroke:none;stroke-width:1;stroke-miterlimit:4;stroke-dasharray:none;stroke-opacity:1"
         id="path4391"
         d="m 27.136302,61.01247 c -0.0084,0.621764 0.01791,1.243782 0.07355,1.863004 0.04999,0.530593 0.219711,1.036386 0.386354,1.539095 0.09383,0.278972 0.188065,0.566973 0.341993,0.820003 0.106037,0.150514 0.207763,0.300306 0.328441,0.439705 0.28651,0.333178 -0.184675,0.738364 -0.471184,0.405186 l 0,0 c -0.144067,-0.168428 -0.269215,-0.347999 -0.393675,-0.531131 -0.168725,-0.295228 -0.294167,-0.614201 -0.395497,-0.93836 -0.181462,-0.548234 -0.362694,-1.100573 -0.415416,-1.679274 -0.05651,-0.637644 -0.08492,-1.277991 -0.07601,-1.918228 0,-0.439426 0.621442,-0.439426 0.621442,0 z"
         inkscape:connector-curvature="0" />
    </g>
    <text
       sodipodi:linespacing="125%"
       id="text4393"
       y="20.354107"
       x="175.66096"
       style="font-style:normal;font-weight:normal;font-size:10px;line-height:125%;font-family:sans-serif;letter-spacing:0px;word-spacing:0px;fill:#0066ff;fill-opacity:1;stroke:none;stroke-width:1;stroke-linecap:butt;stroke-linejoin:miter;stroke-opacity:1;stroke-miterlimit:4;stroke-dasharray:none;"
       xml:space="preserve"><tspan
         style="font-style:normal;font-variant:normal;font-weight:normal;font-stretch:normal;font-family:'Trebuchet MS';-inkscape-font-specification:'Trebuchet MS';stroke-width:1;stroke-miterlimit:4;stroke-dasharray:none;fill:#0066ff;"
         y="20.354107"
         x="175.66096"
         id="tspan4395"
         sodipodi:role="line">stack grows</tspan></text>
    <path
       inkscape:connector-curvature="0"
       d="m 220.78309,7.9252646 c -5.31009,0 -10.62019,0 -15.93028,0 -6.63007,0 -13.26014,0 -19.89022,0 -2.00149,0 -4.00299,0 -6.00448,0 -0.8567,0 -0.8567,1.242884 0,1.242884 l 0,0 c 2.00149,0 4.00299,0 6.00448,0 6.63008,0 13.26015,0 19.89022,0 5.31009,0 10.62019,0 15.93028,0 0.8567,0 0.8567,-1.242884 0,-1.242884 z"
       id="path4397"
       style="opacity:0.99959998;fill:#0066ff;stroke:none;stroke-width:1;stroke-miterlimit:4;stroke-dasharray:none;stroke-opacity:1" />
    <path
       inkscape:connector-curvature="0"
       d="m 184.81105,3.5429018 c -2.30058,0.8277698 -4.5979,1.6656299 -6.89724,2.4973255 -0.70149,0.3563509 -2.76681,0.8200809 -3.061,1.7420685 -0.065,0.2039135 -0.036,0.427529 -0.054,0.6412935 0.0876,0.1622613 0.14518,0.3459372 0.26284,0.4867839 0.58067,0.6950951 2.20132,1.3607518 2.99798,1.7654578 1.3002,0.592736 2.5319,1.340696 3.86555,1.853526 0.4782,0.219407 0.2384,0.111363 0.71942,0.324132 0.78671,0.347904 1.26632,-0.793449 0.47961,-1.141353 l 0,0 c -0.49201,-0.217519 -0.23306,-0.10186 -0.77657,-0.347657 -1.29658,-0.490486 -2.48492,-1.236766 -3.75041,-1.8024719 -0.4676,-0.2374872 -0.97186,-0.4900279 -1.43539,-0.7387195 -0.20907,-0.1121725 -0.8691,-0.5953032 -1.11361,-0.6343404 -0.0204,-0.00325 -0.0363,0.020201 -0.0543,0.030301 -0.0402,0.077525 -0.0699,0.1617125 -0.12037,0.2325756 -0.0101,0.014211 -0.02,-0.039295 -0.008,-0.052131 0.0723,-0.079046 0.15609,-0.1476935 0.2448,-0.2065685 0.67709,-0.4493536 1.46752,-0.6711988 2.20655,-0.9807481 2.2812,-0.8252137 4.56075,-1.6557159 6.84248,-2.4790073 0.82057,-0.2525362 0.47244,-1.4430033 -0.34814,-1.1904671 z"
       id="path4399"
       style="opacity:0.99959998;fill:#0066ff;stroke:none;stroke-width:1;stroke-miterlimit:4;stroke-dasharray:none;stroke-opacity:1" />
  </g>
</svg>
