<?xml version="1.0" encoding="UTF-8" standalone="no"?>
<!-- Created with Inkscape (http://www.inkscape.org/) -->

<svg
   xmlns:dc="http://purl.org/dc/elements/1.1/"
   xmlns:cc="http://creativecommons.org/ns#"
   xmlns:rdf="http://www.w3.org/1999/02/22-rdf-syntax-ns#"
   xmlns:svg="http://www.w3.org/2000/svg"
   xmlns="http://www.w3.org/2000/svg"
   xmlns:sodipodi="http://sodipodi.sourceforge.net/DTD/sodipodi-0.dtd"
   xmlns:inkscape="http://www.inkscape.org/namespaces/inkscape"
   width="210mm"
   height="297mm"
   viewBox="0 0 744.09448819 1052.3622047"
   id="svg2"
   version="1.1"
   inkscape:version="0.91 r13725"
   sodipodi:docname="memory-layout-tuple.svg"
   inkscape:export-filename="/home/kv/proj/beam-wisdoms/docs/source/_static/img/memory-layout-tuple.png"
   inkscape:export-xdpi="200.11325"
   inkscape:export-ydpi="200.11325">
  <defs
     id="defs4" />
  <sodipodi:namedview
     id="base"
     pagecolor="#ffffff"
     bordercolor="#666666"
     borderopacity="1.0"
     inkscape:pageopacity="0.0"
     inkscape:pageshadow="2"
     inkscape:zoom="1.979899"
     inkscape:cx="49.357416"
     inkscape:cy="1018.939"
     inkscape:document-units="px"
     inkscape:current-layer="layer1"
     showgrid="false"
     showguides="false"
     inkscape:guide-bbox="true"
     inkscape:window-width="2560"
     inkscape:window-height="1277"
     inkscape:window-x="0"
     inkscape:window-y="0"
     inkscape:window-maximized="1" />
  <metadata
     id="metadata7">
    <rdf:RDF>
      <cc:Work
         rdf:about="">
        <dc:format>image/svg+xml</dc:format>
        <dc:type
           rdf:resource="http://purl.org/dc/dcmitype/StillImage" />
        <dc:title />
      </cc:Work>
    </rdf:RDF>
  </metadata>
  <g
     inkscape:label="Layer 1"
     inkscape:groupmode="layer"
     id="layer1">
    <rect
       style="opacity:0.99959998;fill:#999999;stroke:#000000;stroke-width:0.83825469;stroke-miterlimit:4;stroke-dasharray:none;stroke-opacity:1"
       id="rect3340"
       width="78.112427"
       height="20.633226"
       x="17.066462"
       y="32.989857" />
    <rect
       style="opacity:0.99959998;fill:#ffff00;stroke:#000000;stroke-width:1;stroke-miterlimit:4;stroke-dasharray:none;stroke-opacity:1"
       id="rect3342"
       width="12.12183"
       height="12.12183"
       x="79.663551"
       y="36.740479" />
    <rect
       style="opacity:0.99959998;fill:#ffff00;stroke:#000000;stroke-width:1;stroke-miterlimit:4;stroke-dasharray:none;stroke-opacity:1"
       id="rect3342-0"
       width="12.12183"
       height="12.12183"
       x="64.511292"
       y="36.949688" />
    <text
       xml:space="preserve"
       style="font-style:normal;font-variant:normal;font-weight:normal;font-stretch:normal;font-size:15px;line-height:125%;font-family:'Trebuchet MS';-inkscape-font-specification:'Trebuchet MS';letter-spacing:0px;word-spacing:0px;fill:#000000;fill-opacity:1;stroke:none;stroke-width:1px;stroke-linecap:butt;stroke-linejoin:miter;stroke-opacity:1"
       x="42.372772"
       y="19.444054"
       id="text3391"
       sodipodi:linespacing="125%"><tspan
         sodipodi:role="line"
         id="tspan3393"
         x="42.372772"
         y="19.444054"
         style="font-size:10px">TAG_PRIMARY_BOXED</tspan></text>
    <text
       xml:space="preserve"
       style="font-style:normal;font-variant:normal;font-weight:normal;font-stretch:normal;font-size:15px;line-height:125%;font-family:'Trebuchet MS';-inkscape-font-specification:'Trebuchet MS';letter-spacing:0px;word-spacing:0px;fill:#000000;fill-opacity:1;stroke:none;stroke-width:1px;stroke-linecap:butt;stroke-linejoin:miter;stroke-opacity:1"
       x="15.990622"
       y="28.818136"
       id="text3391-1"
       sodipodi:linespacing="125%"><tspan
         sodipodi:role="line"
         id="tspan3393-5"
         x="15.990622"
         y="28.818136"
         style="font-size:10px">Word</tspan></text>
    <text
       sodipodi:linespacing="125%"
       id="text3519"
       y="46.94577"
       x="22.671736"
       style="font-style:normal;font-variant:normal;font-weight:normal;font-stretch:normal;font-size:15px;line-height:125%;font-family:'Trebuchet MS';-inkscape-font-specification:'Trebuchet MS';letter-spacing:0px;word-spacing:0px;fill:#000000;fill-opacity:1;stroke:none;stroke-width:1px;stroke-linecap:butt;stroke-linejoin:miter;stroke-opacity:1"
       xml:space="preserve"><tspan
         style="font-size:10px"
         y="46.94577"
         x="22.671736"
         id="tspan3521"
         sodipodi:role="line">Pointer</tspan></text>
    <rect
       style="opacity:0.99959998;fill:#de8787;stroke:#000000;stroke-width:1;stroke-miterlimit:4;stroke-dasharray:none;stroke-opacity:1"
       id="rect3523"
       width="80.556725"
       height="18.056723"
       x="18.573164"
       y="79.491928" />
    <g
       id="g4351"
       transform="matrix(0.59294151,-0.80524553,0.80524553,0.59294151,-78.482662,102.69009)">
      <path
         inkscape:connector-curvature="0"
         d="m 107.29328,58.367027 c -1.70254,1.969253 -3.64006,3.713672 -5.58335,5.438901 -1.738692,1.543646 -3.534095,3.022883 -5.368538,4.450987 -0.884946,0.657838 -1.694164,1.423666 -2.624083,2.018625 -0.541332,0.389281 -1.116448,0.729121 -1.707791,1.036169 -0.585369,0.329226 -1.192991,0.62262 -1.767484,0.970134 -0.56258,0.310579 -1.086933,0.695071 -1.718953,0.845085 -0.163914,-0.04963 -0.385893,-0.01425 -0.491743,-0.148881 -0.541127,-0.688279 0.411567,-1.610887 0.782355,-2.14244 0.677206,-1.055281 1.380241,-2.092396 2.090016,-3.125802 0.306488,-0.487185 0.607571,-0.977491 0.903624,-1.471062 0.389776,-0.649657 1.30853,-0.09843 0.918753,0.551227 l 0,0 c -0.307454,0.512319 -0.61962,1.021586 -0.939219,1.526457 -0.711337,1.035535 -1.415161,2.075266 -2.094515,3.132301 -0.09989,0.143098 -0.199771,0.286196 -0.299656,0.429294 -0.0809,0.111553 -0.163657,0.221784 -0.2427,0.33466 -0.137363,0.196159 -0.222491,0.358487 -0.247429,0.326622 -0.423102,-0.540629 0.01956,-0.393191 -0.580959,-0.464692 0.490028,0.0047 0.921917,-0.570972 1.372977,-0.713779 0.597741,-0.350719 1.215681,-0.667056 1.823203,-1.001048 0.565241,-0.290199 1.110078,-0.61985 1.626869,-0.989799 0.906721,-0.564715 1.67325,-1.33495 2.538574,-1.958519 1.816307,-1.413915 3.593977,-2.878447 5.315429,-4.406824 1.90716,-1.692653 3.80958,-3.403282 5.48113,-5.334892 0.49305,-0.575224 1.30654,0.122053 0.81349,0.697276 z"
         id="path3527"
         style="opacity:0.99959998;fill:#ff0000;stroke:none;stroke-width:1;stroke-miterlimit:4;stroke-dasharray:none;stroke-opacity:1" />
      <path
         inkscape:connector-curvature="0"
         d="m 89.0358,71.944589 c 2.005267,-0.496753 4.014294,-0.978724 6.032523,-1.420162 1.271774,-0.254134 0.662544,-0.123147 1.828542,-0.388973 0.738699,-0.168235 0.97662,0.876443 0.237921,1.044679 l 0,0 c -1.187779,0.270241 -0.575442,0.139012 -1.837586,0.390991 -2.007916,0.438942 -4.006534,0.918857 -6.00154,1.412903 -0.734994,0.183749 -0.994854,-0.85569 -0.25986,-1.039438 z"
         id="path3529"
         style="opacity:0.99959998;fill:#ff0000;stroke:none;stroke-width:1;stroke-miterlimit:4;stroke-dasharray:none;stroke-opacity:1" />
    </g>
    <path
       style="opacity:0.99959998;fill:#000000;stroke:none;stroke-width:1;stroke-miterlimit:4;stroke-dasharray:none;stroke-opacity:1"
       id="path4003"
       d="m 91.644426,31.423999 c 0.099,-1.222298 0.27769,-2.45048 0.22858,-3.678689 -0.0698,-0.669233 -0.39315,-0.861027 -0.992,-0.987387 -1.1283,-0.126677 -2.2691,-0.09249 -3.4028,-0.0882 -1.25262,-0.05055 -2.49433,0.105535 -3.73762,0.229321 -1.07598,0.157329 -1.79331,0.107275 -2.76191,-0.397474 -0.75657,-0.451247 -1.00597,-1.195445 -1.12518,-2.019623 -0.0102,-0.123692 -0.0136,-0.248122 -0.0305,-0.371076 -0.0824,-0.600186 -0.14928,0.205601 0.53171,0.02308 2.1e-4,0.133442 0.008,0.01716 -0.14085,0.261341 -0.23563,0.38608 -0.46381,0.626793 -0.85052,0.869969 -0.82329,0.513615 -1.78627,0.580184 -2.72889,0.645368 -1.86703,0.0793 -3.73651,0.06886 -5.60481,0.07011 -1.718997,-2.6e-4 -3.437997,-0.0028 -5.156997,-0.0046 -0.69636,0.08284 -1.59789,-0.226765 -2.20439,0.227125 -0.24925,0.540705 -0.26582,1.138532 -0.29126,1.722623 -0.0414,0.396806 0.0288,0.78648 0.086,1.177012 0.10847,0.749808 -0.95192,0.903216 -1.06039,0.153408 l 0,0 c -0.0653,-0.456545 -0.13882,-0.915089 -0.0959,-1.378193 0.0427,-0.935874 0.0872,-1.901208 0.80603,-2.590974 0.86462,-0.479686 1.79757,-0.398947 2.76108,-0.382429 1.71839,0.0018 3.43679,0.0043 5.155177,0.0046 1.84434,-0.0012 3.6898,0.0089 5.53293,-0.06765 0.77529,-0.0516 1.57842,-0.0792 2.2581,-0.499817 0.39548,-0.196687 0.5338,-0.619826 0.77823,-0.966589 0.10598,-0.07732 0.19142,-0.197263 0.31794,-0.231958 0.80339,-0.220313 0.97657,0.609456 0.9986,1.191104 0.0623,0.473065 0.13394,0.937542 0.56238,1.218735 0.77726,0.41273 1.27353,0.408388 2.15735,0.279753 1.27713,-0.127135 2.55309,-0.28464 3.83971,-0.234583 1.21606,-0.0046 2.44197,-0.04622 3.64984,0.116108 1.13939,0.281608 1.67117,0.794234 1.81977,1.993054 0.0403,1.281225 -0.12057,2.560258 -0.23447,3.834851 -0.0837,0.752981 -1.14854,0.634661 -1.06487,-0.118319 z"
       inkscape:connector-curvature="0" />
    <rect
       y="81.847527"
       x="91.147667"
       height="12.416936"
       width="5.795239"
       id="rect3879"
       style="opacity:0.99959998;fill:#ffff00;stroke:#000000;stroke-width:1;stroke-miterlimit:4;stroke-dasharray:none;stroke-opacity:1" />
    <rect
       y="82.061836"
       x="83.903618"
       height="12.416936"
       width="5.795239"
       id="rect3881"
       style="opacity:0.99959998;fill:#ffff00;stroke:#000000;stroke-width:1;stroke-miterlimit:4;stroke-dasharray:none;stroke-opacity:1" />
    <rect
       style="opacity:0.99959998;fill:#e580ff;stroke:#000000;stroke-width:1;stroke-miterlimit:4;stroke-dasharray:none;stroke-opacity:1"
       id="rect3937"
       width="5.795239"
       height="12.416936"
       x="76.490685"
       y="81.847527" />
    <rect
       style="opacity:0.99959998;fill:#e580ff;stroke:#000000;stroke-width:1;stroke-miterlimit:4;stroke-dasharray:none;stroke-opacity:1"
       id="rect3939"
       width="5.795239"
       height="12.416936"
       x="69.246651"
       y="82.061836" />
    <rect
       y="81.847527"
       x="61.932747"
       height="12.416936"
       width="5.795239"
       id="rect3941"
       style="opacity:0.99959998;fill:#e580ff;stroke:#000000;stroke-width:1;stroke-miterlimit:4;stroke-dasharray:none;stroke-opacity:1" />
    <rect
       y="82.061836"
       x="54.688713"
       height="12.416936"
       width="5.795239"
       id="rect3943"
       style="opacity:0.99959998;fill:#e580ff;stroke:#000000;stroke-width:1;stroke-miterlimit:4;stroke-dasharray:none;stroke-opacity:1" />
    <text
       xml:space="preserve"
       style="font-style:normal;font-variant:normal;font-weight:normal;font-stretch:normal;font-size:15px;line-height:125%;font-family:'Trebuchet MS';-inkscape-font-specification:'Trebuchet MS';letter-spacing:0px;word-spacing:0px;fill:#000000;fill-opacity:1;stroke:none;stroke-width:1px;stroke-linecap:butt;stroke-linejoin:miter;stroke-opacity:1"
       x="20.424274"
       y="92.2547"
       id="text4298"
       sodipodi:linespacing="125%"><tspan
         sodipodi:role="line"
         id="tspan4300"
         x="20.424274"
         y="92.2547"
         style="font-size:10px">Arity=N</tspan></text>
    <rect
       y="79.234474"
       x="102.91599"
       height="18.066553"
       width="48.494213"
       id="rect4318"
       style="opacity:0.99959998;fill:#de8787;stroke:#000000;stroke-width:1;stroke-miterlimit:4;stroke-dasharray:none;stroke-opacity:1" />
    <text
       xml:space="preserve"
       style="font-style:normal;font-weight:normal;font-size:40px;line-height:125%;font-family:sans-serif;letter-spacing:0px;word-spacing:0px;fill:#000000;fill-opacity:1;stroke:none;stroke-width:1px;stroke-linecap:butt;stroke-linejoin:miter;stroke-opacity:1"
       x="105.3084"
       y="91.959679"
       id="text4320"
       sodipodi:linespacing="125%"><tspan
         sodipodi:role="line"
         id="tspan4322"
         x="105.3084"
         y="91.959679"
         style="font-style:normal;font-variant:normal;font-weight:normal;font-stretch:normal;font-size:10px;font-family:'Trebuchet MS';-inkscape-font-specification:'Trebuchet MS'">Element 1</tspan></text>
    <rect
       style="opacity:0.99959998;fill:#de8787;stroke:#000000;stroke-width:1;stroke-miterlimit:4;stroke-dasharray:none;stroke-opacity:1"
       id="rect4324"
       width="48.494213"
       height="18.066553"
       x="170.28053"
       y="79.171341" />
    <text
       sodipodi:linespacing="125%"
       id="text4326"
       y="92.149086"
       x="173.68311"
       style="font-style:normal;font-weight:normal;font-size:40px;line-height:125%;font-family:sans-serif;letter-spacing:0px;word-spacing:0px;fill:#000000;fill-opacity:1;stroke:none;stroke-width:1px;stroke-linecap:butt;stroke-linejoin:miter;stroke-opacity:1"
       xml:space="preserve"><tspan
         style="font-style:normal;font-variant:normal;font-weight:normal;font-stretch:normal;font-size:10px;font-family:'Trebuchet MS';-inkscape-font-specification:'Trebuchet MS'"
         y="92.149086"
         x="173.68311"
         id="tspan4328"
         sodipodi:role="line">Elem. N</tspan></text>
    <path
       style="opacity:0.99959998;fill:#000000;stroke:none;stroke-width:1;stroke-miterlimit:4;stroke-dasharray:none;stroke-opacity:1"
       id="path3895"
       d="m 158.62961,94.372684 c 0,0.57999 0,1.159979 0,1.739969 0,0.621442 -1.9146,0.621442 -1.9146,0 l 0,0 c 0,-0.57999 0,-1.159979 0,-1.739969 0,-0.621442 1.9146,-0.621442 1.9146,0 z"
       inkscape:connector-curvature="0" />
    <path
       inkscape:connector-curvature="0"
       d="m 162.25469,94.372684 c 0,0.57999 0,1.159979 0,1.739969 0,0.621442 -1.9146,0.621442 -1.9146,0 l 0,0 c 0,-0.57999 0,-1.159979 0,-1.739969 0,-0.621442 1.9146,-0.621442 1.9146,0 z"
       id="path3897"
       style="opacity:0.99959998;fill:#000000;stroke:none;stroke-width:1;stroke-miterlimit:4;stroke-dasharray:none;stroke-opacity:1" />
    <path
       style="opacity:0.99959998;fill:#000000;stroke:none;stroke-width:1;stroke-miterlimit:4;stroke-dasharray:none;stroke-opacity:1"
       id="path3899"
       d="m 165.77619,94.372684 c 0,0.57999 0,1.159979 0,1.739969 0,0.621442 -1.9146,0.621442 -1.9146,0 l 0,0 c 0,-0.57999 0,-1.159979 0,-1.739969 0,-0.621442 1.9146,-0.621442 1.9146,0 z"
       inkscape:connector-curvature="0" />
    <text
       sodipodi:linespacing="125%"
       id="text4359"
       y="76.800385"
       x="3.8687913"
       style="font-style:normal;font-variant:normal;font-weight:normal;font-stretch:normal;font-size:15px;line-height:125%;font-family:'Trebuchet MS';-inkscape-font-specification:'Trebuchet MS';letter-spacing:0px;word-spacing:0px;fill:#000000;fill-opacity:1;stroke:none;stroke-width:1px;stroke-linecap:butt;stroke-linejoin:miter;stroke-opacity:1"
       xml:space="preserve"><tspan
         style="font-size:10px"
         y="76.800385"
         x="3.8687913"
         id="tspan4361"
         sodipodi:role="line">Word</tspan></text>
    <text
       xml:space="preserve"
       style="font-style:normal;font-variant:normal;font-weight:normal;font-stretch:normal;font-size:15px;line-height:125%;font-family:'Trebuchet MS';-inkscape-font-specification:'Trebuchet MS';letter-spacing:0px;word-spacing:0px;fill:#000000;fill-opacity:1;stroke:none;stroke-width:1px;stroke-linecap:butt;stroke-linejoin:miter;stroke-opacity:1"
       x="100.5909"
       y="75.285156"
       id="text4363"
       sodipodi:linespacing="125%"><tspan
         sodipodi:role="line"
         id="tspan4365"
         x="100.5909"
         y="75.285156"
         style="font-size:10px">Word</tspan></text>
    <text
       sodipodi:linespacing="125%"
       id="text4367"
       y="75.537697"
       x="168.52367"
       style="font-style:normal;font-variant:normal;font-weight:normal;font-stretch:normal;font-size:15px;line-height:125%;font-family:'Trebuchet MS';-inkscape-font-specification:'Trebuchet MS';letter-spacing:0px;word-spacing:0px;fill:#000000;fill-opacity:1;stroke:none;stroke-width:1px;stroke-linecap:butt;stroke-linejoin:miter;stroke-opacity:1"
       xml:space="preserve"><tspan
         style="font-size:10px"
         y="75.537697"
         x="168.52367"
         id="tspan4369"
         sodipodi:role="line">Word</tspan></text>
    <path
       style="fill:#d42aff;fill-opacity:1;fill-rule:nonzero;stroke:none;stroke-width:1px;stroke-linecap:butt;stroke-linejoin:miter;stroke-opacity:1"
       id="path3494"
       d="m 55.464907,101.5029 c 0.789508,0.51891 1.531958,1.10438 2.404855,1.47894 0.535194,0.20924 1.110441,0.21531 1.676519,0.22722 0.608829,0.0144 1.217912,-0.0296 1.824634,0.0272 0.501332,0.0858 1.004125,0.15308 1.511603,0.18712 0.466866,0.0106 0.915224,0.15333 1.375727,0.21775 0.719101,0.11205 1.252663,0.54045 1.719898,1.06874 0.486919,0.58238 0.870832,1.24048 1.235469,1.9035 0.32003,0.5603 0.4666,1.17818 0.55817,1.80981 0.0035,0.014 0.02485,0.0431 0.01042,0.0421 -0.412849,-0.0276 -0.838275,-0.007 -1.235106,-0.12388 -0.07651,-0.0226 0.0041,-0.15951 0.0052,-0.23928 0.0046,-0.34829 0.0063,-0.6875 0.03256,-1.03543 0.09668,-0.69533 0.33358,-1.36014 0.64048,-1.9884 0.301622,-0.52045 0.816958,-0.7838 1.331328,-1.04703 0.423472,-0.20474 0.840275,-0.3885 1.302372,-0.48894 0.559706,-0.15424 1.132024,-0.24367 1.708975,-0.2991 0.538807,-0.0436 1.079701,-0.046 1.619906,-0.048 0.506507,-4.8e-4 1.013014,9.5e-4 1.51952,0.002 0.504594,6.3e-4 1.009188,7.4e-4 1.513783,8.1e-4 0.456371,-0.011 0.923464,-0.0825 1.366609,-0.19548 0.408393,-0.0682 0.770426,-0.2164 1.124532,-0.42046 0.317273,-0.25214 0.641506,-0.50385 0.952597,-0.76608 0.210948,-0.1961 0.350475,-0.43461 0.509162,-0.67007 0.502817,-0.73781 1.546243,-0.0267 1.043426,0.71109 l 0,0 c -0.228249,0.32939 -0.440681,0.66281 -0.746193,0.93064 -0.369597,0.30347 -0.740031,0.61144 -1.128697,0.88855 -0.457865,0.26368 -0.93575,0.45622 -1.45789,0.55361 -0.543425,0.12694 -1.10522,0.22542 -1.66373,0.23089 -0.50511,-7e-5 -1.010219,-1.8e-4 -1.515328,-8.1e-4 -0.504349,-6.9e-4 -1.008698,-0.002 -1.513048,-0.002 -0.501955,0.002 -1.004549,0.003 -1.505304,0.0424 -0.53063,0.0497 -1.055487,0.136 -1.569975,0.27804 -0.354978,0.0694 -0.662185,0.22804 -0.988689,0.37865 -0.273468,0.13767 -0.56619,0.25825 -0.775109,0.48831 -0.250108,0.47416 -0.412165,0.99718 -0.5101,1.52264 -0.02813,0.32278 -0.02395,0.63981 -0.02884,0.96351 -0.0014,0.0943 0.07834,0.24255 -0.0069,0.28274 -1.24853,0.58836 -1.179999,0.71305 -1.285659,0.18933 -0.06913,-0.48187 -0.166667,-0.95441 -0.414842,-1.38167 -0.322099,-0.58574 -0.656774,-1.16942 -1.08428,-1.68617 -0.255014,-0.30612 -0.535235,-0.57229 -0.942711,-0.64445 -0.429962,-0.0621 -0.849169,-0.18951 -1.283191,-0.20803 -0.522912,-0.0359 -1.042255,-0.0993 -1.558451,-0.19118 -0.568399,-0.0716 -1.148229,0.0146 -1.719587,-0.0205 -0.731166,-0.0162 -1.468198,-0.0478 -2.15393,-0.33219 -0.946112,-0.41767 -1.771784,-1.02348 -2.624238,-1.60193 -0.731458,-0.51202 -0.0074,-1.54646 0.724105,-1.03444 z"
       inkscape:connector-curvature="0" />
    <path
       style="fill:#000000;fill-opacity:1;fill-rule:nonzero;stroke:none;stroke-width:1px;stroke-linecap:butt;stroke-linejoin:miter;stroke-opacity:1"
       id="path3496"
       d="m 85.555932,100.75535 c 0.259634,0.99969 0.390343,2.03123 0.714416,3.01364 0.13279,0.39046 0.223507,0.79584 0.54937,1.07102 0.272506,0.24187 0.641474,0.32861 0.984366,0.42701 0.65627,0.11759 1.309722,0.25291 1.969361,0.35191 0.683762,0.1086 1.279329,0.38871 1.811565,0.82173 0.515182,0.38174 0.74833,0.9461 0.945429,1.53296 0.246718,0.54117 0.340657,1.12636 0.486484,1.69679 0.150412,0.51246 0.218787,1.04059 0.269016,1.57048 0.01297,0.1944 0.179469,0.30681 -1.234921,-0.0906 -0.02048,-0.006 0.0033,-0.68608 0.0033,-0.74124 -0.0012,-0.49546 -0.0027,-0.99092 -0.0035,-1.48639 -0.01319,-0.5748 0.121275,-1.13835 0.278722,-1.68686 0.188199,-0.49683 0.414143,-0.96535 0.7055,-1.40896 0.331651,-0.43587 0.770804,-0.74651 1.276837,-0.94395 0.383529,-0.22161 0.82101,-0.27798 1.240412,-0.3906 0.324727,-0.0784 0.649133,-0.21575 0.898182,-0.44378 0.139696,-0.26463 0.238241,-0.54396 0.304485,-0.83614 0.05678,-0.28919 0.07116,-0.58381 0.085,-0.87742 0.04302,-0.89182 1.30424,-0.83098 1.261224,0.0608 l 0,0 c -0.01825,0.37097 -0.03978,0.74298 -0.117473,1.10735 -0.134593,0.55322 -0.327389,1.10524 -0.732272,1.52151 -0.410046,0.32239 -0.868148,0.57738 -1.382603,0.69001 -0.382866,0.0967 -0.772698,0.15238 -1.121535,0.35347 -0.260153,0.0815 -0.473432,0.25466 -0.656861,0.45191 -0.221855,0.33777 -0.393717,0.68912 -0.547338,1.06455 -0.125072,0.43458 -0.242868,0.88018 -0.229595,1.33611 7.68e-4,0.49602 0.0022,0.99204 0.0035,1.48806 1.6e-5,0.0766 0.04664,0.73803 -0.0036,0.76674 -1.129014,0.64538 -1.21206,0.82487 -1.284589,0.18435 -0.04411,-0.46665 -0.101351,-0.93182 -0.236779,-1.38261 -0.133593,-0.54156 -0.226721,-1.09341 -0.460111,-1.60607 -0.119008,-0.36463 -0.220708,-0.71709 -0.544943,-0.95197 -0.354185,-0.28959 -0.738484,-0.48306 -1.201741,-0.55172 -0.715693,-0.10824 -1.426257,-0.2501 -2.136271,-0.38875 -0.540643,-0.16086 -1.092689,-0.32835 -1.507806,-0.73177 -0.443338,-0.45043 -0.708109,-0.97813 -0.872042,-1.58868 -0.323796,-1.01312 -0.484723,-2.06524 -0.738233,-3.09673 -0.21655,-0.86619 1.00844,-1.172442 1.22499,-0.30624 z"
       inkscape:connector-curvature="0" />
    <text
       sodipodi:linespacing="125%"
       id="text3498"
       y="121.21693"
       x="90.322205"
       style="font-style:normal;font-variant:normal;font-weight:normal;font-stretch:normal;font-size:15px;line-height:125%;font-family:'Trebuchet MS';-inkscape-font-specification:'Trebuchet MS';letter-spacing:0px;word-spacing:0px;fill:#000000;fill-opacity:1;stroke:none;stroke-width:1px;stroke-linecap:butt;stroke-linejoin:miter;stroke-opacity:1"
       xml:space="preserve"><tspan
         style="font-size:10px"
         y="121.21693"
         x="90.322205"
         id="tspan3500"
         sodipodi:role="line">TAG_PRIMARY_HEADER</tspan></text>
    <text
       xml:space="preserve"
       style="font-style:normal;font-variant:normal;font-weight:normal;font-stretch:normal;font-size:15px;line-height:125%;font-family:'Trebuchet MS';-inkscape-font-specification:'Trebuchet MS';letter-spacing:0px;word-spacing:0px;fill:#d42aff;fill-opacity:1;stroke:none;stroke-width:1px;stroke-linecap:butt;stroke-linejoin:miter;stroke-opacity:1"
       x="2.8753009"
       y="118.43901"
       id="text3502"
       sodipodi:linespacing="125%"><tspan
         sodipodi:role="line"
         id="tspan3504"
         x="2.8753009"
         y="118.43901"
         style="font-size:10px;fill:#d42aff">ARITYVAL_SUBTAG</tspan></text>
  </g>
</svg>
