<?xml version="1.0" encoding="UTF-8" standalone="no"?>
<!-- Created with Inkscape (http://www.inkscape.org/) -->

<svg
   xmlns:dc="http://purl.org/dc/elements/1.1/"
   xmlns:cc="http://creativecommons.org/ns#"
   xmlns:rdf="http://www.w3.org/1999/02/22-rdf-syntax-ns#"
   xmlns:svg="http://www.w3.org/2000/svg"
   xmlns="http://www.w3.org/2000/svg"
   xmlns:sodipodi="http://sodipodi.sourceforge.net/DTD/sodipodi-0.dtd"
   xmlns:inkscape="http://www.inkscape.org/namespaces/inkscape"
   width="210mm"
   height="297mm"
   viewBox="0 0 744.09448819 1052.3622047"
   id="svg2"
   version="1.1"
   inkscape:version="0.91 r13725"
   sodipodi:docname="memory-layout-list.svg"
   inkscape:export-filename="/home/kv/proj/beam-wisdoms/docs/source/_static/img/memory-layout-list.png"
   inkscape:export-xdpi="180.03604"
   inkscape:export-ydpi="180.03604">
  <defs
     id="defs4" />
  <sodipodi:namedview
     id="base"
     pagecolor="#ffffff"
     bordercolor="#666666"
     borderopacity="1.0"
     inkscape:pageopacity="0.0"
     inkscape:pageshadow="2"
     inkscape:zoom="2.8"
     inkscape:cx="158.41284"
     inkscape:cy="876.64685"
     inkscape:document-units="px"
     inkscape:current-layer="layer1"
     showgrid="false"
     showguides="true"
     inkscape:guide-bbox="true"
     inkscape:window-width="2560"
     inkscape:window-height="1277"
     inkscape:window-x="0"
     inkscape:window-y="0"
     inkscape:window-maximized="1" />
  <metadata
     id="metadata7">
    <rdf:RDF>
      <cc:Work
         rdf:about="">
        <dc:format>image/svg+xml</dc:format>
        <dc:type
           rdf:resource="http://purl.org/dc/dcmitype/StillImage" />
        <dc:title />
      </cc:Work>
    </rdf:RDF>
  </metadata>
  <g
     inkscape:label="Layer 1"
     inkscape:groupmode="layer"
     id="layer1">
    <rect
       style="opacity:0.99959998;fill:#999999;stroke:#000000;stroke-width:0.91770375;stroke-miterlimit:4;stroke-dasharray:none;stroke-opacity:1"
       id="rect3340"
       width="177.92862"
       height="20.285347"
       x="61.013611"
       y="41.158356" />
    <rect
       style="opacity:0.9996;fill:#ffff00;stroke:#000000;stroke-width:1;stroke-miterlimit:4;stroke-dasharray:none;stroke-opacity:1"
       id="rect3342"
       width="12.12183"
       height="12.12183"
       x="223.60085"
       y="44.735039" />
    <rect
       style="opacity:0.9996;fill:#ffff00;stroke:#000000;stroke-width:1;stroke-miterlimit:4;stroke-dasharray:none;stroke-opacity:1"
       id="rect3342-0"
       width="12.12183"
       height="12.12183"
       x="208.44858"
       y="44.944248" />
    <text
       xml:space="preserve"
       style="font-style:normal;font-variant:normal;font-weight:normal;font-stretch:normal;font-size:15px;line-height:125%;font-family:'Trebuchet MS';-inkscape-font-specification:'Trebuchet MS';letter-spacing:0px;word-spacing:0px;fill:#000000;fill-opacity:1;stroke:none;stroke-width:1px;stroke-linecap:butt;stroke-linejoin:miter;stroke-opacity:1"
       x="186.31006"
       y="27.438618"
       id="text3391"
       sodipodi:linespacing="125%"><tspan
         sodipodi:role="line"
         id="tspan3393"
         x="186.31006"
         y="27.438618"
         style="font-size:10px">TAG_PRIMARY_LIST</tspan></text>
    <text
       xml:space="preserve"
       style="font-style:normal;font-variant:normal;font-weight:normal;font-stretch:normal;font-size:15px;line-height:125%;font-family:'Trebuchet MS';-inkscape-font-specification:'Trebuchet MS';letter-spacing:0px;word-spacing:0px;fill:#000000;fill-opacity:1;stroke:none;stroke-width:1px;stroke-linecap:butt;stroke-linejoin:miter;stroke-opacity:1"
       x="60.268906"
       y="37.083183"
       id="text3391-1"
       sodipodi:linespacing="125%"><tspan
         sodipodi:role="line"
         id="tspan3393-5"
         x="60.268906"
         y="37.083183"
         style="font-size:10px">32 or 64bit Word</tspan></text>
    <text
       sodipodi:linespacing="125%"
       id="text3519"
       y="54.226044"
       x="82.054619"
       style="font-style:normal;font-variant:normal;font-weight:normal;font-stretch:normal;font-size:15px;line-height:125%;font-family:'Trebuchet MS';-inkscape-font-specification:'Trebuchet MS';letter-spacing:0px;word-spacing:0px;fill:#000000;fill-opacity:1;stroke:none;stroke-width:1px;stroke-linecap:butt;stroke-linejoin:miter;stroke-opacity:1"
       xml:space="preserve"><tspan
         style="font-size:10px"
         y="54.226044"
         x="82.054619"
         id="tspan3521"
         sodipodi:role="line">Pointer to the heap</tspan></text>
    <rect
       style="opacity:0.99959998;fill:#f4d7d7;stroke:#000000;stroke-width:1;stroke-miterlimit:4;stroke-dasharray:none;stroke-opacity:1"
       id="rect3523"
       width="127.14286"
       height="17.857143"
       x="8.5714283"
       y="92.005066" />
    <rect
       y="92.005066"
       x="140.35715"
       height="17.857143"
       width="127.14286"
       id="rect3525"
       style="opacity:0.99959998;fill:#f4d7d7;stroke:#000000;stroke-width:1;stroke-miterlimit:4;stroke-dasharray:none;stroke-opacity:1" />
    <text
       xml:space="preserve"
       style="font-style:normal;font-variant:normal;font-weight:normal;font-stretch:normal;font-size:15px;line-height:125%;font-family:'Trebuchet MS';-inkscape-font-specification:'Trebuchet MS';letter-spacing:0px;word-spacing:0px;fill:#000000;fill-opacity:1;stroke:none;stroke-width:1px;stroke-linecap:butt;stroke-linejoin:miter;stroke-opacity:1"
       x="30.268906"
       y="119.58319"
       id="text3531"
       sodipodi:linespacing="125%"><tspan
         sodipodi:role="line"
         id="tspan3533"
         x="30.268906"
         y="119.58319"
         style="font-size:10px">CAR (or the head)</tspan></text>
    <text
       sodipodi:linespacing="125%"
       id="text3535"
       y="119.22604"
       x="168.84033"
       style="font-style:normal;font-variant:normal;font-weight:normal;font-stretch:normal;font-size:15px;line-height:125%;font-family:'Trebuchet MS';-inkscape-font-specification:'Trebuchet MS';letter-spacing:0px;word-spacing:0px;fill:#000000;fill-opacity:1;stroke:none;stroke-width:1px;stroke-linecap:butt;stroke-linejoin:miter;stroke-opacity:1"
       xml:space="preserve"><tspan
         style="font-size:10px"
         y="119.22604"
         x="168.84033"
         id="tspan3537"
         sodipodi:role="line">CDR (or the tail)</tspan></text>
    <text
       sodipodi:linespacing="125%"
       id="text3555"
       y="88.687622"
       x="8.5462704"
       style="font-style:normal;font-variant:normal;font-weight:normal;font-stretch:normal;font-size:15px;line-height:125%;font-family:'Trebuchet MS';-inkscape-font-specification:'Trebuchet MS';letter-spacing:0px;word-spacing:0px;fill:#000000;fill-opacity:1;stroke:none;stroke-width:1px;stroke-linecap:butt;stroke-linejoin:miter;stroke-opacity:1"
       xml:space="preserve"><tspan
         style="font-size:10px"
         y="88.687622"
         x="8.5462704"
         id="tspan3557"
         sodipodi:role="line">32 or 64bit Word</tspan></text>
    <text
       xml:space="preserve"
       style="font-style:normal;font-variant:normal;font-weight:normal;font-stretch:normal;font-size:15px;line-height:125%;font-family:'Trebuchet MS';-inkscape-font-specification:'Trebuchet MS';letter-spacing:0px;word-spacing:0px;fill:#000000;fill-opacity:1;stroke:none;stroke-width:1px;stroke-linecap:butt;stroke-linejoin:miter;stroke-opacity:1"
       x="140.37117"
       y="88.687622"
       id="text3559"
       sodipodi:linespacing="125%"><tspan
         sodipodi:role="line"
         id="tspan3561"
         x="140.37117"
         y="88.687622"
         style="font-size:10px">32 or 64bit Word</tspan></text>
    <path
       style="opacity:0.99959998;fill:#000000;stroke:none;stroke-width:1;stroke-miterlimit:4;stroke-dasharray:none;stroke-opacity:1"
       id="path4003"
       d="m 235.58171,39.418561 c 0.099,-1.222298 0.27769,-2.45048 0.22858,-3.678689 -0.0698,-0.669233 -0.39315,-0.861027 -0.992,-0.987387 -1.1283,-0.126677 -2.2691,-0.09249 -3.4028,-0.0882 -1.25262,-0.05055 -2.49433,0.105535 -3.73762,0.229321 -1.07598,0.157329 -1.79331,0.107275 -2.76191,-0.397474 -0.75657,-0.451247 -1.00597,-1.195445 -1.12518,-2.019623 -0.0102,-0.123692 -0.0136,-0.248122 -0.0305,-0.371076 -0.0824,-0.600186 -0.14928,0.205601 0.53171,0.02308 2.1e-4,0.133442 0.008,0.01716 -0.14085,0.261341 -0.23563,0.38608 -0.46381,0.626793 -0.85052,0.869969 -0.82329,0.513615 -1.78627,0.580184 -2.72889,0.645368 -1.86703,0.0793 -3.73651,0.06886 -5.60481,0.07011 -1.719,-2.6e-4 -3.438,-0.0028 -5.157,-0.0046 -0.69636,0.08284 -1.59789,-0.226765 -2.20439,0.227125 -0.24925,0.540705 -0.26582,1.138532 -0.29126,1.722623 -0.0414,0.396806 0.0288,0.78648 0.086,1.177012 0.10847,0.749808 -0.95192,0.903216 -1.06039,0.153408 l 0,0 c -0.0653,-0.456545 -0.13882,-0.915089 -0.0959,-1.378193 0.0427,-0.935874 0.0872,-1.901208 0.80603,-2.590974 0.86462,-0.479686 1.79757,-0.398947 2.76108,-0.382429 1.71839,0.0018 3.43679,0.0043 5.15518,0.0046 1.84434,-0.0012 3.6898,0.0089 5.53293,-0.06765 0.77529,-0.0516 1.57842,-0.0792 2.2581,-0.499817 0.39548,-0.196687 0.5338,-0.619826 0.77823,-0.966589 0.10598,-0.07732 0.19142,-0.197263 0.31794,-0.231958 0.80339,-0.220313 0.97657,0.609456 0.9986,1.191104 0.0623,0.473065 0.13394,0.937542 0.56238,1.218735 0.77726,0.41273 1.27353,0.408388 2.15735,0.279753 1.27713,-0.127135 2.55309,-0.28464 3.83971,-0.234583 1.21606,-0.0046 2.44197,-0.04622 3.64984,0.116108 1.13939,0.281608 1.67117,0.794234 1.81977,1.993054 0.0403,1.281225 -0.12057,2.560258 -0.23447,3.834851 -0.0837,0.752981 -1.14854,0.634661 -1.06487,-0.118319 z"
       inkscape:connector-curvature="0" />
    <path
       style="fill:#ff0000;stroke:none;stroke-width:1;stroke-miterlimit:4;stroke-dasharray:none"
       id="path4948"
       d="m 74.094015,51.693021 c -1.729329,-0.750708 -3.521823,-1.34001 -5.322658,-1.89146 -2.032432,-0.602789 -4.058338,-1.226405 -6.093445,-1.820542 -2.027263,-0.537878 -4.052568,-1.091601 -6.116858,-1.468766 -1.844794,-0.366363 -3.718655,-0.51019 -5.593997,-0.595383 -1.413957,-0.0523 -2.82909,-0.05354 -4.243805,-0.05267 -0.917193,-0.0078 -1.830547,-0.0095 -2.744014,0.07531 -0.950845,0.100651 -1.853312,0.402457 -2.76038,0.684832 -0.815375,0.224646 -1.646882,0.406743 -2.395581,0.810699 -0.546558,0.295636 -1.074114,0.632695 -1.572012,1.004705 -0.63578,0.435839 -1.129248,1.017522 -1.632776,1.592369 -0.482184,0.665997 -0.964517,1.331226 -1.401458,2.028371 -0.433322,0.640729 -0.864085,1.273854 -1.187036,1.978743 -0.276532,0.595663 -0.531641,1.205673 -0.698414,1.84204 -0.207526,0.721862 -0.374057,1.452966 -0.541135,2.184913 -0.164811,0.666008 -0.270569,1.342861 -0.323266,2.026347 -0.08913,0.535291 -0.194794,1.065612 -0.239091,1.607049 -0.09463,0.604779 -0.191667,1.207888 -0.338517,1.802256 -0.178104,0.57196 -0.554747,1.336711 -1.290484,1.26975 -0.187967,-0.01711 -0.348075,-0.146084 -0.522113,-0.219126 -0.921923,-0.944514 -1.52523,-2.15988 -2.135179,-3.317896 -1.059779,-1.76812 -1.76258,-3.694473 -2.361089,-5.65656 -0.07464,-0.26786 -0.149283,-0.53572 -0.223925,-0.803579 -0.239478,-0.860142 0.976946,-1.198815 1.216424,-0.338673 l 0,0 c 0.07177,0.258011 0.14354,0.516022 0.21531,0.774033 0.574827,1.886615 1.247864,3.738592 2.270716,5.436796 0.515618,0.980951 1.045873,1.957759 1.708888,2.849135 -0.219413,0.01733 -0.162338,-0.0112 -0.381204,0.136479 -0.01766,0.01191 0.0389,0.02414 0.119664,-0.08305 0.09133,-0.121191 0.104798,-0.202428 0.157245,-0.350515 0.131164,-0.529578 0.214978,-1.066602 0.305988,-1.604544 0.04606,-0.538579 0.135163,-1.069465 0.238508,-1.599854 0.05881,-0.74493 0.171812,-1.483233 0.351167,-2.209354 0.170775,-0.746412 0.341012,-1.491978 0.551882,-2.228375 0.190053,-0.7055 0.462292,-1.386034 0.772425,-2.047003 0.349805,-0.751555 0.795076,-1.438955 1.264084,-2.120804 0.473874,-0.752477 0.991436,-1.474421 1.520804,-2.188601 0.562267,-0.641828 1.123501,-1.284278 1.829995,-1.774254 0.55131,-0.407022 1.129381,-0.782886 1.733578,-1.106633 0.823672,-0.4303 1.713458,-0.671876 2.611386,-0.900521 0.991341,-0.308424 1.980001,-0.63062 3.019396,-0.73651 0.951956,-0.08764 1.90373,-0.0901 2.859445,-0.08067 1.434123,-8.7e-4 2.868673,5.61e-4 4.302016,0.05397 1.932387,0.08821 3.863147,0.238079 5.764143,0.614756 2.10649,0.387062 4.174656,0.946965 6.243133,1.498684 2.040441,0.595696 4.071644,1.220982 6.109414,1.825319 1.855083,0.56845 3.701479,1.176455 5.481967,1.952304 0.810678,0.37416 0.281537,1.520631 -0.529141,1.146472 z"
       inkscape:connector-curvature="0" />
    <path
       style="fill:#ff0000;stroke:none;stroke-width:1;stroke-miterlimit:4;stroke-dasharray:none"
       id="path4950"
       d="m 29.250935,63.961965 c 1.117344,-1.854145 2.205782,-3.724405 3.43814,-5.505392 0.909357,-1.338708 1.851135,-2.659236 2.932212,-3.865699 0.596849,-0.664053 1.535961,0.180018 0.939112,0.844071 l 0,0 c -1.049344,1.163468 -1.950311,2.449073 -2.833357,3.740663 -1.221283,1.760903 -2.292851,3.615024 -3.400726,5.44813 -0.467944,0.760409 -1.543325,0.09864 -1.075381,-0.661773 z"
       inkscape:connector-curvature="0" />
    <rect
       y="94.487968"
       x="127.07629"
       height="12.401938"
       width="6.057992"
       id="rect5882"
       style="opacity:0.99959998;fill:#ffff00;stroke:#000000;stroke-width:1;stroke-miterlimit:4;stroke-dasharray:none;stroke-opacity:1" />
    <rect
       y="94.449471"
       x="119.37754"
       height="12.401938"
       width="6.057992"
       id="rect5884"
       style="opacity:0.99959998;fill:#ffff00;stroke:#000000;stroke-width:1;stroke-miterlimit:4;stroke-dasharray:none;stroke-opacity:1" />
    <rect
       style="opacity:0.99959998;fill:#ffff00;stroke:#000000;stroke-width:1;stroke-miterlimit:4;stroke-dasharray:none;stroke-opacity:1"
       id="rect5886"
       width="6.057992"
       height="12.401938"
       x="257.79059"
       y="94.487968" />
    <rect
       style="opacity:0.99959998;fill:#ffff00;stroke:#000000;stroke-width:1;stroke-miterlimit:4;stroke-dasharray:none;stroke-opacity:1"
       id="rect5888"
       width="6.057992"
       height="12.401938"
       x="250.09183"
       y="94.449471" />
    <text
       xml:space="preserve"
       style="font-style:normal;font-variant:normal;font-weight:normal;font-stretch:normal;font-size:15px;line-height:125%;font-family:'Trebuchet MS';-inkscape-font-specification:'Trebuchet MS';letter-spacing:0px;word-spacing:0px;fill:#000000;fill-opacity:1;stroke:none;stroke-width:1px;stroke-linecap:butt;stroke-linejoin:miter;stroke-opacity:1"
       x="142.05461"
       y="103.8689"
       id="text5890"
       sodipodi:linespacing="125%"><tspan
         sodipodi:role="line"
         id="tspan5892"
         x="142.05461"
         y="103.8689"
         style="font-size:10px">Pointer to another cons</tspan></text>
    <path
       style="fill:#e3dbdb;stroke:none;stroke-width:1;stroke-miterlimit:4;stroke-dasharray:none"
       id="path5968"
       d="m 274.9604,85.823537 c -2.03606,0.789939 -4.19568,1.134673 -6.35634,1.35821 -1.97492,0.153804 -3.95899,0.225269 -5.93846,0.142692 -1.62403,-0.134654 -3.24962,-0.23222 -4.87851,-0.277657 -1.95458,-0.05209 -3.90748,0.113349 -5.85148,0.298766 -1.65144,0.166845 -3.30707,0.282997 -4.96558,0.346432 -0.8817,0.03052 -1.764,0.03191 -2.64611,0.03138 -1.16857,0.06436 -2.31051,-0.111778 -3.45078,-0.350387 -1.12502,-0.245987 -2.16928,-0.751095 -3.30135,-0.963119 -0.84728,-0.246831 -1.71144,-0.366619 -2.58843,-0.427737 -0.99708,-3.01e-4 -1.97755,-0.179273 -2.96402,-0.297121 -0.75002,-0.08076 -1.50526,-0.09404 -2.25889,-0.105478 -0.89961,0.02526 -1.77827,-0.189553 -2.66645,-0.291673 -0.48982,-0.01547 -0.94936,-0.242075 -1.43205,-0.295852 -0.0822,-0.0092 0.15896,0.05362 0.24165,0.05687 0.26317,0.01034 0.53289,0.04101 0.78994,-0.01633 0.39602,-0.08834 0.76286,-0.276757 1.14429,-0.415136 0.81596,-0.537853 1.41342,-1.380415 1.46489,-1.971102 0.0579,0.303542 -0.001,-0.133548 -0.0204,-0.196501 -0.0598,-0.19463 -0.15704,-0.376025 -0.22283,-0.568697 -0.009,-0.02547 0.0652,0.08554 0.0502,0.06323 -0.21976,-0.325968 -0.30982,-0.403289 0.058,0.0041 -1.02794,-0.845628 0.49875,0.115753 0.67645,0.219189 0.0757,0.04118 0.1477,0.08987 0.22699,0.123548 0.0169,0.0072 -0.0108,-0.05501 0.008,-0.05445 0.0637,0.002 0.12585,0.02089 0.18924,0.02773 0.16152,0.01745 0.60358,0.04144 0.70859,0.04782 1.97737,0.07309 3.95705,0.05778 5.93547,0.05781 2.35357,0.0135 4.70782,-0.04532 7.06021,0.03915 2.01066,0.108887 4.0211,0.194653 6.02546,0.390294 1.55486,0.180907 3.12105,0.194858 4.68028,0.310982 1.62451,0.162217 3.25414,0.247661 4.88574,0.287461 2.22255,0.03803 4.44552,0.03736 6.66832,0.03855 1.61762,-0.06878 3.27386,0.147561 4.87541,-0.160172 -0.10048,-0.129477 -0.0559,-0.09294 -0.39978,0.07668 -0.66407,0.327505 -1.10286,0.850886 -1.36238,1.532129 -0.0589,0.0059 0.0121,-1.536864 -0.0434,-1.063774 -0.0874,0.299178 0.20214,0.63288 0.25229,0.872678 0.004,0.01696 -0.0307,-0.01505 -0.30767,-0.253433 -0.91925,-0.686813 -1.7736,-1.445515 -2.56473,-2.27655 -0.51848,-0.530032 -0.94035,-1.169366 -1.49882,-1.661033 -0.15318,-0.134861 -0.34009,-0.225925 -0.50532,-0.345729 -0.53531,-0.40753 -1.08721,-0.822907 -1.76942,-0.919855 -1.09066,-0.123654 -2.19549,-0.09988 -3.29177,-0.104225 -2.04122,-6.44e-4 -4.08244,0.0067 -6.12366,0.01046 -1.90513,0.0032 -3.81027,0.0038 -5.71541,0.0042 -1.39054,2.02e-4 -2.78107,1.44e-4 -4.17161,1e-4 -0.99603,0.0088 -1.98765,0.01421 -2.9804,-0.06713 -1.14964,-0.07417 -2.19413,-0.576885 -3.28867,-0.87575 -0.97026,-0.315314 -1.9096,-0.730022 -2.82568,-1.177667 -0.23201,0.01268 -0.65068,-0.05816 -0.9196,-0.09814 -1.20278,-0.286235 -2.39517,-0.616036 -3.58439,-0.953069 -0.70666,-0.260018 -1.45042,-0.343892 -2.18404,-0.485323 -0.76371,-0.136388 -1.50715,-0.34342 -2.25362,-0.550524 -0.79865,-0.234712 -1.52987,-0.584765 -2.24558,-1.007124 -0.4271,-0.252041 -0.17964,-0.148185 -0.37531,-0.226629 -0.0388,4.89e-4 0.16158,0.10076 0.11629,0.08487 -0.84125,-0.295243 -1.86606,-0.775296 -2.38376,-1.539368 -0.39856,-0.588213 -0.62701,-1.275232 -0.94051,-1.912848 0.1143,-0.881641 -0.0383,-1.841805 0.34291,-2.644923 1.0756,-2.265725 3.61675,-2.569992 5.75386,-2.87997 2.24279,-0.255521 4.50321,-0.277657 6.75775,-0.303527 2.18504,-0.01619 4.37018,-0.01188 6.55527,-0.0097 1.20016,0.0014 2.40032,0.0028 3.60048,0.0036 1.0068,4.21e-4 2.01359,3.69e-4 3.02039,3.71e-4 1.12443,-9e-6 2.24885,-2.4e-5 3.37328,-3.2e-5 0.99083,-6e-6 1.98167,-7e-6 2.9725,-8e-6 1.30061,0 2.60122,0 3.90183,0 1.71155,0 3.4231,0 5.13465,0 1.76161,0 3.52322,0 5.28483,0 2.07466,-0.02227 4.14565,-0.0033 6.21748,0.107352 2.1868,0.133591 4.37699,0.192493 6.56728,0.227187 1.93823,0.02526 3.87668,0.02481 5.81504,0.02514 1.81188,-5.2e-4 3.62376,-0.0015 5.43564,-0.002 2.20337,-5.08e-4 4.40675,-4.95e-4 6.61012,-5.27e-4 2.21476,-2e-5 4.42951,-9e-6 6.64427,-2e-6 1.23403,0.06484 2.48929,-0.106396 3.71914,0.05493 0.3408,0.0447 0.67571,0.126368 1.01357,0.189552 1.31723,0.337623 2.37725,1.09746 3.40127,1.947991 1.11865,0.956578 1.7694,2.207829 2.16781,3.602997 0.39231,2.247651 -0.37358,4.263457 -2.35242,5.497976 -0.32812,0.204698 -0.69115,0.347216 -1.03672,0.520824 -1.72663,0.644023 -3.57993,0.650464 -5.39737,0.68513 -1.78547,0.07464 -3.56439,-0.09274 -5.34308,-0.218613 -1.29196,-0.09451 -2.58759,-0.117763 -3.88246,-0.133102 -1.52066,-0.125151 -3.0397,-0.245172 -4.56479,-0.302028 -2.17445,-0.06361 -4.35023,-0.05821 -6.5254,-0.06163 -2.40912,-0.0019 -4.81825,-1.51e-4 -7.22737,6.09e-4 -2.52083,7.62e-4 -5.04165,9.29e-4 -7.56248,10e-4 -2.0523,7.2e-5 -4.10461,6.3e-5 -6.15691,5.7e-5 -1.72312,-0.06594 -3.44075,-0.218851 -5.1634,-0.296473 -1.47264,-0.148499 -2.9508,-0.253494 -4.42064,-0.426923 -1.02289,-0.159838 -2.05143,-0.26802 -3.08539,-0.314887 -1.06652,-0.03809 -2.13397,-0.03587 -3.20102,-0.03669 -1.14043,4.26e-4 -2.28087,0.0019 -3.4213,0.0027 -1.2229,7.1e-4 -2.44581,7.56e-4 -3.66871,8.15e-4 -1.12365,-0.05408 -2.22533,0.169646 -3.32523,0.361891 -0.63263,0.123828 -1.21434,0.383987 -1.80282,0.634809 0.3111,-0.05003 -0.45476,0.362404 -0.49501,0.396191 -0.0831,0.06977 0.17935,-0.122863 0.26236,-0.192762 0.71658,-0.787083 0.72322,-1.982389 0.29613,-2.924934 -0.12532,-0.276574 -0.33598,-0.505878 -0.50397,-0.758817 -0.23482,-0.192483 -0.46964,-0.384966 -0.70447,-0.577449 0.005,-0.0058 0.008,-0.01983 0.0147,-0.01733 0.84402,0.294232 1.67944,0.558035 2.54768,0.780455 2.10674,0.395386 4.24781,0.572739 6.38482,0.708907 2.3387,0.125024 4.68104,0.150564 7.02254,0.164088 1.33136,0.0053 2.66273,0.0019 3.99408,-7.55e-4 0.94026,-0.0019 1.88053,-0.0025 2.82079,-0.0027 0.75492,-1.6e-4 1.50983,-1.61e-4 2.26475,-1.7e-4 5.55584,-7e-5 5.55594,7.857073 10e-5,7.857143 l 0,0 c -0.75415,9e-6 -1.5083,1e-5 -2.26246,1.69e-4 -0.93585,2.86e-4 -1.8717,8.71e-4 -2.80755,0.0027 -1.35177,0.0027 -2.70356,0.0062 -4.05534,6.37e-4 -2.49471,-0.01457 -4.99032,-0.04346 -7.48188,-0.180199 -2.63104,-0.171035 -5.27111,-0.393076 -7.85373,-0.944646 -1.14911,-0.301098 -2.29905,-0.609315 -3.40231,-1.05525 -0.25595,-0.103456 -0.52606,-0.179261 -0.76469,-0.318084 -0.44826,-0.260777 -0.85755,-0.583408 -1.28633,-0.875112 -0.29774,-0.383325 -0.65992,-0.72435 -0.89324,-1.149975 -1.05073,-1.916838 -0.60971,-4.046174 0.62293,-5.724991 0.91766,-1.003458 1.96306,-1.831141 3.20025,-2.415481 1.14178,-0.486292 2.3027,-0.924631 3.52987,-1.146242 1.5461,-0.270219 3.1007,-0.533414 4.67761,-0.479219 1.22126,-5.9e-5 2.44251,-1.04e-4 3.66376,-8.13e-4 1.14426,-7.75e-4 2.28852,-0.0023 3.43278,-0.0027 1.18935,9.47e-4 2.37918,-6.46e-4 3.56783,0.04554 1.23074,0.06044 2.45737,0.174289 3.67535,0.365258 1.26535,0.168988 2.54686,0.216116 3.81405,0.37578 1.60396,0.0733 3.20415,0.199004 4.80709,0.288388 2.05218,6e-6 4.10435,1.5e-5 6.15653,-5.7e-5 2.52012,-1.16e-4 5.04024,-2.83e-4 7.56036,-0.001 2.41408,-7.62e-4 4.82816,-0.0025 7.24223,-6e-4 2.27006,0.0036 4.54076,-0.0016 6.81001,0.06723 1.45661,0.05579 2.91237,0.136315 4.36175,0.296974 1.44873,0.01747 2.89816,0.04627 4.3436,0.152173 1.54585,0.109575 3.09084,0.269237 4.64275,0.200323 0.65067,-0.01158 1.30062,-0.02468 1.9504,-0.06295 0.17936,-0.01056 0.36818,-0.09759 0.53768,-0.038 0.0234,0.0082 -0.034,0.03616 -0.051,0.05424 -0.99129,0.720053 -1.44513,1.94366 -1.11929,3.138334 0.19132,0.336686 0.25293,0.410379 0.36457,0.449943 -0.10325,-0.08832 -0.21602,-0.166598 -0.30975,-0.264964 -0.0393,-0.04123 0.18847,0.127381 0.14435,0.09138 -0.41572,-0.339231 -0.23186,-0.105162 -0.0415,-0.08125 0.0535,0.0067 -0.0947,-0.05166 -0.14211,-0.07748 0.0891,0.01622 0.17822,0.03244 0.26732,0.04865 0.10454,-0.01114 0.35647,-0.02772 -0.10175,-0.04435 -0.95506,-0.03467 -1.91366,0.02801 -2.86896,-6e-6 -2.21471,-7e-6 -4.42943,-1.8e-5 -6.64414,2e-6 -2.20269,3.1e-5 -4.40539,1.9e-5 -6.60808,5.27e-4 -1.81305,4.96e-4 -3.62609,0.0015 -5.43914,0.002 -1.97961,-3.4e-4 -3.9593,-1.1e-5 -5.93878,-0.02613 -2.28917,-0.03663 -4.57824,-0.09851 -6.86381,-0.237512 -1.93134,-0.104457 -3.86172,-0.115446 -5.79586,-0.09603 -1.76161,0 -3.52322,0 -5.28483,0 -1.71155,0 -3.4231,0 -5.13465,0 -1.30061,0 -2.60122,0 -3.90182,0 -0.99082,10e-7 -1.98164,10e-7 -2.97245,8e-6 -1.12446,8e-6 -2.24891,2.3e-5 -3.37336,3.2e-5 -1.00834,-2e-6 -2.01667,5e-5 -3.025,-3.73e-4 -1.20126,-7.09e-4 -2.40252,-0.0021 -3.60378,-0.0036 -2.15263,-0.0022 -4.30532,-0.0064 -6.45792,0.0092 -1.91867,0.02165 -3.84165,0.03636 -5.7526,0.227421 -0.56275,0.07527 -0.60293,0.07109 -1.13754,0.177229 -0.13694,0.02719 -0.47269,0.214603 -0.40898,0.09037 0.0879,-0.171388 0.37106,-0.141711 0.50587,-0.279291 1.79182,-1.828693 1.29716,-1.30867 1.52389,-3.927821 -0.29399,-0.548719 -0.52378,-1.137027 -0.88199,-1.646156 -0.28068,-0.398935 -2.00786,-1.116416 -0.41102,-0.469789 0.21924,0.08878 0.4289,0.199629 0.64335,0.299443 0.16928,0.09734 0.34028,0.191743 0.50783,0.29203 0.0849,0.05079 0.21547,0.06808 0.24915,0.161057 0.0274,0.0756 -0.14702,-0.06597 -0.22359,-0.09051 -0.14852,-0.04759 0.28055,0.139796 0.43001,0.184333 0.64582,0.187182 0.8929,0.2707 1.7036,0.414549 0.27533,0.0926 -0.0278,-0.0036 0.64151,0.107261 0.72136,0.119502 1.4286,0.307404 2.12638,0.523789 0.87769,0.268903 1.78229,0.45779 2.65436,0.742957 0.38416,0.09084 -0.15077,-0.02992 0.7597,0.09746 0.81278,0.113715 1.60511,0.345789 2.3473,0.696734 0.50229,0.245623 1.01609,0.47624 1.53882,0.683218 0.67145,0.196487 1.3195,0.475442 1.99829,0.620627 -0.18693,0.06281 -0.0739,0.01837 0.36383,0.01838 0.41765,7e-6 0.83531,1.9e-5 1.25297,3.3e-5 0.16348,5e-6 0.32696,1e-5 0.49044,1.6e-5 1.38993,4.5e-5 2.77987,1.02e-4 4.1698,-1e-4 1.90083,-3.78e-4 3.80166,-9.77e-4 5.70248,-0.0041 2.05684,-0.0038 4.11368,-0.01126 6.17052,-0.01041 1.73069,0.0074 3.48337,-0.02981 5.18356,0.343409 1.64878,0.450983 3.19022,1.14109 4.52722,2.22792 1.12381,0.844064 2.14126,1.794519 3.01362,2.899749 0.11079,0.116437 0.18973,0.262289 0.30854,0.370527 0.54552,0.496965 1.16561,0.916736 1.72481,1.39762 1.31446,1.152365 2.37794,2.466476 2.68046,4.244688 0.12158,1.199147 0.15057,2.412818 -0.0261,3.60953 -0.0712,0.295243 -0.11369,0.598932 -0.21362,0.88573 -0.72371,2.07702 -2.41105,3.363557 -4.53549,3.785303 -2.01809,0.286369 -4.04877,0.278401 -6.084,0.253025 -2.28681,-0.0012 -4.57379,-6.19e-4 -6.86032,-0.041 -1.77137,-0.04516 -3.54106,-0.1339 -5.3049,-0.309146 -1.6075,-0.136678 -3.22775,-0.118322 -4.83094,-0.324278 -1.84945,-0.181911 -3.70508,-0.253629 -5.56031,-0.358626 -2.25141,-0.09349 -4.5067,-0.0064 -6.75949,-0.03339 -2.16823,-5.4e-5 -4.33835,0.01976 -6.50488,-0.07848 -1.59847,-0.126233 -3.19931,-0.364394 -4.58729,-1.232949 -0.84735,-0.554792 -1.84825,-0.888441 -2.50054,-1.720613 -0.97386,-1.100145 -1.74305,-2.328524 -1.84165,-3.842453 -0.0559,-1.444412 0.025,-3.013688 0.96409,-4.216607 0.33586,-0.430237 0.78126,-0.762401 1.17189,-1.143602 0.51124,-0.221151 0.99677,-0.515235 1.53371,-0.663454 0.93793,-0.258914 1.97636,-0.103922 2.88189,0.157448 0.64564,0.07917 1.27342,0.227222 1.85385,0.236798 1.02885,0.01637 2.05935,0.04293 3.08241,0.161669 0.86537,0.10607 1.71781,0.271338 2.59349,0.261072 1.20706,0.0916 2.41006,0.237898 3.57944,0.564359 1.14236,0.240761 2.24652,0.587647 3.34717,0.972583 0.6467,0.135875 1.16164,0.255699 1.8435,0.183206 0.78142,5.09e-4 1.56301,2.58e-4 2.34411,-0.02577 1.50901,-0.05637 3.01512,-0.165004 4.51763,-0.316648 2.26549,-0.21552 4.54158,-0.394666 6.81921,-0.331012 1.68035,0.04833 3.35832,0.139018 5.03336,0.283576 1.58916,0.09454 3.18738,-0.02085 4.77423,-0.112287 1.43105,-0.138398 2.86801,-0.337843 4.22495,-0.835722 5.15847,-2.063387 8.07654,5.231787 2.91807,7.295174 z"
       inkscape:connector-curvature="0" />
    <text
       sodipodi:linespacing="125%"
       id="text5894"
       y="73.867188"
       x="223.45291"
       style="font-style:normal;font-variant:normal;font-weight:normal;font-stretch:normal;font-size:15px;line-height:125%;font-family:'Trebuchet MS';-inkscape-font-specification:'Trebuchet MS';letter-spacing:0px;word-spacing:0px;fill:#000000;fill-opacity:1;stroke:none;stroke-width:1px;stroke-linecap:butt;stroke-linejoin:miter;stroke-opacity:1"
       xml:space="preserve"><tspan
         style="font-size:10px"
         y="73.867188"
         x="223.45291"
         id="tspan5896"
         sodipodi:role="line">This may have list</tspan><tspan
         style="font-size:10px"
         y="86.367188"
         x="223.45291"
         sodipodi:role="line"
         id="tspan5898">tag again!</tspan></text>
    <rect
       y="144.02481"
       x="46.017315"
       height="13.460499"
       width="95.838745"
       id="rect5900"
       style="opacity:0.99959998;fill:#f4d7d7;stroke:#000000;stroke-width:1;stroke-miterlimit:4;stroke-dasharray:none;stroke-opacity:1" />
    <rect
       style="opacity:0.99959998;fill:#f4d7d7;stroke:#000000;stroke-width:1;stroke-miterlimit:4;stroke-dasharray:none;stroke-opacity:1"
       id="rect5902"
       width="95.838745"
       height="13.460499"
       x="145.3558"
       y="144.02481" />
    <rect
       style="opacity:0.99959998;fill:#ffff00;stroke:#000000;stroke-width:1;stroke-miterlimit:4;stroke-dasharray:none;stroke-opacity:1"
       id="rect5904"
       width="4.5664411"
       height="9.3484306"
       x="135.34485"
       y="145.89639" />
    <rect
       style="opacity:0.99959998;fill:#ffff00;stroke:#000000;stroke-width:1;stroke-miterlimit:4;stroke-dasharray:none;stroke-opacity:1"
       id="rect5906"
       width="4.5664411"
       height="9.3484306"
       x="129.54163"
       y="145.86737" />
    <rect
       y="145.89639"
       x="233.8757"
       height="9.3484306"
       width="4.5664411"
       id="rect5908"
       style="opacity:0.99959998;fill:#ffff00;stroke:#000000;stroke-width:1;stroke-miterlimit:4;stroke-dasharray:none;stroke-opacity:1" />
    <rect
       y="145.86737"
       x="228.07248"
       height="9.3484306"
       width="4.5664411"
       id="rect5910"
       style="opacity:0.99959998;fill:#ffff00;stroke:#000000;stroke-width:1;stroke-miterlimit:4;stroke-dasharray:none;stroke-opacity:1" />
    <text
       sodipodi:linespacing="125%"
       id="text5912"
       y="152.96762"
       x="146.63533"
       style="font-style:normal;font-variant:normal;font-weight:normal;font-stretch:normal;font-size:11.30681801px;line-height:125%;font-family:'Trebuchet MS';-inkscape-font-specification:'Trebuchet MS';letter-spacing:0px;word-spacing:0px;fill:#000000;fill-opacity:1;stroke:none;stroke-width:1;stroke-linecap:butt;stroke-linejoin:miter;stroke-miterlimit:4;stroke-dasharray:none;stroke-opacity:1"
       xml:space="preserve"><tspan
         style="font-size:7.53787899px;stroke-width:1;stroke-miterlimit:4;stroke-dasharray:none"
         y="152.96762"
         x="146.63533"
         id="tspan5914"
         sodipodi:role="line">Pointer to another cons</tspan></text>
    <rect
       style="opacity:0.99959998;fill:#f4d7d7;stroke:#000000;stroke-width:0.87651086;stroke-miterlimit:4;stroke-dasharray:none;stroke-opacity:1"
       id="rect5916"
       width="84.0037"
       height="11.798274"
       x="105.53846"
       y="166.46307" />
    <rect
       y="166.46307"
       x="192.60974"
       height="11.798274"
       width="84.0037"
       id="rect5918"
       style="opacity:0.99959998;fill:#f4d7d7;stroke:#000000;stroke-width:0.87651086;stroke-miterlimit:4;stroke-dasharray:none;stroke-opacity:1" />
    <rect
       y="168.10353"
       x="183.83502"
       height="8.1940012"
       width="4.0025353"
       id="rect5920"
       style="opacity:0.99959998;fill:#ffff00;stroke:#000000;stroke-width:0.87651086;stroke-miterlimit:4;stroke-dasharray:none;stroke-opacity:1" />
    <rect
       y="168.07809"
       x="178.74844"
       height="8.1940012"
       width="4.0025353"
       id="rect5922"
       style="opacity:0.99959998;fill:#ffff00;stroke:#000000;stroke-width:0.87651086;stroke-miterlimit:4;stroke-dasharray:none;stroke-opacity:1" />
    <rect
       style="opacity:0.99959998;fill:#ffff00;stroke:#000000;stroke-width:0.87651086;stroke-miterlimit:4;stroke-dasharray:none;stroke-opacity:1"
       id="rect5924"
       width="4.0025353"
       height="8.1940012"
       x="270.19839"
       y="168.10353" />
    <rect
       style="opacity:0.99959998;fill:#ffff00;stroke:#000000;stroke-width:0.87651086;stroke-miterlimit:4;stroke-dasharray:none;stroke-opacity:1"
       id="rect5926"
       width="4.0025353"
       height="8.1940012"
       x="265.11182"
       y="168.07809" />
    <text
       xml:space="preserve"
       style="font-style:normal;font-variant:normal;font-weight:normal;font-stretch:normal;font-size:15px;line-height:125%;font-family:'Trebuchet MS';-inkscape-font-specification:'Trebuchet MS';letter-spacing:0px;word-spacing:0px;fill:#000000;fill-opacity:1;stroke:none;stroke-width:1px;stroke-linecap:butt;stroke-linejoin:miter;stroke-opacity:1"
       x="195.62605"
       y="176.3689"
       id="text5932"
       sodipodi:linespacing="125%"><tspan
         sodipodi:role="line"
         id="tspan5934"
         x="195.62605"
         y="176.3689"
         style="font-size:10px">NIL</tspan></text>
    <path
       style="fill:#ff0000;stroke:none;stroke-width:1;stroke-miterlimit:4;stroke-dasharray:none"
       id="path5938"
       d="m 149.95189,107.402 c -2.02441,0.0853 -3.9964,0.54785 -5.95364,1.03604 -2.25739,0.67484 -4.5172,1.35567 -6.75004,2.11029 -2.33928,0.86505 -4.69848,1.67401 -7.05578,2.48815 -2.374,0.8328 -4.71139,1.76359 -7.0624,2.65769 -1.63424,0.63321 -3.31085,1.15012 -4.97142,1.70962 -1.79398,0.67386 -3.53486,1.47799 -5.29677,2.22937 -1.46723,0.59276 -2.91511,1.22628 -4.3211,1.95303 -1.43677,0.71557 -2.89127,1.3769 -4.2394,2.25314 -1.49247,0.81331 -2.82483,1.85817 -4.14392,2.92057 -1.210494,0.95981 -2.470701,1.85453 -3.667274,2.83176 -1.06589,0.81062 -1.993112,1.77939 -3.003668,2.65482 -0.601904,0.54973 -1.179505,1.1239 -1.781204,1.6736 -0.464752,0.53294 -0.970481,1.02787 -1.480286,1.51724 -0.465511,0.44656 -0.765743,1.01695 -1.121772,1.54559 -0.473888,0.5077 -0.705202,1.14746 -0.992017,1.76527 -0.440918,0.87194 -0.679145,1.81608 -1.000432,2.73375 -0.330465,0.9361 -0.686103,1.86304 -1.030267,2.79433 -0.237583,0.68548 -0.311077,1.40856 -0.469177,2.11393 -0.15625,0.66041 -0.207046,1.33689 -0.237206,2.01271 -0.03643,0.80181 0.133819,0.99141 -1.448368,0.0513 -0.123606,-0.0735 -0.02086,-0.28699 -0.04025,-0.42946 -0.02562,-0.18823 -0.06312,-0.37464 -0.09468,-0.56196 -0.260358,-1.78502 -0.691906,-3.54004 -1.166883,-5.2785 -0.411929,-1.37049 -0.661952,-2.77355 -0.78321,-4.19708 -0.04126,-0.70627 -0.02488,-0.36081 -0.05014,-1.03633 -0.03744,-1.00946 1.390152,-1.0624 1.42759,-0.0529 l 0,0 c 0.02327,0.63323 0.0082,0.31023 0.04605,0.96898 0.112045,1.33741 0.349867,2.6543 0.737921,3.9414 0.486551,1.78614 0.930702,3.58855 1.198235,5.42218 0.03607,0.22311 0.07991,0.4451 0.108222,0.66933 0.02304,0.18246 0.201678,0.45237 0.04572,0.54983 -1.605968,1.00356 -1.430636,0.59062 -1.407313,-0.11116 0.03465,-0.7593 0.09543,-1.51892 0.270379,-2.2609 0.172129,-0.76699 0.249639,-1.55485 0.523217,-2.29675 0.341744,-0.92371 0.694444,-1.84327 1.022175,-2.77187 0.337873,-0.96059 0.591098,-1.94917 1.052764,-2.86249 0.318185,-0.68488 0.588036,-1.39963 1.10619,-1.9666 0.418031,-0.60758 0.765744,-1.26886 1.316685,-1.77572 0.520719,-0.49398 1.024213,-1.00488 1.503639,-1.53905 0.611242,-0.5577 1.197488,-1.14104 1.809226,-1.69851 1.021329,-0.88416 1.957119,-1.86443 3.035684,-2.68174 1.199789,-0.97829 2.460047,-1.87788 3.674557,-2.83767 1.357373,-1.09251 2.729523,-2.16769 4.263253,-3.00689 1.39011,-0.8974 2.87835,-1.59377 4.36063,-2.32347 1.4378,-0.74142 2.91597,-1.3929 4.41616,-1.99776 1.79617,-0.76563 3.57035,-1.58669 5.40092,-2.26904 1.64324,-0.55367 3.30249,-1.06484 4.91978,-1.69112 2.3648,-0.89916 4.71578,-1.83557 7.10383,-2.67271 2.36039,-0.81515 4.7225,-1.62556 7.065,-2.4913 2.26982,-0.76613 4.56613,-1.4602 6.86158,-2.14297 2.02827,-0.50543 4.07263,-0.98087 6.16988,-1.07261 1.006,-0.0915 1.13534,1.33125 0.12934,1.42271 z"
       inkscape:connector-curvature="0" />
    <path
       style="fill:#ff0000;stroke:none;stroke-width:1;stroke-miterlimit:4;stroke-dasharray:none"
       id="path5940"
       d="m 84.304858,147.65294 c 1.163149,-1.8252 2.448942,-3.56198 3.778774,-5.26746 1.073456,-1.27203 2.090444,-2.59713 3.197791,-3.83993 0.673247,-0.7531 1.738279,0.19902 1.065032,0.95211 l 0,0 c -1.090183,1.21485 -2.079258,2.52259 -3.136259,3.76627 -1.308124,1.67756 -2.573209,3.3856 -3.716695,5.18144 -0.560332,0.8405 -1.748975,0.0481 -1.188643,-0.79243 z"
       inkscape:connector-curvature="0" />
    <path
       style="fill:#ff0000;stroke:none;stroke-width:1;stroke-miterlimit:4;stroke-dasharray:none"
       id="path5952"
       d="m 150.0868,156.04711 c -1.00652,0.61829 -1.95142,1.30698 -2.86909,2.04908 -0.53634,0.43338 -0.94137,0.97369 -1.36331,1.50944 -0.29966,0.48555 -0.53,1.00418 -0.81918,1.50052 -0.3744,0.43507 -0.58594,0.95684 -0.82837,1.46868 -0.32078,0.50242 -0.47662,1.05315 -0.56333,1.63589 -0.16959,0.63956 -0.31607,1.28299 -0.50041,1.91842 -0.14445,0.67936 -0.29494,1.35638 -0.44455,2.03517 -0.0708,0.32671 -0.10567,0.65892 -0.13973,0.99088 -0.10455,1.00473 -1.52544,0.85688 -1.4209,-0.14785 l 0,0 c 0.0406,-0.38575 0.0825,-0.77173 0.16571,-1.15127 0.15703,-0.70891 0.31111,-1.41637 0.46747,-2.12496 0.16721,-0.57638 0.29532,-1.16049 0.46046,-1.73768 0.11285,-0.71523 0.29819,-1.40993 0.68486,-2.03148 0.25944,-0.54496 0.48686,-1.11271 0.88499,-1.57591 0.3234,-0.55322 0.56607,-1.14194 0.93314,-1.66742 0.49073,-0.6151 0.96527,-1.23545 1.58504,-1.73339 0.93093,-0.75233 1.88753,-1.45693 2.91006,-2.08098 0.80812,-0.60609 1.66526,0.53677 0.85714,1.14286 z"
       inkscape:connector-curvature="0" />
    <path
       style="fill:#ff0000;stroke:none;stroke-width:1;stroke-miterlimit:4;stroke-dasharray:none"
       id="path5954"
       d="m 141.46774,164.50406 c 0.0756,1.21063 0.21729,2.40627 0.42859,3.59975 0.15108,0.79399 0.20881,1.59958 0.23668,2.40588 0.0994,0.57871 0.1934,0.17394 -0.072,0.0752 -0.36453,-0.13566 -0.20403,0.0609 -0.29252,-0.0558 0.44236,-0.3946 0.71646,-0.92444 1.11024,-1.36994 0.28071,-0.34183 0.57697,-0.66897 0.85871,-1.01045 0.64295,-0.77911 1.74478,0.13017 1.10183,0.90928 l 0,0 c -0.29336,0.3554 -0.60223,0.69532 -0.89396,1.05155 -0.43461,0.48263 -0.71645,1.08286 -1.23224,1.49127 -0.12276,0.0917 -0.22604,0.21804 -0.36827,0.27494 -0.96769,0.38709 -1.57934,-0.44951 -1.63948,-1.31714 -0.025,-0.73921 -0.0763,-1.47785 -0.21564,-2.20571 -0.21752,-1.22879 -0.36507,-2.46039 -0.44337,-3.70662 -0.10051,-1.00514 1.32097,-1.14729 1.42148,-0.14215 z"
       inkscape:connector-curvature="0" />
  </g>
</svg>
